G04 #@! TF.GenerationSoftware,KiCad,Pcbnew,5.1.5+dfsg1-2build2*
G04 #@! TF.CreationDate,2021-12-29T18:44:23+01:00*
G04 #@! TF.ProjectId,hex_led_board,6865785f-6c65-4645-9f62-6f6172642e6b,rev?*
G04 #@! TF.SameCoordinates,Original*
G04 #@! TF.FileFunction,Legend,Bot*
G04 #@! TF.FilePolarity,Positive*
%FSLAX46Y46*%
G04 Gerber Fmt 4.6, Leading zero omitted, Abs format (unit mm)*
G04 Created by KiCad (PCBNEW 5.1.5+dfsg1-2build2) date 2021-12-29 18:44:23*
%MOMM*%
%LPD*%
G04 APERTURE LIST*
%ADD10C,0.100000*%
%ADD11C,0.150000*%
%ADD12C,0.600000*%
%ADD13C,0.300000*%
%ADD14C,0.120000*%
G04 APERTURE END LIST*
D10*
X103695238Y-104561904D02*
X103695238Y-105133333D01*
X103733333Y-105247619D01*
X103809523Y-105323809D01*
X103923809Y-105361904D01*
X104000000Y-105361904D01*
X102933333Y-105361904D02*
X103314285Y-105361904D01*
X103314285Y-104561904D01*
X102209523Y-105285714D02*
X102247619Y-105323809D01*
X102361904Y-105361904D01*
X102438095Y-105361904D01*
X102552380Y-105323809D01*
X102628571Y-105247619D01*
X102666666Y-105171428D01*
X102704761Y-105019047D01*
X102704761Y-104904761D01*
X102666666Y-104752380D01*
X102628571Y-104676190D01*
X102552380Y-104600000D01*
X102438095Y-104561904D01*
X102361904Y-104561904D01*
X102247619Y-104600000D01*
X102209523Y-104638095D01*
X101638095Y-104561904D02*
X101638095Y-105133333D01*
X101676190Y-105247619D01*
X101752380Y-105323809D01*
X101866666Y-105361904D01*
X101942857Y-105361904D01*
X100876190Y-105361904D02*
X101257142Y-105361904D01*
X101257142Y-104561904D01*
X100152380Y-105285714D02*
X100190476Y-105323809D01*
X100304761Y-105361904D01*
X100380952Y-105361904D01*
X100495238Y-105323809D01*
X100571428Y-105247619D01*
X100609523Y-105171428D01*
X100647619Y-105019047D01*
X100647619Y-104904761D01*
X100609523Y-104752380D01*
X100571428Y-104676190D01*
X100495238Y-104600000D01*
X100380952Y-104561904D01*
X100304761Y-104561904D01*
X100190476Y-104600000D01*
X100152380Y-104638095D01*
X99580952Y-104561904D02*
X99580952Y-105133333D01*
X99619047Y-105247619D01*
X99695238Y-105323809D01*
X99809523Y-105361904D01*
X99885714Y-105361904D01*
X98819047Y-105361904D02*
X99200000Y-105361904D01*
X99200000Y-104561904D01*
X98095238Y-105285714D02*
X98133333Y-105323809D01*
X98247619Y-105361904D01*
X98323809Y-105361904D01*
X98438095Y-105323809D01*
X98514285Y-105247619D01*
X98552380Y-105171428D01*
X98590476Y-105019047D01*
X98590476Y-104904761D01*
X98552380Y-104752380D01*
X98514285Y-104676190D01*
X98438095Y-104600000D01*
X98323809Y-104561904D01*
X98247619Y-104561904D01*
X98133333Y-104600000D01*
X98095238Y-104638095D01*
X97523809Y-104561904D02*
X97523809Y-105133333D01*
X97561904Y-105247619D01*
X97638095Y-105323809D01*
X97752380Y-105361904D01*
X97828571Y-105361904D01*
X96761904Y-105361904D02*
X97142857Y-105361904D01*
X97142857Y-104561904D01*
X96038095Y-105285714D02*
X96076190Y-105323809D01*
X96190476Y-105361904D01*
X96266666Y-105361904D01*
X96380952Y-105323809D01*
X96457142Y-105247619D01*
X96495238Y-105171428D01*
X96533333Y-105019047D01*
X96533333Y-104904761D01*
X96495238Y-104752380D01*
X96457142Y-104676190D01*
X96380952Y-104600000D01*
X96266666Y-104561904D01*
X96190476Y-104561904D01*
X96076190Y-104600000D01*
X96038095Y-104638095D01*
D11*
X73359523Y-99511904D02*
X73359523Y-98459523D01*
X73421428Y-98335714D01*
X73483333Y-98273809D01*
X73607142Y-98211904D01*
X73854761Y-98211904D01*
X73978571Y-98273809D01*
X74040476Y-98335714D01*
X74102380Y-98459523D01*
X74102380Y-99511904D01*
X74659523Y-98273809D02*
X74845238Y-98211904D01*
X75154761Y-98211904D01*
X75278571Y-98273809D01*
X75340476Y-98335714D01*
X75402380Y-98459523D01*
X75402380Y-98583333D01*
X75340476Y-98707142D01*
X75278571Y-98769047D01*
X75154761Y-98830952D01*
X74907142Y-98892857D01*
X74783333Y-98954761D01*
X74721428Y-99016666D01*
X74659523Y-99140476D01*
X74659523Y-99264285D01*
X74721428Y-99388095D01*
X74783333Y-99450000D01*
X74907142Y-99511904D01*
X75216666Y-99511904D01*
X75402380Y-99450000D01*
X76392857Y-98892857D02*
X76578571Y-98830952D01*
X76640476Y-98769047D01*
X76702380Y-98645238D01*
X76702380Y-98459523D01*
X76640476Y-98335714D01*
X76578571Y-98273809D01*
X76454761Y-98211904D01*
X75959523Y-98211904D01*
X75959523Y-99511904D01*
X76392857Y-99511904D01*
X76516666Y-99450000D01*
X76578571Y-99388095D01*
X76640476Y-99264285D01*
X76640476Y-99140476D01*
X76578571Y-99016666D01*
X76516666Y-98954761D01*
X76392857Y-98892857D01*
X75959523Y-98892857D01*
X76640476Y-100488095D02*
X76640476Y-101540476D01*
X76578571Y-101664285D01*
X76516666Y-101726190D01*
X76392857Y-101788095D01*
X76145238Y-101788095D01*
X76021428Y-101726190D01*
X75959523Y-101664285D01*
X75897619Y-101540476D01*
X75897619Y-100488095D01*
X75340476Y-101726190D02*
X75154761Y-101788095D01*
X74845238Y-101788095D01*
X74721428Y-101726190D01*
X74659523Y-101664285D01*
X74597619Y-101540476D01*
X74597619Y-101416666D01*
X74659523Y-101292857D01*
X74721428Y-101230952D01*
X74845238Y-101169047D01*
X75092857Y-101107142D01*
X75216666Y-101045238D01*
X75278571Y-100983333D01*
X75340476Y-100859523D01*
X75340476Y-100735714D01*
X75278571Y-100611904D01*
X75216666Y-100550000D01*
X75092857Y-100488095D01*
X74783333Y-100488095D01*
X74597619Y-100550000D01*
X73607142Y-101107142D02*
X73421428Y-101169047D01*
X73359523Y-101230952D01*
X73297619Y-101354761D01*
X73297619Y-101540476D01*
X73359523Y-101664285D01*
X73421428Y-101726190D01*
X73545238Y-101788095D01*
X74040476Y-101788095D01*
X74040476Y-100488095D01*
X73607142Y-100488095D01*
X73483333Y-100550000D01*
X73421428Y-100611904D01*
X73359523Y-100735714D01*
X73359523Y-100859523D01*
X73421428Y-100983333D01*
X73483333Y-101045238D01*
X73607142Y-101107142D01*
X74040476Y-101107142D01*
D12*
X72600000Y-99600000D02*
X70400000Y-100000000D01*
X72600000Y-100600000D02*
X70400000Y-100000000D01*
X72600000Y-101000000D02*
X70400000Y-100000000D01*
X72600000Y-99000000D02*
X72600000Y-101000000D01*
X70400000Y-100000000D02*
X72600000Y-99000000D01*
X70400000Y-100000000D02*
X77200000Y-100000000D01*
D11*
X109523809Y-97977380D02*
X110000000Y-97977380D01*
X110000000Y-96977380D01*
X109238095Y-97691666D02*
X108761904Y-97691666D01*
X109333333Y-97977380D02*
X109000000Y-96977380D01*
X108666666Y-97977380D01*
X109190476Y-96644047D02*
X109142857Y-96691666D01*
X109190476Y-96739285D01*
X109238095Y-96691666D01*
X109190476Y-96644047D01*
X109190476Y-96739285D01*
X108809523Y-96644047D02*
X108761904Y-96691666D01*
X108809523Y-96739285D01*
X108857142Y-96691666D01*
X108809523Y-96644047D01*
X108809523Y-96739285D01*
X108333333Y-97977380D02*
X108333333Y-96977380D01*
X108000000Y-97691666D01*
X107666666Y-96977380D01*
X107666666Y-97977380D01*
X107190476Y-97977380D02*
X107190476Y-96977380D01*
X106809523Y-96977380D01*
X106714285Y-97025000D01*
X106666666Y-97072619D01*
X106619047Y-97167857D01*
X106619047Y-97310714D01*
X106666666Y-97405952D01*
X106714285Y-97453571D01*
X106809523Y-97501190D01*
X107190476Y-97501190D01*
X104952380Y-97977380D02*
X105428571Y-97977380D01*
X105428571Y-96977380D01*
X104619047Y-97453571D02*
X104285714Y-97453571D01*
X104142857Y-97977380D02*
X104619047Y-97977380D01*
X104619047Y-96977380D01*
X104142857Y-96977380D01*
X103714285Y-97977380D02*
X103714285Y-96977380D01*
X103476190Y-96977380D01*
X103333333Y-97025000D01*
X103238095Y-97120238D01*
X103190476Y-97215476D01*
X103142857Y-97405952D01*
X103142857Y-97548809D01*
X103190476Y-97739285D01*
X103238095Y-97834523D01*
X103333333Y-97929761D01*
X103476190Y-97977380D01*
X103714285Y-97977380D01*
X102714285Y-97596428D02*
X101952380Y-97596428D01*
X101476190Y-97977380D02*
X101476190Y-96977380D01*
X101047619Y-97977380D02*
X101047619Y-97453571D01*
X101095238Y-97358333D01*
X101190476Y-97310714D01*
X101333333Y-97310714D01*
X101428571Y-97358333D01*
X101476190Y-97405952D01*
X100190476Y-97929761D02*
X100285714Y-97977380D01*
X100476190Y-97977380D01*
X100571428Y-97929761D01*
X100619047Y-97834523D01*
X100619047Y-97453571D01*
X100571428Y-97358333D01*
X100476190Y-97310714D01*
X100285714Y-97310714D01*
X100190476Y-97358333D01*
X100142857Y-97453571D01*
X100142857Y-97548809D01*
X100619047Y-97644047D01*
X99809523Y-97977380D02*
X99285714Y-97310714D01*
X99809523Y-97310714D02*
X99285714Y-97977380D01*
X98904761Y-97596428D02*
X98142857Y-97596428D01*
X97666666Y-97977380D02*
X97666666Y-96977380D01*
X97666666Y-97358333D02*
X97571428Y-97310714D01*
X97380952Y-97310714D01*
X97285714Y-97358333D01*
X97238095Y-97405952D01*
X97190476Y-97501190D01*
X97190476Y-97786904D01*
X97238095Y-97882142D01*
X97285714Y-97929761D01*
X97380952Y-97977380D01*
X97571428Y-97977380D01*
X97666666Y-97929761D01*
X96619047Y-97977380D02*
X96714285Y-97929761D01*
X96761904Y-97882142D01*
X96809523Y-97786904D01*
X96809523Y-97501190D01*
X96761904Y-97405952D01*
X96714285Y-97358333D01*
X96619047Y-97310714D01*
X96476190Y-97310714D01*
X96380952Y-97358333D01*
X96333333Y-97405952D01*
X96285714Y-97501190D01*
X96285714Y-97786904D01*
X96333333Y-97882142D01*
X96380952Y-97929761D01*
X96476190Y-97977380D01*
X96619047Y-97977380D01*
X95428571Y-97977380D02*
X95428571Y-97453571D01*
X95476190Y-97358333D01*
X95571428Y-97310714D01*
X95761904Y-97310714D01*
X95857142Y-97358333D01*
X95428571Y-97929761D02*
X95523809Y-97977380D01*
X95761904Y-97977380D01*
X95857142Y-97929761D01*
X95904761Y-97834523D01*
X95904761Y-97739285D01*
X95857142Y-97644047D01*
X95761904Y-97596428D01*
X95523809Y-97596428D01*
X95428571Y-97548809D01*
X94952380Y-97977380D02*
X94952380Y-97310714D01*
X94952380Y-97501190D02*
X94904761Y-97405952D01*
X94857142Y-97358333D01*
X94761904Y-97310714D01*
X94666666Y-97310714D01*
X93904761Y-97977380D02*
X93904761Y-96977380D01*
X93904761Y-97929761D02*
X94000000Y-97977380D01*
X94190476Y-97977380D01*
X94285714Y-97929761D01*
X94333333Y-97882142D01*
X94380952Y-97786904D01*
X94380952Y-97501190D01*
X94333333Y-97405952D01*
X94285714Y-97358333D01*
X94190476Y-97310714D01*
X94000000Y-97310714D01*
X93904761Y-97358333D01*
X92761904Y-97310714D02*
X92523809Y-97977380D01*
X92285714Y-97310714D01*
X91380952Y-97977380D02*
X91952380Y-97977380D01*
X91666666Y-97977380D02*
X91666666Y-96977380D01*
X91761904Y-97120238D01*
X91857142Y-97215476D01*
X91952380Y-97263095D01*
X90952380Y-97882142D02*
X90904761Y-97929761D01*
X90952380Y-97977380D01*
X91000000Y-97929761D01*
X90952380Y-97882142D01*
X90952380Y-97977380D01*
X90285714Y-96977380D02*
X90190476Y-96977380D01*
X90095238Y-97025000D01*
X90047619Y-97072619D01*
X90000000Y-97167857D01*
X89952380Y-97358333D01*
X89952380Y-97596428D01*
X90000000Y-97786904D01*
X90047619Y-97882142D01*
X90095238Y-97929761D01*
X90190476Y-97977380D01*
X90285714Y-97977380D01*
X90380952Y-97929761D01*
X90428571Y-97882142D01*
X90476190Y-97786904D01*
X90523809Y-97596428D01*
X90523809Y-97358333D01*
X90476190Y-97167857D01*
X90428571Y-97072619D01*
X90380952Y-97025000D01*
X90285714Y-96977380D01*
X108642857Y-99627380D02*
X108642857Y-98627380D01*
X108642857Y-99008333D02*
X108547619Y-98960714D01*
X108357142Y-98960714D01*
X108261904Y-99008333D01*
X108214285Y-99055952D01*
X108166666Y-99151190D01*
X108166666Y-99436904D01*
X108214285Y-99532142D01*
X108261904Y-99579761D01*
X108357142Y-99627380D01*
X108547619Y-99627380D01*
X108642857Y-99579761D01*
X107833333Y-98960714D02*
X107595238Y-99627380D01*
X107357142Y-98960714D02*
X107595238Y-99627380D01*
X107690476Y-99865476D01*
X107738095Y-99913095D01*
X107833333Y-99960714D01*
X105928571Y-98627380D02*
X105928571Y-99341666D01*
X105976190Y-99484523D01*
X106071428Y-99579761D01*
X106214285Y-99627380D01*
X106309523Y-99627380D01*
X105023809Y-99627380D02*
X105023809Y-99103571D01*
X105071428Y-99008333D01*
X105166666Y-98960714D01*
X105357142Y-98960714D01*
X105452380Y-99008333D01*
X105023809Y-99579761D02*
X105119047Y-99627380D01*
X105357142Y-99627380D01*
X105452380Y-99579761D01*
X105500000Y-99484523D01*
X105500000Y-99389285D01*
X105452380Y-99294047D01*
X105357142Y-99246428D01*
X105119047Y-99246428D01*
X105023809Y-99198809D01*
X104547619Y-98960714D02*
X104547619Y-99627380D01*
X104547619Y-99055952D02*
X104500000Y-99008333D01*
X104404761Y-98960714D01*
X104261904Y-98960714D01*
X104166666Y-99008333D01*
X104119047Y-99103571D01*
X104119047Y-99627380D01*
X103214285Y-99627380D02*
X103214285Y-99103571D01*
X103261904Y-99008333D01*
X103357142Y-98960714D01*
X103547619Y-98960714D01*
X103642857Y-99008333D01*
X103214285Y-99579761D02*
X103309523Y-99627380D01*
X103547619Y-99627380D01*
X103642857Y-99579761D01*
X103690476Y-99484523D01*
X103690476Y-99389285D01*
X103642857Y-99294047D01*
X103547619Y-99246428D01*
X103309523Y-99246428D01*
X103214285Y-99198809D01*
X101976190Y-99627380D02*
X101976190Y-98627380D01*
X101642857Y-99341666D01*
X101309523Y-98627380D01*
X101309523Y-99627380D01*
X100404761Y-99627380D02*
X100404761Y-99103571D01*
X100452380Y-99008333D01*
X100547619Y-98960714D01*
X100738095Y-98960714D01*
X100833333Y-99008333D01*
X100404761Y-99579761D02*
X100500000Y-99627380D01*
X100738095Y-99627380D01*
X100833333Y-99579761D01*
X100880952Y-99484523D01*
X100880952Y-99389285D01*
X100833333Y-99294047D01*
X100738095Y-99246428D01*
X100500000Y-99246428D01*
X100404761Y-99198809D01*
X99928571Y-99627380D02*
X99928571Y-98960714D01*
X99928571Y-99151190D02*
X99880952Y-99055952D01*
X99833333Y-99008333D01*
X99738095Y-98960714D01*
X99642857Y-98960714D01*
X99309523Y-99627380D02*
X99309523Y-98960714D01*
X99309523Y-98627380D02*
X99357142Y-98675000D01*
X99309523Y-98722619D01*
X99261904Y-98675000D01*
X99309523Y-98627380D01*
X99309523Y-98722619D01*
X98452380Y-99579761D02*
X98547619Y-99627380D01*
X98738095Y-99627380D01*
X98833333Y-99579761D01*
X98880952Y-99484523D01*
X98880952Y-99103571D01*
X98833333Y-99008333D01*
X98738095Y-98960714D01*
X98547619Y-98960714D01*
X98452380Y-99008333D01*
X98404761Y-99103571D01*
X98404761Y-99198809D01*
X98880952Y-99294047D01*
X97214285Y-99627380D02*
X97214285Y-98627380D01*
X97214285Y-99103571D02*
X96642857Y-99103571D01*
X96642857Y-99627380D02*
X96642857Y-98627380D01*
X95785714Y-99579761D02*
X95880952Y-99627380D01*
X96071428Y-99627380D01*
X96166666Y-99579761D01*
X96214285Y-99484523D01*
X96214285Y-99103571D01*
X96166666Y-99008333D01*
X96071428Y-98960714D01*
X95880952Y-98960714D01*
X95785714Y-99008333D01*
X95738095Y-99103571D01*
X95738095Y-99198809D01*
X96214285Y-99294047D01*
X95309523Y-99627380D02*
X95309523Y-98960714D01*
X95309523Y-99055952D02*
X95261904Y-99008333D01*
X95166666Y-98960714D01*
X95023809Y-98960714D01*
X94928571Y-99008333D01*
X94880952Y-99103571D01*
X94880952Y-99627380D01*
X94880952Y-99103571D02*
X94833333Y-99008333D01*
X94738095Y-98960714D01*
X94595238Y-98960714D01*
X94500000Y-99008333D01*
X94452380Y-99103571D01*
X94452380Y-99627380D01*
X94023809Y-99579761D02*
X93928571Y-99627380D01*
X93738095Y-99627380D01*
X93642857Y-99579761D01*
X93595238Y-99484523D01*
X93595238Y-99436904D01*
X93642857Y-99341666D01*
X93738095Y-99294047D01*
X93880952Y-99294047D01*
X93976190Y-99246428D01*
X94023809Y-99151190D01*
X94023809Y-99103571D01*
X93976190Y-99008333D01*
X93880952Y-98960714D01*
X93738095Y-98960714D01*
X93642857Y-99008333D01*
X93166666Y-99627380D02*
X93166666Y-98960714D01*
X93166666Y-98627380D02*
X93214285Y-98675000D01*
X93166666Y-98722619D01*
X93119047Y-98675000D01*
X93166666Y-98627380D01*
X93166666Y-98722619D01*
X92690476Y-98960714D02*
X92690476Y-99627380D01*
X92690476Y-99055952D02*
X92642857Y-99008333D01*
X92547619Y-98960714D01*
X92404761Y-98960714D01*
X92309523Y-99008333D01*
X92261904Y-99103571D01*
X92261904Y-99627380D01*
X91357142Y-98960714D02*
X91357142Y-99770238D01*
X91404761Y-99865476D01*
X91452380Y-99913095D01*
X91547619Y-99960714D01*
X91690476Y-99960714D01*
X91785714Y-99913095D01*
X91357142Y-99579761D02*
X91452380Y-99627380D01*
X91642857Y-99627380D01*
X91738095Y-99579761D01*
X91785714Y-99532142D01*
X91833333Y-99436904D01*
X91833333Y-99151190D01*
X91785714Y-99055952D01*
X91738095Y-99008333D01*
X91642857Y-98960714D01*
X91452380Y-98960714D01*
X91357142Y-99008333D01*
X106571428Y-100801190D02*
X106619047Y-100753571D01*
X106714285Y-100705952D01*
X106809523Y-100705952D01*
X106904761Y-100753571D01*
X106952380Y-100801190D01*
X107000000Y-100896428D01*
X107000000Y-100991666D01*
X106952380Y-101086904D01*
X106904761Y-101134523D01*
X106809523Y-101182142D01*
X106714285Y-101182142D01*
X106619047Y-101134523D01*
X106571428Y-101086904D01*
X106571428Y-100705952D02*
X106571428Y-101086904D01*
X106523809Y-101134523D01*
X106476190Y-101134523D01*
X106380952Y-101086904D01*
X106333333Y-100991666D01*
X106333333Y-100753571D01*
X106428571Y-100610714D01*
X106571428Y-100515476D01*
X106761904Y-100467857D01*
X106952380Y-100515476D01*
X107095238Y-100610714D01*
X107190476Y-100753571D01*
X107238095Y-100944047D01*
X107190476Y-101134523D01*
X107095238Y-101277380D01*
X106952380Y-101372619D01*
X106761904Y-101420238D01*
X106571428Y-101372619D01*
X106428571Y-101277380D01*
X106142857Y-101372619D02*
X105380952Y-101372619D01*
X104857142Y-100277380D02*
X104857142Y-100991666D01*
X104904761Y-101134523D01*
X105000000Y-101229761D01*
X105142857Y-101277380D01*
X105238095Y-101277380D01*
X103952380Y-101277380D02*
X103952380Y-100753571D01*
X104000000Y-100658333D01*
X104095238Y-100610714D01*
X104285714Y-100610714D01*
X104380952Y-100658333D01*
X103952380Y-101229761D02*
X104047619Y-101277380D01*
X104285714Y-101277380D01*
X104380952Y-101229761D01*
X104428571Y-101134523D01*
X104428571Y-101039285D01*
X104380952Y-100944047D01*
X104285714Y-100896428D01*
X104047619Y-100896428D01*
X103952380Y-100848809D01*
X103476190Y-100610714D02*
X103476190Y-101277380D01*
X103476190Y-100705952D02*
X103428571Y-100658333D01*
X103333333Y-100610714D01*
X103190476Y-100610714D01*
X103095238Y-100658333D01*
X103047619Y-100753571D01*
X103047619Y-101277380D01*
X102142857Y-101277380D02*
X102142857Y-100753571D01*
X102190476Y-100658333D01*
X102285714Y-100610714D01*
X102476190Y-100610714D01*
X102571428Y-100658333D01*
X102142857Y-101229761D02*
X102238095Y-101277380D01*
X102476190Y-101277380D01*
X102571428Y-101229761D01*
X102619047Y-101134523D01*
X102619047Y-101039285D01*
X102571428Y-100944047D01*
X102476190Y-100896428D01*
X102238095Y-100896428D01*
X102142857Y-100848809D01*
X101904761Y-101372619D02*
X101142857Y-101372619D01*
X100904761Y-101277380D02*
X100904761Y-100277380D01*
X100571428Y-100991666D01*
X100238095Y-100277380D01*
X100238095Y-101277380D01*
X99333333Y-101277380D02*
X99333333Y-100753571D01*
X99380952Y-100658333D01*
X99476190Y-100610714D01*
X99666666Y-100610714D01*
X99761904Y-100658333D01*
X99333333Y-101229761D02*
X99428571Y-101277380D01*
X99666666Y-101277380D01*
X99761904Y-101229761D01*
X99809523Y-101134523D01*
X99809523Y-101039285D01*
X99761904Y-100944047D01*
X99666666Y-100896428D01*
X99428571Y-100896428D01*
X99333333Y-100848809D01*
X98857142Y-101277380D02*
X98857142Y-100610714D01*
X98857142Y-100801190D02*
X98809523Y-100705952D01*
X98761904Y-100658333D01*
X98666666Y-100610714D01*
X98571428Y-100610714D01*
X98238095Y-101277380D02*
X98238095Y-100610714D01*
X98238095Y-100277380D02*
X98285714Y-100325000D01*
X98238095Y-100372619D01*
X98190476Y-100325000D01*
X98238095Y-100277380D01*
X98238095Y-100372619D01*
X97380952Y-101229761D02*
X97476190Y-101277380D01*
X97666666Y-101277380D01*
X97761904Y-101229761D01*
X97809523Y-101134523D01*
X97809523Y-100753571D01*
X97761904Y-100658333D01*
X97666666Y-100610714D01*
X97476190Y-100610714D01*
X97380952Y-100658333D01*
X97333333Y-100753571D01*
X97333333Y-100848809D01*
X97809523Y-100944047D01*
X96190476Y-100372619D02*
X96142857Y-100325000D01*
X96047619Y-100277380D01*
X95809523Y-100277380D01*
X95714285Y-100325000D01*
X95666666Y-100372619D01*
X95619047Y-100467857D01*
X95619047Y-100563095D01*
X95666666Y-100705952D01*
X96238095Y-101277380D01*
X95619047Y-101277380D01*
X95000000Y-100277380D02*
X94904761Y-100277380D01*
X94809523Y-100325000D01*
X94761904Y-100372619D01*
X94714285Y-100467857D01*
X94666666Y-100658333D01*
X94666666Y-100896428D01*
X94714285Y-101086904D01*
X94761904Y-101182142D01*
X94809523Y-101229761D01*
X94904761Y-101277380D01*
X95000000Y-101277380D01*
X95095238Y-101229761D01*
X95142857Y-101182142D01*
X95190476Y-101086904D01*
X95238095Y-100896428D01*
X95238095Y-100658333D01*
X95190476Y-100467857D01*
X95142857Y-100372619D01*
X95095238Y-100325000D01*
X95000000Y-100277380D01*
X94285714Y-100372619D02*
X94238095Y-100325000D01*
X94142857Y-100277380D01*
X93904761Y-100277380D01*
X93809523Y-100325000D01*
X93761904Y-100372619D01*
X93714285Y-100467857D01*
X93714285Y-100563095D01*
X93761904Y-100705952D01*
X94333333Y-101277380D01*
X93714285Y-101277380D01*
X92761904Y-101277380D02*
X93333333Y-101277380D01*
X93047619Y-101277380D02*
X93047619Y-100277380D01*
X93142857Y-100420238D01*
X93238095Y-100515476D01*
X93333333Y-100563095D01*
X111119047Y-102260714D02*
X111119047Y-103070238D01*
X111166666Y-103165476D01*
X111214285Y-103213095D01*
X111309523Y-103260714D01*
X111452380Y-103260714D01*
X111547619Y-103213095D01*
X111119047Y-102879761D02*
X111214285Y-102927380D01*
X111404761Y-102927380D01*
X111500000Y-102879761D01*
X111547619Y-102832142D01*
X111595238Y-102736904D01*
X111595238Y-102451190D01*
X111547619Y-102355952D01*
X111500000Y-102308333D01*
X111404761Y-102260714D01*
X111214285Y-102260714D01*
X111119047Y-102308333D01*
X110642857Y-102927380D02*
X110642857Y-102260714D01*
X110642857Y-101927380D02*
X110690476Y-101975000D01*
X110642857Y-102022619D01*
X110595238Y-101975000D01*
X110642857Y-101927380D01*
X110642857Y-102022619D01*
X110309523Y-102260714D02*
X109928571Y-102260714D01*
X110166666Y-101927380D02*
X110166666Y-102784523D01*
X110119047Y-102879761D01*
X110023809Y-102927380D01*
X109928571Y-102927380D01*
X109595238Y-102927380D02*
X109595238Y-101927380D01*
X109166666Y-102927380D02*
X109166666Y-102403571D01*
X109214285Y-102308333D01*
X109309523Y-102260714D01*
X109452380Y-102260714D01*
X109547619Y-102308333D01*
X109595238Y-102355952D01*
X108261904Y-102260714D02*
X108261904Y-102927380D01*
X108690476Y-102260714D02*
X108690476Y-102784523D01*
X108642857Y-102879761D01*
X108547619Y-102927380D01*
X108404761Y-102927380D01*
X108309523Y-102879761D01*
X108261904Y-102832142D01*
X107785714Y-102927380D02*
X107785714Y-101927380D01*
X107785714Y-102308333D02*
X107690476Y-102260714D01*
X107500000Y-102260714D01*
X107404761Y-102308333D01*
X107357142Y-102355952D01*
X107309523Y-102451190D01*
X107309523Y-102736904D01*
X107357142Y-102832142D01*
X107404761Y-102879761D01*
X107500000Y-102927380D01*
X107690476Y-102927380D01*
X107785714Y-102879761D01*
X106880952Y-102832142D02*
X106833333Y-102879761D01*
X106880952Y-102927380D01*
X106928571Y-102879761D01*
X106880952Y-102832142D01*
X106880952Y-102927380D01*
X105976190Y-102879761D02*
X106071428Y-102927380D01*
X106261904Y-102927380D01*
X106357142Y-102879761D01*
X106404761Y-102832142D01*
X106452380Y-102736904D01*
X106452380Y-102451190D01*
X106404761Y-102355952D01*
X106357142Y-102308333D01*
X106261904Y-102260714D01*
X106071428Y-102260714D01*
X105976190Y-102308333D01*
X105404761Y-102927380D02*
X105500000Y-102879761D01*
X105547619Y-102832142D01*
X105595238Y-102736904D01*
X105595238Y-102451190D01*
X105547619Y-102355952D01*
X105500000Y-102308333D01*
X105404761Y-102260714D01*
X105261904Y-102260714D01*
X105166666Y-102308333D01*
X105119047Y-102355952D01*
X105071428Y-102451190D01*
X105071428Y-102736904D01*
X105119047Y-102832142D01*
X105166666Y-102879761D01*
X105261904Y-102927380D01*
X105404761Y-102927380D01*
X104642857Y-102927380D02*
X104642857Y-102260714D01*
X104642857Y-102355952D02*
X104595238Y-102308333D01*
X104500000Y-102260714D01*
X104357142Y-102260714D01*
X104261904Y-102308333D01*
X104214285Y-102403571D01*
X104214285Y-102927380D01*
X104214285Y-102403571D02*
X104166666Y-102308333D01*
X104071428Y-102260714D01*
X103928571Y-102260714D01*
X103833333Y-102308333D01*
X103785714Y-102403571D01*
X103785714Y-102927380D01*
X102595238Y-101879761D02*
X103452380Y-103165476D01*
X101976190Y-101927380D02*
X101976190Y-102641666D01*
X102023809Y-102784523D01*
X102119047Y-102879761D01*
X102261904Y-102927380D01*
X102357142Y-102927380D01*
X101071428Y-102927380D02*
X101071428Y-102403571D01*
X101119047Y-102308333D01*
X101214285Y-102260714D01*
X101404761Y-102260714D01*
X101500000Y-102308333D01*
X101071428Y-102879761D02*
X101166666Y-102927380D01*
X101404761Y-102927380D01*
X101500000Y-102879761D01*
X101547619Y-102784523D01*
X101547619Y-102689285D01*
X101500000Y-102594047D01*
X101404761Y-102546428D01*
X101166666Y-102546428D01*
X101071428Y-102498809D01*
X100595238Y-102260714D02*
X100595238Y-102927380D01*
X100595238Y-102355952D02*
X100547619Y-102308333D01*
X100452380Y-102260714D01*
X100309523Y-102260714D01*
X100214285Y-102308333D01*
X100166666Y-102403571D01*
X100166666Y-102927380D01*
X99261904Y-102927380D02*
X99261904Y-102403571D01*
X99309523Y-102308333D01*
X99404761Y-102260714D01*
X99595238Y-102260714D01*
X99690476Y-102308333D01*
X99261904Y-102879761D02*
X99357142Y-102927380D01*
X99595238Y-102927380D01*
X99690476Y-102879761D01*
X99738095Y-102784523D01*
X99738095Y-102689285D01*
X99690476Y-102594047D01*
X99595238Y-102546428D01*
X99357142Y-102546428D01*
X99261904Y-102498809D01*
X98785714Y-102546428D02*
X98023809Y-102546428D01*
X97547619Y-102927380D02*
X97547619Y-101927380D01*
X97214285Y-102641666D01*
X96880952Y-101927380D01*
X96880952Y-102927380D01*
X95976190Y-102927380D02*
X95976190Y-102403571D01*
X96023809Y-102308333D01*
X96119047Y-102260714D01*
X96309523Y-102260714D01*
X96404761Y-102308333D01*
X95976190Y-102879761D02*
X96071428Y-102927380D01*
X96309523Y-102927380D01*
X96404761Y-102879761D01*
X96452380Y-102784523D01*
X96452380Y-102689285D01*
X96404761Y-102594047D01*
X96309523Y-102546428D01*
X96071428Y-102546428D01*
X95976190Y-102498809D01*
X95500000Y-102927380D02*
X95500000Y-102260714D01*
X95500000Y-102451190D02*
X95452380Y-102355952D01*
X95404761Y-102308333D01*
X95309523Y-102260714D01*
X95214285Y-102260714D01*
X94880952Y-102927380D02*
X94880952Y-102260714D01*
X94880952Y-101927380D02*
X94928571Y-101975000D01*
X94880952Y-102022619D01*
X94833333Y-101975000D01*
X94880952Y-101927380D01*
X94880952Y-102022619D01*
X94023809Y-102879761D02*
X94119047Y-102927380D01*
X94309523Y-102927380D01*
X94404761Y-102879761D01*
X94452380Y-102784523D01*
X94452380Y-102403571D01*
X94404761Y-102308333D01*
X94309523Y-102260714D01*
X94119047Y-102260714D01*
X94023809Y-102308333D01*
X93976190Y-102403571D01*
X93976190Y-102498809D01*
X94452380Y-102594047D01*
X92833333Y-101879761D02*
X93690476Y-103165476D01*
X92357142Y-102927380D02*
X92452380Y-102879761D01*
X92500000Y-102784523D01*
X92500000Y-101927380D01*
X91547619Y-102927380D02*
X91547619Y-102403571D01*
X91595238Y-102308333D01*
X91690476Y-102260714D01*
X91880952Y-102260714D01*
X91976190Y-102308333D01*
X91547619Y-102879761D02*
X91642857Y-102927380D01*
X91880952Y-102927380D01*
X91976190Y-102879761D01*
X92023809Y-102784523D01*
X92023809Y-102689285D01*
X91976190Y-102594047D01*
X91880952Y-102546428D01*
X91642857Y-102546428D01*
X91547619Y-102498809D01*
X90690476Y-102879761D02*
X90785714Y-102927380D01*
X90976190Y-102927380D01*
X91071428Y-102879761D01*
X91119047Y-102784523D01*
X91119047Y-102403571D01*
X91071428Y-102308333D01*
X90976190Y-102260714D01*
X90785714Y-102260714D01*
X90690476Y-102308333D01*
X90642857Y-102403571D01*
X90642857Y-102498809D01*
X91119047Y-102594047D01*
X90214285Y-102927380D02*
X90214285Y-102260714D01*
X90214285Y-102355952D02*
X90166666Y-102308333D01*
X90071428Y-102260714D01*
X89928571Y-102260714D01*
X89833333Y-102308333D01*
X89785714Y-102403571D01*
X89785714Y-102927380D01*
X89785714Y-102403571D02*
X89738095Y-102308333D01*
X89642857Y-102260714D01*
X89500000Y-102260714D01*
X89404761Y-102308333D01*
X89357142Y-102403571D01*
X89357142Y-102927380D01*
X88880952Y-102260714D02*
X88880952Y-103260714D01*
X88880952Y-102308333D02*
X88785714Y-102260714D01*
X88595238Y-102260714D01*
X88500000Y-102308333D01*
X88452380Y-102355952D01*
X88404761Y-102451190D01*
X88404761Y-102736904D01*
X88452380Y-102832142D01*
X88500000Y-102879761D01*
X88595238Y-102927380D01*
X88785714Y-102927380D01*
X88880952Y-102879761D01*
D13*
X103571428Y-93857142D02*
X105000000Y-93857142D01*
X105000000Y-90857142D01*
X102714285Y-93000000D02*
X101285714Y-93000000D01*
X103000000Y-93857142D02*
X102000000Y-90857142D01*
X101000000Y-93857142D01*
X102571428Y-89857142D02*
X102428571Y-90000000D01*
X102571428Y-90142857D01*
X102714285Y-90000000D01*
X102571428Y-89857142D01*
X102571428Y-90142857D01*
X101428571Y-89857142D02*
X101285714Y-90000000D01*
X101428571Y-90142857D01*
X101571428Y-90000000D01*
X101428571Y-89857142D01*
X101428571Y-90142857D01*
X100000000Y-93857142D02*
X100000000Y-90857142D01*
X99000000Y-93000000D01*
X98000000Y-90857142D01*
X98000000Y-93857142D01*
X96571428Y-93857142D02*
X96571428Y-90857142D01*
X95428571Y-90857142D01*
X95142857Y-91000000D01*
X95000000Y-91142857D01*
X94857142Y-91428571D01*
X94857142Y-91857142D01*
X95000000Y-92142857D01*
X95142857Y-92285714D01*
X95428571Y-92428571D01*
X96571428Y-92428571D01*
D14*
X102030000Y-123670000D02*
X105140000Y-123670000D01*
X96950000Y-123670000D02*
X100510000Y-123670000D01*
X99490000Y-126330000D02*
X103050000Y-126330000D01*
X104570000Y-126330000D02*
X105140000Y-126330000D01*
X94860000Y-123670000D02*
X95430000Y-123670000D01*
X95430000Y-123670000D02*
X95430000Y-122150000D01*
X94860000Y-126330000D02*
X97970000Y-126330000D01*
X105140000Y-123670000D02*
X105140000Y-126330000D01*
X94860000Y-123670000D02*
X94860000Y-126330000D01*
X97970000Y-77330000D02*
X94860000Y-77330000D01*
X103050000Y-77330000D02*
X99490000Y-77330000D01*
X100510000Y-74670000D02*
X96950000Y-74670000D01*
X95430000Y-74670000D02*
X94860000Y-74670000D01*
X105140000Y-77330000D02*
X104570000Y-77330000D01*
X104570000Y-77330000D02*
X104570000Y-78850000D01*
X105140000Y-74670000D02*
X102030000Y-74670000D01*
X94860000Y-77330000D02*
X94860000Y-74670000D01*
X105140000Y-77330000D02*
X105140000Y-74670000D01*
D11*
X93312380Y-124666666D02*
X94026666Y-124666666D01*
X94169523Y-124619047D01*
X94264761Y-124523809D01*
X94312380Y-124380952D01*
X94312380Y-124285714D01*
X93407619Y-125095238D02*
X93360000Y-125142857D01*
X93312380Y-125238095D01*
X93312380Y-125476190D01*
X93360000Y-125571428D01*
X93407619Y-125619047D01*
X93502857Y-125666666D01*
X93598095Y-125666666D01*
X93740952Y-125619047D01*
X94312380Y-125047619D01*
X94312380Y-125666666D01*
X105592380Y-75666666D02*
X106306666Y-75666666D01*
X106449523Y-75619047D01*
X106544761Y-75523809D01*
X106592380Y-75380952D01*
X106592380Y-75285714D01*
X106592380Y-76666666D02*
X106592380Y-76095238D01*
X106592380Y-76380952D02*
X105592380Y-76380952D01*
X105735238Y-76285714D01*
X105830476Y-76190476D01*
X105878095Y-76095238D01*
M02*
