M48
; DRILL file {KiCad 5.1.5+dfsg1-2build2} date Wed 29 Dec 2021 03:31:14 AM CET
; FORMAT={-:-/ absolute / metric / decimal}
; #@! TF.CreationDate,2021-12-29T03:31:14+01:00
; #@! TF.GenerationSoftware,Kicad,Pcbnew,5.1.5+dfsg1-2build2
; #@! TF.FileFunction,Plated,1,2,PTH
FMAT,2
METRIC
T1C0.300
%
G90
G05
T1
X72.8Y-118.0
X73.6Y-85.0
X73.6Y-92.5
X73.6Y-100.0
X73.6Y-107.5
X74.6Y-80.5
X74.6Y-87.0
X74.6Y-94.5
X74.6Y-102.0
X74.6Y-109.5
X74.6Y-117.0
X76.35Y-92.75
X76.35Y-100.25
X76.35Y-107.75
X77.6Y-81.5
X77.6Y-82.25
X78.6Y-83.0
X78.6Y-89.5
X78.6Y-97.0
X78.6Y-104.5
X78.6Y-112.0
X78.6Y-119.5
X83.1Y-80.5
X83.1Y-83.0
X83.1Y-90.0
X83.1Y-97.5
X83.1Y-105.0
X83.1Y-112.5
X83.1Y-120.0
X85.1Y-89.0
X85.1Y-96.5
X85.1Y-104.0
X85.1Y-111.5
X85.1Y-119.0
X87.35Y-78.25
X87.35Y-85.75
X87.35Y-93.25
X87.35Y-100.75
X87.35Y-108.25
X87.35Y-115.75
X87.35Y-123.25
X92.1Y-79.5
X92.1Y-87.0
X92.1Y-94.5
X92.1Y-102.0
X92.1Y-109.5
X92.1Y-117.0
X92.1Y-124.5
X93.85Y-85.25
X93.85Y-100.25
X93.85Y-115.25
X93.85Y-122.75
X95.1Y-81.5
X95.1Y-82.25
X96.1Y-74.5
X96.1Y-78.75
X96.1Y-89.5
X96.1Y-97.0
X96.1Y-104.5
X96.1Y-112.0
X96.1Y-127.0
X97.85Y-78.5
X98.35Y-77.25
X100.35Y-79.0
X100.35Y-80.25
X100.6Y-75.0
X100.6Y-90.0
X100.6Y-97.5
X100.6Y-105.0
X100.6Y-112.5
X100.6Y-127.5
X102.6Y-74.0
X102.6Y-89.0
X102.6Y-96.5
X102.6Y-104.0
X102.6Y-111.5
X102.6Y-119.0
X102.6Y-126.5
X109.35Y-117.0
X109.35Y-124.5
X109.6Y-79.5
X109.6Y-87.0
X109.6Y-94.5
X109.6Y-102.0
X109.6Y-109.5
X111.35Y-85.25
X111.35Y-100.25
X111.35Y-115.25
X111.35Y-122.75
X112.6Y-81.5
X112.6Y-82.25
X113.6Y-89.5
X113.6Y-97.0
X113.6Y-104.5
X113.6Y-112.0
X113.6Y-119.5
X118.1Y-82.5
X118.1Y-90.0
X118.1Y-97.5
X118.1Y-105.0
X118.1Y-112.5
X118.1Y-120.0
X120.1Y-81.5
X120.1Y-89.0
X120.1Y-96.5
X120.1Y-104.0
X120.1Y-111.5
X120.1Y-119.0
X122.35Y-93.25
X122.35Y-100.75
X122.35Y-108.25
X122.35Y-115.75
X128.85Y-92.75
X128.85Y-100.25
X128.85Y-107.75
X128.85Y-115.25
X130.35Y-85.75
X130.35Y-86.5
T0
M30
