G04 #@! TF.GenerationSoftware,KiCad,Pcbnew,5.1.5+dfsg1-2build2*
G04 #@! TF.CreationDate,2021-12-29T18:44:23+01:00*
G04 #@! TF.ProjectId,hex_led_board,6865785f-6c65-4645-9f62-6f6172642e6b,rev?*
G04 #@! TF.SameCoordinates,Original*
G04 #@! TF.FileFunction,Legend,Top*
G04 #@! TF.FilePolarity,Positive*
%FSLAX46Y46*%
G04 Gerber Fmt 4.6, Leading zero omitted, Abs format (unit mm)*
G04 Created by KiCad (PCBNEW 5.1.5+dfsg1-2build2) date 2021-12-29 18:44:23*
%MOMM*%
%LPD*%
G04 APERTURE LIST*
%ADD10C,0.120000*%
G04 APERTURE END LIST*
D10*
X122600000Y-82250000D02*
X122600000Y-83400000D01*
X129900000Y-82250000D02*
X122600000Y-82250000D01*
X129900000Y-87750000D02*
X122600000Y-87750000D01*
X122600000Y-89750000D02*
X122600000Y-90900000D01*
X129900000Y-89750000D02*
X122600000Y-89750000D01*
X129900000Y-95250000D02*
X122600000Y-95250000D01*
X122600000Y-97250000D02*
X122600000Y-98400000D01*
X129900000Y-97250000D02*
X122600000Y-97250000D01*
X129900000Y-102750000D02*
X122600000Y-102750000D01*
X129600000Y-103350000D02*
X129600000Y-103650000D01*
X129600000Y-88350000D02*
X129600000Y-88650000D01*
X129600000Y-95850000D02*
X129600000Y-96150000D01*
X122600000Y-104750000D02*
X122600000Y-105900000D01*
X129900000Y-104750000D02*
X122600000Y-104750000D01*
X129900000Y-110250000D02*
X122600000Y-110250000D01*
X122600000Y-112250000D02*
X122600000Y-113400000D01*
X129900000Y-112250000D02*
X122600000Y-112250000D01*
X129900000Y-117750000D02*
X122600000Y-117750000D01*
X121150000Y-121500000D02*
X121150000Y-120350000D01*
X113850000Y-121500000D02*
X121150000Y-121500000D01*
X113850000Y-116000000D02*
X121150000Y-116000000D01*
X121150000Y-114000000D02*
X121150000Y-112850000D01*
X113850000Y-114000000D02*
X121150000Y-114000000D01*
X113850000Y-108500000D02*
X121150000Y-108500000D01*
X121150000Y-106500000D02*
X121150000Y-105350000D01*
X113850000Y-106500000D02*
X121150000Y-106500000D01*
X113850000Y-101000000D02*
X121150000Y-101000000D01*
X121150000Y-99000000D02*
X121150000Y-97850000D01*
X113850000Y-99000000D02*
X121150000Y-99000000D01*
X113850000Y-93500000D02*
X121150000Y-93500000D01*
X121150000Y-91500000D02*
X121150000Y-90350000D01*
X113850000Y-91500000D02*
X121150000Y-91500000D01*
X113850000Y-86000000D02*
X121150000Y-86000000D01*
X121150000Y-84000000D02*
X121150000Y-82850000D01*
X113850000Y-84000000D02*
X121150000Y-84000000D01*
X113850000Y-78500000D02*
X121150000Y-78500000D01*
X105100000Y-74750000D02*
X105100000Y-75900000D01*
X112400000Y-74750000D02*
X105100000Y-74750000D01*
X112400000Y-80250000D02*
X105100000Y-80250000D01*
X105100000Y-82250000D02*
X105100000Y-83400000D01*
X112400000Y-82250000D02*
X105100000Y-82250000D01*
X112400000Y-87750000D02*
X105100000Y-87750000D01*
X105100000Y-89750000D02*
X105100000Y-90900000D01*
X112400000Y-89750000D02*
X105100000Y-89750000D01*
X112400000Y-95250000D02*
X105100000Y-95250000D01*
X105100000Y-97250000D02*
X105100000Y-98400000D01*
X112400000Y-97250000D02*
X105100000Y-97250000D01*
X112400000Y-102750000D02*
X105100000Y-102750000D01*
X105100000Y-104750000D02*
X105100000Y-105900000D01*
X112400000Y-104750000D02*
X105100000Y-104750000D01*
X112400000Y-110250000D02*
X105100000Y-110250000D01*
X105100000Y-112250000D02*
X105100000Y-113400000D01*
X112400000Y-112250000D02*
X105100000Y-112250000D01*
X112400000Y-117750000D02*
X105100000Y-117750000D01*
X105100000Y-119750000D02*
X105100000Y-120900000D01*
X112400000Y-119750000D02*
X105100000Y-119750000D01*
X112400000Y-125250000D02*
X105100000Y-125250000D01*
X103650000Y-129000000D02*
X103650000Y-127850000D01*
X96350000Y-129000000D02*
X103650000Y-129000000D01*
X96350000Y-123500000D02*
X103650000Y-123500000D01*
X103650000Y-121500000D02*
X103650000Y-120350000D01*
X96350000Y-121500000D02*
X103650000Y-121500000D01*
X96350000Y-116000000D02*
X103650000Y-116000000D01*
X103650000Y-114000000D02*
X103650000Y-112850000D01*
X96350000Y-114000000D02*
X103650000Y-114000000D01*
X96350000Y-108500000D02*
X103650000Y-108500000D01*
X103650000Y-106500000D02*
X103650000Y-105350000D01*
X96350000Y-106500000D02*
X103650000Y-106500000D01*
X96350000Y-101000000D02*
X103650000Y-101000000D01*
X103650000Y-99000000D02*
X103650000Y-97850000D01*
X96350000Y-99000000D02*
X103650000Y-99000000D01*
X96350000Y-93500000D02*
X103650000Y-93500000D01*
X103650000Y-91500000D02*
X103650000Y-90350000D01*
X96350000Y-91500000D02*
X103650000Y-91500000D01*
X96350000Y-86000000D02*
X103650000Y-86000000D01*
X103650000Y-84000000D02*
X103650000Y-82850000D01*
X96350000Y-84000000D02*
X103650000Y-84000000D01*
X96350000Y-78500000D02*
X103650000Y-78500000D01*
X103650000Y-76500000D02*
X103650000Y-75350000D01*
X96350000Y-76500000D02*
X103650000Y-76500000D01*
X96350000Y-71000000D02*
X103650000Y-71000000D01*
X87600000Y-74750000D02*
X87600000Y-75900000D01*
X94900000Y-74750000D02*
X87600000Y-74750000D01*
X94900000Y-80250000D02*
X87600000Y-80250000D01*
X87600000Y-82250000D02*
X87600000Y-83400000D01*
X94900000Y-82250000D02*
X87600000Y-82250000D01*
X94900000Y-87750000D02*
X87600000Y-87750000D01*
X87600000Y-89750000D02*
X87600000Y-90900000D01*
X94900000Y-89750000D02*
X87600000Y-89750000D01*
X94900000Y-95250000D02*
X87600000Y-95250000D01*
X87600000Y-97250000D02*
X87600000Y-98400000D01*
X94900000Y-97250000D02*
X87600000Y-97250000D01*
X94900000Y-102750000D02*
X87600000Y-102750000D01*
X87600000Y-104750000D02*
X87600000Y-105900000D01*
X94900000Y-104750000D02*
X87600000Y-104750000D01*
X94900000Y-110250000D02*
X87600000Y-110250000D01*
X87600000Y-112250000D02*
X87600000Y-113400000D01*
X94900000Y-112250000D02*
X87600000Y-112250000D01*
X94900000Y-117750000D02*
X87600000Y-117750000D01*
X87600000Y-119750000D02*
X87600000Y-120900000D01*
X94900000Y-119750000D02*
X87600000Y-119750000D01*
X94900000Y-125250000D02*
X87600000Y-125250000D01*
X86150000Y-121500000D02*
X86150000Y-120350000D01*
X78850000Y-121500000D02*
X86150000Y-121500000D01*
X78850000Y-116000000D02*
X86150000Y-116000000D01*
X86150000Y-114000000D02*
X86150000Y-112850000D01*
X78850000Y-114000000D02*
X86150000Y-114000000D01*
X78850000Y-108500000D02*
X86150000Y-108500000D01*
X86150000Y-106500000D02*
X86150000Y-105350000D01*
X78850000Y-106500000D02*
X86150000Y-106500000D01*
X78850000Y-101000000D02*
X86150000Y-101000000D01*
X86150000Y-99000000D02*
X86150000Y-97850000D01*
X78850000Y-99000000D02*
X86150000Y-99000000D01*
X78850000Y-93500000D02*
X86150000Y-93500000D01*
X86150000Y-91500000D02*
X86150000Y-90350000D01*
X78850000Y-91500000D02*
X86150000Y-91500000D01*
X78850000Y-86000000D02*
X86150000Y-86000000D01*
X86150000Y-84000000D02*
X86150000Y-82850000D01*
X78850000Y-84000000D02*
X86150000Y-84000000D01*
X78850000Y-78500000D02*
X86150000Y-78500000D01*
X70100000Y-82250000D02*
X70100000Y-83400000D01*
X77400000Y-82250000D02*
X70100000Y-82250000D01*
X77400000Y-87750000D02*
X70100000Y-87750000D01*
X70100000Y-89750000D02*
X70100000Y-90900000D01*
X77400000Y-89750000D02*
X70100000Y-89750000D01*
X77400000Y-95250000D02*
X70100000Y-95250000D01*
X70100000Y-97250000D02*
X70100000Y-98400000D01*
X77400000Y-97250000D02*
X70100000Y-97250000D01*
X77400000Y-102750000D02*
X70100000Y-102750000D01*
X70100000Y-104750000D02*
X70100000Y-105900000D01*
X77400000Y-104750000D02*
X70100000Y-104750000D01*
X77400000Y-110250000D02*
X70100000Y-110250000D01*
X70100000Y-112250000D02*
X70100000Y-113400000D01*
X77400000Y-112250000D02*
X70100000Y-112250000D01*
X77400000Y-117750000D02*
X70100000Y-117750000D01*
X129600000Y-118350000D02*
X129600000Y-118650000D01*
X76600000Y-118350000D02*
X76600000Y-118650000D01*
X95700000Y-125250000D02*
X96000000Y-125250000D01*
X95700000Y-117750000D02*
X96000000Y-117750000D01*
X78200000Y-117750000D02*
X78500000Y-117750000D01*
X111600000Y-88350000D02*
X111600000Y-88650000D01*
X113200000Y-87750000D02*
X113500000Y-87750000D01*
X95700000Y-110250000D02*
X96000000Y-110250000D01*
X94100000Y-118350000D02*
X94100000Y-118650000D01*
X129600000Y-110850000D02*
X129600000Y-111150000D01*
X95700000Y-102750000D02*
X96000000Y-102750000D01*
X78200000Y-102750000D02*
X78500000Y-102750000D01*
X113200000Y-95250000D02*
X113500000Y-95250000D01*
X113200000Y-102750000D02*
X113500000Y-102750000D01*
X95700000Y-80250000D02*
X96000000Y-80250000D01*
X113200000Y-110250000D02*
X113500000Y-110250000D01*
X78200000Y-95250000D02*
X78500000Y-95250000D01*
X78200000Y-110250000D02*
X78500000Y-110250000D01*
X95700000Y-72750000D02*
X96000000Y-72750000D01*
X111600000Y-80850000D02*
X111600000Y-81150000D01*
X111600000Y-110850000D02*
X111600000Y-111150000D01*
X111600000Y-118350000D02*
X111600000Y-118650000D01*
X111600000Y-125850000D02*
X111600000Y-126150000D01*
X76600000Y-110850000D02*
X76600000Y-111150000D01*
X94100000Y-88350000D02*
X94100000Y-88650000D01*
X94100000Y-95850000D02*
X94100000Y-96150000D01*
X113200000Y-117750000D02*
X113500000Y-117750000D01*
X94100000Y-103350000D02*
X94100000Y-103650000D01*
X94100000Y-125850000D02*
X94100000Y-126150000D01*
X111600000Y-95850000D02*
X111600000Y-96150000D01*
X111600000Y-103350000D02*
X111600000Y-103650000D01*
X76600000Y-95850000D02*
X76600000Y-96150000D01*
X78200000Y-87750000D02*
X78500000Y-87750000D01*
X76600000Y-88350000D02*
X76600000Y-88650000D01*
X94100000Y-110850000D02*
X94100000Y-111150000D01*
X95700000Y-87750000D02*
X96000000Y-87750000D01*
X113200000Y-80250000D02*
X113500000Y-80250000D01*
X94100000Y-80850000D02*
X94100000Y-81150000D01*
X76600000Y-103350000D02*
X76600000Y-103650000D01*
X78200000Y-80250000D02*
X78500000Y-80250000D01*
X95700000Y-95250000D02*
X96000000Y-95250000D01*
M02*
