G04 #@! TF.GenerationSoftware,KiCad,Pcbnew,5.1.5+dfsg1-2build2*
G04 #@! TF.CreationDate,2021-12-29T03:31:12+01:00*
G04 #@! TF.ProjectId,hex_led_board,6865785f-6c65-4645-9f62-6f6172642e6b,rev?*
G04 #@! TF.SameCoordinates,Original*
G04 #@! TF.FileFunction,Copper,L2,Bot*
G04 #@! TF.FilePolarity,Positive*
%FSLAX46Y46*%
G04 Gerber Fmt 4.6, Leading zero omitted, Abs format (unit mm)*
G04 Created by KiCad (PCBNEW 5.1.5+dfsg1-2build2) date 2021-12-29 03:31:12*
%MOMM*%
%LPD*%
G04 APERTURE LIST*
%ADD10R,0.850000X2.350000*%
%ADD11C,0.600000*%
%ADD12C,1.000000*%
%ADD13C,0.200000*%
%ADD14C,0.127000*%
G04 APERTURE END LIST*
D10*
X103000000Y-123175000D03*
X99000000Y-123175000D03*
X101000000Y-120825000D03*
X97000000Y-120825000D03*
X97000000Y-76825000D03*
X101000000Y-76825000D03*
X99000000Y-79175000D03*
X103000000Y-79175000D03*
D11*
X102600000Y-89000000D03*
X100600000Y-90000000D03*
X96100000Y-89500000D03*
X102600000Y-96500000D03*
X100600000Y-97500000D03*
X96100000Y-97000000D03*
X102600000Y-104000000D03*
X100600000Y-105000000D03*
X96100000Y-104500000D03*
X96100000Y-112000000D03*
X102600000Y-119000000D03*
X100600000Y-112500000D03*
X102600000Y-111500000D03*
X111350000Y-122750000D03*
X109350000Y-117000000D03*
X111350000Y-115250000D03*
X109350000Y-124500000D03*
X96100000Y-127000000D03*
X100600000Y-127500000D03*
X102600000Y-126500000D03*
X113600000Y-112000000D03*
X120100000Y-119000000D03*
X113600000Y-119500000D03*
X118100000Y-112500000D03*
X120100000Y-111500000D03*
X118100000Y-120000000D03*
X113600000Y-97000000D03*
X120100000Y-104000000D03*
X113600000Y-104500000D03*
X118100000Y-97500000D03*
X120100000Y-96500000D03*
X118100000Y-105000000D03*
X120100000Y-89000000D03*
X113600000Y-89500000D03*
X118100000Y-82500000D03*
X120100000Y-81500000D03*
X118100000Y-90000000D03*
X76350000Y-100250000D03*
X128850000Y-92750000D03*
X122350000Y-93250000D03*
X122350000Y-100750000D03*
X128850000Y-107750000D03*
X122350000Y-108250000D03*
X128850000Y-100250000D03*
X122350000Y-115750000D03*
X128850000Y-115250000D03*
X85100000Y-89000000D03*
X78600000Y-89500000D03*
X83100000Y-90000000D03*
X78600000Y-97000000D03*
X85100000Y-104000000D03*
X78600000Y-104500000D03*
X83100000Y-97500000D03*
X85100000Y-96500000D03*
X83100000Y-105000000D03*
X78600000Y-112000000D03*
X85100000Y-119000000D03*
X78600000Y-119500000D03*
X83100000Y-112500000D03*
X85100000Y-111500000D03*
X83100000Y-120000000D03*
X87350000Y-115750000D03*
X93850000Y-122750000D03*
X87350000Y-123250000D03*
X93850000Y-115250000D03*
X87350000Y-100750000D03*
X93850000Y-100250000D03*
X87350000Y-108250000D03*
X92100000Y-109500000D03*
X92100000Y-102000000D03*
X87350000Y-85750000D03*
X93850000Y-85250000D03*
X87350000Y-93250000D03*
X92100000Y-94500000D03*
X92100000Y-87000000D03*
X111350000Y-100250000D03*
X109600000Y-109500000D03*
X109600000Y-102000000D03*
X111350000Y-85250000D03*
X109600000Y-94500000D03*
X109600000Y-87000000D03*
X109600000Y-79500000D03*
X87350000Y-78250000D03*
X92100000Y-79500000D03*
X76350000Y-107750000D03*
X74600000Y-117000000D03*
X74600000Y-109500000D03*
X76350000Y-92750000D03*
X74600000Y-102000000D03*
X74600000Y-94500000D03*
X74600000Y-87000000D03*
X102600000Y-74000000D03*
X100600000Y-75000000D03*
X96100000Y-74500000D03*
X92100000Y-117000000D03*
X92100000Y-124500000D03*
X83100000Y-83000000D03*
X83100000Y-80500000D03*
X78600000Y-83000000D03*
X74600000Y-80500000D03*
X73600000Y-85000000D03*
X73600000Y-92500000D03*
X73600000Y-100000000D03*
X73600000Y-107500000D03*
X100350000Y-79000000D03*
X100350000Y-80250000D03*
X98350000Y-77250000D03*
X96100000Y-78750000D03*
X97850000Y-78500000D03*
X130350000Y-86500000D03*
X130350000Y-85750000D03*
X77600000Y-81500000D03*
X77600000Y-82250000D03*
X95100000Y-81500000D03*
X95100000Y-82250000D03*
X112600000Y-81500000D03*
X112600000Y-82250000D03*
X72800000Y-118000000D03*
D12*
X103000000Y-81900000D02*
X103000000Y-79175000D01*
X103000000Y-78825000D02*
X101000000Y-76825000D01*
X103000000Y-79175000D02*
X103000000Y-78825000D01*
X103000000Y-81900000D02*
X77600000Y-81900000D01*
X113000000Y-81900000D02*
X103000000Y-81900000D01*
X116750000Y-85650000D02*
X113000000Y-81900000D01*
X129850000Y-85650000D02*
X116750000Y-85650000D01*
X130400000Y-86200000D02*
X129850000Y-85650000D01*
D13*
X97000000Y-120825000D02*
X97000000Y-123400000D01*
X97000000Y-123400000D02*
X94400000Y-126000000D01*
X94400000Y-126000000D02*
X80800000Y-126000000D01*
X80800000Y-126000000D02*
X72800000Y-118000000D01*
D14*
G36*
X134352533Y-80166566D02*
G01*
X134352532Y-119833435D01*
X100000017Y-139666869D01*
X65647500Y-119833435D01*
X65647500Y-117944500D01*
X72236500Y-117944500D01*
X72236500Y-118055500D01*
X72258155Y-118164367D01*
X72300632Y-118266918D01*
X72362301Y-118359211D01*
X72440789Y-118437699D01*
X72533082Y-118499368D01*
X72635633Y-118541845D01*
X72744500Y-118563500D01*
X72849434Y-118563500D01*
X80530346Y-126244412D01*
X80541724Y-126258276D01*
X80555588Y-126269654D01*
X80597072Y-126303700D01*
X80597074Y-126303701D01*
X80660222Y-126337454D01*
X80728742Y-126358240D01*
X80782150Y-126363500D01*
X80782159Y-126363500D01*
X80799999Y-126365257D01*
X80817839Y-126363500D01*
X94382160Y-126363500D01*
X94400000Y-126365257D01*
X94417840Y-126363500D01*
X94417850Y-126363500D01*
X94471258Y-126358240D01*
X94539778Y-126337454D01*
X94602926Y-126303701D01*
X94658276Y-126258276D01*
X94669654Y-126244412D01*
X97244412Y-123669654D01*
X97258276Y-123658276D01*
X97269654Y-123644412D01*
X97303700Y-123602928D01*
X97337453Y-123539779D01*
X97337454Y-123539778D01*
X97358240Y-123471258D01*
X97363500Y-123417850D01*
X97363500Y-123417841D01*
X97365257Y-123400001D01*
X97363500Y-123382161D01*
X97363500Y-122264774D01*
X97425000Y-122264774D01*
X97476655Y-122259686D01*
X97526325Y-122244619D01*
X97572101Y-122220152D01*
X97612223Y-122187223D01*
X97645152Y-122147101D01*
X97669619Y-122101325D01*
X97684686Y-122051655D01*
X97689774Y-122000000D01*
X98310226Y-122000000D01*
X98310226Y-124350000D01*
X98315314Y-124401655D01*
X98330381Y-124451325D01*
X98354848Y-124497101D01*
X98387777Y-124537223D01*
X98427899Y-124570152D01*
X98473675Y-124594619D01*
X98523345Y-124609686D01*
X98575000Y-124614774D01*
X99425000Y-124614774D01*
X99476655Y-124609686D01*
X99526325Y-124594619D01*
X99572101Y-124570152D01*
X99612223Y-124537223D01*
X99645152Y-124497101D01*
X99669619Y-124451325D01*
X99684686Y-124401655D01*
X99689774Y-124350000D01*
X99689774Y-122000000D01*
X99684686Y-121948345D01*
X99669619Y-121898675D01*
X99645152Y-121852899D01*
X99612223Y-121812777D01*
X99572101Y-121779848D01*
X99526325Y-121755381D01*
X99476655Y-121740314D01*
X99425000Y-121735226D01*
X98575000Y-121735226D01*
X98523345Y-121740314D01*
X98473675Y-121755381D01*
X98427899Y-121779848D01*
X98387777Y-121812777D01*
X98354848Y-121852899D01*
X98330381Y-121898675D01*
X98315314Y-121948345D01*
X98310226Y-122000000D01*
X97689774Y-122000000D01*
X97689774Y-119650000D01*
X100310226Y-119650000D01*
X100310226Y-122000000D01*
X100315314Y-122051655D01*
X100330381Y-122101325D01*
X100354848Y-122147101D01*
X100387777Y-122187223D01*
X100427899Y-122220152D01*
X100473675Y-122244619D01*
X100523345Y-122259686D01*
X100575000Y-122264774D01*
X101425000Y-122264774D01*
X101476655Y-122259686D01*
X101526325Y-122244619D01*
X101572101Y-122220152D01*
X101612223Y-122187223D01*
X101645152Y-122147101D01*
X101669619Y-122101325D01*
X101684686Y-122051655D01*
X101689774Y-122000000D01*
X102310226Y-122000000D01*
X102310226Y-124350000D01*
X102315314Y-124401655D01*
X102330381Y-124451325D01*
X102354848Y-124497101D01*
X102387777Y-124537223D01*
X102427899Y-124570152D01*
X102473675Y-124594619D01*
X102523345Y-124609686D01*
X102575000Y-124614774D01*
X103425000Y-124614774D01*
X103476655Y-124609686D01*
X103526325Y-124594619D01*
X103572101Y-124570152D01*
X103612223Y-124537223D01*
X103645152Y-124497101D01*
X103669619Y-124451325D01*
X103684686Y-124401655D01*
X103689774Y-124350000D01*
X103689774Y-122000000D01*
X103684686Y-121948345D01*
X103669619Y-121898675D01*
X103645152Y-121852899D01*
X103612223Y-121812777D01*
X103572101Y-121779848D01*
X103526325Y-121755381D01*
X103476655Y-121740314D01*
X103425000Y-121735226D01*
X102575000Y-121735226D01*
X102523345Y-121740314D01*
X102473675Y-121755381D01*
X102427899Y-121779848D01*
X102387777Y-121812777D01*
X102354848Y-121852899D01*
X102330381Y-121898675D01*
X102315314Y-121948345D01*
X102310226Y-122000000D01*
X101689774Y-122000000D01*
X101689774Y-119650000D01*
X101684686Y-119598345D01*
X101669619Y-119548675D01*
X101645152Y-119502899D01*
X101612223Y-119462777D01*
X101572101Y-119429848D01*
X101526325Y-119405381D01*
X101476655Y-119390314D01*
X101425000Y-119385226D01*
X100575000Y-119385226D01*
X100523345Y-119390314D01*
X100473675Y-119405381D01*
X100427899Y-119429848D01*
X100387777Y-119462777D01*
X100354848Y-119502899D01*
X100330381Y-119548675D01*
X100315314Y-119598345D01*
X100310226Y-119650000D01*
X97689774Y-119650000D01*
X97684686Y-119598345D01*
X97669619Y-119548675D01*
X97645152Y-119502899D01*
X97612223Y-119462777D01*
X97572101Y-119429848D01*
X97526325Y-119405381D01*
X97476655Y-119390314D01*
X97425000Y-119385226D01*
X96575000Y-119385226D01*
X96523345Y-119390314D01*
X96473675Y-119405381D01*
X96427899Y-119429848D01*
X96387777Y-119462777D01*
X96354848Y-119502899D01*
X96330381Y-119548675D01*
X96315314Y-119598345D01*
X96310226Y-119650000D01*
X96310226Y-122000000D01*
X96315314Y-122051655D01*
X96330381Y-122101325D01*
X96354848Y-122147101D01*
X96387777Y-122187223D01*
X96427899Y-122220152D01*
X96473675Y-122244619D01*
X96523345Y-122259686D01*
X96575000Y-122264774D01*
X96636501Y-122264774D01*
X96636501Y-123249433D01*
X94249434Y-125636500D01*
X80950566Y-125636500D01*
X73363500Y-118049434D01*
X73363500Y-117944500D01*
X73341845Y-117835633D01*
X73299368Y-117733082D01*
X73237699Y-117640789D01*
X73159211Y-117562301D01*
X73066918Y-117500632D01*
X72964367Y-117458155D01*
X72855500Y-117436500D01*
X72744500Y-117436500D01*
X72635633Y-117458155D01*
X72533082Y-117500632D01*
X72440789Y-117562301D01*
X72362301Y-117640789D01*
X72300632Y-117733082D01*
X72258155Y-117835633D01*
X72236500Y-117944500D01*
X65647500Y-117944500D01*
X65647500Y-81900000D01*
X76832806Y-81900000D01*
X76847547Y-82049672D01*
X76891205Y-82193592D01*
X76962102Y-82326230D01*
X77057512Y-82442488D01*
X77076132Y-82457769D01*
X77100632Y-82516918D01*
X77162301Y-82609211D01*
X77240789Y-82687699D01*
X77333082Y-82749368D01*
X77435633Y-82791845D01*
X77544500Y-82813500D01*
X77655500Y-82813500D01*
X77764367Y-82791845D01*
X77866918Y-82749368D01*
X77959211Y-82687699D01*
X77983410Y-82663500D01*
X94716590Y-82663500D01*
X94740789Y-82687699D01*
X94833082Y-82749368D01*
X94935633Y-82791845D01*
X95044500Y-82813500D01*
X95155500Y-82813500D01*
X95264367Y-82791845D01*
X95366918Y-82749368D01*
X95459211Y-82687699D01*
X95483410Y-82663500D01*
X102962493Y-82663500D01*
X103000000Y-82667194D01*
X103037507Y-82663500D01*
X112216590Y-82663500D01*
X112240789Y-82687699D01*
X112333082Y-82749368D01*
X112435633Y-82791845D01*
X112544500Y-82813500D01*
X112655500Y-82813500D01*
X112764367Y-82791845D01*
X112798115Y-82777866D01*
X116183602Y-86163354D01*
X116207512Y-86192488D01*
X116236643Y-86216395D01*
X116236645Y-86216397D01*
X116323769Y-86287898D01*
X116394666Y-86325793D01*
X116456408Y-86358795D01*
X116600328Y-86402453D01*
X116712493Y-86413500D01*
X116712503Y-86413500D01*
X116750000Y-86417193D01*
X116787496Y-86413500D01*
X129533749Y-86413500D01*
X129824800Y-86704551D01*
X129850632Y-86766918D01*
X129912301Y-86859211D01*
X129990789Y-86937699D01*
X130083082Y-86999368D01*
X130185633Y-87041845D01*
X130294500Y-87063500D01*
X130405500Y-87063500D01*
X130514367Y-87041845D01*
X130616918Y-86999368D01*
X130709211Y-86937699D01*
X130787699Y-86859211D01*
X130788445Y-86858094D01*
X130826230Y-86837898D01*
X130942487Y-86742487D01*
X131037898Y-86626230D01*
X131108794Y-86493592D01*
X131152451Y-86349671D01*
X131167193Y-86199999D01*
X131152451Y-86050327D01*
X131108794Y-85906406D01*
X131037898Y-85773769D01*
X130966397Y-85686645D01*
X130898415Y-85618663D01*
X130891845Y-85585633D01*
X130849368Y-85483082D01*
X130787699Y-85390789D01*
X130709211Y-85312301D01*
X130616918Y-85250632D01*
X130514367Y-85208155D01*
X130481336Y-85201585D01*
X130416400Y-85136649D01*
X130392488Y-85107512D01*
X130276230Y-85012102D01*
X130143592Y-84941205D01*
X129999672Y-84897547D01*
X129887507Y-84886500D01*
X129887496Y-84886500D01*
X129850000Y-84882807D01*
X129812504Y-84886500D01*
X117066252Y-84886500D01*
X113566400Y-81386649D01*
X113542488Y-81357512D01*
X113426230Y-81262102D01*
X113293592Y-81191205D01*
X113149672Y-81147547D01*
X113037507Y-81136500D01*
X113037496Y-81136500D01*
X113032964Y-81136054D01*
X112959211Y-81062301D01*
X112866918Y-81000632D01*
X112764367Y-80958155D01*
X112655500Y-80936500D01*
X112544500Y-80936500D01*
X112435633Y-80958155D01*
X112333082Y-81000632D01*
X112240789Y-81062301D01*
X112166590Y-81136500D01*
X103763500Y-81136500D01*
X103763500Y-78862496D01*
X103767193Y-78824999D01*
X103763500Y-78787503D01*
X103763500Y-78787494D01*
X103752453Y-78675329D01*
X103708795Y-78531408D01*
X103689774Y-78495822D01*
X103689774Y-78000000D01*
X103684686Y-77948345D01*
X103669619Y-77898675D01*
X103645152Y-77852899D01*
X103612223Y-77812777D01*
X103572101Y-77779848D01*
X103526325Y-77755381D01*
X103476655Y-77740314D01*
X103425000Y-77735226D01*
X102989978Y-77735226D01*
X101689774Y-76435023D01*
X101689774Y-75650000D01*
X101684686Y-75598345D01*
X101669619Y-75548675D01*
X101645152Y-75502899D01*
X101612223Y-75462777D01*
X101572101Y-75429848D01*
X101526325Y-75405381D01*
X101476655Y-75390314D01*
X101425000Y-75385226D01*
X100575000Y-75385226D01*
X100523345Y-75390314D01*
X100473675Y-75405381D01*
X100427899Y-75429848D01*
X100387777Y-75462777D01*
X100354848Y-75502899D01*
X100330381Y-75548675D01*
X100315314Y-75598345D01*
X100310226Y-75650000D01*
X100310226Y-76495824D01*
X100291206Y-76531408D01*
X100247548Y-76675329D01*
X100232807Y-76825000D01*
X100247548Y-76974671D01*
X100291206Y-77118592D01*
X100310226Y-77154176D01*
X100310226Y-78000000D01*
X100315314Y-78051655D01*
X100330381Y-78101325D01*
X100354848Y-78147101D01*
X100387777Y-78187223D01*
X100427899Y-78220152D01*
X100473675Y-78244619D01*
X100523345Y-78259686D01*
X100575000Y-78264774D01*
X101360023Y-78264774D01*
X102236500Y-79141252D01*
X102236500Y-79212506D01*
X102236501Y-79212516D01*
X102236500Y-81136500D01*
X95533410Y-81136500D01*
X95459211Y-81062301D01*
X95366918Y-81000632D01*
X95264367Y-80958155D01*
X95155500Y-80936500D01*
X95044500Y-80936500D01*
X94935633Y-80958155D01*
X94833082Y-81000632D01*
X94740789Y-81062301D01*
X94666590Y-81136500D01*
X78033410Y-81136500D01*
X77959211Y-81062301D01*
X77866918Y-81000632D01*
X77764367Y-80958155D01*
X77655500Y-80936500D01*
X77544500Y-80936500D01*
X77435633Y-80958155D01*
X77333082Y-81000632D01*
X77240789Y-81062301D01*
X77162301Y-81140789D01*
X77100632Y-81233082D01*
X77058155Y-81335633D01*
X77052616Y-81363477D01*
X76962102Y-81473770D01*
X76891205Y-81606408D01*
X76847547Y-81750328D01*
X76832806Y-81900000D01*
X65647500Y-81900000D01*
X65647500Y-80350000D01*
X98310225Y-80350000D01*
X98315313Y-80401655D01*
X98330380Y-80451325D01*
X98354848Y-80497101D01*
X98387776Y-80537224D01*
X98427899Y-80570152D01*
X98473675Y-80594620D01*
X98523345Y-80609687D01*
X98575000Y-80614775D01*
X98597625Y-80613500D01*
X98663500Y-80547625D01*
X98663500Y-79511500D01*
X99336500Y-79511500D01*
X99336500Y-80547625D01*
X99402375Y-80613500D01*
X99425000Y-80614775D01*
X99476655Y-80609687D01*
X99526325Y-80594620D01*
X99572101Y-80570152D01*
X99612224Y-80537224D01*
X99645152Y-80497101D01*
X99669620Y-80451325D01*
X99684687Y-80401655D01*
X99689775Y-80350000D01*
X99688500Y-79577375D01*
X99622625Y-79511500D01*
X99336500Y-79511500D01*
X98663500Y-79511500D01*
X98377375Y-79511500D01*
X98311500Y-79577375D01*
X98310225Y-80350000D01*
X65647500Y-80350000D01*
X65647500Y-80166565D01*
X69400100Y-78000000D01*
X96310225Y-78000000D01*
X96315313Y-78051655D01*
X96330380Y-78101325D01*
X96354848Y-78147101D01*
X96387776Y-78187224D01*
X96427899Y-78220152D01*
X96473675Y-78244620D01*
X96523345Y-78259687D01*
X96575000Y-78264775D01*
X96597625Y-78263500D01*
X96663500Y-78197625D01*
X96663500Y-77161500D01*
X97336500Y-77161500D01*
X97336500Y-78197625D01*
X97402375Y-78263500D01*
X97425000Y-78264775D01*
X97476655Y-78259687D01*
X97526325Y-78244620D01*
X97572101Y-78220152D01*
X97612224Y-78187224D01*
X97645152Y-78147101D01*
X97669620Y-78101325D01*
X97684687Y-78051655D01*
X97689775Y-78000000D01*
X98310225Y-78000000D01*
X98311500Y-78772625D01*
X98377375Y-78838500D01*
X98663500Y-78838500D01*
X98663500Y-77802375D01*
X99336500Y-77802375D01*
X99336500Y-78838500D01*
X99622625Y-78838500D01*
X99688500Y-78772625D01*
X99689775Y-78000000D01*
X99684687Y-77948345D01*
X99669620Y-77898675D01*
X99645152Y-77852899D01*
X99612224Y-77812776D01*
X99572101Y-77779848D01*
X99526325Y-77755380D01*
X99476655Y-77740313D01*
X99425000Y-77735225D01*
X99402375Y-77736500D01*
X99336500Y-77802375D01*
X98663500Y-77802375D01*
X98597625Y-77736500D01*
X98575000Y-77735225D01*
X98523345Y-77740313D01*
X98473675Y-77755380D01*
X98427899Y-77779848D01*
X98387776Y-77812776D01*
X98354848Y-77852899D01*
X98330380Y-77898675D01*
X98315313Y-77948345D01*
X98310225Y-78000000D01*
X97689775Y-78000000D01*
X97688500Y-77227375D01*
X97622625Y-77161500D01*
X97336500Y-77161500D01*
X96663500Y-77161500D01*
X96377375Y-77161500D01*
X96311500Y-77227375D01*
X96310225Y-78000000D01*
X69400100Y-78000000D01*
X73470419Y-75650000D01*
X96310225Y-75650000D01*
X96311500Y-76422625D01*
X96377375Y-76488500D01*
X96663500Y-76488500D01*
X96663500Y-75452375D01*
X97336500Y-75452375D01*
X97336500Y-76488500D01*
X97622625Y-76488500D01*
X97688500Y-76422625D01*
X97689775Y-75650000D01*
X97684687Y-75598345D01*
X97669620Y-75548675D01*
X97645152Y-75502899D01*
X97612224Y-75462776D01*
X97572101Y-75429848D01*
X97526325Y-75405380D01*
X97476655Y-75390313D01*
X97425000Y-75385225D01*
X97402375Y-75386500D01*
X97336500Y-75452375D01*
X96663500Y-75452375D01*
X96597625Y-75386500D01*
X96575000Y-75385225D01*
X96523345Y-75390313D01*
X96473675Y-75405380D01*
X96427899Y-75429848D01*
X96387776Y-75462776D01*
X96354848Y-75502899D01*
X96330380Y-75548675D01*
X96315313Y-75598345D01*
X96310225Y-75650000D01*
X73470419Y-75650000D01*
X100000017Y-60333131D01*
X134352533Y-80166566D01*
G37*
X134352533Y-80166566D02*
X134352532Y-119833435D01*
X100000017Y-139666869D01*
X65647500Y-119833435D01*
X65647500Y-117944500D01*
X72236500Y-117944500D01*
X72236500Y-118055500D01*
X72258155Y-118164367D01*
X72300632Y-118266918D01*
X72362301Y-118359211D01*
X72440789Y-118437699D01*
X72533082Y-118499368D01*
X72635633Y-118541845D01*
X72744500Y-118563500D01*
X72849434Y-118563500D01*
X80530346Y-126244412D01*
X80541724Y-126258276D01*
X80555588Y-126269654D01*
X80597072Y-126303700D01*
X80597074Y-126303701D01*
X80660222Y-126337454D01*
X80728742Y-126358240D01*
X80782150Y-126363500D01*
X80782159Y-126363500D01*
X80799999Y-126365257D01*
X80817839Y-126363500D01*
X94382160Y-126363500D01*
X94400000Y-126365257D01*
X94417840Y-126363500D01*
X94417850Y-126363500D01*
X94471258Y-126358240D01*
X94539778Y-126337454D01*
X94602926Y-126303701D01*
X94658276Y-126258276D01*
X94669654Y-126244412D01*
X97244412Y-123669654D01*
X97258276Y-123658276D01*
X97269654Y-123644412D01*
X97303700Y-123602928D01*
X97337453Y-123539779D01*
X97337454Y-123539778D01*
X97358240Y-123471258D01*
X97363500Y-123417850D01*
X97363500Y-123417841D01*
X97365257Y-123400001D01*
X97363500Y-123382161D01*
X97363500Y-122264774D01*
X97425000Y-122264774D01*
X97476655Y-122259686D01*
X97526325Y-122244619D01*
X97572101Y-122220152D01*
X97612223Y-122187223D01*
X97645152Y-122147101D01*
X97669619Y-122101325D01*
X97684686Y-122051655D01*
X97689774Y-122000000D01*
X98310226Y-122000000D01*
X98310226Y-124350000D01*
X98315314Y-124401655D01*
X98330381Y-124451325D01*
X98354848Y-124497101D01*
X98387777Y-124537223D01*
X98427899Y-124570152D01*
X98473675Y-124594619D01*
X98523345Y-124609686D01*
X98575000Y-124614774D01*
X99425000Y-124614774D01*
X99476655Y-124609686D01*
X99526325Y-124594619D01*
X99572101Y-124570152D01*
X99612223Y-124537223D01*
X99645152Y-124497101D01*
X99669619Y-124451325D01*
X99684686Y-124401655D01*
X99689774Y-124350000D01*
X99689774Y-122000000D01*
X99684686Y-121948345D01*
X99669619Y-121898675D01*
X99645152Y-121852899D01*
X99612223Y-121812777D01*
X99572101Y-121779848D01*
X99526325Y-121755381D01*
X99476655Y-121740314D01*
X99425000Y-121735226D01*
X98575000Y-121735226D01*
X98523345Y-121740314D01*
X98473675Y-121755381D01*
X98427899Y-121779848D01*
X98387777Y-121812777D01*
X98354848Y-121852899D01*
X98330381Y-121898675D01*
X98315314Y-121948345D01*
X98310226Y-122000000D01*
X97689774Y-122000000D01*
X97689774Y-119650000D01*
X100310226Y-119650000D01*
X100310226Y-122000000D01*
X100315314Y-122051655D01*
X100330381Y-122101325D01*
X100354848Y-122147101D01*
X100387777Y-122187223D01*
X100427899Y-122220152D01*
X100473675Y-122244619D01*
X100523345Y-122259686D01*
X100575000Y-122264774D01*
X101425000Y-122264774D01*
X101476655Y-122259686D01*
X101526325Y-122244619D01*
X101572101Y-122220152D01*
X101612223Y-122187223D01*
X101645152Y-122147101D01*
X101669619Y-122101325D01*
X101684686Y-122051655D01*
X101689774Y-122000000D01*
X102310226Y-122000000D01*
X102310226Y-124350000D01*
X102315314Y-124401655D01*
X102330381Y-124451325D01*
X102354848Y-124497101D01*
X102387777Y-124537223D01*
X102427899Y-124570152D01*
X102473675Y-124594619D01*
X102523345Y-124609686D01*
X102575000Y-124614774D01*
X103425000Y-124614774D01*
X103476655Y-124609686D01*
X103526325Y-124594619D01*
X103572101Y-124570152D01*
X103612223Y-124537223D01*
X103645152Y-124497101D01*
X103669619Y-124451325D01*
X103684686Y-124401655D01*
X103689774Y-124350000D01*
X103689774Y-122000000D01*
X103684686Y-121948345D01*
X103669619Y-121898675D01*
X103645152Y-121852899D01*
X103612223Y-121812777D01*
X103572101Y-121779848D01*
X103526325Y-121755381D01*
X103476655Y-121740314D01*
X103425000Y-121735226D01*
X102575000Y-121735226D01*
X102523345Y-121740314D01*
X102473675Y-121755381D01*
X102427899Y-121779848D01*
X102387777Y-121812777D01*
X102354848Y-121852899D01*
X102330381Y-121898675D01*
X102315314Y-121948345D01*
X102310226Y-122000000D01*
X101689774Y-122000000D01*
X101689774Y-119650000D01*
X101684686Y-119598345D01*
X101669619Y-119548675D01*
X101645152Y-119502899D01*
X101612223Y-119462777D01*
X101572101Y-119429848D01*
X101526325Y-119405381D01*
X101476655Y-119390314D01*
X101425000Y-119385226D01*
X100575000Y-119385226D01*
X100523345Y-119390314D01*
X100473675Y-119405381D01*
X100427899Y-119429848D01*
X100387777Y-119462777D01*
X100354848Y-119502899D01*
X100330381Y-119548675D01*
X100315314Y-119598345D01*
X100310226Y-119650000D01*
X97689774Y-119650000D01*
X97684686Y-119598345D01*
X97669619Y-119548675D01*
X97645152Y-119502899D01*
X97612223Y-119462777D01*
X97572101Y-119429848D01*
X97526325Y-119405381D01*
X97476655Y-119390314D01*
X97425000Y-119385226D01*
X96575000Y-119385226D01*
X96523345Y-119390314D01*
X96473675Y-119405381D01*
X96427899Y-119429848D01*
X96387777Y-119462777D01*
X96354848Y-119502899D01*
X96330381Y-119548675D01*
X96315314Y-119598345D01*
X96310226Y-119650000D01*
X96310226Y-122000000D01*
X96315314Y-122051655D01*
X96330381Y-122101325D01*
X96354848Y-122147101D01*
X96387777Y-122187223D01*
X96427899Y-122220152D01*
X96473675Y-122244619D01*
X96523345Y-122259686D01*
X96575000Y-122264774D01*
X96636501Y-122264774D01*
X96636501Y-123249433D01*
X94249434Y-125636500D01*
X80950566Y-125636500D01*
X73363500Y-118049434D01*
X73363500Y-117944500D01*
X73341845Y-117835633D01*
X73299368Y-117733082D01*
X73237699Y-117640789D01*
X73159211Y-117562301D01*
X73066918Y-117500632D01*
X72964367Y-117458155D01*
X72855500Y-117436500D01*
X72744500Y-117436500D01*
X72635633Y-117458155D01*
X72533082Y-117500632D01*
X72440789Y-117562301D01*
X72362301Y-117640789D01*
X72300632Y-117733082D01*
X72258155Y-117835633D01*
X72236500Y-117944500D01*
X65647500Y-117944500D01*
X65647500Y-81900000D01*
X76832806Y-81900000D01*
X76847547Y-82049672D01*
X76891205Y-82193592D01*
X76962102Y-82326230D01*
X77057512Y-82442488D01*
X77076132Y-82457769D01*
X77100632Y-82516918D01*
X77162301Y-82609211D01*
X77240789Y-82687699D01*
X77333082Y-82749368D01*
X77435633Y-82791845D01*
X77544500Y-82813500D01*
X77655500Y-82813500D01*
X77764367Y-82791845D01*
X77866918Y-82749368D01*
X77959211Y-82687699D01*
X77983410Y-82663500D01*
X94716590Y-82663500D01*
X94740789Y-82687699D01*
X94833082Y-82749368D01*
X94935633Y-82791845D01*
X95044500Y-82813500D01*
X95155500Y-82813500D01*
X95264367Y-82791845D01*
X95366918Y-82749368D01*
X95459211Y-82687699D01*
X95483410Y-82663500D01*
X102962493Y-82663500D01*
X103000000Y-82667194D01*
X103037507Y-82663500D01*
X112216590Y-82663500D01*
X112240789Y-82687699D01*
X112333082Y-82749368D01*
X112435633Y-82791845D01*
X112544500Y-82813500D01*
X112655500Y-82813500D01*
X112764367Y-82791845D01*
X112798115Y-82777866D01*
X116183602Y-86163354D01*
X116207512Y-86192488D01*
X116236643Y-86216395D01*
X116236645Y-86216397D01*
X116323769Y-86287898D01*
X116394666Y-86325793D01*
X116456408Y-86358795D01*
X116600328Y-86402453D01*
X116712493Y-86413500D01*
X116712503Y-86413500D01*
X116750000Y-86417193D01*
X116787496Y-86413500D01*
X129533749Y-86413500D01*
X129824800Y-86704551D01*
X129850632Y-86766918D01*
X129912301Y-86859211D01*
X129990789Y-86937699D01*
X130083082Y-86999368D01*
X130185633Y-87041845D01*
X130294500Y-87063500D01*
X130405500Y-87063500D01*
X130514367Y-87041845D01*
X130616918Y-86999368D01*
X130709211Y-86937699D01*
X130787699Y-86859211D01*
X130788445Y-86858094D01*
X130826230Y-86837898D01*
X130942487Y-86742487D01*
X131037898Y-86626230D01*
X131108794Y-86493592D01*
X131152451Y-86349671D01*
X131167193Y-86199999D01*
X131152451Y-86050327D01*
X131108794Y-85906406D01*
X131037898Y-85773769D01*
X130966397Y-85686645D01*
X130898415Y-85618663D01*
X130891845Y-85585633D01*
X130849368Y-85483082D01*
X130787699Y-85390789D01*
X130709211Y-85312301D01*
X130616918Y-85250632D01*
X130514367Y-85208155D01*
X130481336Y-85201585D01*
X130416400Y-85136649D01*
X130392488Y-85107512D01*
X130276230Y-85012102D01*
X130143592Y-84941205D01*
X129999672Y-84897547D01*
X129887507Y-84886500D01*
X129887496Y-84886500D01*
X129850000Y-84882807D01*
X129812504Y-84886500D01*
X117066252Y-84886500D01*
X113566400Y-81386649D01*
X113542488Y-81357512D01*
X113426230Y-81262102D01*
X113293592Y-81191205D01*
X113149672Y-81147547D01*
X113037507Y-81136500D01*
X113037496Y-81136500D01*
X113032964Y-81136054D01*
X112959211Y-81062301D01*
X112866918Y-81000632D01*
X112764367Y-80958155D01*
X112655500Y-80936500D01*
X112544500Y-80936500D01*
X112435633Y-80958155D01*
X112333082Y-81000632D01*
X112240789Y-81062301D01*
X112166590Y-81136500D01*
X103763500Y-81136500D01*
X103763500Y-78862496D01*
X103767193Y-78824999D01*
X103763500Y-78787503D01*
X103763500Y-78787494D01*
X103752453Y-78675329D01*
X103708795Y-78531408D01*
X103689774Y-78495822D01*
X103689774Y-78000000D01*
X103684686Y-77948345D01*
X103669619Y-77898675D01*
X103645152Y-77852899D01*
X103612223Y-77812777D01*
X103572101Y-77779848D01*
X103526325Y-77755381D01*
X103476655Y-77740314D01*
X103425000Y-77735226D01*
X102989978Y-77735226D01*
X101689774Y-76435023D01*
X101689774Y-75650000D01*
X101684686Y-75598345D01*
X101669619Y-75548675D01*
X101645152Y-75502899D01*
X101612223Y-75462777D01*
X101572101Y-75429848D01*
X101526325Y-75405381D01*
X101476655Y-75390314D01*
X101425000Y-75385226D01*
X100575000Y-75385226D01*
X100523345Y-75390314D01*
X100473675Y-75405381D01*
X100427899Y-75429848D01*
X100387777Y-75462777D01*
X100354848Y-75502899D01*
X100330381Y-75548675D01*
X100315314Y-75598345D01*
X100310226Y-75650000D01*
X100310226Y-76495824D01*
X100291206Y-76531408D01*
X100247548Y-76675329D01*
X100232807Y-76825000D01*
X100247548Y-76974671D01*
X100291206Y-77118592D01*
X100310226Y-77154176D01*
X100310226Y-78000000D01*
X100315314Y-78051655D01*
X100330381Y-78101325D01*
X100354848Y-78147101D01*
X100387777Y-78187223D01*
X100427899Y-78220152D01*
X100473675Y-78244619D01*
X100523345Y-78259686D01*
X100575000Y-78264774D01*
X101360023Y-78264774D01*
X102236500Y-79141252D01*
X102236500Y-79212506D01*
X102236501Y-79212516D01*
X102236500Y-81136500D01*
X95533410Y-81136500D01*
X95459211Y-81062301D01*
X95366918Y-81000632D01*
X95264367Y-80958155D01*
X95155500Y-80936500D01*
X95044500Y-80936500D01*
X94935633Y-80958155D01*
X94833082Y-81000632D01*
X94740789Y-81062301D01*
X94666590Y-81136500D01*
X78033410Y-81136500D01*
X77959211Y-81062301D01*
X77866918Y-81000632D01*
X77764367Y-80958155D01*
X77655500Y-80936500D01*
X77544500Y-80936500D01*
X77435633Y-80958155D01*
X77333082Y-81000632D01*
X77240789Y-81062301D01*
X77162301Y-81140789D01*
X77100632Y-81233082D01*
X77058155Y-81335633D01*
X77052616Y-81363477D01*
X76962102Y-81473770D01*
X76891205Y-81606408D01*
X76847547Y-81750328D01*
X76832806Y-81900000D01*
X65647500Y-81900000D01*
X65647500Y-80350000D01*
X98310225Y-80350000D01*
X98315313Y-80401655D01*
X98330380Y-80451325D01*
X98354848Y-80497101D01*
X98387776Y-80537224D01*
X98427899Y-80570152D01*
X98473675Y-80594620D01*
X98523345Y-80609687D01*
X98575000Y-80614775D01*
X98597625Y-80613500D01*
X98663500Y-80547625D01*
X98663500Y-79511500D01*
X99336500Y-79511500D01*
X99336500Y-80547625D01*
X99402375Y-80613500D01*
X99425000Y-80614775D01*
X99476655Y-80609687D01*
X99526325Y-80594620D01*
X99572101Y-80570152D01*
X99612224Y-80537224D01*
X99645152Y-80497101D01*
X99669620Y-80451325D01*
X99684687Y-80401655D01*
X99689775Y-80350000D01*
X99688500Y-79577375D01*
X99622625Y-79511500D01*
X99336500Y-79511500D01*
X98663500Y-79511500D01*
X98377375Y-79511500D01*
X98311500Y-79577375D01*
X98310225Y-80350000D01*
X65647500Y-80350000D01*
X65647500Y-80166565D01*
X69400100Y-78000000D01*
X96310225Y-78000000D01*
X96315313Y-78051655D01*
X96330380Y-78101325D01*
X96354848Y-78147101D01*
X96387776Y-78187224D01*
X96427899Y-78220152D01*
X96473675Y-78244620D01*
X96523345Y-78259687D01*
X96575000Y-78264775D01*
X96597625Y-78263500D01*
X96663500Y-78197625D01*
X96663500Y-77161500D01*
X97336500Y-77161500D01*
X97336500Y-78197625D01*
X97402375Y-78263500D01*
X97425000Y-78264775D01*
X97476655Y-78259687D01*
X97526325Y-78244620D01*
X97572101Y-78220152D01*
X97612224Y-78187224D01*
X97645152Y-78147101D01*
X97669620Y-78101325D01*
X97684687Y-78051655D01*
X97689775Y-78000000D01*
X98310225Y-78000000D01*
X98311500Y-78772625D01*
X98377375Y-78838500D01*
X98663500Y-78838500D01*
X98663500Y-77802375D01*
X99336500Y-77802375D01*
X99336500Y-78838500D01*
X99622625Y-78838500D01*
X99688500Y-78772625D01*
X99689775Y-78000000D01*
X99684687Y-77948345D01*
X99669620Y-77898675D01*
X99645152Y-77852899D01*
X99612224Y-77812776D01*
X99572101Y-77779848D01*
X99526325Y-77755380D01*
X99476655Y-77740313D01*
X99425000Y-77735225D01*
X99402375Y-77736500D01*
X99336500Y-77802375D01*
X98663500Y-77802375D01*
X98597625Y-77736500D01*
X98575000Y-77735225D01*
X98523345Y-77740313D01*
X98473675Y-77755380D01*
X98427899Y-77779848D01*
X98387776Y-77812776D01*
X98354848Y-77852899D01*
X98330380Y-77898675D01*
X98315313Y-77948345D01*
X98310225Y-78000000D01*
X97689775Y-78000000D01*
X97688500Y-77227375D01*
X97622625Y-77161500D01*
X97336500Y-77161500D01*
X96663500Y-77161500D01*
X96377375Y-77161500D01*
X96311500Y-77227375D01*
X96310225Y-78000000D01*
X69400100Y-78000000D01*
X73470419Y-75650000D01*
X96310225Y-75650000D01*
X96311500Y-76422625D01*
X96377375Y-76488500D01*
X96663500Y-76488500D01*
X96663500Y-75452375D01*
X97336500Y-75452375D01*
X97336500Y-76488500D01*
X97622625Y-76488500D01*
X97688500Y-76422625D01*
X97689775Y-75650000D01*
X97684687Y-75598345D01*
X97669620Y-75548675D01*
X97645152Y-75502899D01*
X97612224Y-75462776D01*
X97572101Y-75429848D01*
X97526325Y-75405380D01*
X97476655Y-75390313D01*
X97425000Y-75385225D01*
X97402375Y-75386500D01*
X97336500Y-75452375D01*
X96663500Y-75452375D01*
X96597625Y-75386500D01*
X96575000Y-75385225D01*
X96523345Y-75390313D01*
X96473675Y-75405380D01*
X96427899Y-75429848D01*
X96387776Y-75462776D01*
X96354848Y-75502899D01*
X96330380Y-75548675D01*
X96315313Y-75598345D01*
X96310225Y-75650000D01*
X73470419Y-75650000D01*
X100000017Y-60333131D01*
X134352533Y-80166566D01*
M02*
