  0
SECTION
  2
BLOCKS
  0
ENDSEC
  0
SECTION
  2
ENTITIES
  0
LINE
  8
0
 10
180
 20
20
 11
0
 21
20
  0
LINE
  8
0
 10
0
 20
20
 11
0
 21
-20
  0
LINE
  8
0
 10
0
 20
-20
 11
180
 21
-20
  0
LINE
  8
0
 10
180
 20
-20
 11
180
 21
20
  0
LINE
  8
0
 10
157.53
 20
3.73697
 11
157.063
 21
3.78117
  0
LINE
  8
0
 10
157.063
 20
3.78117
 11
156.599
 21
3.85466
  0
LINE
  8
0
 10
156.599
 20
3.85466
 11
156.14
 21
3.95714
  0
LINE
  8
0
 10
156.14
 20
3.95714
 11
155.689
 21
4.0882
  0
LINE
  8
0
 10
155.689
 20
4.0882
 11
155.247
 21
4.24733
  0
LINE
  8
0
 10
155.247
 20
4.24733
 11
154.816
 21
4.4339
  0
LINE
  8
0
 10
154.816
 20
4.4339
 11
154.398
 21
4.64716
  0
LINE
  8
0
 10
154.398
 20
4.64716
 11
153.993
 21
4.88629
  0
LINE
  8
0
 10
153.993
 20
4.88629
 11
153.605
 21
5.15034
  0
LINE
  8
0
 10
153.605
 20
5.15034
 11
153.233
 21
5.43826
  0
LINE
  8
0
 10
153.233
 20
5.43826
 11
152.881
 21
5.74893
  0
LINE
  8
0
 10
152.881
 20
5.74893
 11
152.549
 21
6.0811
  0
LINE
  8
0
 10
152.549
 20
6.0811
 11
152.238
 21
6.43347
  0
LINE
  8
0
 10
152.238
 20
6.43347
 11
151.95
 21
6.80466
  0
LINE
  8
0
 10
151.95
 20
6.80466
 11
151.686
 21
7.19319
  0
LINE
  8
0
 10
151.686
 20
7.19319
 11
151.447
 21
7.59755
  0
LINE
  8
0
 10
151.447
 20
7.59755
 11
151.234
 21
8.01611
  0
LINE
  8
0
 10
151.234
 20
8.01611
 11
151.047
 21
8.44724
  0
LINE
  8
0
 10
151.047
 20
8.44724
 11
150.888
 21
8.88924
  0
LINE
  8
0
 10
150.888
 20
8.88924
 11
150.757
 21
9.34035
  0
LINE
  8
0
 10
150.757
 20
9.34035
 11
150.655
 21
9.7988
  0
LINE
  8
0
 10
150.655
 20
9.7988
 11
150.581
 21
10.2628
  0
LINE
  8
0
 10
150.581
 20
10.2628
 11
150.537
 21
10.7305
  0
LINE
  8
0
 10
150.537
 20
10.7305
 11
150.522
 21
11.2
  0
LINE
  8
0
 10
150.522
 20
11.2
 11
150.537
 21
11.6695
  0
LINE
  8
0
 10
150.537
 20
11.6695
 11
150.581
 21
12.1372
  0
LINE
  8
0
 10
150.581
 20
12.1372
 11
150.655
 21
12.6012
  0
LINE
  8
0
 10
150.655
 20
12.6012
 11
150.757
 21
13.0596
  0
LINE
  8
0
 10
150.757
 20
13.0596
 11
150.888
 21
13.5108
  0
LINE
  8
0
 10
150.888
 20
13.5108
 11
151.047
 21
13.9527
  0
LINE
  8
0
 10
151.047
 20
13.9527
 11
151.234
 21
14.3839
  0
LINE
  8
0
 10
151.234
 20
14.3839
 11
151.447
 21
14.8024
  0
LINE
  8
0
 10
151.447
 20
14.8024
 11
151.686
 21
15.2068
  0
LINE
  8
0
 10
151.686
 20
15.2068
 11
151.95
 21
15.5953
  0
LINE
  8
0
 10
151.95
 20
15.5953
 11
152.238
 21
15.9665
  0
LINE
  8
0
 10
152.238
 20
15.9665
 11
152.549
 21
16.3189
  0
LINE
  8
0
 10
152.549
 20
16.3189
 11
152.881
 21
16.6511
  0
LINE
  8
0
 10
152.881
 20
16.6511
 11
153.233
 21
16.9617
  0
LINE
  8
0
 10
153.233
 20
16.9617
 11
153.605
 21
17.2496
  0
LINE
  8
0
 10
153.605
 20
17.2496
 11
153.993
 21
17.5137
  0
LINE
  8
0
 10
153.993
 20
17.5137
 11
154.398
 21
17.7528
  0
LINE
  8
0
 10
154.398
 20
17.7528
 11
154.816
 21
17.9661
  0
LINE
  8
0
 10
154.816
 20
17.9661
 11
155.247
 21
18.1527
  0
LINE
  8
0
 10
155.247
 20
18.1527
 11
155.689
 21
18.3118
  0
LINE
  8
0
 10
155.689
 20
18.3118
 11
156.14
 21
18.4428
  0
LINE
  8
0
 10
156.14
 20
18.4428
 11
156.599
 21
18.5453
  0
LINE
  8
0
 10
156.599
 20
18.5453
 11
157.063
 21
18.6188
  0
LINE
  8
0
 10
157.063
 20
18.6188
 11
157.53
 21
18.663
  0
LINE
  8
0
 10
157.53
 20
18.663
 11
158
 21
18.6778
  0
LINE
  8
0
 10
158
 20
18.6778
 11
158.47
 21
18.663
  0
LINE
  8
0
 10
158.47
 20
18.663
 11
158.937
 21
18.6188
  0
LINE
  8
0
 10
158.937
 20
18.6188
 11
159.401
 21
18.5453
  0
LINE
  8
0
 10
159.401
 20
18.5453
 11
159.86
 21
18.4428
  0
LINE
  8
0
 10
159.86
 20
18.4428
 11
160.311
 21
18.3118
  0
LINE
  8
0
 10
160.311
 20
18.3118
 11
160.753
 21
18.1527
  0
LINE
  8
0
 10
160.753
 20
18.1527
 11
161.184
 21
17.9661
  0
LINE
  8
0
 10
161.184
 20
17.9661
 11
161.602
 21
17.7528
  0
LINE
  8
0
 10
161.602
 20
17.7528
 11
162.007
 21
17.5137
  0
LINE
  8
0
 10
162.007
 20
17.5137
 11
162.395
 21
17.2496
  0
LINE
  8
0
 10
162.395
 20
17.2496
 11
162.767
 21
16.9617
  0
LINE
  8
0
 10
162.767
 20
16.9617
 11
163.119
 21
16.6511
  0
LINE
  8
0
 10
163.119
 20
16.6511
 11
163.451
 21
16.3189
  0
LINE
  8
0
 10
163.451
 20
16.3189
 11
163.762
 21
15.9665
  0
LINE
  8
0
 10
163.762
 20
15.9665
 11
164.05
 21
15.5953
  0
LINE
  8
0
 10
164.05
 20
15.5953
 11
164.314
 21
15.2068
  0
LINE
  8
0
 10
164.314
 20
15.2068
 11
164.553
 21
14.8024
  0
LINE
  8
0
 10
164.553
 20
14.8024
 11
164.766
 21
14.3839
  0
LINE
  8
0
 10
164.766
 20
14.3839
 11
164.953
 21
13.9527
  0
LINE
  8
0
 10
164.953
 20
13.9527
 11
165.112
 21
13.5108
  0
LINE
  8
0
 10
165.112
 20
13.5108
 11
165.243
 21
13.0596
  0
LINE
  8
0
 10
165.243
 20
13.0596
 11
165.345
 21
12.6012
  0
LINE
  8
0
 10
165.345
 20
12.6012
 11
165.419
 21
12.1372
  0
LINE
  8
0
 10
165.419
 20
12.1372
 11
165.463
 21
11.6695
  0
LINE
  8
0
 10
165.463
 20
11.6695
 11
165.478
 21
11.2
  0
LINE
  8
0
 10
165.478
 20
11.2
 11
165.463
 21
10.7305
  0
LINE
  8
0
 10
165.463
 20
10.7305
 11
165.419
 21
10.2628
  0
LINE
  8
0
 10
165.419
 20
10.2628
 11
165.345
 21
9.7988
  0
LINE
  8
0
 10
165.345
 20
9.7988
 11
165.243
 21
9.34035
  0
LINE
  8
0
 10
165.243
 20
9.34035
 11
165.112
 21
8.88924
  0
LINE
  8
0
 10
165.112
 20
8.88924
 11
164.953
 21
8.44724
  0
LINE
  8
0
 10
164.953
 20
8.44724
 11
164.766
 21
8.01611
  0
LINE
  8
0
 10
164.766
 20
8.01611
 11
164.553
 21
7.59755
  0
LINE
  8
0
 10
164.553
 20
7.59755
 11
164.314
 21
7.19319
  0
LINE
  8
0
 10
164.314
 20
7.19319
 11
164.05
 21
6.80466
  0
LINE
  8
0
 10
164.05
 20
6.80466
 11
163.762
 21
6.43347
  0
LINE
  8
0
 10
163.762
 20
6.43347
 11
163.451
 21
6.0811
  0
LINE
  8
0
 10
163.451
 20
6.0811
 11
163.119
 21
5.74893
  0
LINE
  8
0
 10
163.119
 20
5.74893
 11
162.767
 21
5.43826
  0
LINE
  8
0
 10
162.767
 20
5.43826
 11
162.395
 21
5.15034
  0
LINE
  8
0
 10
162.395
 20
5.15034
 11
162.007
 21
4.88629
  0
LINE
  8
0
 10
162.007
 20
4.88629
 11
161.602
 21
4.64716
  0
LINE
  8
0
 10
161.602
 20
4.64716
 11
161.184
 21
4.4339
  0
LINE
  8
0
 10
161.184
 20
4.4339
 11
160.753
 21
4.24733
  0
LINE
  8
0
 10
160.753
 20
4.24733
 11
160.311
 21
4.0882
  0
LINE
  8
0
 10
160.311
 20
4.0882
 11
159.86
 21
3.95714
  0
LINE
  8
0
 10
159.86
 20
3.95714
 11
159.401
 21
3.85466
  0
LINE
  8
0
 10
159.401
 20
3.85466
 11
158.937
 21
3.78117
  0
LINE
  8
0
 10
158.937
 20
3.78117
 11
158.47
 21
3.73697
  0
LINE
  8
0
 10
158.47
 20
3.73697
 11
158
 21
3.72221
  0
LINE
  8
0
 10
158
 20
3.72221
 11
157.53
 21
3.73697
  0
LINE
  8
0
 10
101.535
 20
3.81123
 11
101.072
 21
3.855
  0
LINE
  8
0
 10
101.072
 20
3.855
 11
100.613
 21
3.92775
  0
LINE
  8
0
 10
100.613
 20
3.92775
 11
100.159
 21
4.02921
  0
LINE
  8
0
 10
100.159
 20
4.02921
 11
99.7122
 21
4.15897
  0
LINE
  8
0
 10
99.7122
 20
4.15897
 11
99.2746
 21
4.31651
  0
LINE
  8
0
 10
99.2746
 20
4.31651
 11
98.8478
 21
4.50122
  0
LINE
  8
0
 10
98.8478
 20
4.50122
 11
98.4334
 21
4.71237
  0
LINE
  8
0
 10
98.4334
 20
4.71237
 11
98.0331
 21
4.94911
  0
LINE
  8
0
 10
98.0331
 20
4.94911
 11
97.6484
 21
5.21054
  0
LINE
  8
0
 10
97.6484
 20
5.21054
 11
97.2809
 21
5.49559
  0
LINE
  8
0
 10
97.2809
 20
5.49559
 11
96.932
 21
5.80316
  0
LINE
  8
0
 10
96.932
 20
5.80316
 11
96.6032
 21
6.13203
  0
LINE
  8
0
 10
96.6032
 20
6.13203
 11
96.2956
 21
6.48091
  0
LINE
  8
0
 10
96.2956
 20
6.48091
 11
96.0105
 21
6.8484
  0
LINE
  8
0
 10
96.0105
 20
6.8484
 11
95.7491
 21
7.23306
  0
LINE
  8
0
 10
95.7491
 20
7.23306
 11
95.5124
 21
7.63339
  0
LINE
  8
0
 10
95.5124
 20
7.63339
 11
95.3012
 21
8.04779
  0
LINE
  8
0
 10
95.3012
 20
8.04779
 11
95.1165
 21
8.47462
  0
LINE
  8
0
 10
95.1165
 20
8.47462
 11
94.959
 21
8.91223
  0
LINE
  8
0
 10
94.959
 20
8.91223
 11
94.8292
 21
9.35886
  0
LINE
  8
0
 10
94.8292
 20
9.35886
 11
94.7278
 21
9.81274
  0
LINE
  8
0
 10
94.7278
 20
9.81274
 11
94.655
 21
10.2721
  0
LINE
  8
0
 10
94.655
 20
10.2721
 11
94.6112
 21
10.7351
  0
LINE
  8
0
 10
94.6112
 20
10.7351
 11
94.5966
 21
11.2
  0
LINE
  8
0
 10
94.5966
 20
11.2
 11
94.6112
 21
11.6649
  0
LINE
  8
0
 10
94.6112
 20
11.6649
 11
94.655
 21
12.1279
  0
LINE
  8
0
 10
94.655
 20
12.1279
 11
94.7278
 21
12.5872
  0
LINE
  8
0
 10
94.7278
 20
12.5872
 11
94.8292
 21
13.0411
  0
LINE
  8
0
 10
94.8292
 20
13.0411
 11
94.959
 21
13.4878
  0
LINE
  8
0
 10
94.959
 20
13.4878
 11
95.1165
 21
13.9254
  0
LINE
  8
0
 10
95.1165
 20
13.9254
 11
95.3012
 21
14.3522
  0
LINE
  8
0
 10
95.3012
 20
14.3522
 11
95.5124
 21
14.7666
  0
LINE
  8
0
 10
95.5124
 20
14.7666
 11
95.7491
 21
15.1669
  0
LINE
  8
0
 10
95.7491
 20
15.1669
 11
96.0105
 21
15.5516
  0
LINE
  8
0
 10
96.0105
 20
15.5516
 11
96.2956
 21
15.9191
  0
LINE
  8
0
 10
96.2956
 20
15.9191
 11
96.6032
 21
16.2679
  0
LINE
  8
0
 10
96.6032
 20
16.2679
 11
96.932
 21
16.5968
  0
LINE
  8
0
 10
96.932
 20
16.5968
 11
97.2809
 21
16.9044
  0
LINE
  8
0
 10
97.2809
 20
16.9044
 11
97.6484
 21
17.1895
  0
LINE
  8
0
 10
97.6484
 20
17.1895
 11
98.0331
 21
17.4509
  0
LINE
  8
0
 10
98.0331
 20
17.4509
 11
98.4334
 21
17.6876
  0
LINE
  8
0
 10
98.4334
 20
17.6876
 11
98.8478
 21
17.8988
  0
LINE
  8
0
 10
98.8478
 20
17.8988
 11
99.2746
 21
18.0835
  0
LINE
  8
0
 10
99.2746
 20
18.0835
 11
99.7122
 21
18.241
  0
LINE
  8
0
 10
99.7122
 20
18.241
 11
100.159
 21
18.3708
  0
LINE
  8
0
 10
100.159
 20
18.3708
 11
100.613
 21
18.4722
  0
LINE
  8
0
 10
100.613
 20
18.4722
 11
101.072
 21
18.545
  0
LINE
  8
0
 10
101.072
 20
18.545
 11
101.535
 21
18.5888
  0
LINE
  8
0
 10
101.535
 20
18.5888
 11
102
 21
18.6034
  0
LINE
  8
0
 10
102
 20
18.6034
 11
102.465
 21
18.5888
  0
LINE
  8
0
 10
102.465
 20
18.5888
 11
102.928
 21
18.545
  0
LINE
  8
0
 10
102.928
 20
18.545
 11
103.387
 21
18.4722
  0
LINE
  8
0
 10
103.387
 20
18.4722
 11
103.841
 21
18.3708
  0
LINE
  8
0
 10
103.841
 20
18.3708
 11
104.288
 21
18.241
  0
LINE
  8
0
 10
104.288
 20
18.241
 11
104.725
 21
18.0835
  0
LINE
  8
0
 10
104.725
 20
18.0835
 11
105.152
 21
17.8988
  0
LINE
  8
0
 10
105.152
 20
17.8988
 11
105.567
 21
17.6876
  0
LINE
  8
0
 10
105.567
 20
17.6876
 11
105.967
 21
17.4509
  0
LINE
  8
0
 10
105.967
 20
17.4509
 11
106.352
 21
17.1895
  0
LINE
  8
0
 10
106.352
 20
17.1895
 11
106.719
 21
16.9044
  0
LINE
  8
0
 10
106.719
 20
16.9044
 11
107.068
 21
16.5968
  0
LINE
  8
0
 10
107.068
 20
16.5968
 11
107.397
 21
16.2679
  0
LINE
  8
0
 10
107.397
 20
16.2679
 11
107.704
 21
15.9191
  0
LINE
  8
0
 10
107.704
 20
15.9191
 11
107.989
 21
15.5516
  0
LINE
  8
0
 10
107.989
 20
15.5516
 11
108.251
 21
15.1669
  0
LINE
  8
0
 10
108.251
 20
15.1669
 11
108.488
 21
14.7666
  0
LINE
  8
0
 10
108.488
 20
14.7666
 11
108.699
 21
14.3522
  0
LINE
  8
0
 10
108.699
 20
14.3522
 11
108.883
 21
13.9254
  0
LINE
  8
0
 10
108.883
 20
13.9254
 11
109.041
 21
13.4878
  0
LINE
  8
0
 10
109.041
 20
13.4878
 11
109.171
 21
13.0411
  0
LINE
  8
0
 10
109.171
 20
13.0411
 11
109.272
 21
12.5872
  0
LINE
  8
0
 10
109.272
 20
12.5872
 11
109.345
 21
12.1279
  0
LINE
  8
0
 10
109.345
 20
12.1279
 11
109.389
 21
11.6649
  0
LINE
  8
0
 10
109.389
 20
11.6649
 11
109.403
 21
11.2
  0
LINE
  8
0
 10
109.403
 20
11.2
 11
109.389
 21
10.7351
  0
LINE
  8
0
 10
109.389
 20
10.7351
 11
109.345
 21
10.2721
  0
LINE
  8
0
 10
109.345
 20
10.2721
 11
109.272
 21
9.81274
  0
LINE
  8
0
 10
109.272
 20
9.81274
 11
109.171
 21
9.35886
  0
LINE
  8
0
 10
109.171
 20
9.35886
 11
109.041
 21
8.91223
  0
LINE
  8
0
 10
109.041
 20
8.91223
 11
108.883
 21
8.47462
  0
LINE
  8
0
 10
108.883
 20
8.47462
 11
108.699
 21
8.04779
  0
LINE
  8
0
 10
108.699
 20
8.04779
 11
108.488
 21
7.63339
  0
LINE
  8
0
 10
108.488
 20
7.63339
 11
108.251
 21
7.23306
  0
LINE
  8
0
 10
108.251
 20
7.23306
 11
107.989
 21
6.8484
  0
LINE
  8
0
 10
107.989
 20
6.8484
 11
107.704
 21
6.48091
  0
LINE
  8
0
 10
107.704
 20
6.48091
 11
107.397
 21
6.13203
  0
LINE
  8
0
 10
107.397
 20
6.13203
 11
107.068
 21
5.80316
  0
LINE
  8
0
 10
107.068
 20
5.80316
 11
106.719
 21
5.49559
  0
LINE
  8
0
 10
106.719
 20
5.49559
 11
106.352
 21
5.21054
  0
LINE
  8
0
 10
106.352
 20
5.21054
 11
105.967
 21
4.94911
  0
LINE
  8
0
 10
105.967
 20
4.94911
 11
105.567
 21
4.71237
  0
LINE
  8
0
 10
105.567
 20
4.71237
 11
105.152
 21
4.50122
  0
LINE
  8
0
 10
105.152
 20
4.50122
 11
104.725
 21
4.31651
  0
LINE
  8
0
 10
104.725
 20
4.31651
 11
104.288
 21
4.15897
  0
LINE
  8
0
 10
104.288
 20
4.15897
 11
103.841
 21
4.02921
  0
LINE
  8
0
 10
103.841
 20
4.02921
 11
103.387
 21
3.92775
  0
LINE
  8
0
 10
103.387
 20
3.92775
 11
102.928
 21
3.855
  0
LINE
  8
0
 10
102.928
 20
3.855
 11
102.465
 21
3.81123
  0
LINE
  8
0
 10
102.465
 20
3.81123
 11
102
 21
3.79662
  0
LINE
  8
0
 10
102
 20
3.79662
 11
101.535
 21
3.81123
  0
LINE
  8
0
 10
73.5574
 20
4.16518
 11
73.1165
 21
4.20685
  0
LINE
  8
0
 10
73.1165
 20
4.20685
 11
72.6792
 21
4.27612
  0
LINE
  8
0
 10
72.6792
 20
4.27612
 11
72.247
 21
4.37273
  0
LINE
  8
0
 10
72.247
 20
4.37273
 11
71.8218
 21
4.49626
  0
LINE
  8
0
 10
71.8218
 20
4.49626
 11
71.4052
 21
4.64626
  0
LINE
  8
0
 10
71.4052
 20
4.64626
 11
70.9988
 21
4.82211
  0
LINE
  8
0
 10
70.9988
 20
4.82211
 11
70.6042
 21
5.02315
  0
LINE
  8
0
 10
70.6042
 20
5.02315
 11
70.2231
 21
5.24857
  0
LINE
  8
0
 10
70.2231
 20
5.24857
 11
69.8569
 21
5.49745
  0
LINE
  8
0
 10
69.8569
 20
5.49745
 11
69.507
 21
5.76886
  0
LINE
  8
0
 10
69.507
 20
5.76886
 11
69.1748
 21
6.06169
  0
LINE
  8
0
 10
69.1748
 20
6.06169
 11
68.8617
 21
6.37482
  0
LINE
  8
0
 10
68.8617
 20
6.37482
 11
68.5689
 21
6.70697
  0
LINE
  8
0
 10
68.5689
 20
6.70697
 11
68.2975
 21
7.05685
  0
LINE
  8
0
 10
68.2975
 20
7.05685
 11
68.0486
 21
7.4231
  0
LINE
  8
0
 10
68.0486
 20
7.4231
 11
67.8232
 21
7.80424
  0
LINE
  8
0
 10
67.8232
 20
7.80424
 11
67.6221
 21
8.19879
  0
LINE
  8
0
 10
67.6221
 20
8.19879
 11
67.4463
 21
8.60518
  0
LINE
  8
0
 10
67.4463
 20
8.60518
 11
67.2963
 21
9.02182
  0
LINE
  8
0
 10
67.2963
 20
9.02182
 11
67.1727
 21
9.44705
  0
LINE
  8
0
 10
67.1727
 20
9.44705
 11
67.0761
 21
9.8792
  0
LINE
  8
0
 10
67.0761
 20
9.8792
 11
67.0069
 21
10.3166
  0
LINE
  8
0
 10
67.0069
 20
10.3166
 11
66.9652
 21
10.7574
  0
LINE
  8
0
 10
66.9652
 20
10.7574
 11
66.9513
 21
11.2
  0
LINE
  8
0
 10
66.9513
 20
11.2
 11
66.9652
 21
11.6426
  0
LINE
  8
0
 10
66.9652
 20
11.6426
 11
67.0069
 21
12.0834
  0
LINE
  8
0
 10
67.0069
 20
12.0834
 11
67.0761
 21
12.5208
  0
LINE
  8
0
 10
67.0761
 20
12.5208
 11
67.1727
 21
12.9529
  0
LINE
  8
0
 10
67.1727
 20
12.9529
 11
67.2963
 21
13.3782
  0
LINE
  8
0
 10
67.2963
 20
13.3782
 11
67.4463
 21
13.7948
  0
LINE
  8
0
 10
67.4463
 20
13.7948
 11
67.6221
 21
14.2012
  0
LINE
  8
0
 10
67.6221
 20
14.2012
 11
67.8232
 21
14.5957
  0
LINE
  8
0
 10
67.8232
 20
14.5957
 11
68.0486
 21
14.9769
  0
LINE
  8
0
 10
68.0486
 20
14.9769
 11
68.2975
 21
15.3431
  0
LINE
  8
0
 10
68.2975
 20
15.3431
 11
68.5689
 21
15.693
  0
LINE
  8
0
 10
68.5689
 20
15.693
 11
68.8617
 21
16.0252
  0
LINE
  8
0
 10
68.8617
 20
16.0252
 11
69.1748
 21
16.3383
  0
LINE
  8
0
 10
69.1748
 20
16.3383
 11
69.507
 21
16.6311
  0
LINE
  8
0
 10
69.507
 20
16.6311
 11
69.8569
 21
16.9025
  0
LINE
  8
0
 10
69.8569
 20
16.9025
 11
70.2231
 21
17.1514
  0
LINE
  8
0
 10
70.2231
 20
17.1514
 11
70.6042
 21
17.3768
  0
LINE
  8
0
 10
70.6042
 20
17.3768
 11
70.9988
 21
17.5779
  0
LINE
  8
0
 10
70.9988
 20
17.5779
 11
71.4052
 21
17.7537
  0
LINE
  8
0
 10
71.4052
 20
17.7537
 11
71.8218
 21
17.9037
  0
LINE
  8
0
 10
71.8218
 20
17.9037
 11
72.247
 21
18.0273
  0
LINE
  8
0
 10
72.247
 20
18.0273
 11
72.6792
 21
18.1239
  0
LINE
  8
0
 10
72.6792
 20
18.1239
 11
73.1165
 21
18.1931
  0
LINE
  8
0
 10
73.1165
 20
18.1931
 11
73.5574
 21
18.2348
  0
LINE
  8
0
 10
73.5574
 20
18.2348
 11
74
 21
18.2487
  0
LINE
  8
0
 10
74
 20
18.2487
 11
74.4426
 21
18.2348
  0
LINE
  8
0
 10
74.4426
 20
18.2348
 11
74.8834
 21
18.1931
  0
LINE
  8
0
 10
74.8834
 20
18.1931
 11
75.3208
 21
18.1239
  0
LINE
  8
0
 10
75.3208
 20
18.1239
 11
75.7529
 21
18.0273
  0
LINE
  8
0
 10
75.7529
 20
18.0273
 11
76.1782
 21
17.9037
  0
LINE
  8
0
 10
76.1782
 20
17.9037
 11
76.5948
 21
17.7537
  0
LINE
  8
0
 10
76.5948
 20
17.7537
 11
77.0012
 21
17.5779
  0
LINE
  8
0
 10
77.0012
 20
17.5779
 11
77.3957
 21
17.3768
  0
LINE
  8
0
 10
77.3957
 20
17.3768
 11
77.7769
 21
17.1514
  0
LINE
  8
0
 10
77.7769
 20
17.1514
 11
78.1431
 21
16.9025
  0
LINE
  8
0
 10
78.1431
 20
16.9025
 11
78.493
 21
16.6311
  0
LINE
  8
0
 10
78.493
 20
16.6311
 11
78.8252
 21
16.3383
  0
LINE
  8
0
 10
78.8252
 20
16.3383
 11
79.1383
 21
16.0252
  0
LINE
  8
0
 10
79.1383
 20
16.0252
 11
79.4311
 21
15.693
  0
LINE
  8
0
 10
79.4311
 20
15.693
 11
79.7025
 21
15.3431
  0
LINE
  8
0
 10
79.7025
 20
15.3431
 11
79.9514
 21
14.9769
  0
LINE
  8
0
 10
79.9514
 20
14.9769
 11
80.1768
 21
14.5957
  0
LINE
  8
0
 10
80.1768
 20
14.5957
 11
80.3779
 21
14.2012
  0
LINE
  8
0
 10
80.3779
 20
14.2012
 11
80.5537
 21
13.7948
  0
LINE
  8
0
 10
80.5537
 20
13.7948
 11
80.7037
 21
13.3782
  0
LINE
  8
0
 10
80.7037
 20
13.3782
 11
80.8273
 21
12.9529
  0
LINE
  8
0
 10
80.8273
 20
12.9529
 11
80.9239
 21
12.5208
  0
LINE
  8
0
 10
80.9239
 20
12.5208
 11
80.9931
 21
12.0834
  0
LINE
  8
0
 10
80.9931
 20
12.0834
 11
81.0348
 21
11.6426
  0
LINE
  8
0
 10
81.0348
 20
11.6426
 11
81.0487
 21
11.2
  0
LINE
  8
0
 10
81.0487
 20
11.2
 11
81.0348
 21
10.7574
  0
LINE
  8
0
 10
81.0348
 20
10.7574
 11
80.9931
 21
10.3166
  0
LINE
  8
0
 10
80.9931
 20
10.3166
 11
80.9239
 21
9.8792
  0
LINE
  8
0
 10
80.9239
 20
9.8792
 11
80.8273
 21
9.44705
  0
LINE
  8
0
 10
80.8273
 20
9.44705
 11
80.7037
 21
9.02182
  0
LINE
  8
0
 10
80.7037
 20
9.02182
 11
80.5537
 21
8.60518
  0
LINE
  8
0
 10
80.5537
 20
8.60518
 11
80.3779
 21
8.19879
  0
LINE
  8
0
 10
80.3779
 20
8.19879
 11
80.1768
 21
7.80424
  0
LINE
  8
0
 10
80.1768
 20
7.80424
 11
79.9514
 21
7.4231
  0
LINE
  8
0
 10
79.9514
 20
7.4231
 11
79.7025
 21
7.05685
  0
LINE
  8
0
 10
79.7025
 20
7.05685
 11
79.4311
 21
6.70697
  0
LINE
  8
0
 10
79.4311
 20
6.70697
 11
79.1383
 21
6.37482
  0
LINE
  8
0
 10
79.1383
 20
6.37482
 11
78.8252
 21
6.06169
  0
LINE
  8
0
 10
78.8252
 20
6.06169
 11
78.493
 21
5.76886
  0
LINE
  8
0
 10
78.493
 20
5.76886
 11
78.1431
 21
5.49745
  0
LINE
  8
0
 10
78.1431
 20
5.49745
 11
77.7769
 21
5.24857
  0
LINE
  8
0
 10
77.7769
 20
5.24857
 11
77.3957
 21
5.02315
  0
LINE
  8
0
 10
77.3957
 20
5.02315
 11
77.0012
 21
4.82211
  0
LINE
  8
0
 10
77.0012
 20
4.82211
 11
76.5948
 21
4.64626
  0
LINE
  8
0
 10
76.5948
 20
4.64626
 11
76.1782
 21
4.49626
  0
LINE
  8
0
 10
76.1782
 20
4.49626
 11
75.7529
 21
4.37273
  0
LINE
  8
0
 10
75.7529
 20
4.37273
 11
75.3208
 21
4.27612
  0
LINE
  8
0
 10
75.3208
 20
4.27612
 11
74.8834
 21
4.20685
  0
LINE
  8
0
 10
74.8834
 20
4.20685
 11
74.4426
 21
4.16518
  0
LINE
  8
0
 10
74.4426
 20
4.16518
 11
74
 21
4.15128
  0
LINE
  8
0
 10
74
 20
4.15128
 11
73.5574
 21
4.16518
  0
LINE
  8
0
 10
129.732
 20
6.93321
 11
129.464
 21
6.9585
  0
LINE
  8
0
 10
129.464
 20
6.9585
 11
129.199
 21
7.0005
  0
LINE
  8
0
 10
129.199
 20
7.0005
 11
128.937
 21
7.0591
  0
LINE
  8
0
 10
128.937
 20
7.0591
 11
128.679
 21
7.13403
  0
LINE
  8
0
 10
128.679
 20
7.13403
 11
128.426
 21
7.22501
  0
LINE
  8
0
 10
128.426
 20
7.22501
 11
128.18
 21
7.33167
  0
LINE
  8
0
 10
128.18
 20
7.33167
 11
127.94
 21
7.4536
  0
LINE
  8
0
 10
127.94
 20
7.4536
 11
127.709
 21
7.59032
  0
LINE
  8
0
 10
127.709
 20
7.59032
 11
127.487
 21
7.74127
  0
LINE
  8
0
 10
127.487
 20
7.74127
 11
127.275
 21
7.90588
  0
LINE
  8
0
 10
127.275
 20
7.90588
 11
127.073
 21
8.0835
  0
LINE
  8
0
 10
127.073
 20
8.0835
 11
126.883
 21
8.27341
  0
LINE
  8
0
 10
126.883
 20
8.27341
 11
126.706
 21
8.47487
  0
LINE
  8
0
 10
126.706
 20
8.47487
 11
126.541
 21
8.68709
  0
LINE
  8
0
 10
126.541
 20
8.68709
 11
126.39
 21
8.90923
  0
LINE
  8
0
 10
126.39
 20
8.90923
 11
126.254
 21
9.1404
  0
LINE
  8
0
 10
126.254
 20
9.1404
 11
126.132
 21
9.3797
  0
LINE
  8
0
 10
126.132
 20
9.3797
 11
126.025
 21
9.62619
  0
LINE
  8
0
 10
126.025
 20
9.62619
 11
125.934
 21
9.87888
  0
LINE
  8
0
 10
125.934
 20
9.87888
 11
125.859
 21
10.1368
  0
LINE
  8
0
 10
125.859
 20
10.1368
 11
125.801
 21
10.3989
  0
LINE
  8
0
 10
125.801
 20
10.3989
 11
125.758
 21
10.6642
  0
LINE
  8
0
 10
125.758
 20
10.6642
 11
125.733
 21
10.9315
  0
LINE
  8
0
 10
125.733
 20
10.9315
 11
125.725
 21
11.2
  0
LINE
  8
0
 10
125.725
 20
11.2
 11
125.733
 21
11.4684
  0
LINE
  8
0
 10
125.733
 20
11.4684
 11
125.758
 21
11.7358
  0
LINE
  8
0
 10
125.758
 20
11.7358
 11
125.801
 21
12.0011
  0
LINE
  8
0
 10
125.801
 20
12.0011
 11
125.859
 21
12.2632
  0
LINE
  8
0
 10
125.859
 20
12.2632
 11
125.934
 21
12.5211
  0
LINE
  8
0
 10
125.934
 20
12.5211
 11
126.025
 21
12.7738
  0
LINE
  8
0
 10
126.025
 20
12.7738
 11
126.132
 21
13.0203
  0
LINE
  8
0
 10
126.132
 20
13.0203
 11
126.254
 21
13.2596
  0
LINE
  8
0
 10
126.254
 20
13.2596
 11
126.39
 21
13.4908
  0
LINE
  8
0
 10
126.39
 20
13.4908
 11
126.541
 21
13.7129
  0
LINE
  8
0
 10
126.541
 20
13.7129
 11
126.706
 21
13.9251
  0
LINE
  8
0
 10
126.706
 20
13.9251
 11
126.883
 21
14.1266
  0
LINE
  8
0
 10
126.883
 20
14.1266
 11
127.073
 21
14.3165
  0
LINE
  8
0
 10
127.073
 20
14.3165
 11
127.275
 21
14.4941
  0
LINE
  8
0
 10
127.275
 20
14.4941
 11
127.487
 21
14.6587
  0
LINE
  8
0
 10
127.487
 20
14.6587
 11
127.709
 21
14.8097
  0
LINE
  8
0
 10
127.709
 20
14.8097
 11
127.94
 21
14.9464
  0
LINE
  8
0
 10
127.94
 20
14.9464
 11
128.18
 21
15.0683
  0
LINE
  8
0
 10
128.18
 20
15.0683
 11
128.426
 21
15.175
  0
LINE
  8
0
 10
128.426
 20
15.175
 11
128.679
 21
15.266
  0
LINE
  8
0
 10
128.679
 20
15.266
 11
128.937
 21
15.3409
  0
LINE
  8
0
 10
128.937
 20
15.3409
 11
129.199
 21
15.3995
  0
LINE
  8
0
 10
129.199
 20
15.3995
 11
129.464
 21
15.4415
  0
LINE
  8
0
 10
129.464
 20
15.4415
 11
129.732
 21
15.4668
  0
LINE
  8
0
 10
129.732
 20
15.4668
 11
130
 21
15.4752
  0
LINE
  8
0
 10
130
 20
15.4752
 11
130.268
 21
15.4668
  0
LINE
  8
0
 10
130.268
 20
15.4668
 11
130.536
 21
15.4415
  0
LINE
  8
0
 10
130.536
 20
15.4415
 11
130.801
 21
15.3995
  0
LINE
  8
0
 10
130.801
 20
15.3995
 11
131.063
 21
15.3409
  0
LINE
  8
0
 10
131.063
 20
15.3409
 11
131.321
 21
15.266
  0
LINE
  8
0
 10
131.321
 20
15.266
 11
131.574
 21
15.175
  0
LINE
  8
0
 10
131.574
 20
15.175
 11
131.82
 21
15.0683
  0
LINE
  8
0
 10
131.82
 20
15.0683
 11
132.06
 21
14.9464
  0
LINE
  8
0
 10
132.06
 20
14.9464
 11
132.291
 21
14.8097
  0
LINE
  8
0
 10
132.291
 20
14.8097
 11
132.513
 21
14.6587
  0
LINE
  8
0
 10
132.513
 20
14.6587
 11
132.725
 21
14.4941
  0
LINE
  8
0
 10
132.725
 20
14.4941
 11
132.927
 21
14.3165
  0
LINE
  8
0
 10
132.927
 20
14.3165
 11
133.116
 21
14.1266
  0
LINE
  8
0
 10
133.116
 20
14.1266
 11
133.294
 21
13.9251
  0
LINE
  8
0
 10
133.294
 20
13.9251
 11
133.459
 21
13.7129
  0
LINE
  8
0
 10
133.459
 20
13.7129
 11
133.61
 21
13.4908
  0
LINE
  8
0
 10
133.61
 20
13.4908
 11
133.746
 21
13.2596
  0
LINE
  8
0
 10
133.746
 20
13.2596
 11
133.868
 21
13.0203
  0
LINE
  8
0
 10
133.868
 20
13.0203
 11
133.975
 21
12.7738
  0
LINE
  8
0
 10
133.975
 20
12.7738
 11
134.066
 21
12.5211
  0
LINE
  8
0
 10
134.066
 20
12.5211
 11
134.141
 21
12.2632
  0
LINE
  8
0
 10
134.141
 20
12.2632
 11
134.199
 21
12.0011
  0
LINE
  8
0
 10
134.199
 20
12.0011
 11
134.241
 21
11.7358
  0
LINE
  8
0
 10
134.241
 20
11.7358
 11
134.267
 21
11.4684
  0
LINE
  8
0
 10
134.267
 20
11.4684
 11
134.275
 21
11.2
  0
LINE
  8
0
 10
134.275
 20
11.2
 11
134.267
 21
10.9315
  0
LINE
  8
0
 10
134.267
 20
10.9315
 11
134.241
 21
10.6642
  0
LINE
  8
0
 10
134.241
 20
10.6642
 11
134.199
 21
10.3989
  0
LINE
  8
0
 10
134.199
 20
10.3989
 11
134.141
 21
10.1368
  0
LINE
  8
0
 10
134.141
 20
10.1368
 11
134.066
 21
9.87888
  0
LINE
  8
0
 10
134.066
 20
9.87888
 11
133.975
 21
9.62619
  0
LINE
  8
0
 10
133.975
 20
9.62619
 11
133.868
 21
9.3797
  0
LINE
  8
0
 10
133.868
 20
9.3797
 11
133.746
 21
9.1404
  0
LINE
  8
0
 10
133.746
 20
9.1404
 11
133.61
 21
8.90923
  0
LINE
  8
0
 10
133.61
 20
8.90923
 11
133.459
 21
8.68709
  0
LINE
  8
0
 10
133.459
 20
8.68709
 11
133.294
 21
8.47487
  0
LINE
  8
0
 10
133.294
 20
8.47487
 11
133.116
 21
8.27341
  0
LINE
  8
0
 10
133.116
 20
8.27341
 11
132.927
 21
8.0835
  0
LINE
  8
0
 10
132.927
 20
8.0835
 11
132.725
 21
7.90588
  0
LINE
  8
0
 10
132.725
 20
7.90588
 11
132.513
 21
7.74127
  0
LINE
  8
0
 10
132.513
 20
7.74127
 11
132.291
 21
7.59032
  0
LINE
  8
0
 10
132.291
 20
7.59032
 11
132.06
 21
7.4536
  0
LINE
  8
0
 10
132.06
 20
7.4536
 11
131.82
 21
7.33167
  0
LINE
  8
0
 10
131.82
 20
7.33167
 11
131.574
 21
7.22501
  0
LINE
  8
0
 10
131.574
 20
7.22501
 11
131.321
 21
7.13403
  0
LINE
  8
0
 10
131.321
 20
7.13403
 11
131.063
 21
7.0591
  0
LINE
  8
0
 10
131.063
 20
7.0591
 11
130.801
 21
7.0005
  0
LINE
  8
0
 10
130.801
 20
7.0005
 11
130.536
 21
6.9585
  0
LINE
  8
0
 10
130.536
 20
6.9585
 11
130.268
 21
6.93321
  0
LINE
  8
0
 10
130.268
 20
6.93321
 11
130
 21
6.92479
  0
LINE
  8
0
 10
130
 20
6.92479
 11
129.732
 21
6.93321
  0
LINE
  8
0
 10
45.7318
 20
6.93718
 11
45.4647
 21
6.96243
  0
LINE
  8
0
 10
45.4647
 20
6.96243
 11
45.1996
 21
7.00439
  0
LINE
  8
0
 10
45.1996
 20
7.00439
 11
44.9378
 21
7.06293
  0
LINE
  8
0
 10
44.9378
 20
7.06293
 11
44.6801
 21
7.1378
  0
LINE
  8
0
 10
44.6801
 20
7.1378
 11
44.4276
 21
7.22868
  0
LINE
  8
0
 10
44.4276
 20
7.22868
 11
44.1814
 21
7.33525
  0
LINE
  8
0
 10
44.1814
 20
7.33525
 11
43.9423
 21
7.45708
  0
LINE
  8
0
 10
43.9423
 20
7.45708
 11
43.7113
 21
7.59366
  0
LINE
  8
0
 10
43.7113
 20
7.59366
 11
43.4894
 21
7.74448
  0
LINE
  8
0
 10
43.4894
 20
7.74448
 11
43.2774
 21
7.90894
  0
LINE
  8
0
 10
43.2774
 20
7.90894
 11
43.0761
 21
8.08638
  0
LINE
  8
0
 10
43.0761
 20
8.08638
 11
42.8864
 21
8.27612
  0
LINE
  8
0
 10
42.8864
 20
8.27612
 11
42.7089
 21
8.4774
  0
LINE
  8
0
 10
42.7089
 20
8.4774
 11
42.5445
 21
8.68942
  0
LINE
  8
0
 10
42.5445
 20
8.68942
 11
42.3937
 21
8.91135
  0
LINE
  8
0
 10
42.3937
 20
8.91135
 11
42.2571
 21
9.1423
  0
LINE
  8
0
 10
42.2571
 20
9.1423
 11
42.1353
 21
9.38138
  0
LINE
  8
0
 10
42.1353
 20
9.38138
 11
42.0287
 21
9.62764
  0
LINE
  8
0
 10
42.0287
 20
9.62764
 11
41.9378
 21
9.88011
  0
LINE
  8
0
 10
41.9378
 20
9.88011
 11
41.8629
 21
10.1378
  0
LINE
  8
0
 10
41.8629
 20
10.1378
 11
41.8044
 21
10.3996
  0
LINE
  8
0
 10
41.8044
 20
10.3996
 11
41.7624
 21
10.6647
  0
LINE
  8
0
 10
41.7624
 20
10.6647
 11
41.7372
 21
10.9318
  0
LINE
  8
0
 10
41.7372
 20
10.9318
 11
41.7287
 21
11.2
  0
LINE
  8
0
 10
41.7287
 20
11.2
 11
41.7372
 21
11.4682
  0
LINE
  8
0
 10
41.7372
 20
11.4682
 11
41.7624
 21
11.7353
  0
LINE
  8
0
 10
41.7624
 20
11.7353
 11
41.8044
 21
12.0004
  0
LINE
  8
0
 10
41.8044
 20
12.0004
 11
41.8629
 21
12.2622
  0
LINE
  8
0
 10
41.8629
 20
12.2622
 11
41.9378
 21
12.5199
  0
LINE
  8
0
 10
41.9378
 20
12.5199
 11
42.0287
 21
12.7723
  0
LINE
  8
0
 10
42.0287
 20
12.7723
 11
42.1353
 21
13.0186
  0
LINE
  8
0
 10
42.1353
 20
13.0186
 11
42.2571
 21
13.2577
  0
LINE
  8
0
 10
42.2571
 20
13.2577
 11
42.3937
 21
13.4886
  0
LINE
  8
0
 10
42.3937
 20
13.4886
 11
42.5445
 21
13.7106
  0
LINE
  8
0
 10
42.5445
 20
13.7106
 11
42.7089
 21
13.9226
  0
LINE
  8
0
 10
42.7089
 20
13.9226
 11
42.8864
 21
14.1239
  0
LINE
  8
0
 10
42.8864
 20
14.1239
 11
43.0761
 21
14.3136
  0
LINE
  8
0
 10
43.0761
 20
14.3136
 11
43.2774
 21
14.491
  0
LINE
  8
0
 10
43.2774
 20
14.491
 11
43.4894
 21
14.6555
  0
LINE
  8
0
 10
43.4894
 20
14.6555
 11
43.7113
 21
14.8063
  0
LINE
  8
0
 10
43.7113
 20
14.8063
 11
43.9423
 21
14.9429
  0
LINE
  8
0
 10
43.9423
 20
14.9429
 11
44.1814
 21
15.0647
  0
LINE
  8
0
 10
44.1814
 20
15.0647
 11
44.4276
 21
15.1713
  0
LINE
  8
0
 10
44.4276
 20
15.1713
 11
44.6801
 21
15.2622
  0
LINE
  8
0
 10
44.6801
 20
15.2622
 11
44.9378
 21
15.3371
  0
LINE
  8
0
 10
44.9378
 20
15.3371
 11
45.1996
 21
15.3956
  0
LINE
  8
0
 10
45.1996
 20
15.3956
 11
45.4647
 21
15.4376
  0
LINE
  8
0
 10
45.4647
 20
15.4376
 11
45.7318
 21
15.4628
  0
LINE
  8
0
 10
45.7318
 20
15.4628
 11
46
 21
15.4712
  0
LINE
  8
0
 10
46
 20
15.4712
 11
46.2682
 21
15.4628
  0
LINE
  8
0
 10
46.2682
 20
15.4628
 11
46.5353
 21
15.4376
  0
LINE
  8
0
 10
46.5353
 20
15.4376
 11
46.8003
 21
15.3956
  0
LINE
  8
0
 10
46.8003
 20
15.3956
 11
47.0622
 21
15.3371
  0
LINE
  8
0
 10
47.0622
 20
15.3371
 11
47.3199
 21
15.2622
  0
LINE
  8
0
 10
47.3199
 20
15.2622
 11
47.5723
 21
15.1713
  0
LINE
  8
0
 10
47.5723
 20
15.1713
 11
47.8186
 21
15.0647
  0
LINE
  8
0
 10
47.8186
 20
15.0647
 11
48.0577
 21
14.9429
  0
LINE
  8
0
 10
48.0577
 20
14.9429
 11
48.2886
 21
14.8063
  0
LINE
  8
0
 10
48.2886
 20
14.8063
 11
48.5106
 21
14.6555
  0
LINE
  8
0
 10
48.5106
 20
14.6555
 11
48.7226
 21
14.491
  0
LINE
  8
0
 10
48.7226
 20
14.491
 11
48.9239
 21
14.3136
  0
LINE
  8
0
 10
48.9239
 20
14.3136
 11
49.1136
 21
14.1239
  0
LINE
  8
0
 10
49.1136
 20
14.1239
 11
49.291
 21
13.9226
  0
LINE
  8
0
 10
49.291
 20
13.9226
 11
49.4555
 21
13.7106
  0
LINE
  8
0
 10
49.4555
 20
13.7106
 11
49.6063
 21
13.4886
  0
LINE
  8
0
 10
49.6063
 20
13.4886
 11
49.7429
 21
13.2577
  0
LINE
  8
0
 10
49.7429
 20
13.2577
 11
49.8647
 21
13.0186
  0
LINE
  8
0
 10
49.8647
 20
13.0186
 11
49.9713
 21
12.7723
  0
LINE
  8
0
 10
49.9713
 20
12.7723
 11
50.0622
 21
12.5199
  0
LINE
  8
0
 10
50.0622
 20
12.5199
 11
50.1371
 21
12.2622
  0
LINE
  8
0
 10
50.1371
 20
12.2622
 11
50.1956
 21
12.0004
  0
LINE
  8
0
 10
50.1956
 20
12.0004
 11
50.2376
 21
11.7353
  0
LINE
  8
0
 10
50.2376
 20
11.7353
 11
50.2628
 21
11.4682
  0
LINE
  8
0
 10
50.2628
 20
11.4682
 11
50.2712
 21
11.2
  0
LINE
  8
0
 10
50.2712
 20
11.2
 11
50.2628
 21
10.9318
  0
LINE
  8
0
 10
50.2628
 20
10.9318
 11
50.2376
 21
10.6647
  0
LINE
  8
0
 10
50.2376
 20
10.6647
 11
50.1956
 21
10.3996
  0
LINE
  8
0
 10
50.1956
 20
10.3996
 11
50.1371
 21
10.1378
  0
LINE
  8
0
 10
50.1371
 20
10.1378
 11
50.0622
 21
9.88011
  0
LINE
  8
0
 10
50.0622
 20
9.88011
 11
49.9713
 21
9.62764
  0
LINE
  8
0
 10
49.9713
 20
9.62764
 11
49.8647
 21
9.38138
  0
LINE
  8
0
 10
49.8647
 20
9.38138
 11
49.7429
 21
9.1423
  0
LINE
  8
0
 10
49.7429
 20
9.1423
 11
49.6063
 21
8.91135
  0
LINE
  8
0
 10
49.6063
 20
8.91135
 11
49.4555
 21
8.68942
  0
LINE
  8
0
 10
49.4555
 20
8.68942
 11
49.291
 21
8.4774
  0
LINE
  8
0
 10
49.291
 20
8.4774
 11
49.1136
 21
8.27612
  0
LINE
  8
0
 10
49.1136
 20
8.27612
 11
48.9239
 21
8.08638
  0
LINE
  8
0
 10
48.9239
 20
8.08638
 11
48.7226
 21
7.90894
  0
LINE
  8
0
 10
48.7226
 20
7.90894
 11
48.5106
 21
7.74448
  0
LINE
  8
0
 10
48.5106
 20
7.74448
 11
48.2886
 21
7.59366
  0
LINE
  8
0
 10
48.2886
 20
7.59366
 11
48.0577
 21
7.45708
  0
LINE
  8
0
 10
48.0577
 20
7.45708
 11
47.8186
 21
7.33525
  0
LINE
  8
0
 10
47.8186
 20
7.33525
 11
47.5723
 21
7.22868
  0
LINE
  8
0
 10
47.5723
 20
7.22868
 11
47.3199
 21
7.1378
  0
LINE
  8
0
 10
47.3199
 20
7.1378
 11
47.0622
 21
7.06293
  0
LINE
  8
0
 10
47.0622
 20
7.06293
 11
46.8003
 21
7.00439
  0
LINE
  8
0
 10
46.8003
 20
7.00439
 11
46.5353
 21
6.96243
  0
LINE
  8
0
 10
46.5353
 20
6.96243
 11
46.2682
 21
6.93718
  0
LINE
  8
0
 10
46.2682
 20
6.93718
 11
46
 21
6.92874
  0
LINE
  8
0
 10
46
 20
6.92874
 11
45.7318
 21
6.93718
  0
LINE
  8
0
 10
59.5733
 20
-6.78194
 11
59.1483
 21
-6.74176
  0
LINE
  8
0
 10
59.1483
 20
-6.74176
 11
58.7267
 21
-6.67499
  0
LINE
  8
0
 10
58.7267
 20
-6.67499
 11
58.3101
 21
-6.58186
  0
LINE
  8
0
 10
58.3101
 20
-6.58186
 11
57.9001
 21
-6.46275
  0
LINE
  8
0
 10
57.9001
 20
-6.46275
 11
57.4985
 21
-6.31816
  0
LINE
  8
0
 10
57.4985
 20
-6.31816
 11
57.1067
 21
-6.14862
  0
LINE
  8
0
 10
57.1067
 20
-6.14862
 11
56.7263
 21
-5.9548
  0
LINE
  8
0
 10
56.7263
 20
-5.9548
 11
56.3589
 21
-5.7375
  0
LINE
  8
0
 10
56.3589
 20
-5.7375
 11
56.0058
 21
-5.49756
  0
LINE
  8
0
 10
56.0058
 20
-5.49756
 11
55.6685
 21
-5.2359
  0
LINE
  8
0
 10
55.6685
 20
-5.2359
 11
55.3483
 21
-4.9536
  0
LINE
  8
0
 10
55.3483
 20
-4.9536
 11
55.0464
 21
-4.65173
  0
LINE
  8
0
 10
55.0464
 20
-4.65173
 11
54.7641
 21
-4.33151
  0
LINE
  8
0
 10
54.7641
 20
-4.33151
 11
54.5024
 21
-3.9942
  0
LINE
  8
0
 10
54.5024
 20
-3.9942
 11
54.2625
 21
-3.64113
  0
LINE
  8
0
 10
54.2625
 20
-3.64113
 11
54.0452
 21
-3.27368
  0
LINE
  8
0
 10
54.0452
 20
-3.27368
 11
53.8514
 21
-2.89331
  0
LINE
  8
0
 10
53.8514
 20
-2.89331
 11
53.6818
 21
-2.50153
  0
LINE
  8
0
 10
53.6818
 20
-2.50153
 11
53.5372
 21
-2.09987
  0
LINE
  8
0
 10
53.5372
 20
-2.09987
 11
53.4181
 21
-1.68993
  0
LINE
  8
0
 10
53.4181
 20
-1.68993
 11
53.325
 21
-1.27332
  0
LINE
  8
0
 10
53.325
 20
-1.27332
 11
53.2582
 21
-0.851669
  0
LINE
  8
0
 10
53.2582
 20
-0.851669
 11
53.218
 21
-0.426682
  0
LINE
  8
0
 10
53.218
 20
-0.426682
 11
53.2046
 21
0
  0
LINE
  8
0
 10
53.2046
 20
0
 11
53.218
 21
0.426682
  0
LINE
  8
0
 10
53.218
 20
0.426682
 11
53.2582
 21
0.851669
  0
LINE
  8
0
 10
53.2582
 20
0.851669
 11
53.325
 21
1.27332
  0
LINE
  8
0
 10
53.325
 20
1.27332
 11
53.4181
 21
1.68993
  0
LINE
  8
0
 10
53.4181
 20
1.68993
 11
53.5372
 21
2.09987
  0
LINE
  8
0
 10
53.5372
 20
2.09987
 11
53.6818
 21
2.50153
  0
LINE
  8
0
 10
53.6818
 20
2.50153
 11
53.8514
 21
2.89331
  0
LINE
  8
0
 10
53.8514
 20
2.89331
 11
54.0452
 21
3.27368
  0
LINE
  8
0
 10
54.0452
 20
3.27368
 11
54.2625
 21
3.64113
  0
LINE
  8
0
 10
54.2625
 20
3.64113
 11
54.5024
 21
3.9942
  0
LINE
  8
0
 10
54.5024
 20
3.9942
 11
54.7641
 21
4.33151
  0
LINE
  8
0
 10
54.7641
 20
4.33151
 11
55.0464
 21
4.65173
  0
LINE
  8
0
 10
55.0464
 20
4.65173
 11
55.3483
 21
4.9536
  0
LINE
  8
0
 10
55.3483
 20
4.9536
 11
55.6685
 21
5.2359
  0
LINE
  8
0
 10
55.6685
 20
5.2359
 11
56.0058
 21
5.49756
  0
LINE
  8
0
 10
56.0058
 20
5.49756
 11
56.3589
 21
5.7375
  0
LINE
  8
0
 10
56.3589
 20
5.7375
 11
56.7263
 21
5.9548
  0
LINE
  8
0
 10
56.7263
 20
5.9548
 11
57.1067
 21
6.14862
  0
LINE
  8
0
 10
57.1067
 20
6.14862
 11
57.4985
 21
6.31816
  0
LINE
  8
0
 10
57.4985
 20
6.31816
 11
57.9001
 21
6.46275
  0
LINE
  8
0
 10
57.9001
 20
6.46275
 11
58.3101
 21
6.58186
  0
LINE
  8
0
 10
58.3101
 20
6.58186
 11
58.7267
 21
6.67499
  0
LINE
  8
0
 10
58.7267
 20
6.67499
 11
59.1483
 21
6.74176
  0
LINE
  8
0
 10
59.1483
 20
6.74176
 11
59.5733
 21
6.78194
  0
LINE
  8
0
 10
59.5733
 20
6.78194
 11
60
 21
6.79535
  0
LINE
  8
0
 10
60
 20
6.79535
 11
60.4267
 21
6.78194
  0
LINE
  8
0
 10
60.4267
 20
6.78194
 11
60.8517
 21
6.74176
  0
LINE
  8
0
 10
60.8517
 20
6.74176
 11
61.2733
 21
6.67499
  0
LINE
  8
0
 10
61.2733
 20
6.67499
 11
61.6899
 21
6.58186
  0
LINE
  8
0
 10
61.6899
 20
6.58186
 11
62.0999
 21
6.46275
  0
LINE
  8
0
 10
62.0999
 20
6.46275
 11
62.5015
 21
6.31816
  0
LINE
  8
0
 10
62.5015
 20
6.31816
 11
62.8933
 21
6.14862
  0
LINE
  8
0
 10
62.8933
 20
6.14862
 11
63.2737
 21
5.9548
  0
LINE
  8
0
 10
63.2737
 20
5.9548
 11
63.6411
 21
5.7375
  0
LINE
  8
0
 10
63.6411
 20
5.7375
 11
63.9942
 21
5.49756
  0
LINE
  8
0
 10
63.9942
 20
5.49756
 11
64.3315
 21
5.2359
  0
LINE
  8
0
 10
64.3315
 20
5.2359
 11
64.6517
 21
4.9536
  0
LINE
  8
0
 10
64.6517
 20
4.9536
 11
64.9536
 21
4.65173
  0
LINE
  8
0
 10
64.9536
 20
4.65173
 11
65.2359
 21
4.33151
  0
LINE
  8
0
 10
65.2359
 20
4.33151
 11
65.4976
 21
3.9942
  0
LINE
  8
0
 10
65.4976
 20
3.9942
 11
65.7375
 21
3.64113
  0
LINE
  8
0
 10
65.7375
 20
3.64113
 11
65.9548
 21
3.27368
  0
LINE
  8
0
 10
65.9548
 20
3.27368
 11
66.1486
 21
2.89331
  0
LINE
  8
0
 10
66.1486
 20
2.89331
 11
66.3182
 21
2.50153
  0
LINE
  8
0
 10
66.3182
 20
2.50153
 11
66.4628
 21
2.09987
  0
LINE
  8
0
 10
66.4628
 20
2.09987
 11
66.5819
 21
1.68993
  0
LINE
  8
0
 10
66.5819
 20
1.68993
 11
66.675
 21
1.27332
  0
LINE
  8
0
 10
66.675
 20
1.27332
 11
66.7418
 21
0.851669
  0
LINE
  8
0
 10
66.7418
 20
0.851669
 11
66.7819
 21
0.426682
  0
LINE
  8
0
 10
66.7819
 20
0.426682
 11
66.7953
 21
0
  0
LINE
  8
0
 10
66.7953
 20
0
 11
66.7819
 21
-0.426682
  0
LINE
  8
0
 10
66.7819
 20
-0.426682
 11
66.7418
 21
-0.851669
  0
LINE
  8
0
 10
66.7418
 20
-0.851669
 11
66.675
 21
-1.27332
  0
LINE
  8
0
 10
66.675
 20
-1.27332
 11
66.5819
 21
-1.68993
  0
LINE
  8
0
 10
66.5819
 20
-1.68993
 11
66.4628
 21
-2.09987
  0
LINE
  8
0
 10
66.4628
 20
-2.09987
 11
66.3182
 21
-2.50153
  0
LINE
  8
0
 10
66.3182
 20
-2.50153
 11
66.1486
 21
-2.89331
  0
LINE
  8
0
 10
66.1486
 20
-2.89331
 11
65.9548
 21
-3.27368
  0
LINE
  8
0
 10
65.9548
 20
-3.27368
 11
65.7375
 21
-3.64113
  0
LINE
  8
0
 10
65.7375
 20
-3.64113
 11
65.4976
 21
-3.9942
  0
LINE
  8
0
 10
65.4976
 20
-3.9942
 11
65.2359
 21
-4.33151
  0
LINE
  8
0
 10
65.2359
 20
-4.33151
 11
64.9536
 21
-4.65173
  0
LINE
  8
0
 10
64.9536
 20
-4.65173
 11
64.6517
 21
-4.9536
  0
LINE
  8
0
 10
64.6517
 20
-4.9536
 11
64.3315
 21
-5.2359
  0
LINE
  8
0
 10
64.3315
 20
-5.2359
 11
63.9942
 21
-5.49756
  0
LINE
  8
0
 10
63.9942
 20
-5.49756
 11
63.6411
 21
-5.7375
  0
LINE
  8
0
 10
63.6411
 20
-5.7375
 11
63.2737
 21
-5.9548
  0
LINE
  8
0
 10
63.2737
 20
-5.9548
 11
62.8933
 21
-6.14862
  0
LINE
  8
0
 10
62.8933
 20
-6.14862
 11
62.5015
 21
-6.31816
  0
LINE
  8
0
 10
62.5015
 20
-6.31816
 11
62.0999
 21
-6.46275
  0
LINE
  8
0
 10
62.0999
 20
-6.46275
 11
61.6899
 21
-6.58186
  0
LINE
  8
0
 10
61.6899
 20
-6.58186
 11
61.2733
 21
-6.67499
  0
LINE
  8
0
 10
61.2733
 20
-6.67499
 11
60.8517
 21
-6.74176
  0
LINE
  8
0
 10
60.8517
 20
-6.74176
 11
60.4267
 21
-6.78194
  0
LINE
  8
0
 10
60.4267
 20
-6.78194
 11
60
 21
-6.79535
  0
LINE
  8
0
 10
60
 20
-6.79535
 11
59.5733
 21
-6.78194
  0
LINE
  8
0
 10
143.652
 20
-5.52855
 11
143.306
 21
-5.4958
  0
LINE
  8
0
 10
143.306
 20
-5.4958
 11
142.962
 21
-5.44136
  0
LINE
  8
0
 10
142.962
 20
-5.44136
 11
142.622
 21
-5.36545
  0
LINE
  8
0
 10
142.622
 20
-5.36545
 11
142.288
 21
-5.26836
  0
LINE
  8
0
 10
142.288
 20
-5.26836
 11
141.961
 21
-5.15048
  0
LINE
  8
0
 10
141.961
 20
-5.15048
 11
141.641
 21
-5.01227
  0
LINE
  8
0
 10
141.641
 20
-5.01227
 11
141.331
 21
-4.85428
  0
LINE
  8
0
 10
141.331
 20
-4.85428
 11
141.032
 21
-4.67714
  0
LINE
  8
0
 10
141.032
 20
-4.67714
 11
140.744
 21
-4.48154
  0
LINE
  8
0
 10
140.744
 20
-4.48154
 11
140.469
 21
-4.26823
  0
LINE
  8
0
 10
140.469
 20
-4.26823
 11
140.208
 21
-4.0381
  0
LINE
  8
0
 10
140.208
 20
-4.0381
 11
139.962
 21
-3.79204
  0
LINE
  8
0
 10
139.962
 20
-3.79204
 11
139.732
 21
-3.53099
  0
LINE
  8
0
 10
139.732
 20
-3.53099
 11
139.518
 21
-3.25603
  0
LINE
  8
0
 10
139.518
 20
-3.25603
 11
139.323
 21
-2.9682
  0
LINE
  8
0
 10
139.323
 20
-2.9682
 11
139.146
 21
-2.66866
  0
LINE
  8
0
 10
139.146
 20
-2.66866
 11
138.988
 21
-2.3586
  0
LINE
  8
0
 10
138.988
 20
-2.3586
 11
138.85
 21
-2.03922
  0
LINE
  8
0
 10
138.85
 20
-2.03922
 11
138.732
 21
-1.71179
  0
LINE
  8
0
 10
138.732
 20
-1.71179
 11
138.635
 21
-1.37761
  0
LINE
  8
0
 10
138.635
 20
-1.37761
 11
138.559
 21
-1.03799
  0
LINE
  8
0
 10
138.559
 20
-1.03799
 11
138.504
 21
-0.694275
  0
LINE
  8
0
 10
138.504
 20
-0.694275
 11
138.471
 21
-0.347824
  0
LINE
  8
0
 10
138.471
 20
-0.347824
 11
138.461
 21
0
  0
LINE
  8
0
 10
138.461
 20
0
 11
138.471
 21
0.347824
  0
LINE
  8
0
 10
138.471
 20
0.347824
 11
138.504
 21
0.694275
  0
LINE
  8
0
 10
138.504
 20
0.694275
 11
138.559
 21
1.03799
  0
LINE
  8
0
 10
138.559
 20
1.03799
 11
138.635
 21
1.37761
  0
LINE
  8
0
 10
138.635
 20
1.37761
 11
138.732
 21
1.71179
  0
LINE
  8
0
 10
138.732
 20
1.71179
 11
138.85
 21
2.03922
  0
LINE
  8
0
 10
138.85
 20
2.03922
 11
138.988
 21
2.3586
  0
LINE
  8
0
 10
138.988
 20
2.3586
 11
139.146
 21
2.66866
  0
LINE
  8
0
 10
139.146
 20
2.66866
 11
139.323
 21
2.9682
  0
LINE
  8
0
 10
139.323
 20
2.9682
 11
139.518
 21
3.25603
  0
LINE
  8
0
 10
139.518
 20
3.25603
 11
139.732
 21
3.53099
  0
LINE
  8
0
 10
139.732
 20
3.53099
 11
139.962
 21
3.79204
  0
LINE
  8
0
 10
139.962
 20
3.79204
 11
140.208
 21
4.0381
  0
LINE
  8
0
 10
140.208
 20
4.0381
 11
140.469
 21
4.26823
  0
LINE
  8
0
 10
140.469
 20
4.26823
 11
140.744
 21
4.48154
  0
LINE
  8
0
 10
140.744
 20
4.48154
 11
141.032
 21
4.67714
  0
LINE
  8
0
 10
141.032
 20
4.67714
 11
141.331
 21
4.85428
  0
LINE
  8
0
 10
141.331
 20
4.85428
 11
141.641
 21
5.01227
  0
LINE
  8
0
 10
141.641
 20
5.01227
 11
141.961
 21
5.15048
  0
LINE
  8
0
 10
141.961
 20
5.15048
 11
142.288
 21
5.26836
  0
LINE
  8
0
 10
142.288
 20
5.26836
 11
142.622
 21
5.36545
  0
LINE
  8
0
 10
142.622
 20
5.36545
 11
142.962
 21
5.44136
  0
LINE
  8
0
 10
142.962
 20
5.44136
 11
143.306
 21
5.4958
  0
LINE
  8
0
 10
143.306
 20
5.4958
 11
143.652
 21
5.52855
  0
LINE
  8
0
 10
143.652
 20
5.52855
 11
144
 21
5.53947
  0
LINE
  8
0
 10
144
 20
5.53947
 11
144.348
 21
5.52855
  0
LINE
  8
0
 10
144.348
 20
5.52855
 11
144.694
 21
5.4958
  0
LINE
  8
0
 10
144.694
 20
5.4958
 11
145.038
 21
5.44136
  0
LINE
  8
0
 10
145.038
 20
5.44136
 11
145.378
 21
5.36545
  0
LINE
  8
0
 10
145.378
 20
5.36545
 11
145.712
 21
5.26836
  0
LINE
  8
0
 10
145.712
 20
5.26836
 11
146.039
 21
5.15048
  0
LINE
  8
0
 10
146.039
 20
5.15048
 11
146.359
 21
5.01227
  0
LINE
  8
0
 10
146.359
 20
5.01227
 11
146.669
 21
4.85428
  0
LINE
  8
0
 10
146.669
 20
4.85428
 11
146.968
 21
4.67714
  0
LINE
  8
0
 10
146.968
 20
4.67714
 11
147.256
 21
4.48154
  0
LINE
  8
0
 10
147.256
 20
4.48154
 11
147.531
 21
4.26823
  0
LINE
  8
0
 10
147.531
 20
4.26823
 11
147.792
 21
4.0381
  0
LINE
  8
0
 10
147.792
 20
4.0381
 11
148.038
 21
3.79204
  0
LINE
  8
0
 10
148.038
 20
3.79204
 11
148.268
 21
3.53099
  0
LINE
  8
0
 10
148.268
 20
3.53099
 11
148.482
 21
3.25603
  0
LINE
  8
0
 10
148.482
 20
3.25603
 11
148.677
 21
2.9682
  0
LINE
  8
0
 10
148.677
 20
2.9682
 11
148.854
 21
2.66866
  0
LINE
  8
0
 10
148.854
 20
2.66866
 11
149.012
 21
2.3586
  0
LINE
  8
0
 10
149.012
 20
2.3586
 11
149.15
 21
2.03922
  0
LINE
  8
0
 10
149.15
 20
2.03922
 11
149.268
 21
1.71179
  0
LINE
  8
0
 10
149.268
 20
1.71179
 11
149.365
 21
1.37761
  0
LINE
  8
0
 10
149.365
 20
1.37761
 11
149.441
 21
1.03799
  0
LINE
  8
0
 10
149.441
 20
1.03799
 11
149.496
 21
0.694275
  0
LINE
  8
0
 10
149.496
 20
0.694275
 11
149.529
 21
0.347824
  0
LINE
  8
0
 10
149.529
 20
0.347824
 11
149.539
 21
0
  0
LINE
  8
0
 10
149.539
 20
0
 11
149.529
 21
-0.347824
  0
LINE
  8
0
 10
149.529
 20
-0.347824
 11
149.496
 21
-0.694275
  0
LINE
  8
0
 10
149.496
 20
-0.694275
 11
149.441
 21
-1.03799
  0
LINE
  8
0
 10
149.441
 20
-1.03799
 11
149.365
 21
-1.37761
  0
LINE
  8
0
 10
149.365
 20
-1.37761
 11
149.268
 21
-1.71179
  0
LINE
  8
0
 10
149.268
 20
-1.71179
 11
149.15
 21
-2.03922
  0
LINE
  8
0
 10
149.15
 20
-2.03922
 11
149.012
 21
-2.3586
  0
LINE
  8
0
 10
149.012
 20
-2.3586
 11
148.854
 21
-2.66866
  0
LINE
  8
0
 10
148.854
 20
-2.66866
 11
148.677
 21
-2.9682
  0
LINE
  8
0
 10
148.677
 20
-2.9682
 11
148.482
 21
-3.25603
  0
LINE
  8
0
 10
148.482
 20
-3.25603
 11
148.268
 21
-3.53099
  0
LINE
  8
0
 10
148.268
 20
-3.53099
 11
148.038
 21
-3.79204
  0
LINE
  8
0
 10
148.038
 20
-3.79204
 11
147.792
 21
-4.0381
  0
LINE
  8
0
 10
147.792
 20
-4.0381
 11
147.531
 21
-4.26823
  0
LINE
  8
0
 10
147.531
 20
-4.26823
 11
147.256
 21
-4.48154
  0
LINE
  8
0
 10
147.256
 20
-4.48154
 11
146.968
 21
-4.67714
  0
LINE
  8
0
 10
146.968
 20
-4.67714
 11
146.669
 21
-4.85428
  0
LINE
  8
0
 10
146.669
 20
-4.85428
 11
146.359
 21
-5.01227
  0
LINE
  8
0
 10
146.359
 20
-5.01227
 11
146.039
 21
-5.15048
  0
LINE
  8
0
 10
146.039
 20
-5.15048
 11
145.712
 21
-5.26836
  0
LINE
  8
0
 10
145.712
 20
-5.26836
 11
145.378
 21
-5.36545
  0
LINE
  8
0
 10
145.378
 20
-5.36545
 11
145.038
 21
-5.44136
  0
LINE
  8
0
 10
145.038
 20
-5.44136
 11
144.694
 21
-5.4958
  0
LINE
  8
0
 10
144.694
 20
-5.4958
 11
144.348
 21
-5.52855
  0
LINE
  8
0
 10
144.348
 20
-5.52855
 11
144
 21
-5.53947
  0
LINE
  8
0
 10
144
 20
-5.53947
 11
143.652
 21
-5.52855
  0
LINE
  8
0
 10
31.6758
 20
-5.15273
 11
31.3529
 21
-5.12219
  0
LINE
  8
0
 10
31.3529
 20
-5.12219
 11
31.0326
 21
-5.07146
  0
LINE
  8
0
 10
31.0326
 20
-5.07146
 11
30.716
 21
-5.0007
  0
LINE
  8
0
 10
30.716
 20
-5.0007
 11
30.4046
 21
-4.91022
  0
LINE
  8
0
 10
30.4046
 20
-4.91022
 11
30.0994
 21
-4.80035
  0
LINE
  8
0
 10
30.0994
 20
-4.80035
 11
29.8017
 21
-4.67154
  0
LINE
  8
0
 10
29.8017
 20
-4.67154
 11
29.5127
 21
-4.52429
  0
LINE
  8
0
 10
29.5127
 20
-4.52429
 11
29.2336
 21
-4.35919
  0
LINE
  8
0
 10
29.2336
 20
-4.35919
 11
28.9653
 21
-4.17688
  0
LINE
  8
0
 10
28.9653
 20
-4.17688
 11
28.709
 21
-3.97809
  0
LINE
  8
0
 10
28.709
 20
-3.97809
 11
28.4657
 21
-3.7636
  0
LINE
  8
0
 10
28.4657
 20
-3.7636
 11
28.2364
 21
-3.53426
  0
LINE
  8
0
 10
28.2364
 20
-3.53426
 11
28.0219
 21
-3.29095
  0
LINE
  8
0
 10
28.0219
 20
-3.29095
 11
27.8231
 21
-3.03468
  0
LINE
  8
0
 10
27.8231
 20
-3.03468
 11
27.6408
 21
-2.76642
  0
LINE
  8
0
 10
27.6408
 20
-2.76642
 11
27.4757
 21
-2.48724
  0
LINE
  8
0
 10
27.4757
 20
-2.48724
 11
27.3284
 21
-2.19826
  0
LINE
  8
0
 10
27.3284
 20
-2.19826
 11
27.1996
 21
-1.90059
  0
LINE
  8
0
 10
27.1996
 20
-1.90059
 11
27.0898
 21
-1.59543
  0
LINE
  8
0
 10
27.0898
 20
-1.59543
 11
26.9993
 21
-1.28395
  0
LINE
  8
0
 10
26.9993
 20
-1.28395
 11
26.9285
 21
-0.967422
  0
LINE
  8
0
 10
26.9285
 20
-0.967422
 11
26.8778
 21
-0.647079
  0
LINE
  8
0
 10
26.8778
 20
-0.647079
 11
26.8473
 21
-0.324173
  0
LINE
  8
0
 10
26.8473
 20
-0.324173
 11
26.8371
 21
0
  0
LINE
  8
0
 10
26.8371
 20
0
 11
26.8473
 21
0.324173
  0
LINE
  8
0
 10
26.8473
 20
0.324173
 11
26.8778
 21
0.647079
  0
LINE
  8
0
 10
26.8778
 20
0.647079
 11
26.9285
 21
0.967422
  0
LINE
  8
0
 10
26.9285
 20
0.967422
 11
26.9993
 21
1.28395
  0
LINE
  8
0
 10
26.9993
 20
1.28395
 11
27.0898
 21
1.59543
  0
LINE
  8
0
 10
27.0898
 20
1.59543
 11
27.1996
 21
1.90059
  0
LINE
  8
0
 10
27.1996
 20
1.90059
 11
27.3284
 21
2.19826
  0
LINE
  8
0
 10
27.3284
 20
2.19826
 11
27.4757
 21
2.48724
  0
LINE
  8
0
 10
27.4757
 20
2.48724
 11
27.6408
 21
2.76642
  0
LINE
  8
0
 10
27.6408
 20
2.76642
 11
27.8231
 21
3.03468
  0
LINE
  8
0
 10
27.8231
 20
3.03468
 11
28.0219
 21
3.29095
  0
LINE
  8
0
 10
28.0219
 20
3.29095
 11
28.2364
 21
3.53426
  0
LINE
  8
0
 10
28.2364
 20
3.53426
 11
28.4657
 21
3.7636
  0
LINE
  8
0
 10
28.4657
 20
3.7636
 11
28.709
 21
3.97809
  0
LINE
  8
0
 10
28.709
 20
3.97809
 11
28.9653
 21
4.17688
  0
LINE
  8
0
 10
28.9653
 20
4.17688
 11
29.2336
 21
4.35919
  0
LINE
  8
0
 10
29.2336
 20
4.35919
 11
29.5127
 21
4.52429
  0
LINE
  8
0
 10
29.5127
 20
4.52429
 11
29.8017
 21
4.67154
  0
LINE
  8
0
 10
29.8017
 20
4.67154
 11
30.0994
 21
4.80035
  0
LINE
  8
0
 10
30.0994
 20
4.80035
 11
30.4046
 21
4.91022
  0
LINE
  8
0
 10
30.4046
 20
4.91022
 11
30.716
 21
5.0007
  0
LINE
  8
0
 10
30.716
 20
5.0007
 11
31.0326
 21
5.07146
  0
LINE
  8
0
 10
31.0326
 20
5.07146
 11
31.3529
 21
5.12219
  0
LINE
  8
0
 10
31.3529
 20
5.12219
 11
31.6758
 21
5.15273
  0
LINE
  8
0
 10
31.6758
 20
5.15273
 11
32
 21
5.1629
  0
LINE
  8
0
 10
32
 20
5.1629
 11
32.3242
 21
5.15273
  0
LINE
  8
0
 10
32.3242
 20
5.15273
 11
32.6471
 21
5.12219
  0
LINE
  8
0
 10
32.6471
 20
5.12219
 11
32.9674
 21
5.07146
  0
LINE
  8
0
 10
32.9674
 20
5.07146
 11
33.284
 21
5.0007
  0
LINE
  8
0
 10
33.284
 20
5.0007
 11
33.5954
 21
4.91022
  0
LINE
  8
0
 10
33.5954
 20
4.91022
 11
33.9006
 21
4.80035
  0
LINE
  8
0
 10
33.9006
 20
4.80035
 11
34.1983
 21
4.67154
  0
LINE
  8
0
 10
34.1983
 20
4.67154
 11
34.4872
 21
4.52429
  0
LINE
  8
0
 10
34.4872
 20
4.52429
 11
34.7664
 21
4.35919
  0
LINE
  8
0
 10
34.7664
 20
4.35919
 11
35.0347
 21
4.17688
  0
LINE
  8
0
 10
35.0347
 20
4.17688
 11
35.291
 21
3.97809
  0
LINE
  8
0
 10
35.291
 20
3.97809
 11
35.5343
 21
3.7636
  0
LINE
  8
0
 10
35.5343
 20
3.7636
 11
35.7636
 21
3.53426
  0
LINE
  8
0
 10
35.7636
 20
3.53426
 11
35.9781
 21
3.29095
  0
LINE
  8
0
 10
35.9781
 20
3.29095
 11
36.1769
 21
3.03468
  0
LINE
  8
0
 10
36.1769
 20
3.03468
 11
36.3592
 21
2.76642
  0
LINE
  8
0
 10
36.3592
 20
2.76642
 11
36.5243
 21
2.48724
  0
LINE
  8
0
 10
36.5243
 20
2.48724
 11
36.6715
 21
2.19826
  0
LINE
  8
0
 10
36.6715
 20
2.19826
 11
36.8004
 21
1.90059
  0
LINE
  8
0
 10
36.8004
 20
1.90059
 11
36.9102
 21
1.59543
  0
LINE
  8
0
 10
36.9102
 20
1.59543
 11
37.0007
 21
1.28395
  0
LINE
  8
0
 10
37.0007
 20
1.28395
 11
37.0715
 21
0.967422
  0
LINE
  8
0
 10
37.0715
 20
0.967422
 11
37.1222
 21
0.647079
  0
LINE
  8
0
 10
37.1222
 20
0.647079
 11
37.1527
 21
0.324173
  0
LINE
  8
0
 10
37.1527
 20
0.324173
 11
37.1629
 21
0
  0
LINE
  8
0
 10
37.1629
 20
0
 11
37.1527
 21
-0.324173
  0
LINE
  8
0
 10
37.1527
 20
-0.324173
 11
37.1222
 21
-0.647079
  0
LINE
  8
0
 10
37.1222
 20
-0.647079
 11
37.0715
 21
-0.967422
  0
LINE
  8
0
 10
37.0715
 20
-0.967422
 11
37.0007
 21
-1.28395
  0
LINE
  8
0
 10
37.0007
 20
-1.28395
 11
36.9102
 21
-1.59543
  0
LINE
  8
0
 10
36.9102
 20
-1.59543
 11
36.8004
 21
-1.90059
  0
LINE
  8
0
 10
36.8004
 20
-1.90059
 11
36.6715
 21
-2.19826
  0
LINE
  8
0
 10
36.6715
 20
-2.19826
 11
36.5243
 21
-2.48724
  0
LINE
  8
0
 10
36.5243
 20
-2.48724
 11
36.3592
 21
-2.76642
  0
LINE
  8
0
 10
36.3592
 20
-2.76642
 11
36.1769
 21
-3.03468
  0
LINE
  8
0
 10
36.1769
 20
-3.03468
 11
35.9781
 21
-3.29095
  0
LINE
  8
0
 10
35.9781
 20
-3.29095
 11
35.7636
 21
-3.53426
  0
LINE
  8
0
 10
35.7636
 20
-3.53426
 11
35.5343
 21
-3.7636
  0
LINE
  8
0
 10
35.5343
 20
-3.7636
 11
35.291
 21
-3.97809
  0
LINE
  8
0
 10
35.291
 20
-3.97809
 11
35.0347
 21
-4.17688
  0
LINE
  8
0
 10
35.0347
 20
-4.17688
 11
34.7664
 21
-4.35919
  0
LINE
  8
0
 10
34.7664
 20
-4.35919
 11
34.4872
 21
-4.52429
  0
LINE
  8
0
 10
34.4872
 20
-4.52429
 11
34.1983
 21
-4.67154
  0
LINE
  8
0
 10
34.1983
 20
-4.67154
 11
33.9006
 21
-4.80035
  0
LINE
  8
0
 10
33.9006
 20
-4.80035
 11
33.5954
 21
-4.91022
  0
LINE
  8
0
 10
33.5954
 20
-4.91022
 11
33.284
 21
-5.0007
  0
LINE
  8
0
 10
33.284
 20
-5.0007
 11
32.9674
 21
-5.07146
  0
LINE
  8
0
 10
32.9674
 20
-5.07146
 11
32.6471
 21
-5.12219
  0
LINE
  8
0
 10
32.6471
 20
-5.12219
 11
32.3242
 21
-5.15273
  0
LINE
  8
0
 10
32.3242
 20
-5.15273
 11
32
 21
-5.1629
  0
LINE
  8
0
 10
32
 20
-5.1629
 11
31.6758
 21
-5.15273
  0
LINE
  8
0
 10
171.692
 20
-4.89059
 11
171.386
 21
-4.86162
  0
LINE
  8
0
 10
171.386
 20
-4.86162
 11
171.082
 21
-4.81346
  0
LINE
  8
0
 10
171.082
 20
-4.81346
 11
170.781
 21
-4.74631
  0
LINE
  8
0
 10
170.781
 20
-4.74631
 11
170.486
 21
-4.66043
  0
LINE
  8
0
 10
170.486
 20
-4.66043
 11
170.196
 21
-4.55615
  0
LINE
  8
0
 10
170.196
 20
-4.55615
 11
169.914
 21
-4.4339
  0
LINE
  8
0
 10
169.914
 20
-4.4339
 11
169.639
 21
-4.29413
  0
LINE
  8
0
 10
169.639
 20
-4.29413
 11
169.374
 21
-4.13744
  0
LINE
  8
0
 10
169.374
 20
-4.13744
 11
169.12
 21
-3.9644
  0
LINE
  8
0
 10
169.12
 20
-3.9644
 11
168.876
 21
-3.77571
  0
LINE
  8
0
 10
168.876
 20
-3.77571
 11
168.646
 21
-3.57214
  0
LINE
  8
0
 10
168.646
 20
-3.57214
 11
168.428
 21
-3.35446
  0
LINE
  8
0
 10
168.428
 20
-3.35446
 11
168.224
 21
-3.12355
  0
LINE
  8
0
 10
168.224
 20
-3.12355
 11
168.036
 21
-2.88029
  0
LINE
  8
0
 10
168.036
 20
-2.88029
 11
167.863
 21
-2.62569
  0
LINE
  8
0
 10
167.863
 20
-2.62569
 11
167.706
 21
-2.36072
  0
LINE
  8
0
 10
167.706
 20
-2.36072
 11
167.566
 21
-2.08643
  0
LINE
  8
0
 10
167.566
 20
-2.08643
 11
167.444
 21
-1.80391
  0
LINE
  8
0
 10
167.444
 20
-1.80391
 11
167.34
 21
-1.51427
  0
LINE
  8
0
 10
167.34
 20
-1.51427
 11
167.254
 21
-1.21864
  0
LINE
  8
0
 10
167.254
 20
-1.21864
 11
167.187
 21
-0.918213
  0
LINE
  8
0
 10
167.187
 20
-0.918213
 11
167.138
 21
-0.614166
  0
LINE
  8
0
 10
167.138
 20
-0.614166
 11
167.109
 21
-0.307678
  0
LINE
  8
0
 10
167.109
 20
-0.307678
 11
167.1
 21
0
  0
LINE
  8
0
 10
167.1
 20
0
 11
167.109
 21
0.307678
  0
LINE
  8
0
 10
167.109
 20
0.307678
 11
167.138
 21
0.614166
  0
LINE
  8
0
 10
167.138
 20
0.614166
 11
167.187
 21
0.918213
  0
LINE
  8
0
 10
167.187
 20
0.918213
 11
167.254
 21
1.21864
  0
LINE
  8
0
 10
167.254
 20
1.21864
 11
167.34
 21
1.51427
  0
LINE
  8
0
 10
167.34
 20
1.51427
 11
167.444
 21
1.80391
  0
LINE
  8
0
 10
167.444
 20
1.80391
 11
167.566
 21
2.08643
  0
LINE
  8
0
 10
167.566
 20
2.08643
 11
167.706
 21
2.36072
  0
LINE
  8
0
 10
167.706
 20
2.36072
 11
167.863
 21
2.62569
  0
LINE
  8
0
 10
167.863
 20
2.62569
 11
168.036
 21
2.88029
  0
LINE
  8
0
 10
168.036
 20
2.88029
 11
168.224
 21
3.12355
  0
LINE
  8
0
 10
168.224
 20
3.12355
 11
168.428
 21
3.35446
  0
LINE
  8
0
 10
168.428
 20
3.35446
 11
168.646
 21
3.57214
  0
LINE
  8
0
 10
168.646
 20
3.57214
 11
168.876
 21
3.77571
  0
LINE
  8
0
 10
168.876
 20
3.77571
 11
169.12
 21
3.9644
  0
LINE
  8
0
 10
169.12
 20
3.9644
 11
169.374
 21
4.13744
  0
LINE
  8
0
 10
169.374
 20
4.13744
 11
169.639
 21
4.29413
  0
LINE
  8
0
 10
169.639
 20
4.29413
 11
169.914
 21
4.4339
  0
LINE
  8
0
 10
169.914
 20
4.4339
 11
170.196
 21
4.55615
  0
LINE
  8
0
 10
170.196
 20
4.55615
 11
170.486
 21
4.66043
  0
LINE
  8
0
 10
170.486
 20
4.66043
 11
170.781
 21
4.74631
  0
LINE
  8
0
 10
170.781
 20
4.74631
 11
171.082
 21
4.81346
  0
LINE
  8
0
 10
171.082
 20
4.81346
 11
171.386
 21
4.86162
  0
LINE
  8
0
 10
171.386
 20
4.86162
 11
171.692
 21
4.89059
  0
LINE
  8
0
 10
171.692
 20
4.89059
 11
172
 21
4.90027
  0
LINE
  8
0
 10
172
 20
4.90027
 11
172.308
 21
4.89059
  0
LINE
  8
0
 10
172.308
 20
4.89059
 11
172.614
 21
4.86162
  0
LINE
  8
0
 10
172.614
 20
4.86162
 11
172.918
 21
4.81346
  0
LINE
  8
0
 10
172.918
 20
4.81346
 11
173.219
 21
4.74631
  0
LINE
  8
0
 10
173.219
 20
4.74631
 11
173.514
 21
4.66043
  0
LINE
  8
0
 10
173.514
 20
4.66043
 11
173.804
 21
4.55615
  0
LINE
  8
0
 10
173.804
 20
4.55615
 11
174.086
 21
4.4339
  0
LINE
  8
0
 10
174.086
 20
4.4339
 11
174.361
 21
4.29413
  0
LINE
  8
0
 10
174.361
 20
4.29413
 11
174.626
 21
4.13744
  0
LINE
  8
0
 10
174.626
 20
4.13744
 11
174.88
 21
3.9644
  0
LINE
  8
0
 10
174.88
 20
3.9644
 11
175.124
 21
3.77571
  0
LINE
  8
0
 10
175.124
 20
3.77571
 11
175.354
 21
3.57214
  0
LINE
  8
0
 10
175.354
 20
3.57214
 11
175.572
 21
3.35446
  0
LINE
  8
0
 10
175.572
 20
3.35446
 11
175.776
 21
3.12355
  0
LINE
  8
0
 10
175.776
 20
3.12355
 11
175.964
 21
2.88029
  0
LINE
  8
0
 10
175.964
 20
2.88029
 11
176.137
 21
2.62569
  0
LINE
  8
0
 10
176.137
 20
2.62569
 11
176.294
 21
2.36072
  0
LINE
  8
0
 10
176.294
 20
2.36072
 11
176.434
 21
2.08643
  0
LINE
  8
0
 10
176.434
 20
2.08643
 11
176.556
 21
1.80391
  0
LINE
  8
0
 10
176.556
 20
1.80391
 11
176.66
 21
1.51427
  0
LINE
  8
0
 10
176.66
 20
1.51427
 11
176.746
 21
1.21864
  0
LINE
  8
0
 10
176.746
 20
1.21864
 11
176.813
 21
0.918213
  0
LINE
  8
0
 10
176.813
 20
0.918213
 11
176.862
 21
0.614166
  0
LINE
  8
0
 10
176.862
 20
0.614166
 11
176.891
 21
0.307678
  0
LINE
  8
0
 10
176.891
 20
0.307678
 11
176.9
 21
0
  0
LINE
  8
0
 10
176.9
 20
0
 11
176.891
 21
-0.307678
  0
LINE
  8
0
 10
176.891
 20
-0.307678
 11
176.862
 21
-0.614166
  0
LINE
  8
0
 10
176.862
 20
-0.614166
 11
176.813
 21
-0.918213
  0
LINE
  8
0
 10
176.813
 20
-0.918213
 11
176.746
 21
-1.21864
  0
LINE
  8
0
 10
176.746
 20
-1.21864
 11
176.66
 21
-1.51427
  0
LINE
  8
0
 10
176.66
 20
-1.51427
 11
176.556
 21
-1.80391
  0
LINE
  8
0
 10
176.556
 20
-1.80391
 11
176.434
 21
-2.08643
  0
LINE
  8
0
 10
176.434
 20
-2.08643
 11
176.294
 21
-2.36072
  0
LINE
  8
0
 10
176.294
 20
-2.36072
 11
176.137
 21
-2.62569
  0
LINE
  8
0
 10
176.137
 20
-2.62569
 11
175.964
 21
-2.88029
  0
LINE
  8
0
 10
175.964
 20
-2.88029
 11
175.776
 21
-3.12355
  0
LINE
  8
0
 10
175.776
 20
-3.12355
 11
175.572
 21
-3.35446
  0
LINE
  8
0
 10
175.572
 20
-3.35446
 11
175.354
 21
-3.57214
  0
LINE
  8
0
 10
175.354
 20
-3.57214
 11
175.124
 21
-3.77571
  0
LINE
  8
0
 10
175.124
 20
-3.77571
 11
174.88
 21
-3.9644
  0
LINE
  8
0
 10
174.88
 20
-3.9644
 11
174.626
 21
-4.13744
  0
LINE
  8
0
 10
174.626
 20
-4.13744
 11
174.361
 21
-4.29413
  0
LINE
  8
0
 10
174.361
 20
-4.29413
 11
174.086
 21
-4.4339
  0
LINE
  8
0
 10
174.086
 20
-4.4339
 11
173.804
 21
-4.55615
  0
LINE
  8
0
 10
173.804
 20
-4.55615
 11
173.514
 21
-4.66043
  0
LINE
  8
0
 10
173.514
 20
-4.66043
 11
173.219
 21
-4.74631
  0
LINE
  8
0
 10
173.219
 20
-4.74631
 11
172.918
 21
-4.81346
  0
LINE
  8
0
 10
172.918
 20
-4.81346
 11
172.614
 21
-4.86162
  0
LINE
  8
0
 10
172.614
 20
-4.86162
 11
172.308
 21
-4.89059
  0
LINE
  8
0
 10
172.308
 20
-4.89059
 11
172
 21
-4.90027
  0
LINE
  8
0
 10
172
 20
-4.90027
 11
171.692
 21
-4.89059
  0
LINE
  8
0
 10
115.777
 20
-3.53978
 11
115.555
 21
-3.51881
  0
LINE
  8
0
 10
115.555
 20
-3.51881
 11
115.335
 21
-3.48395
  0
LINE
  8
0
 10
115.335
 20
-3.48395
 11
115.118
 21
-3.43535
  0
LINE
  8
0
 10
115.118
 20
-3.43535
 11
114.904
 21
-3.37318
  0
LINE
  8
0
 10
114.904
 20
-3.37318
 11
114.694
 21
-3.29771
  0
LINE
  8
0
 10
114.694
 20
-3.29771
 11
114.49
 21
-3.20921
  0
LINE
  8
0
 10
114.49
 20
-3.20921
 11
114.291
 21
-3.10806
  0
LINE
  8
0
 10
114.291
 20
-3.10806
 11
114.1
 21
-2.99464
  0
LINE
  8
0
 10
114.1
 20
-2.99464
 11
113.915
 21
-2.8694
  0
LINE
  8
0
 10
113.915
 20
-2.8694
 11
113.739
 21
-2.73283
  0
LINE
  8
0
 10
113.739
 20
-2.73283
 11
113.572
 21
-2.58548
  0
LINE
  8
0
 10
113.572
 20
-2.58548
 11
113.415
 21
-2.42793
  0
LINE
  8
0
 10
113.415
 20
-2.42793
 11
113.267
 21
-2.2608
  0
LINE
  8
0
 10
113.267
 20
-2.2608
 11
113.131
 21
-2.08473
  0
LINE
  8
0
 10
113.131
 20
-2.08473
 11
113.005
 21
-1.90045
  0
LINE
  8
0
 10
113.005
 20
-1.90045
 11
112.892
 21
-1.70866
  0
LINE
  8
0
 10
112.892
 20
-1.70866
 11
112.791
 21
-1.51013
  0
LINE
  8
0
 10
112.791
 20
-1.51013
 11
112.702
 21
-1.30565
  0
LINE
  8
0
 10
112.702
 20
-1.30565
 11
112.627
 21
-1.09601
  0
LINE
  8
0
 10
112.627
 20
-1.09601
 11
112.565
 21
-0.882034
  0
LINE
  8
0
 10
112.565
 20
-0.882034
 11
112.516
 21
-0.664597
  0
LINE
  8
0
 10
112.516
 20
-0.664597
 11
112.481
 21
-0.444519
  0
LINE
  8
0
 10
112.481
 20
-0.444519
 11
112.46
 21
-0.222702
  0
LINE
  8
0
 10
112.46
 20
-0.222702
 11
112.453
 21
0
  0
LINE
  8
0
 10
112.453
 20
0
 11
112.46
 21
0.222702
  0
LINE
  8
0
 10
112.46
 20
0.222702
 11
112.481
 21
0.444519
  0
LINE
  8
0
 10
112.481
 20
0.444519
 11
112.516
 21
0.664597
  0
LINE
  8
0
 10
112.516
 20
0.664597
 11
112.565
 21
0.882034
  0
LINE
  8
0
 10
112.565
 20
0.882034
 11
112.627
 21
1.09601
  0
LINE
  8
0
 10
112.627
 20
1.09601
 11
112.702
 21
1.30565
  0
LINE
  8
0
 10
112.702
 20
1.30565
 11
112.791
 21
1.51013
  0
LINE
  8
0
 10
112.791
 20
1.51013
 11
112.892
 21
1.70866
  0
LINE
  8
0
 10
112.892
 20
1.70866
 11
113.005
 21
1.90045
  0
LINE
  8
0
 10
113.005
 20
1.90045
 11
113.131
 21
2.08473
  0
LINE
  8
0
 10
113.131
 20
2.08473
 11
113.267
 21
2.2608
  0
LINE
  8
0
 10
113.267
 20
2.2608
 11
113.415
 21
2.42793
  0
LINE
  8
0
 10
113.415
 20
2.42793
 11
113.572
 21
2.58548
  0
LINE
  8
0
 10
113.572
 20
2.58548
 11
113.739
 21
2.73283
  0
LINE
  8
0
 10
113.739
 20
2.73283
 11
113.915
 21
2.8694
  0
LINE
  8
0
 10
113.915
 20
2.8694
 11
114.1
 21
2.99464
  0
LINE
  8
0
 10
114.1
 20
2.99464
 11
114.291
 21
3.10806
  0
LINE
  8
0
 10
114.291
 20
3.10806
 11
114.49
 21
3.20921
  0
LINE
  8
0
 10
114.49
 20
3.20921
 11
114.694
 21
3.29771
  0
LINE
  8
0
 10
114.694
 20
3.29771
 11
114.904
 21
3.37318
  0
LINE
  8
0
 10
114.904
 20
3.37318
 11
115.118
 21
3.43535
  0
LINE
  8
0
 10
115.118
 20
3.43535
 11
115.335
 21
3.48395
  0
LINE
  8
0
 10
115.335
 20
3.48395
 11
115.555
 21
3.51881
  0
LINE
  8
0
 10
115.555
 20
3.51881
 11
115.777
 21
3.53978
  0
LINE
  8
0
 10
115.777
 20
3.53978
 11
116
 21
3.54677
  0
LINE
  8
0
 10
116
 20
3.54677
 11
116.223
 21
3.53978
  0
LINE
  8
0
 10
116.223
 20
3.53978
 11
116.445
 21
3.51881
  0
LINE
  8
0
 10
116.445
 20
3.51881
 11
116.665
 21
3.48395
  0
LINE
  8
0
 10
116.665
 20
3.48395
 11
116.882
 21
3.43535
  0
LINE
  8
0
 10
116.882
 20
3.43535
 11
117.096
 21
3.37318
  0
LINE
  8
0
 10
117.096
 20
3.37318
 11
117.306
 21
3.29771
  0
LINE
  8
0
 10
117.306
 20
3.29771
 11
117.51
 21
3.20921
  0
LINE
  8
0
 10
117.51
 20
3.20921
 11
117.709
 21
3.10806
  0
LINE
  8
0
 10
117.709
 20
3.10806
 11
117.9
 21
2.99464
  0
LINE
  8
0
 10
117.9
 20
2.99464
 11
118.085
 21
2.8694
  0
LINE
  8
0
 10
118.085
 20
2.8694
 11
118.261
 21
2.73283
  0
LINE
  8
0
 10
118.261
 20
2.73283
 11
118.428
 21
2.58548
  0
LINE
  8
0
 10
118.428
 20
2.58548
 11
118.585
 21
2.42793
  0
LINE
  8
0
 10
118.585
 20
2.42793
 11
118.733
 21
2.2608
  0
LINE
  8
0
 10
118.733
 20
2.2608
 11
118.869
 21
2.08473
  0
LINE
  8
0
 10
118.869
 20
2.08473
 11
118.995
 21
1.90045
  0
LINE
  8
0
 10
118.995
 20
1.90045
 11
119.108
 21
1.70866
  0
LINE
  8
0
 10
119.108
 20
1.70866
 11
119.209
 21
1.51013
  0
LINE
  8
0
 10
119.209
 20
1.51013
 11
119.298
 21
1.30565
  0
LINE
  8
0
 10
119.298
 20
1.30565
 11
119.373
 21
1.09601
  0
LINE
  8
0
 10
119.373
 20
1.09601
 11
119.435
 21
0.882034
  0
LINE
  8
0
 10
119.435
 20
0.882034
 11
119.484
 21
0.664597
  0
LINE
  8
0
 10
119.484
 20
0.664597
 11
119.519
 21
0.444519
  0
LINE
  8
0
 10
119.519
 20
0.444519
 11
119.54
 21
0.222702
  0
LINE
  8
0
 10
119.54
 20
0.222702
 11
119.547
 21
0
  0
LINE
  8
0
 10
119.547
 20
0
 11
119.54
 21
-0.222702
  0
LINE
  8
0
 10
119.54
 20
-0.222702
 11
119.519
 21
-0.444519
  0
LINE
  8
0
 10
119.519
 20
-0.444519
 11
119.484
 21
-0.664597
  0
LINE
  8
0
 10
119.484
 20
-0.664597
 11
119.435
 21
-0.882034
  0
LINE
  8
0
 10
119.435
 20
-0.882034
 11
119.373
 21
-1.09601
  0
LINE
  8
0
 10
119.373
 20
-1.09601
 11
119.298
 21
-1.30565
  0
LINE
  8
0
 10
119.298
 20
-1.30565
 11
119.209
 21
-1.51013
  0
LINE
  8
0
 10
119.209
 20
-1.51013
 11
119.108
 21
-1.70866
  0
LINE
  8
0
 10
119.108
 20
-1.70866
 11
118.995
 21
-1.90045
  0
LINE
  8
0
 10
118.995
 20
-1.90045
 11
118.869
 21
-2.08473
  0
LINE
  8
0
 10
118.869
 20
-2.08473
 11
118.733
 21
-2.2608
  0
LINE
  8
0
 10
118.733
 20
-2.2608
 11
118.585
 21
-2.42793
  0
LINE
  8
0
 10
118.585
 20
-2.42793
 11
118.428
 21
-2.58548
  0
LINE
  8
0
 10
118.428
 20
-2.58548
 11
118.261
 21
-2.73283
  0
LINE
  8
0
 10
118.261
 20
-2.73283
 11
118.085
 21
-2.8694
  0
LINE
  8
0
 10
118.085
 20
-2.8694
 11
117.9
 21
-2.99464
  0
LINE
  8
0
 10
117.9
 20
-2.99464
 11
117.709
 21
-3.10806
  0
LINE
  8
0
 10
117.709
 20
-3.10806
 11
117.51
 21
-3.20921
  0
LINE
  8
0
 10
117.51
 20
-3.20921
 11
117.306
 21
-3.29771
  0
LINE
  8
0
 10
117.306
 20
-3.29771
 11
117.096
 21
-3.37318
  0
LINE
  8
0
 10
117.096
 20
-3.37318
 11
116.882
 21
-3.43535
  0
LINE
  8
0
 10
116.882
 20
-3.43535
 11
116.665
 21
-3.48395
  0
LINE
  8
0
 10
116.665
 20
-3.48395
 11
116.445
 21
-3.51881
  0
LINE
  8
0
 10
116.445
 20
-3.51881
 11
116.223
 21
-3.53978
  0
LINE
  8
0
 10
116.223
 20
-3.53978
 11
116
 21
-3.54677
  0
LINE
  8
0
 10
116
 20
-3.54677
 11
115.777
 21
-3.53978
  0
LINE
  8
0
 10
87.8125
 20
-2.97986
 11
87.6258
 21
-2.96222
  0
LINE
  8
0
 10
87.6258
 20
-2.96222
 11
87.4405
 21
-2.93288
  0
LINE
  8
0
 10
87.4405
 20
-2.93288
 11
87.2575
 21
-2.89195
  0
LINE
  8
0
 10
87.2575
 20
-2.89195
 11
87.0773
 21
-2.83961
  0
LINE
  8
0
 10
87.0773
 20
-2.83961
 11
86.9009
 21
-2.77608
  0
LINE
  8
0
 10
86.9009
 20
-2.77608
 11
86.7287
 21
-2.7016
  0
LINE
  8
0
 10
86.7287
 20
-2.7016
 11
86.5616
 21
-2.61644
  0
LINE
  8
0
 10
86.5616
 20
-2.61644
 11
86.4001
 21
-2.52095
  0
LINE
  8
0
 10
86.4001
 20
-2.52095
 11
86.245
 21
-2.41553
  0
LINE
  8
0
 10
86.245
 20
-2.41553
 11
86.0968
 21
-2.30057
  0
LINE
  8
0
 10
86.0968
 20
-2.30057
 11
85.9561
 21
-2.17651
  0
LINE
  8
0
 10
85.9561
 20
-2.17651
 11
85.8235
 21
-2.04388
  0
LINE
  8
0
 10
85.8235
 20
-2.04388
 11
85.6994
 21
-1.90318
  0
LINE
  8
0
 10
85.6994
 20
-1.90318
 11
85.5845
 21
-1.75497
  0
LINE
  8
0
 10
85.5845
 20
-1.75497
 11
85.479
 21
-1.59984
  0
LINE
  8
0
 10
85.479
 20
-1.59984
 11
85.3835
 21
-1.4384
  0
LINE
  8
0
 10
85.3835
 20
-1.4384
 11
85.2984
 21
-1.27127
  0
LINE
  8
0
 10
85.2984
 20
-1.27127
 11
85.2239
 21
-1.09912
  0
LINE
  8
0
 10
85.2239
 20
-1.09912
 11
85.1604
 21
-0.922638
  0
LINE
  8
0
 10
85.1604
 20
-0.922638
 11
85.108
 21
-0.742523
  0
LINE
  8
0
 10
85.108
 20
-0.742523
 11
85.0671
 21
-0.559464
  0
LINE
  8
0
 10
85.0671
 20
-0.559464
 11
85.0378
 21
-0.374207
  0
LINE
  8
0
 10
85.0378
 20
-0.374207
 11
85.0201
 21
-0.187469
  0
LINE
  8
0
 10
85.0201
 20
-0.187469
 11
85.0142
 21
0
  0
LINE
  8
0
 10
85.0142
 20
0
 11
85.0201
 21
0.187469
  0
LINE
  8
0
 10
85.0201
 20
0.187469
 11
85.0378
 21
0.374207
  0
LINE
  8
0
 10
85.0378
 20
0.374207
 11
85.0671
 21
0.559464
  0
LINE
  8
0
 10
85.0671
 20
0.559464
 11
85.108
 21
0.742523
  0
LINE
  8
0
 10
85.108
 20
0.742523
 11
85.1604
 21
0.922638
  0
LINE
  8
0
 10
85.1604
 20
0.922638
 11
85.2239
 21
1.09912
  0
LINE
  8
0
 10
85.2239
 20
1.09912
 11
85.2984
 21
1.27127
  0
LINE
  8
0
 10
85.2984
 20
1.27127
 11
85.3835
 21
1.4384
  0
LINE
  8
0
 10
85.3835
 20
1.4384
 11
85.479
 21
1.59984
  0
LINE
  8
0
 10
85.479
 20
1.59984
 11
85.5845
 21
1.75497
  0
LINE
  8
0
 10
85.5845
 20
1.75497
 11
85.6994
 21
1.90318
  0
LINE
  8
0
 10
85.6994
 20
1.90318
 11
85.8235
 21
2.04388
  0
LINE
  8
0
 10
85.8235
 20
2.04388
 11
85.9561
 21
2.17651
  0
LINE
  8
0
 10
85.9561
 20
2.17651
 11
86.0968
 21
2.30057
  0
LINE
  8
0
 10
86.0968
 20
2.30057
 11
86.245
 21
2.41553
  0
LINE
  8
0
 10
86.245
 20
2.41553
 11
86.4001
 21
2.52095
  0
LINE
  8
0
 10
86.4001
 20
2.52095
 11
86.5616
 21
2.61644
  0
LINE
  8
0
 10
86.5616
 20
2.61644
 11
86.7287
 21
2.7016
  0
LINE
  8
0
 10
86.7287
 20
2.7016
 11
86.9009
 21
2.77608
  0
LINE
  8
0
 10
86.9009
 20
2.77608
 11
87.0773
 21
2.83961
  0
LINE
  8
0
 10
87.0773
 20
2.83961
 11
87.2575
 21
2.89195
  0
LINE
  8
0
 10
87.2575
 20
2.89195
 11
87.4405
 21
2.93288
  0
LINE
  8
0
 10
87.4405
 20
2.93288
 11
87.6258
 21
2.96222
  0
LINE
  8
0
 10
87.6258
 20
2.96222
 11
87.8125
 21
2.97986
  0
LINE
  8
0
 10
87.8125
 20
2.97986
 11
88
 21
2.98575
  0
LINE
  8
0
 10
88
 20
2.98575
 11
88.1875
 21
2.97986
  0
LINE
  8
0
 10
88.1875
 20
2.97986
 11
88.3742
 21
2.96222
  0
LINE
  8
0
 10
88.3742
 20
2.96222
 11
88.5595
 21
2.93288
  0
LINE
  8
0
 10
88.5595
 20
2.93288
 11
88.7425
 21
2.89195
  0
LINE
  8
0
 10
88.7425
 20
2.89195
 11
88.9226
 21
2.83961
  0
LINE
  8
0
 10
88.9226
 20
2.83961
 11
89.0991
 21
2.77608
  0
LINE
  8
0
 10
89.0991
 20
2.77608
 11
89.2713
 21
2.7016
  0
LINE
  8
0
 10
89.2713
 20
2.7016
 11
89.4384
 21
2.61644
  0
LINE
  8
0
 10
89.4384
 20
2.61644
 11
89.5998
 21
2.52095
  0
LINE
  8
0
 10
89.5998
 20
2.52095
 11
89.755
 21
2.41553
  0
LINE
  8
0
 10
89.755
 20
2.41553
 11
89.9032
 21
2.30057
  0
LINE
  8
0
 10
89.9032
 20
2.30057
 11
90.0439
 21
2.17651
  0
LINE
  8
0
 10
90.0439
 20
2.17651
 11
90.1765
 21
2.04388
  0
LINE
  8
0
 10
90.1765
 20
2.04388
 11
90.3006
 21
1.90318
  0
LINE
  8
0
 10
90.3006
 20
1.90318
 11
90.4155
 21
1.75497
  0
LINE
  8
0
 10
90.4155
 20
1.75497
 11
90.521
 21
1.59984
  0
LINE
  8
0
 10
90.521
 20
1.59984
 11
90.6164
 21
1.4384
  0
LINE
  8
0
 10
90.6164
 20
1.4384
 11
90.7016
 21
1.27127
  0
LINE
  8
0
 10
90.7016
 20
1.27127
 11
90.7761
 21
1.09912
  0
LINE
  8
0
 10
90.7761
 20
1.09912
 11
90.8396
 21
0.922638
  0
LINE
  8
0
 10
90.8396
 20
0.922638
 11
90.892
 21
0.742523
  0
LINE
  8
0
 10
90.892
 20
0.742523
 11
90.9329
 21
0.559464
  0
LINE
  8
0
 10
90.9329
 20
0.559464
 11
90.9622
 21
0.374207
  0
LINE
  8
0
 10
90.9622
 20
0.374207
 11
90.9799
 21
0.187469
  0
LINE
  8
0
 10
90.9799
 20
0.187469
 11
90.9857
 21
0
  0
LINE
  8
0
 10
90.9857
 20
0
 11
90.9799
 21
-0.187469
  0
LINE
  8
0
 10
90.9799
 20
-0.187469
 11
90.9622
 21
-0.374207
  0
LINE
  8
0
 10
90.9622
 20
-0.374207
 11
90.9329
 21
-0.559464
  0
LINE
  8
0
 10
90.9329
 20
-0.559464
 11
90.892
 21
-0.742523
  0
LINE
  8
0
 10
90.892
 20
-0.742523
 11
90.8396
 21
-0.922638
  0
LINE
  8
0
 10
90.8396
 20
-0.922638
 11
90.7761
 21
-1.09912
  0
LINE
  8
0
 10
90.7761
 20
-1.09912
 11
90.7016
 21
-1.27127
  0
LINE
  8
0
 10
90.7016
 20
-1.27127
 11
90.6164
 21
-1.4384
  0
LINE
  8
0
 10
90.6164
 20
-1.4384
 11
90.521
 21
-1.59984
  0
LINE
  8
0
 10
90.521
 20
-1.59984
 11
90.4155
 21
-1.75497
  0
LINE
  8
0
 10
90.4155
 20
-1.75497
 11
90.3006
 21
-1.90318
  0
LINE
  8
0
 10
90.3006
 20
-1.90318
 11
90.1765
 21
-2.04388
  0
LINE
  8
0
 10
90.1765
 20
-2.04388
 11
90.0439
 21
-2.17651
  0
LINE
  8
0
 10
90.0439
 20
-2.17651
 11
89.9032
 21
-2.30057
  0
LINE
  8
0
 10
89.9032
 20
-2.30057
 11
89.755
 21
-2.41553
  0
LINE
  8
0
 10
89.755
 20
-2.41553
 11
89.5998
 21
-2.52095
  0
LINE
  8
0
 10
89.5998
 20
-2.52095
 11
89.4384
 21
-2.61644
  0
LINE
  8
0
 10
89.4384
 20
-2.61644
 11
89.2713
 21
-2.7016
  0
LINE
  8
0
 10
89.2713
 20
-2.7016
 11
89.0991
 21
-2.77608
  0
LINE
  8
0
 10
89.0991
 20
-2.77608
 11
88.9226
 21
-2.83961
  0
LINE
  8
0
 10
88.9226
 20
-2.83961
 11
88.7425
 21
-2.89195
  0
LINE
  8
0
 10
88.7425
 20
-2.89195
 11
88.5595
 21
-2.93288
  0
LINE
  8
0
 10
88.5595
 20
-2.93288
 11
88.3742
 21
-2.96222
  0
LINE
  8
0
 10
88.3742
 20
-2.96222
 11
88.1875
 21
-2.97986
  0
LINE
  8
0
 10
88.1875
 20
-2.97986
 11
88
 21
-2.98575
  0
LINE
  8
0
 10
88
 20
-2.98575
 11
87.8125
 21
-2.97986
  0
LINE
  8
0
 10
45.5385
 20
-18.5344
 11
45.0789
 21
-18.491
  0
LINE
  8
0
 10
45.0789
 20
-18.491
 11
44.6229
 21
-18.4187
  0
LINE
  8
0
 10
44.6229
 20
-18.4187
 11
44.1724
 21
-18.318
  0
LINE
  8
0
 10
44.1724
 20
-18.318
 11
43.729
 21
-18.1892
  0
LINE
  8
0
 10
43.729
 20
-18.1892
 11
43.2947
 21
-18.0328
  0
LINE
  8
0
 10
43.2947
 20
-18.0328
 11
42.871
 21
-17.8495
  0
LINE
  8
0
 10
42.871
 20
-17.8495
 11
42.4596
 21
-17.6399
  0
LINE
  8
0
 10
42.4596
 20
-17.6399
 11
42.0622
 21
-17.4049
  0
LINE
  8
0
 10
42.0622
 20
-17.4049
 11
41.6804
 21
-17.1454
  0
LINE
  8
0
 10
41.6804
 20
-17.1454
 11
41.3156
 21
-16.8624
  0
LINE
  8
0
 10
41.3156
 20
-16.8624
 11
40.9693
 21
-16.5571
  0
LINE
  8
0
 10
40.9693
 20
-16.5571
 11
40.6429
 21
-16.2307
  0
LINE
  8
0
 10
40.6429
 20
-16.2307
 11
40.3376
 21
-15.8844
  0
LINE
  8
0
 10
40.3376
 20
-15.8844
 11
40.0546
 21
-15.5196
  0
LINE
  8
0
 10
40.0546
 20
-15.5196
 11
39.7951
 21
-15.1377
  0
LINE
  8
0
 10
39.7951
 20
-15.1377
 11
39.5601
 21
-14.7404
  0
LINE
  8
0
 10
39.5601
 20
-14.7404
 11
39.3505
 21
-14.329
  0
LINE
  8
0
 10
39.3505
 20
-14.329
 11
39.1671
 21
-13.9053
  0
LINE
  8
0
 10
39.1671
 20
-13.9053
 11
39.0108
 21
-13.4709
  0
LINE
  8
0
 10
39.0108
 20
-13.4709
 11
38.882
 21
-13.0276
  0
LINE
  8
0
 10
38.882
 20
-13.0276
 11
38.7812
 21
-12.577
  0
LINE
  8
0
 10
38.7812
 20
-12.577
 11
38.709
 21
-12.1211
  0
LINE
  8
0
 10
38.709
 20
-12.1211
 11
38.6656
 21
-11.6614
  0
LINE
  8
0
 10
38.6656
 20
-11.6614
 11
38.6511
 21
-11.2
  0
LINE
  8
0
 10
38.6511
 20
-11.2
 11
38.6656
 21
-10.7386
  0
LINE
  8
0
 10
38.6656
 20
-10.7386
 11
38.709
 21
-10.2789
  0
LINE
  8
0
 10
38.709
 20
-10.2789
 11
38.7812
 21
-9.82294
  0
LINE
  8
0
 10
38.7812
 20
-9.82294
 11
38.882
 21
-9.37239
  0
LINE
  8
0
 10
38.882
 20
-9.37239
 11
39.0108
 21
-8.92905
  0
LINE
  8
0
 10
39.0108
 20
-8.92905
 11
39.1671
 21
-8.49467
  0
LINE
  8
0
 10
39.1671
 20
-8.49467
 11
39.3505
 21
-8.07097
  0
LINE
  8
0
 10
39.3505
 20
-8.07097
 11
39.5601
 21
-7.65962
  0
LINE
  8
0
 10
39.5601
 20
-7.65962
 11
39.7951
 21
-7.26225
  0
LINE
  8
0
 10
39.7951
 20
-7.26225
 11
40.0546
 21
-6.8804
  0
LINE
  8
0
 10
40.0546
 20
-6.8804
 11
40.3376
 21
-6.51561
  0
LINE
  8
0
 10
40.3376
 20
-6.51561
 11
40.6429
 21
-6.16931
  0
LINE
  8
0
 10
40.6429
 20
-6.16931
 11
40.9693
 21
-5.84286
  0
LINE
  8
0
 10
40.9693
 20
-5.84286
 11
41.3156
 21
-5.53755
  0
LINE
  8
0
 10
41.3156
 20
-5.53755
 11
41.6804
 21
-5.25459
  0
LINE
  8
0
 10
41.6804
 20
-5.25459
 11
42.0622
 21
-4.9951
  0
LINE
  8
0
 10
42.0622
 20
-4.9951
 11
42.4596
 21
-4.76009
  0
LINE
  8
0
 10
42.4596
 20
-4.76009
 11
42.871
 21
-4.55049
  0
LINE
  8
0
 10
42.871
 20
-4.55049
 11
43.2947
 21
-4.36714
  0
LINE
  8
0
 10
43.2947
 20
-4.36714
 11
43.729
 21
-4.21075
  0
LINE
  8
0
 10
43.729
 20
-4.21075
 11
44.1724
 21
-4.08195
  0
LINE
  8
0
 10
44.1724
 20
-4.08195
 11
44.6229
 21
-3.98125
  0
LINE
  8
0
 10
44.6229
 20
-3.98125
 11
45.0789
 21
-3.90903
  0
LINE
  8
0
 10
45.0789
 20
-3.90903
 11
45.5385
 21
-3.86557
  0
LINE
  8
0
 10
45.5385
 20
-3.86557
 11
46
 21
-3.85107
  0
LINE
  8
0
 10
46
 20
-3.85107
 11
46.4614
 21
-3.86557
  0
LINE
  8
0
 10
46.4614
 20
-3.86557
 11
46.9211
 21
-3.90903
  0
LINE
  8
0
 10
46.9211
 20
-3.90903
 11
47.377
 21
-3.98125
  0
LINE
  8
0
 10
47.377
 20
-3.98125
 11
47.8276
 21
-4.08195
  0
LINE
  8
0
 10
47.8276
 20
-4.08195
 11
48.2709
 21
-4.21075
  0
LINE
  8
0
 10
48.2709
 20
-4.21075
 11
48.7053
 21
-4.36714
  0
LINE
  8
0
 10
48.7053
 20
-4.36714
 11
49.129
 21
-4.55049
  0
LINE
  8
0
 10
49.129
 20
-4.55049
 11
49.5404
 21
-4.76009
  0
LINE
  8
0
 10
49.5404
 20
-4.76009
 11
49.9377
 21
-4.9951
  0
LINE
  8
0
 10
49.9377
 20
-4.9951
 11
50.3196
 21
-5.25459
  0
LINE
  8
0
 10
50.3196
 20
-5.25459
 11
50.6844
 21
-5.53755
  0
LINE
  8
0
 10
50.6844
 20
-5.53755
 11
51.0307
 21
-5.84286
  0
LINE
  8
0
 10
51.0307
 20
-5.84286
 11
51.3571
 21
-6.16931
  0
LINE
  8
0
 10
51.3571
 20
-6.16931
 11
51.6624
 21
-6.51561
  0
LINE
  8
0
 10
51.6624
 20
-6.51561
 11
51.9454
 21
-6.8804
  0
LINE
  8
0
 10
51.9454
 20
-6.8804
 11
52.2049
 21
-7.26225
  0
LINE
  8
0
 10
52.2049
 20
-7.26225
 11
52.4399
 21
-7.65962
  0
LINE
  8
0
 10
52.4399
 20
-7.65962
 11
52.6495
 21
-8.07097
  0
LINE
  8
0
 10
52.6495
 20
-8.07097
 11
52.8328
 21
-8.49467
  0
LINE
  8
0
 10
52.8328
 20
-8.49467
 11
52.9892
 21
-8.92905
  0
LINE
  8
0
 10
52.9892
 20
-8.92905
 11
53.118
 21
-9.37239
  0
LINE
  8
0
 10
53.118
 20
-9.37239
 11
53.2187
 21
-9.82294
  0
LINE
  8
0
 10
53.2187
 20
-9.82294
 11
53.291
 21
-10.2789
  0
LINE
  8
0
 10
53.291
 20
-10.2789
 11
53.3344
 21
-10.7386
  0
LINE
  8
0
 10
53.3344
 20
-10.7386
 11
53.3489
 21
-11.2
  0
LINE
  8
0
 10
53.3489
 20
-11.2
 11
53.3344
 21
-11.6614
  0
LINE
  8
0
 10
53.3344
 20
-11.6614
 11
53.291
 21
-12.1211
  0
LINE
  8
0
 10
53.291
 20
-12.1211
 11
53.2187
 21
-12.577
  0
LINE
  8
0
 10
53.2187
 20
-12.577
 11
53.118
 21
-13.0276
  0
LINE
  8
0
 10
53.118
 20
-13.0276
 11
52.9892
 21
-13.4709
  0
LINE
  8
0
 10
52.9892
 20
-13.4709
 11
52.8328
 21
-13.9053
  0
LINE
  8
0
 10
52.8328
 20
-13.9053
 11
52.6495
 21
-14.329
  0
LINE
  8
0
 10
52.6495
 20
-14.329
 11
52.4399
 21
-14.7404
  0
LINE
  8
0
 10
52.4399
 20
-14.7404
 11
52.2049
 21
-15.1377
  0
LINE
  8
0
 10
52.2049
 20
-15.1377
 11
51.9454
 21
-15.5196
  0
LINE
  8
0
 10
51.9454
 20
-15.5196
 11
51.6624
 21
-15.8844
  0
LINE
  8
0
 10
51.6624
 20
-15.8844
 11
51.3571
 21
-16.2307
  0
LINE
  8
0
 10
51.3571
 20
-16.2307
 11
51.0307
 21
-16.5571
  0
LINE
  8
0
 10
51.0307
 20
-16.5571
 11
50.6844
 21
-16.8624
  0
LINE
  8
0
 10
50.6844
 20
-16.8624
 11
50.3196
 21
-17.1454
  0
LINE
  8
0
 10
50.3196
 20
-17.1454
 11
49.9377
 21
-17.4049
  0
LINE
  8
0
 10
49.9377
 20
-17.4049
 11
49.5404
 21
-17.6399
  0
LINE
  8
0
 10
49.5404
 20
-17.6399
 11
49.129
 21
-17.8495
  0
LINE
  8
0
 10
49.129
 20
-17.8495
 11
48.7053
 21
-18.0328
  0
LINE
  8
0
 10
48.7053
 20
-18.0328
 11
48.2709
 21
-18.1892
  0
LINE
  8
0
 10
48.2709
 20
-18.1892
 11
47.8276
 21
-18.318
  0
LINE
  8
0
 10
47.8276
 20
-18.318
 11
47.377
 21
-18.4187
  0
LINE
  8
0
 10
47.377
 20
-18.4187
 11
46.9211
 21
-18.491
  0
LINE
  8
0
 10
46.9211
 20
-18.491
 11
46.4614
 21
-18.5344
  0
LINE
  8
0
 10
46.4614
 20
-18.5344
 11
46
 21
-18.5489
  0
LINE
  8
0
 10
46
 20
-18.5489
 11
45.5385
 21
-18.5344
  0
LINE
  8
0
 10
73.564
 20
-18.1301
 11
73.1297
 21
-18.0891
  0
LINE
  8
0
 10
73.1297
 20
-18.0891
 11
72.6989
 21
-18.0208
  0
LINE
  8
0
 10
72.6989
 20
-18.0208
 11
72.2731
 21
-17.9257
  0
LINE
  8
0
 10
72.2731
 20
-17.9257
 11
71.8542
 21
-17.804
  0
LINE
  8
0
 10
71.8542
 20
-17.804
 11
71.4438
 21
-17.6562
  0
LINE
  8
0
 10
71.4438
 20
-17.6562
 11
71.0435
 21
-17.483
  0
LINE
  8
0
 10
71.0435
 20
-17.483
 11
70.6548
 21
-17.2849
  0
LINE
  8
0
 10
70.6548
 20
-17.2849
 11
70.2793
 21
-17.0629
  0
LINE
  8
0
 10
70.2793
 20
-17.0629
 11
69.9185
 21
-16.8177
  0
LINE
  8
0
 10
69.9185
 20
-16.8177
 11
69.5738
 21
-16.5503
  0
LINE
  8
0
 10
69.5738
 20
-16.5503
 11
69.2466
 21
-16.2618
  0
LINE
  8
0
 10
69.2466
 20
-16.2618
 11
68.9382
 21
-15.9534
  0
LINE
  8
0
 10
68.9382
 20
-15.9534
 11
68.6497
 21
-15.6262
  0
LINE
  8
0
 10
68.6497
 20
-15.6262
 11
68.3823
 21
-15.2815
  0
LINE
  8
0
 10
68.3823
 20
-15.2815
 11
68.1371
 21
-14.9207
  0
LINE
  8
0
 10
68.1371
 20
-14.9207
 11
67.9151
 21
-14.5452
  0
LINE
  8
0
 10
67.9151
 20
-14.5452
 11
67.717
 21
-14.1565
  0
LINE
  8
0
 10
67.717
 20
-14.1565
 11
67.5438
 21
-13.7562
  0
LINE
  8
0
 10
67.5438
 20
-13.7562
 11
67.396
 21
-13.3457
  0
LINE
  8
0
 10
67.396
 20
-13.3457
 11
67.2743
 21
-12.9268
  0
LINE
  8
0
 10
67.2743
 20
-12.9268
 11
67.1792
 21
-12.5011
  0
LINE
  8
0
 10
67.1792
 20
-12.5011
 11
67.1109
 21
-12.0703
  0
LINE
  8
0
 10
67.1109
 20
-12.0703
 11
67.0699
 21
-11.636
  0
LINE
  8
0
 10
67.0699
 20
-11.636
 11
67.0562
 21
-11.2
  0
LINE
  8
0
 10
67.0562
 20
-11.2
 11
67.0699
 21
-10.764
  0
LINE
  8
0
 10
67.0699
 20
-10.764
 11
67.1109
 21
-10.3297
  0
LINE
  8
0
 10
67.1109
 20
-10.3297
 11
67.1792
 21
-9.89885
  0
LINE
  8
0
 10
67.1792
 20
-9.89885
 11
67.2743
 21
-9.47313
  0
LINE
  8
0
 10
67.2743
 20
-9.47313
 11
67.396
 21
-9.05423
  0
LINE
  8
0
 10
67.396
 20
-9.05423
 11
67.5438
 21
-8.6438
  0
LINE
  8
0
 10
67.5438
 20
-8.6438
 11
67.717
 21
-8.24345
  0
LINE
  8
0
 10
67.717
 20
-8.24345
 11
67.9151
 21
-7.85478
  0
LINE
  8
0
 10
67.9151
 20
-7.85478
 11
68.1371
 21
-7.47931
  0
LINE
  8
0
 10
68.1371
 20
-7.47931
 11
68.3823
 21
-7.11852
  0
LINE
  8
0
 10
68.3823
 20
-7.11852
 11
68.6497
 21
-6.77383
  0
LINE
  8
0
 10
68.6497
 20
-6.77383
 11
68.9382
 21
-6.44661
  0
LINE
  8
0
 10
68.9382
 20
-6.44661
 11
69.2466
 21
-6.13817
  0
LINE
  8
0
 10
69.2466
 20
-6.13817
 11
69.5738
 21
-5.84969
  0
LINE
  8
0
 10
69.5738
 20
-5.84969
 11
69.9185
 21
-5.58232
  0
LINE
  8
0
 10
69.9185
 20
-5.58232
 11
70.2793
 21
-5.33713
  0
LINE
  8
0
 10
70.2793
 20
-5.33713
 11
70.6548
 21
-5.11507
  0
LINE
  8
0
 10
70.6548
 20
-5.11507
 11
71.0435
 21
-4.91704
  0
LINE
  8
0
 10
71.0435
 20
-4.91704
 11
71.4438
 21
-4.74379
  0
LINE
  8
0
 10
71.4438
 20
-4.74379
 11
71.8542
 21
-4.59602
  0
LINE
  8
0
 10
71.8542
 20
-4.59602
 11
72.2731
 21
-4.47432
  0
LINE
  8
0
 10
72.2731
 20
-4.47432
 11
72.6989
 21
-4.37917
  0
LINE
  8
0
 10
72.6989
 20
-4.37917
 11
73.1297
 21
-4.31093
  0
LINE
  8
0
 10
73.1297
 20
-4.31093
 11
73.564
 21
-4.26987
  0
LINE
  8
0
 10
73.564
 20
-4.26987
 11
74
 21
-4.25616
  0
LINE
  8
0
 10
74
 20
-4.25616
 11
74.436
 21
-4.26987
  0
LINE
  8
0
 10
74.436
 20
-4.26987
 11
74.8703
 21
-4.31093
  0
LINE
  8
0
 10
74.8703
 20
-4.31093
 11
75.3011
 21
-4.37917
  0
LINE
  8
0
 10
75.3011
 20
-4.37917
 11
75.7269
 21
-4.47432
  0
LINE
  8
0
 10
75.7269
 20
-4.47432
 11
76.1458
 21
-4.59602
  0
LINE
  8
0
 10
76.1458
 20
-4.59602
 11
76.5562
 21
-4.74379
  0
LINE
  8
0
 10
76.5562
 20
-4.74379
 11
76.9565
 21
-4.91704
  0
LINE
  8
0
 10
76.9565
 20
-4.91704
 11
77.3452
 21
-5.11507
  0
LINE
  8
0
 10
77.3452
 20
-5.11507
 11
77.7207
 21
-5.33713
  0
LINE
  8
0
 10
77.7207
 20
-5.33713
 11
78.0815
 21
-5.58232
  0
LINE
  8
0
 10
78.0815
 20
-5.58232
 11
78.4261
 21
-5.84969
  0
LINE
  8
0
 10
78.4261
 20
-5.84969
 11
78.7534
 21
-6.13817
  0
LINE
  8
0
 10
78.7534
 20
-6.13817
 11
79.0618
 21
-6.44661
  0
LINE
  8
0
 10
79.0618
 20
-6.44661
 11
79.3503
 21
-6.77383
  0
LINE
  8
0
 10
79.3503
 20
-6.77383
 11
79.6177
 21
-7.11852
  0
LINE
  8
0
 10
79.6177
 20
-7.11852
 11
79.8629
 21
-7.47931
  0
LINE
  8
0
 10
79.8629
 20
-7.47931
 11
80.0849
 21
-7.85478
  0
LINE
  8
0
 10
80.0849
 20
-7.85478
 11
80.283
 21
-8.24345
  0
LINE
  8
0
 10
80.283
 20
-8.24345
 11
80.4562
 21
-8.6438
  0
LINE
  8
0
 10
80.4562
 20
-8.6438
 11
80.604
 21
-9.05423
  0
LINE
  8
0
 10
80.604
 20
-9.05423
 11
80.7257
 21
-9.47313
  0
LINE
  8
0
 10
80.7257
 20
-9.47313
 11
80.8208
 21
-9.89885
  0
LINE
  8
0
 10
80.8208
 20
-9.89885
 11
80.8891
 21
-10.3297
  0
LINE
  8
0
 10
80.8891
 20
-10.3297
 11
80.9301
 21
-10.764
  0
LINE
  8
0
 10
80.9301
 20
-10.764
 11
80.9438
 21
-11.2
  0
LINE
  8
0
 10
80.9438
 20
-11.2
 11
80.9301
 21
-11.636
  0
LINE
  8
0
 10
80.9301
 20
-11.636
 11
80.8891
 21
-12.0703
  0
LINE
  8
0
 10
80.8891
 20
-12.0703
 11
80.8208
 21
-12.5011
  0
LINE
  8
0
 10
80.8208
 20
-12.5011
 11
80.7257
 21
-12.9268
  0
LINE
  8
0
 10
80.7257
 20
-12.9268
 11
80.604
 21
-13.3457
  0
LINE
  8
0
 10
80.604
 20
-13.3457
 11
80.4562
 21
-13.7562
  0
LINE
  8
0
 10
80.4562
 20
-13.7562
 11
80.283
 21
-14.1565
  0
LINE
  8
0
 10
80.283
 20
-14.1565
 11
80.0849
 21
-14.5452
  0
LINE
  8
0
 10
80.0849
 20
-14.5452
 11
79.8629
 21
-14.9207
  0
LINE
  8
0
 10
79.8629
 20
-14.9207
 11
79.6177
 21
-15.2815
  0
LINE
  8
0
 10
79.6177
 20
-15.2815
 11
79.3503
 21
-15.6262
  0
LINE
  8
0
 10
79.3503
 20
-15.6262
 11
79.0618
 21
-15.9534
  0
LINE
  8
0
 10
79.0618
 20
-15.9534
 11
78.7534
 21
-16.2618
  0
LINE
  8
0
 10
78.7534
 20
-16.2618
 11
78.4261
 21
-16.5503
  0
LINE
  8
0
 10
78.4261
 20
-16.5503
 11
78.0815
 21
-16.8177
  0
LINE
  8
0
 10
78.0815
 20
-16.8177
 11
77.7207
 21
-17.0629
  0
LINE
  8
0
 10
77.7207
 20
-17.0629
 11
77.3452
 21
-17.2849
  0
LINE
  8
0
 10
77.3452
 20
-17.2849
 11
76.9565
 21
-17.483
  0
LINE
  8
0
 10
76.9565
 20
-17.483
 11
76.5562
 21
-17.6562
  0
LINE
  8
0
 10
76.5562
 20
-17.6562
 11
76.1458
 21
-17.804
  0
LINE
  8
0
 10
76.1458
 20
-17.804
 11
75.7269
 21
-17.9257
  0
LINE
  8
0
 10
75.7269
 20
-17.9257
 11
75.3011
 21
-18.0208
  0
LINE
  8
0
 10
75.3011
 20
-18.0208
 11
74.8703
 21
-18.0891
  0
LINE
  8
0
 10
74.8703
 20
-18.0891
 11
74.436
 21
-18.1301
  0
LINE
  8
0
 10
74.436
 20
-18.1301
 11
74
 21
-18.1438
  0
LINE
  8
0
 10
74
 20
-18.1438
 11
73.564
 21
-18.1301
  0
LINE
  8
0
 10
157.742
 20
-15.2969
 11
157.485
 21
-15.2727
  0
LINE
  8
0
 10
157.485
 20
-15.2727
 11
157.231
 21
-15.2323
  0
LINE
  8
0
 10
157.231
 20
-15.2323
 11
156.979
 21
-15.1761
  0
LINE
  8
0
 10
156.979
 20
-15.1761
 11
156.731
 21
-15.1041
  0
LINE
  8
0
 10
156.731
 20
-15.1041
 11
156.489
 21
-15.0168
  0
LINE
  8
0
 10
156.489
 20
-15.0168
 11
156.252
 21
-14.9143
  0
LINE
  8
0
 10
156.252
 20
-14.9143
 11
156.022
 21
-14.7973
  0
LINE
  8
0
 10
156.022
 20
-14.7973
 11
155.8
 21
-14.666
  0
LINE
  8
0
 10
155.8
 20
-14.666
 11
155.587
 21
-14.521
  0
LINE
  8
0
 10
155.587
 20
-14.521
 11
155.383
 21
-14.363
  0
LINE
  8
0
 10
155.383
 20
-14.363
 11
155.19
 21
-14.1924
  0
LINE
  8
0
 10
155.19
 20
-14.1924
 11
155.008
 21
-14.0101
  0
LINE
  8
0
 10
155.008
 20
-14.0101
 11
154.837
 21
-13.8166
  0
LINE
  8
0
 10
154.837
 20
-13.8166
 11
154.679
 21
-13.6129
  0
LINE
  8
0
 10
154.679
 20
-13.6129
 11
154.534
 21
-13.3996
  0
LINE
  8
0
 10
154.534
 20
-13.3996
 11
154.403
 21
-13.1776
  0
LINE
  8
0
 10
154.403
 20
-13.1776
 11
154.286
 21
-12.9478
  0
LINE
  8
0
 10
154.286
 20
-12.9478
 11
154.183
 21
-12.7112
  0
LINE
  8
0
 10
154.183
 20
-12.7112
 11
154.096
 21
-12.4685
  0
LINE
  8
0
 10
154.096
 20
-12.4685
 11
154.024
 21
-12.2209
  0
LINE
  8
0
 10
154.024
 20
-12.2209
 11
153.968
 21
-11.9692
  0
LINE
  8
0
 10
153.968
 20
-11.9692
 11
153.927
 21
-11.7145
  0
LINE
  8
0
 10
153.927
 20
-11.7145
 11
153.903
 21
-11.4577
  0
LINE
  8
0
 10
153.903
 20
-11.4577
 11
153.895
 21
-11.2
  0
LINE
  8
0
 10
153.895
 20
-11.2
 11
153.903
 21
-10.9422
  0
LINE
  8
0
 10
153.903
 20
-10.9422
 11
153.927
 21
-10.6855
  0
LINE
  8
0
 10
153.927
 20
-10.6855
 11
153.968
 21
-10.4308
  0
LINE
  8
0
 10
153.968
 20
-10.4308
 11
154.024
 21
-10.1791
  0
LINE
  8
0
 10
154.024
 20
-10.1791
 11
154.096
 21
-9.93147
  0
LINE
  8
0
 10
154.096
 20
-9.93147
 11
154.183
 21
-9.68883
  0
LINE
  8
0
 10
154.183
 20
-9.68883
 11
154.286
 21
-9.45215
  0
LINE
  8
0
 10
154.286
 20
-9.45215
 11
154.403
 21
-9.22238
  0
LINE
  8
0
 10
154.403
 20
-9.22238
 11
154.534
 21
-9.00041
  0
LINE
  8
0
 10
154.534
 20
-9.00041
 11
154.679
 21
-8.78711
  0
LINE
  8
0
 10
154.679
 20
-8.78711
 11
154.837
 21
-8.58334
  0
LINE
  8
0
 10
154.837
 20
-8.58334
 11
155.008
 21
-8.38991
  0
LINE
  8
0
 10
155.008
 20
-8.38991
 11
155.19
 21
-8.20755
  0
LINE
  8
0
 10
155.19
 20
-8.20755
 11
155.383
 21
-8.037
  0
LINE
  8
0
 10
155.383
 20
-8.037
 11
155.587
 21
-7.87895
  0
LINE
  8
0
 10
155.587
 20
-7.87895
 11
155.8
 21
-7.73399
  0
LINE
  8
0
 10
155.8
 20
-7.73399
 11
156.022
 21
-7.60272
  0
LINE
  8
0
 10
156.022
 20
-7.60272
 11
156.252
 21
-7.48564
  0
LINE
  8
0
 10
156.252
 20
-7.48564
 11
156.489
 21
-7.38322
  0
LINE
  8
0
 10
156.489
 20
-7.38322
 11
156.731
 21
-7.29587
  0
LINE
  8
0
 10
156.731
 20
-7.29587
 11
156.979
 21
-7.22392
  0
LINE
  8
0
 10
156.979
 20
-7.22392
 11
157.231
 21
-7.16766
  0
LINE
  8
0
 10
157.231
 20
-7.16766
 11
157.485
 21
-7.12733
  0
LINE
  8
0
 10
157.485
 20
-7.12733
 11
157.742
 21
-7.10306
  0
LINE
  8
0
 10
157.742
 20
-7.10306
 11
158
 21
-7.09496
  0
LINE
  8
0
 10
158
 20
-7.09496
 11
158.258
 21
-7.10306
  0
LINE
  8
0
 10
158.258
 20
-7.10306
 11
158.514
 21
-7.12733
  0
LINE
  8
0
 10
158.514
 20
-7.12733
 11
158.769
 21
-7.16766
  0
LINE
  8
0
 10
158.769
 20
-7.16766
 11
159.021
 21
-7.22392
  0
LINE
  8
0
 10
159.021
 20
-7.22392
 11
159.269
 21
-7.29587
  0
LINE
  8
0
 10
159.269
 20
-7.29587
 11
159.511
 21
-7.38322
  0
LINE
  8
0
 10
159.511
 20
-7.38322
 11
159.748
 21
-7.48564
  0
LINE
  8
0
 10
159.748
 20
-7.48564
 11
159.978
 21
-7.60272
  0
LINE
  8
0
 10
159.978
 20
-7.60272
 11
160.2
 21
-7.73399
  0
LINE
  8
0
 10
160.2
 20
-7.73399
 11
160.413
 21
-7.87895
  0
LINE
  8
0
 10
160.413
 20
-7.87895
 11
160.617
 21
-8.037
  0
LINE
  8
0
 10
160.617
 20
-8.037
 11
160.81
 21
-8.20755
  0
LINE
  8
0
 10
160.81
 20
-8.20755
 11
160.992
 21
-8.38991
  0
LINE
  8
0
 10
160.992
 20
-8.38991
 11
161.163
 21
-8.58334
  0
LINE
  8
0
 10
161.163
 20
-8.58334
 11
161.321
 21
-8.78711
  0
LINE
  8
0
 10
161.321
 20
-8.78711
 11
161.466
 21
-9.00041
  0
LINE
  8
0
 10
161.466
 20
-9.00041
 11
161.597
 21
-9.22238
  0
LINE
  8
0
 10
161.597
 20
-9.22238
 11
161.714
 21
-9.45215
  0
LINE
  8
0
 10
161.714
 20
-9.45215
 11
161.817
 21
-9.68883
  0
LINE
  8
0
 10
161.817
 20
-9.68883
 11
161.904
 21
-9.93147
  0
LINE
  8
0
 10
161.904
 20
-9.93147
 11
161.976
 21
-10.1791
  0
LINE
  8
0
 10
161.976
 20
-10.1791
 11
162.032
 21
-10.4308
  0
LINE
  8
0
 10
162.032
 20
-10.4308
 11
162.073
 21
-10.6855
  0
LINE
  8
0
 10
162.073
 20
-10.6855
 11
162.097
 21
-10.9422
  0
LINE
  8
0
 10
162.097
 20
-10.9422
 11
162.105
 21
-11.2
  0
LINE
  8
0
 10
162.105
 20
-11.2
 11
162.097
 21
-11.4577
  0
LINE
  8
0
 10
162.097
 20
-11.4577
 11
162.073
 21
-11.7145
  0
LINE
  8
0
 10
162.073
 20
-11.7145
 11
162.032
 21
-11.9692
  0
LINE
  8
0
 10
162.032
 20
-11.9692
 11
161.976
 21
-12.2209
  0
LINE
  8
0
 10
161.976
 20
-12.2209
 11
161.904
 21
-12.4685
  0
LINE
  8
0
 10
161.904
 20
-12.4685
 11
161.817
 21
-12.7112
  0
LINE
  8
0
 10
161.817
 20
-12.7112
 11
161.714
 21
-12.9478
  0
LINE
  8
0
 10
161.714
 20
-12.9478
 11
161.597
 21
-13.1776
  0
LINE
  8
0
 10
161.597
 20
-13.1776
 11
161.466
 21
-13.3996
  0
LINE
  8
0
 10
161.466
 20
-13.3996
 11
161.321
 21
-13.6129
  0
LINE
  8
0
 10
161.321
 20
-13.6129
 11
161.163
 21
-13.8166
  0
LINE
  8
0
 10
161.163
 20
-13.8166
 11
160.992
 21
-14.0101
  0
LINE
  8
0
 10
160.992
 20
-14.0101
 11
160.81
 21
-14.1924
  0
LINE
  8
0
 10
160.81
 20
-14.1924
 11
160.617
 21
-14.363
  0
LINE
  8
0
 10
160.617
 20
-14.363
 11
160.413
 21
-14.521
  0
LINE
  8
0
 10
160.413
 20
-14.521
 11
160.2
 21
-14.666
  0
LINE
  8
0
 10
160.2
 20
-14.666
 11
159.978
 21
-14.7973
  0
LINE
  8
0
 10
159.978
 20
-14.7973
 11
159.748
 21
-14.9143
  0
LINE
  8
0
 10
159.748
 20
-14.9143
 11
159.511
 21
-15.0168
  0
LINE
  8
0
 10
159.511
 20
-15.0168
 11
159.269
 21
-15.1041
  0
LINE
  8
0
 10
159.269
 20
-15.1041
 11
159.021
 21
-15.1761
  0
LINE
  8
0
 10
159.021
 20
-15.1761
 11
158.769
 21
-15.2323
  0
LINE
  8
0
 10
158.769
 20
-15.2323
 11
158.514
 21
-15.2727
  0
LINE
  8
0
 10
158.514
 20
-15.2727
 11
158.258
 21
-15.2969
  0
LINE
  8
0
 10
158.258
 20
-15.2969
 11
158
 21
-15.305
  0
LINE
  8
0
 10
158
 20
-15.305
 11
157.742
 21
-15.2969
  0
LINE
  8
0
 10
101.757
 20
-15.0665
 11
101.514
 21
-15.0436
  0
LINE
  8
0
 10
101.514
 20
-15.0436
 11
101.274
 21
-15.0055
  0
LINE
  8
0
 10
101.274
 20
-15.0055
 11
101.037
 21
-14.9524
  0
LINE
  8
0
 10
101.037
 20
-14.9524
 11
100.803
 21
-14.8845
  0
LINE
  8
0
 10
100.803
 20
-14.8845
 11
100.574
 21
-14.8021
  0
LINE
  8
0
 10
100.574
 20
-14.8021
 11
100.35
 21
-14.7054
  0
LINE
  8
0
 10
100.35
 20
-14.7054
 11
100.134
 21
-14.5949
  0
LINE
  8
0
 10
100.134
 20
-14.5949
 11
99.9241
 21
-14.471
  0
LINE
  8
0
 10
99.9241
 20
-14.471
 11
99.7228
 21
-14.3342
  0
LINE
  8
0
 10
99.7228
 20
-14.3342
 11
99.5305
 21
-14.1851
  0
LINE
  8
0
 10
99.5305
 20
-14.1851
 11
99.348
 21
-14.0241
  0
LINE
  8
0
 10
99.348
 20
-14.0241
 11
99.1759
 21
-13.852
  0
LINE
  8
0
 10
99.1759
 20
-13.852
 11
99.0149
 21
-13.6694
  0
LINE
  8
0
 10
99.0149
 20
-13.6694
 11
98.8658
 21
-13.4771
  0
LINE
  8
0
 10
98.8658
 20
-13.4771
 11
98.729
 21
-13.2758
  0
LINE
  8
0
 10
98.729
 20
-13.2758
 11
98.6051
 21
-13.0664
  0
LINE
  8
0
 10
98.6051
 20
-13.0664
 11
98.4946
 21
-12.8495
  0
LINE
  8
0
 10
98.4946
 20
-12.8495
 11
98.3979
 21
-12.6262
  0
LINE
  8
0
 10
98.3979
 20
-12.6262
 11
98.3155
 21
-12.3972
  0
LINE
  8
0
 10
98.3155
 20
-12.3972
 11
98.2476
 21
-12.1635
  0
LINE
  8
0
 10
98.2476
 20
-12.1635
 11
98.1945
 21
-11.9259
  0
LINE
  8
0
 10
98.1945
 20
-11.9259
 11
98.1564
 21
-11.6855
  0
LINE
  8
0
 10
98.1564
 20
-11.6855
 11
98.1335
 21
-11.4433
  0
LINE
  8
0
 10
98.1335
 20
-11.4433
 11
98.1259
 21
-11.2
  0
LINE
  8
0
 10
98.1259
 20
-11.2
 11
98.1335
 21
-10.9567
  0
LINE
  8
0
 10
98.1335
 20
-10.9567
 11
98.1564
 21
-10.7144
  0
LINE
  8
0
 10
98.1564
 20
-10.7144
 11
98.1945
 21
-10.4741
  0
LINE
  8
0
 10
98.1945
 20
-10.4741
 11
98.2476
 21
-10.2365
  0
LINE
  8
0
 10
98.2476
 20
-10.2365
 11
98.3155
 21
-10.0028
  0
LINE
  8
0
 10
98.3155
 20
-10.0028
 11
98.3979
 21
-9.77383
  0
LINE
  8
0
 10
98.3979
 20
-9.77383
 11
98.4946
 21
-9.55048
  0
LINE
  8
0
 10
98.4946
 20
-9.55048
 11
98.6051
 21
-9.33362
  0
LINE
  8
0
 10
98.6051
 20
-9.33362
 11
98.729
 21
-9.12413
  0
LINE
  8
0
 10
98.729
 20
-9.12413
 11
98.8658
 21
-8.92284
  0
LINE
  8
0
 10
98.8658
 20
-8.92284
 11
99.0149
 21
-8.73053
  0
LINE
  8
0
 10
99.0149
 20
-8.73053
 11
99.1759
 21
-8.54797
  0
LINE
  8
0
 10
99.1759
 20
-8.54797
 11
99.348
 21
-8.37589
  0
LINE
  8
0
 10
99.348
 20
-8.37589
 11
99.5305
 21
-8.21494
  0
LINE
  8
0
 10
99.5305
 20
-8.21494
 11
99.7228
 21
-8.06577
  0
LINE
  8
0
 10
99.7228
 20
-8.06577
 11
99.9241
 21
-7.92896
  0
LINE
  8
0
 10
99.9241
 20
-7.92896
 11
100.134
 21
-7.80507
  0
LINE
  8
0
 10
100.134
 20
-7.80507
 11
100.35
 21
-7.69458
  0
LINE
  8
0
 10
100.35
 20
-7.69458
 11
100.574
 21
-7.59793
  0
LINE
  8
0
 10
100.574
 20
-7.59793
 11
100.803
 21
-7.51549
  0
LINE
  8
0
 10
100.803
 20
-7.51549
 11
101.037
 21
-7.44759
  0
LINE
  8
0
 10
101.037
 20
-7.44759
 11
101.274
 21
-7.39449
  0
LINE
  8
0
 10
101.274
 20
-7.39449
 11
101.514
 21
-7.35641
  0
LINE
  8
0
 10
101.514
 20
-7.35641
 11
101.757
 21
-7.33351
  0
LINE
  8
0
 10
101.757
 20
-7.33351
 11
102
 21
-7.32587
  0
LINE
  8
0
 10
102
 20
-7.32587
 11
102.243
 21
-7.33351
  0
LINE
  8
0
 10
102.243
 20
-7.33351
 11
102.486
 21
-7.35641
  0
LINE
  8
0
 10
102.486
 20
-7.35641
 11
102.726
 21
-7.39449
  0
LINE
  8
0
 10
102.726
 20
-7.39449
 11
102.963
 21
-7.44759
  0
LINE
  8
0
 10
102.963
 20
-7.44759
 11
103.197
 21
-7.51549
  0
LINE
  8
0
 10
103.197
 20
-7.51549
 11
103.426
 21
-7.59793
  0
LINE
  8
0
 10
103.426
 20
-7.59793
 11
103.65
 21
-7.69458
  0
LINE
  8
0
 10
103.65
 20
-7.69458
 11
103.866
 21
-7.80507
  0
LINE
  8
0
 10
103.866
 20
-7.80507
 11
104.076
 21
-7.92896
  0
LINE
  8
0
 10
104.076
 20
-7.92896
 11
104.277
 21
-8.06577
  0
LINE
  8
0
 10
104.277
 20
-8.06577
 11
104.469
 21
-8.21494
  0
LINE
  8
0
 10
104.469
 20
-8.21494
 11
104.652
 21
-8.37589
  0
LINE
  8
0
 10
104.652
 20
-8.37589
 11
104.824
 21
-8.54797
  0
LINE
  8
0
 10
104.824
 20
-8.54797
 11
104.985
 21
-8.73053
  0
LINE
  8
0
 10
104.985
 20
-8.73053
 11
105.134
 21
-8.92284
  0
LINE
  8
0
 10
105.134
 20
-8.92284
 11
105.271
 21
-9.12413
  0
LINE
  8
0
 10
105.271
 20
-9.12413
 11
105.395
 21
-9.33362
  0
LINE
  8
0
 10
105.395
 20
-9.33362
 11
105.505
 21
-9.55048
  0
LINE
  8
0
 10
105.505
 20
-9.55048
 11
105.602
 21
-9.77383
  0
LINE
  8
0
 10
105.602
 20
-9.77383
 11
105.685
 21
-10.0028
  0
LINE
  8
0
 10
105.685
 20
-10.0028
 11
105.752
 21
-10.2365
  0
LINE
  8
0
 10
105.752
 20
-10.2365
 11
105.805
 21
-10.4741
  0
LINE
  8
0
 10
105.805
 20
-10.4741
 11
105.844
 21
-10.7144
  0
LINE
  8
0
 10
105.844
 20
-10.7144
 11
105.866
 21
-10.9567
  0
LINE
  8
0
 10
105.866
 20
-10.9567
 11
105.874
 21
-11.2
  0
LINE
  8
0
 10
105.874
 20
-11.2
 11
105.866
 21
-11.4433
  0
LINE
  8
0
 10
105.866
 20
-11.4433
 11
105.844
 21
-11.6855
  0
LINE
  8
0
 10
105.844
 20
-11.6855
 11
105.805
 21
-11.9259
  0
LINE
  8
0
 10
105.805
 20
-11.9259
 11
105.752
 21
-12.1635
  0
LINE
  8
0
 10
105.752
 20
-12.1635
 11
105.685
 21
-12.3972
  0
LINE
  8
0
 10
105.685
 20
-12.3972
 11
105.602
 21
-12.6262
  0
LINE
  8
0
 10
105.602
 20
-12.6262
 11
105.505
 21
-12.8495
  0
LINE
  8
0
 10
105.505
 20
-12.8495
 11
105.395
 21
-13.0664
  0
LINE
  8
0
 10
105.395
 20
-13.0664
 11
105.271
 21
-13.2758
  0
LINE
  8
0
 10
105.271
 20
-13.2758
 11
105.134
 21
-13.4771
  0
LINE
  8
0
 10
105.134
 20
-13.4771
 11
104.985
 21
-13.6694
  0
LINE
  8
0
 10
104.985
 20
-13.6694
 11
104.824
 21
-13.852
  0
LINE
  8
0
 10
104.824
 20
-13.852
 11
104.652
 21
-14.0241
  0
LINE
  8
0
 10
104.652
 20
-14.0241
 11
104.469
 21
-14.1851
  0
LINE
  8
0
 10
104.469
 20
-14.1851
 11
104.277
 21
-14.3342
  0
LINE
  8
0
 10
104.277
 20
-14.3342
 11
104.076
 21
-14.471
  0
LINE
  8
0
 10
104.076
 20
-14.471
 11
103.866
 21
-14.5949
  0
LINE
  8
0
 10
103.866
 20
-14.5949
 11
103.65
 21
-14.7054
  0
LINE
  8
0
 10
103.65
 20
-14.7054
 11
103.426
 21
-14.8021
  0
LINE
  8
0
 10
103.426
 20
-14.8021
 11
103.197
 21
-14.8845
  0
LINE
  8
0
 10
103.197
 20
-14.8845
 11
102.963
 21
-14.9524
  0
LINE
  8
0
 10
102.963
 20
-14.9524
 11
102.726
 21
-15.0055
  0
LINE
  8
0
 10
102.726
 20
-15.0055
 11
102.486
 21
-15.0436
  0
LINE
  8
0
 10
102.486
 20
-15.0436
 11
102.243
 21
-15.0665
  0
LINE
  8
0
 10
102.243
 20
-15.0665
 11
102
 21
-15.0741
  0
LINE
  8
0
 10
102
 20
-15.0741
 11
101.757
 21
-15.0665
  0
LINE
  8
0
 10
129.773
 20
-14.8066
 11
129.547
 21
-14.7852
  0
LINE
  8
0
 10
129.547
 20
-14.7852
 11
129.323
 21
-14.7497
  0
LINE
  8
0
 10
129.323
 20
-14.7497
 11
129.101
 21
-14.7002
  0
LINE
  8
0
 10
129.101
 20
-14.7002
 11
128.883
 21
-14.6368
  0
LINE
  8
0
 10
128.883
 20
-14.6368
 11
128.67
 21
-14.5599
  0
LINE
  8
0
 10
128.67
 20
-14.5599
 11
128.461
 21
-14.4698
  0
LINE
  8
0
 10
128.461
 20
-14.4698
 11
128.259
 21
-14.3667
  0
LINE
  8
0
 10
128.259
 20
-14.3667
 11
128.064
 21
-14.2511
  0
LINE
  8
0
 10
128.064
 20
-14.2511
 11
127.876
 21
-14.1235
  0
LINE
  8
0
 10
127.876
 20
-14.1235
 11
127.697
 21
-13.9844
  0
LINE
  8
0
 10
127.697
 20
-13.9844
 11
127.526
 21
-13.8343
  0
LINE
  8
0
 10
127.526
 20
-13.8343
 11
127.366
 21
-13.6737
  0
LINE
  8
0
 10
127.366
 20
-13.6737
 11
127.216
 21
-13.5034
  0
LINE
  8
0
 10
127.216
 20
-13.5034
 11
127.076
 21
-13.3241
  0
LINE
  8
0
 10
127.076
 20
-13.3241
 11
126.949
 21
-13.1363
  0
LINE
  8
0
 10
126.949
 20
-13.1363
 11
126.833
 21
-12.9409
  0
LINE
  8
0
 10
126.833
 20
-12.9409
 11
126.73
 21
-12.7386
  0
LINE
  8
0
 10
126.73
 20
-12.7386
 11
126.64
 21
-12.5303
  0
LINE
  8
0
 10
126.64
 20
-12.5303
 11
126.563
 21
-12.3167
  0
LINE
  8
0
 10
126.563
 20
-12.3167
 11
126.5
 21
-12.0987
  0
LINE
  8
0
 10
126.5
 20
-12.0987
 11
126.45
 21
-11.8771
  0
LINE
  8
0
 10
126.45
 20
-11.8771
 11
126.415
 21
-11.6529
  0
LINE
  8
0
 10
126.415
 20
-11.6529
 11
126.393
 21
-11.4269
  0
LINE
  8
0
 10
126.393
 20
-11.4269
 11
126.386
 21
-11.2
  0
LINE
  8
0
 10
126.386
 20
-11.2
 11
126.393
 21
-10.9731
  0
LINE
  8
0
 10
126.393
 20
-10.9731
 11
126.415
 21
-10.7471
  0
LINE
  8
0
 10
126.415
 20
-10.7471
 11
126.45
 21
-10.5229
  0
LINE
  8
0
 10
126.45
 20
-10.5229
 11
126.5
 21
-10.3013
  0
LINE
  8
0
 10
126.5
 20
-10.3013
 11
126.563
 21
-10.0833
  0
LINE
  8
0
 10
126.563
 20
-10.0833
 11
126.64
 21
-9.86971
  0
LINE
  8
0
 10
126.64
 20
-9.86971
 11
126.73
 21
-9.66135
  0
LINE
  8
0
 10
126.73
 20
-9.66135
 11
126.833
 21
-9.45908
  0
LINE
  8
0
 10
126.833
 20
-9.45908
 11
126.949
 21
-9.26367
  0
LINE
  8
0
 10
126.949
 20
-9.26367
 11
127.076
 21
-9.07591
  0
LINE
  8
0
 10
127.076
 20
-9.07591
 11
127.216
 21
-8.89653
  0
LINE
  8
0
 10
127.216
 20
-8.89653
 11
127.366
 21
-8.72624
  0
LINE
  8
0
 10
127.366
 20
-8.72624
 11
127.526
 21
-8.56572
  0
LINE
  8
0
 10
127.526
 20
-8.56572
 11
127.697
 21
-8.41559
  0
LINE
  8
0
 10
127.697
 20
-8.41559
 11
127.876
 21
-8.27644
  0
LINE
  8
0
 10
127.876
 20
-8.27644
 11
128.064
 21
-8.14885
  0
LINE
  8
0
 10
128.064
 20
-8.14885
 11
128.259
 21
-8.03328
  0
LINE
  8
0
 10
128.259
 20
-8.03328
 11
128.461
 21
-7.93022
  0
LINE
  8
0
 10
128.461
 20
-7.93022
 11
128.67
 21
-7.84006
  0
LINE
  8
0
 10
128.67
 20
-7.84006
 11
128.883
 21
-7.76315
  0
LINE
  8
0
 10
128.883
 20
-7.76315
 11
129.101
 21
-7.69983
  0
LINE
  8
0
 10
129.101
 20
-7.69983
 11
129.323
 21
-7.6503
  0
LINE
  8
0
 10
129.323
 20
-7.6503
 11
129.547
 21
-7.61479
  0
LINE
  8
0
 10
129.547
 20
-7.61479
 11
129.773
 21
-7.59343
  0
LINE
  8
0
 10
129.773
 20
-7.59343
 11
130
 21
-7.58629
  0
LINE
  8
0
 10
130
 20
-7.58629
 11
130.227
 21
-7.59343
  0
LINE
  8
0
 10
130.227
 20
-7.59343
 11
130.453
 21
-7.61479
  0
LINE
  8
0
 10
130.453
 20
-7.61479
 11
130.677
 21
-7.6503
  0
LINE
  8
0
 10
130.677
 20
-7.6503
 11
130.899
 21
-7.69983
  0
LINE
  8
0
 10
130.899
 20
-7.69983
 11
131.117
 21
-7.76315
  0
LINE
  8
0
 10
131.117
 20
-7.76315
 11
131.33
 21
-7.84006
  0
LINE
  8
0
 10
131.33
 20
-7.84006
 11
131.539
 21
-7.93022
  0
LINE
  8
0
 10
131.539
 20
-7.93022
 11
131.741
 21
-8.03328
  0
LINE
  8
0
 10
131.741
 20
-8.03328
 11
131.936
 21
-8.14885
  0
LINE
  8
0
 10
131.936
 20
-8.14885
 11
132.124
 21
-8.27644
  0
LINE
  8
0
 10
132.124
 20
-8.27644
 11
132.303
 21
-8.41559
  0
LINE
  8
0
 10
132.303
 20
-8.41559
 11
132.474
 21
-8.56572
  0
LINE
  8
0
 10
132.474
 20
-8.56572
 11
132.634
 21
-8.72624
  0
LINE
  8
0
 10
132.634
 20
-8.72624
 11
132.784
 21
-8.89653
  0
LINE
  8
0
 10
132.784
 20
-8.89653
 11
132.924
 21
-9.07591
  0
LINE
  8
0
 10
132.924
 20
-9.07591
 11
133.051
 21
-9.26367
  0
LINE
  8
0
 10
133.051
 20
-9.26367
 11
133.167
 21
-9.45908
  0
LINE
  8
0
 10
133.167
 20
-9.45908
 11
133.27
 21
-9.66135
  0
LINE
  8
0
 10
133.27
 20
-9.66135
 11
133.36
 21
-9.86971
  0
LINE
  8
0
 10
133.36
 20
-9.86971
 11
133.437
 21
-10.0833
  0
LINE
  8
0
 10
133.437
 20
-10.0833
 11
133.5
 21
-10.3013
  0
LINE
  8
0
 10
133.5
 20
-10.3013
 11
133.55
 21
-10.5229
  0
LINE
  8
0
 10
133.55
 20
-10.5229
 11
133.585
 21
-10.7471
  0
LINE
  8
0
 10
133.585
 20
-10.7471
 11
133.607
 21
-10.9731
  0
LINE
  8
0
 10
133.607
 20
-10.9731
 11
133.614
 21
-11.2
  0
LINE
  8
0
 10
133.614
 20
-11.2
 11
133.607
 21
-11.4269
  0
LINE
  8
0
 10
133.607
 20
-11.4269
 11
133.585
 21
-11.6529
  0
LINE
  8
0
 10
133.585
 20
-11.6529
 11
133.55
 21
-11.8771
  0
LINE
  8
0
 10
133.55
 20
-11.8771
 11
133.5
 21
-12.0987
  0
LINE
  8
0
 10
133.5
 20
-12.0987
 11
133.437
 21
-12.3167
  0
LINE
  8
0
 10
133.437
 20
-12.3167
 11
133.36
 21
-12.5303
  0
LINE
  8
0
 10
133.36
 20
-12.5303
 11
133.27
 21
-12.7386
  0
LINE
  8
0
 10
133.27
 20
-12.7386
 11
133.167
 21
-12.9409
  0
LINE
  8
0
 10
133.167
 20
-12.9409
 11
133.051
 21
-13.1363
  0
LINE
  8
0
 10
133.051
 20
-13.1363
 11
132.924
 21
-13.3241
  0
LINE
  8
0
 10
132.924
 20
-13.3241
 11
132.784
 21
-13.5034
  0
LINE
  8
0
 10
132.784
 20
-13.5034
 11
132.634
 21
-13.6737
  0
LINE
  8
0
 10
132.634
 20
-13.6737
 11
132.474
 21
-13.8343
  0
LINE
  8
0
 10
132.474
 20
-13.8343
 11
132.303
 21
-13.9844
  0
LINE
  8
0
 10
132.303
 20
-13.9844
 11
132.124
 21
-14.1235
  0
LINE
  8
0
 10
132.124
 20
-14.1235
 11
131.936
 21
-14.2511
  0
LINE
  8
0
 10
131.936
 20
-14.2511
 11
131.741
 21
-14.3667
  0
LINE
  8
0
 10
131.741
 20
-14.3667
 11
131.539
 21
-14.4698
  0
LINE
  8
0
 10
131.539
 20
-14.4698
 11
131.33
 21
-14.5599
  0
LINE
  8
0
 10
131.33
 20
-14.5599
 11
131.117
 21
-14.6368
  0
LINE
  8
0
 10
131.117
 20
-14.6368
 11
130.899
 21
-14.7002
  0
LINE
  8
0
 10
130.899
 20
-14.7002
 11
130.677
 21
-14.7497
  0
LINE
  8
0
 10
130.677
 20
-14.7497
 11
130.453
 21
-14.7852
  0
LINE
  8
0
 10
130.453
 20
-14.7852
 11
130.227
 21
-14.8066
  0
LINE
  8
0
 10
130.227
 20
-14.8066
 11
130
 21
-14.8137
  0
LINE
  8
0
 10
130
 20
-14.8137
 11
129.773
 21
-14.8066
  0
ENDSEC
  0
SECTION
  2
OBJECTS
  0
DICTIONARY
  0
ENDSEC
  0
EOF
