M48
; DRILL file {KiCad 6.0.4-6f826c9f35~116~ubuntu20.04.1} date Mon 28 Mar 2022 04:20:18 PM CEST
; FORMAT={-:-/ absolute / inch / decimal}
; #@! TF.CreationDate,2022-03-28T16:20:18+02:00
; #@! TF.GenerationSoftware,Kicad,Pcbnew,6.0.4-6f826c9f35~116~ubuntu20.04.1
; #@! TF.FileFunction,Plated,1,2,PTH
FMAT,2
INCH
; #@! TA.AperFunction,Plated,PTH,ViaDrill
T1C0.0118
; #@! TA.AperFunction,Plated,PTH,ComponentDrill
T2C0.0236
; #@! TA.AperFunction,Plated,PTH,ComponentDrill
T3C0.0315
; #@! TA.AperFunction,Plated,PTH,ComponentDrill
T4C0.0394
%
G90
G05
T1
X2.6043Y-3.3189
X2.6378Y-4.6457
X2.7795Y-4.6575
X2.8346Y-3.4252
X2.874Y-3.5433
X2.874Y-4.685
X2.9134Y-3.189
X2.9134Y-3.3465
X2.9232Y-3.937
X2.9705Y-2.9685
X2.9961Y-3.874
X2.9961Y-3.9213
X2.9961Y-3.9685
X2.9961Y-4.0079
X3.0315Y-4.9213
X3.0709Y-3.3465
X3.1102Y-3.4646
X3.1102Y-3.5827
X3.2283Y-3.4646
X3.2283Y-3.5827
X3.2283Y-4.9213
X3.2677Y-3.3465
X3.2677Y-3.6614
X3.2677Y-3.8976
X3.3799Y-3.6083
X3.3799Y-3.6614
X3.4252Y-2.8346
X3.4252Y-2.9921
X3.4646Y-3.7008
X3.498Y-3.6339
X3.5276Y-3.502
X3.5433Y-2.6378
X3.5551Y-5.2303
X3.5787Y-3.502
X3.5827Y-3.939
X3.622Y-3.6614
X3.6417Y-3.9646
X3.6614Y-4.0551
X3.6614Y-4.1634
X3.7008Y-3.8976
X3.7008Y-3.9882
X3.7402Y-3.5827
X3.7717Y-3.5669
X3.7795Y-4.8425
X3.8189Y-3.2283
X3.8346Y-4.0413
X3.8602Y-4.0157
X3.8642Y-3.6644
X3.8661Y-3.7618
X3.8858Y-4.0906
X3.8878Y-4.8228
X3.9075Y-4.1398
X3.9114Y-3.6024
X3.9213Y-3.8031
X3.9321Y-3.7077
X3.9331Y-4.0482
X3.935Y-3.9902
X3.936Y-3.8947
X3.937Y-2.4409
X3.937Y-2.6378
X3.937Y-2.7559
X3.937Y-3.7402
X3.9764Y-4.2126
X4.001Y-3.5738
X4.0291Y-3.8117
X4.0945Y-4.3701
X4.1732Y-3.622
X4.1732Y-3.7008
X4.1732Y-3.8583
X4.1732Y-4.0157
X4.1732Y-4.2126
X4.1752Y-4.1378
X4.3307Y-2.6378
X4.3307Y-3.8583
X4.3307Y-3.937
X4.3307Y-4.8819
X4.3386Y-5.2283
X4.3701Y-2.8346
X4.3701Y-2.9921
X4.374Y-4.0591
X4.378Y-4.5039
X4.4094Y-3.8583
X4.4094Y-3.937
X4.4252Y-4.748
X4.5276Y-4.0157
X4.5669Y-4.8819
X4.6457Y-2.9528
X4.6457Y-3.622
X4.6457Y-4.0157
X4.6457Y-4.2126
X4.6713Y-3.9409
X4.7244Y-4.3701
X4.815Y-3.7933
X4.8858Y-4.1654
X4.8898Y-4.1142
X4.8957Y-4.9114
X4.8996Y-2.9685
X5.0394Y-3.2677
X5.0394Y-3.622
X5.0787Y-4.0157
X5.0787Y-4.3701
X5.2165Y-3.1654
X5.252Y-3.6732
X5.2539Y-4.563
T3
X2.6142Y-3.4646
X2.6142Y-3.5433
X2.6142Y-3.622
X2.6142Y-4.252
X2.6142Y-4.3307
X2.6142Y-4.4094
X3.1051Y-2.8898
X3.1051Y-4.9843
X3.1733Y-2.8504
X3.1733Y-5.0236
X3.2415Y-2.811
X3.2415Y-5.063
X3.3097Y-2.7717
X3.3097Y-5.1024
X3.3779Y-2.7323
X3.3779Y-5.1417
X3.4461Y-2.6929
X3.4461Y-5.1811
X4.4279Y-2.6929
X4.4279Y-5.1811
X4.4961Y-2.7323
X4.4961Y-5.1417
X4.5643Y-2.7717
X4.5643Y-5.1024
X4.6325Y-2.811
X4.6325Y-5.063
X4.7007Y-2.8504
X4.7007Y-5.0236
X4.7689Y-2.8898
X4.7689Y-4.9843
X5.2598Y-3.7402
X5.2598Y-3.8189
X5.2598Y-3.8976
X5.2598Y-3.9764
X5.2598Y-4.0551
X5.2598Y-4.1339
T4
X3.3691Y-3.3465
X3.4691Y-3.3465
X3.5691Y-3.3465
X3.6691Y-3.3465
X3.7691Y-3.3465
X3.787Y-2.9921
X3.787Y-4.9213
X3.887Y-2.9921
X3.887Y-4.9213
X3.987Y-2.9921
X3.987Y-4.9213
X4.087Y-2.9921
X4.087Y-4.9213
X4.878Y-3.6142
X4.878Y-3.7142
X4.878Y-3.8142
X4.878Y-3.9142
X4.878Y-4.0142
T2
G00X2.6793Y-3.7669
M15
G01X2.6557Y-3.7669
M16
G05
G00X2.6793Y-4.1071
M15
G01X2.6557Y-4.1071
M16
G05
G00X2.8537Y-3.7669
M15
G01X2.8104Y-3.7669
M16
G05
G00X2.8537Y-4.1071
M15
G01X2.8104Y-4.1071
M16
G05
T0
M30
