G04 #@! TF.GenerationSoftware,KiCad,Pcbnew,6.0.4-6f826c9f35~116~ubuntu20.04.1*
G04 #@! TF.CreationDate,2022-03-28T16:20:16+02:00*
G04 #@! TF.ProjectId,hex_base,6865785f-6261-4736-952e-6b696361645f,rev?*
G04 #@! TF.SameCoordinates,Original*
G04 #@! TF.FileFunction,Legend,Top*
G04 #@! TF.FilePolarity,Positive*
%FSLAX46Y46*%
G04 Gerber Fmt 4.6, Leading zero omitted, Abs format (unit mm)*
G04 Created by KiCad (PCBNEW 6.0.4-6f826c9f35~116~ubuntu20.04.1) date 2022-03-28 16:20:16*
%MOMM*%
%LPD*%
G01*
G04 APERTURE LIST*
%ADD10C,0.150000*%
%ADD11C,0.400000*%
%ADD12C,0.100000*%
%ADD13C,0.120000*%
G04 APERTURE END LIST*
D10*
X107380952Y-105352380D02*
X107380952Y-106066666D01*
X107333333Y-106209523D01*
X107238095Y-106304761D01*
X107095238Y-106352380D01*
X107000000Y-106352380D01*
X108333333Y-106352380D02*
X107857142Y-106352380D01*
X107857142Y-105352380D01*
X109238095Y-106257142D02*
X109190476Y-106304761D01*
X109047619Y-106352380D01*
X108952380Y-106352380D01*
X108809523Y-106304761D01*
X108714285Y-106209523D01*
X108666666Y-106114285D01*
X108619047Y-105923809D01*
X108619047Y-105780952D01*
X108666666Y-105590476D01*
X108714285Y-105495238D01*
X108809523Y-105400000D01*
X108952380Y-105352380D01*
X109047619Y-105352380D01*
X109190476Y-105400000D01*
X109238095Y-105447619D01*
X109952380Y-105352380D02*
X109952380Y-106066666D01*
X109904761Y-106209523D01*
X109809523Y-106304761D01*
X109666666Y-106352380D01*
X109571428Y-106352380D01*
X110904761Y-106352380D02*
X110428571Y-106352380D01*
X110428571Y-105352380D01*
X111809523Y-106257142D02*
X111761904Y-106304761D01*
X111619047Y-106352380D01*
X111523809Y-106352380D01*
X111380952Y-106304761D01*
X111285714Y-106209523D01*
X111238095Y-106114285D01*
X111190476Y-105923809D01*
X111190476Y-105780952D01*
X111238095Y-105590476D01*
X111285714Y-105495238D01*
X111380952Y-105400000D01*
X111523809Y-105352380D01*
X111619047Y-105352380D01*
X111761904Y-105400000D01*
X111809523Y-105447619D01*
X112523809Y-105352380D02*
X112523809Y-106066666D01*
X112476190Y-106209523D01*
X112380952Y-106304761D01*
X112238095Y-106352380D01*
X112142857Y-106352380D01*
X113476190Y-106352380D02*
X113000000Y-106352380D01*
X113000000Y-105352380D01*
X114380952Y-106257142D02*
X114333333Y-106304761D01*
X114190476Y-106352380D01*
X114095238Y-106352380D01*
X113952380Y-106304761D01*
X113857142Y-106209523D01*
X113809523Y-106114285D01*
X113761904Y-105923809D01*
X113761904Y-105780952D01*
X113809523Y-105590476D01*
X113857142Y-105495238D01*
X113952380Y-105400000D01*
X114095238Y-105352380D01*
X114190476Y-105352380D01*
X114333333Y-105400000D01*
X114380952Y-105447619D01*
X115095238Y-105352380D02*
X115095238Y-106066666D01*
X115047619Y-106209523D01*
X114952380Y-106304761D01*
X114809523Y-106352380D01*
X114714285Y-106352380D01*
X116047619Y-106352380D02*
X115571428Y-106352380D01*
X115571428Y-105352380D01*
X116952380Y-106257142D02*
X116904761Y-106304761D01*
X116761904Y-106352380D01*
X116666666Y-106352380D01*
X116523809Y-106304761D01*
X116428571Y-106209523D01*
X116380952Y-106114285D01*
X116333333Y-105923809D01*
X116333333Y-105780952D01*
X116380952Y-105590476D01*
X116428571Y-105495238D01*
X116523809Y-105400000D01*
X116666666Y-105352380D01*
X116761904Y-105352380D01*
X116904761Y-105400000D01*
X116952380Y-105447619D01*
D11*
X95238095Y-72809523D02*
X93333333Y-72809523D01*
X93333333Y-68809523D01*
X96380952Y-71666666D02*
X98285714Y-71666666D01*
X96000000Y-72809523D02*
X97333333Y-68809523D01*
X98666666Y-72809523D01*
X96571428Y-67476190D02*
X96761904Y-67666666D01*
X96571428Y-67857142D01*
X96380952Y-67666666D01*
X96571428Y-67476190D01*
X96571428Y-67857142D01*
X98095238Y-67476190D02*
X98285714Y-67666666D01*
X98095238Y-67857142D01*
X97904761Y-67666666D01*
X98095238Y-67476190D01*
X98095238Y-67857142D01*
X100000000Y-72809523D02*
X100000000Y-68809523D01*
X101333333Y-71666666D01*
X102666666Y-68809523D01*
X102666666Y-72809523D01*
X104571428Y-72809523D02*
X104571428Y-68809523D01*
X106095238Y-68809523D01*
X106476190Y-69000000D01*
X106666666Y-69190476D01*
X106857142Y-69571428D01*
X106857142Y-70142857D01*
X106666666Y-70523809D01*
X106476190Y-70714285D01*
X106095238Y-70904761D01*
X104571428Y-70904761D01*
D10*
X89130952Y-78175714D02*
X89130952Y-78985238D01*
X89083333Y-79080476D01*
X89035714Y-79128095D01*
X88940476Y-79175714D01*
X88797619Y-79175714D01*
X88702380Y-79128095D01*
X89130952Y-78794761D02*
X89035714Y-78842380D01*
X88845238Y-78842380D01*
X88750000Y-78794761D01*
X88702380Y-78747142D01*
X88654761Y-78651904D01*
X88654761Y-78366190D01*
X88702380Y-78270952D01*
X88750000Y-78223333D01*
X88845238Y-78175714D01*
X89035714Y-78175714D01*
X89130952Y-78223333D01*
X89607142Y-78842380D02*
X89607142Y-78175714D01*
X89607142Y-77842380D02*
X89559523Y-77890000D01*
X89607142Y-77937619D01*
X89654761Y-77890000D01*
X89607142Y-77842380D01*
X89607142Y-77937619D01*
X89940476Y-78175714D02*
X90321428Y-78175714D01*
X90083333Y-77842380D02*
X90083333Y-78699523D01*
X90130952Y-78794761D01*
X90226190Y-78842380D01*
X90321428Y-78842380D01*
X90654761Y-78842380D02*
X90654761Y-77842380D01*
X91083333Y-78842380D02*
X91083333Y-78318571D01*
X91035714Y-78223333D01*
X90940476Y-78175714D01*
X90797619Y-78175714D01*
X90702380Y-78223333D01*
X90654761Y-78270952D01*
X91988095Y-78175714D02*
X91988095Y-78842380D01*
X91559523Y-78175714D02*
X91559523Y-78699523D01*
X91607142Y-78794761D01*
X91702380Y-78842380D01*
X91845238Y-78842380D01*
X91940476Y-78794761D01*
X91988095Y-78747142D01*
X92464285Y-78842380D02*
X92464285Y-77842380D01*
X92464285Y-78223333D02*
X92559523Y-78175714D01*
X92750000Y-78175714D01*
X92845238Y-78223333D01*
X92892857Y-78270952D01*
X92940476Y-78366190D01*
X92940476Y-78651904D01*
X92892857Y-78747142D01*
X92845238Y-78794761D01*
X92750000Y-78842380D01*
X92559523Y-78842380D01*
X92464285Y-78794761D01*
X93369047Y-78747142D02*
X93416666Y-78794761D01*
X93369047Y-78842380D01*
X93321428Y-78794761D01*
X93369047Y-78747142D01*
X93369047Y-78842380D01*
X94273809Y-78794761D02*
X94178571Y-78842380D01*
X93988095Y-78842380D01*
X93892857Y-78794761D01*
X93845238Y-78747142D01*
X93797619Y-78651904D01*
X93797619Y-78366190D01*
X93845238Y-78270952D01*
X93892857Y-78223333D01*
X93988095Y-78175714D01*
X94178571Y-78175714D01*
X94273809Y-78223333D01*
X94845238Y-78842380D02*
X94750000Y-78794761D01*
X94702380Y-78747142D01*
X94654761Y-78651904D01*
X94654761Y-78366190D01*
X94702380Y-78270952D01*
X94750000Y-78223333D01*
X94845238Y-78175714D01*
X94988095Y-78175714D01*
X95083333Y-78223333D01*
X95130952Y-78270952D01*
X95178571Y-78366190D01*
X95178571Y-78651904D01*
X95130952Y-78747142D01*
X95083333Y-78794761D01*
X94988095Y-78842380D01*
X94845238Y-78842380D01*
X95607142Y-78842380D02*
X95607142Y-78175714D01*
X95607142Y-78270952D02*
X95654761Y-78223333D01*
X95750000Y-78175714D01*
X95892857Y-78175714D01*
X95988095Y-78223333D01*
X96035714Y-78318571D01*
X96035714Y-78842380D01*
X96035714Y-78318571D02*
X96083333Y-78223333D01*
X96178571Y-78175714D01*
X96321428Y-78175714D01*
X96416666Y-78223333D01*
X96464285Y-78318571D01*
X96464285Y-78842380D01*
X97654761Y-77794761D02*
X96797619Y-79080476D01*
X98273809Y-77842380D02*
X98273809Y-78556666D01*
X98226190Y-78699523D01*
X98130952Y-78794761D01*
X97988095Y-78842380D01*
X97892857Y-78842380D01*
X99178571Y-78842380D02*
X99178571Y-78318571D01*
X99130952Y-78223333D01*
X99035714Y-78175714D01*
X98845238Y-78175714D01*
X98750000Y-78223333D01*
X99178571Y-78794761D02*
X99083333Y-78842380D01*
X98845238Y-78842380D01*
X98750000Y-78794761D01*
X98702380Y-78699523D01*
X98702380Y-78604285D01*
X98750000Y-78509047D01*
X98845238Y-78461428D01*
X99083333Y-78461428D01*
X99178571Y-78413809D01*
X99654761Y-78175714D02*
X99654761Y-78842380D01*
X99654761Y-78270952D02*
X99702380Y-78223333D01*
X99797619Y-78175714D01*
X99940476Y-78175714D01*
X100035714Y-78223333D01*
X100083333Y-78318571D01*
X100083333Y-78842380D01*
X100988095Y-78842380D02*
X100988095Y-78318571D01*
X100940476Y-78223333D01*
X100845238Y-78175714D01*
X100654761Y-78175714D01*
X100559523Y-78223333D01*
X100988095Y-78794761D02*
X100892857Y-78842380D01*
X100654761Y-78842380D01*
X100559523Y-78794761D01*
X100511904Y-78699523D01*
X100511904Y-78604285D01*
X100559523Y-78509047D01*
X100654761Y-78461428D01*
X100892857Y-78461428D01*
X100988095Y-78413809D01*
X101464285Y-78461428D02*
X102226190Y-78461428D01*
X102702380Y-78842380D02*
X102702380Y-77842380D01*
X103035714Y-78556666D01*
X103369047Y-77842380D01*
X103369047Y-78842380D01*
X104273809Y-78842380D02*
X104273809Y-78318571D01*
X104226190Y-78223333D01*
X104130952Y-78175714D01*
X103940476Y-78175714D01*
X103845238Y-78223333D01*
X104273809Y-78794761D02*
X104178571Y-78842380D01*
X103940476Y-78842380D01*
X103845238Y-78794761D01*
X103797619Y-78699523D01*
X103797619Y-78604285D01*
X103845238Y-78509047D01*
X103940476Y-78461428D01*
X104178571Y-78461428D01*
X104273809Y-78413809D01*
X104750000Y-78842380D02*
X104750000Y-78175714D01*
X104750000Y-78366190D02*
X104797619Y-78270952D01*
X104845238Y-78223333D01*
X104940476Y-78175714D01*
X105035714Y-78175714D01*
X105369047Y-78842380D02*
X105369047Y-78175714D01*
X105369047Y-77842380D02*
X105321428Y-77890000D01*
X105369047Y-77937619D01*
X105416666Y-77890000D01*
X105369047Y-77842380D01*
X105369047Y-77937619D01*
X106226190Y-78794761D02*
X106130952Y-78842380D01*
X105940476Y-78842380D01*
X105845238Y-78794761D01*
X105797619Y-78699523D01*
X105797619Y-78318571D01*
X105845238Y-78223333D01*
X105940476Y-78175714D01*
X106130952Y-78175714D01*
X106226190Y-78223333D01*
X106273809Y-78318571D01*
X106273809Y-78413809D01*
X105797619Y-78509047D01*
X107416666Y-77794761D02*
X106559523Y-79080476D01*
X107892857Y-78842380D02*
X107797619Y-78794761D01*
X107750000Y-78699523D01*
X107750000Y-77842380D01*
X108702380Y-78842380D02*
X108702380Y-78318571D01*
X108654761Y-78223333D01*
X108559523Y-78175714D01*
X108369047Y-78175714D01*
X108273809Y-78223333D01*
X108702380Y-78794761D02*
X108607142Y-78842380D01*
X108369047Y-78842380D01*
X108273809Y-78794761D01*
X108226190Y-78699523D01*
X108226190Y-78604285D01*
X108273809Y-78509047D01*
X108369047Y-78461428D01*
X108607142Y-78461428D01*
X108702380Y-78413809D01*
X109559523Y-78794761D02*
X109464285Y-78842380D01*
X109273809Y-78842380D01*
X109178571Y-78794761D01*
X109130952Y-78699523D01*
X109130952Y-78318571D01*
X109178571Y-78223333D01*
X109273809Y-78175714D01*
X109464285Y-78175714D01*
X109559523Y-78223333D01*
X109607142Y-78318571D01*
X109607142Y-78413809D01*
X109130952Y-78509047D01*
X110035714Y-78842380D02*
X110035714Y-78175714D01*
X110035714Y-78270952D02*
X110083333Y-78223333D01*
X110178571Y-78175714D01*
X110321428Y-78175714D01*
X110416666Y-78223333D01*
X110464285Y-78318571D01*
X110464285Y-78842380D01*
X110464285Y-78318571D02*
X110511904Y-78223333D01*
X110607142Y-78175714D01*
X110750000Y-78175714D01*
X110845238Y-78223333D01*
X110892857Y-78318571D01*
X110892857Y-78842380D01*
X111369047Y-78175714D02*
X111369047Y-79175714D01*
X111369047Y-78223333D02*
X111464285Y-78175714D01*
X111654761Y-78175714D01*
X111750000Y-78223333D01*
X111797619Y-78270952D01*
X111845238Y-78366190D01*
X111845238Y-78651904D01*
X111797619Y-78747142D01*
X111750000Y-78794761D01*
X111654761Y-78842380D01*
X111464285Y-78842380D01*
X111369047Y-78794761D01*
X91726190Y-79976190D02*
X91678571Y-79928571D01*
X91583333Y-79880952D01*
X91488095Y-79880952D01*
X91392857Y-79928571D01*
X91345238Y-79976190D01*
X91297619Y-80071428D01*
X91297619Y-80166666D01*
X91345238Y-80261904D01*
X91392857Y-80309523D01*
X91488095Y-80357142D01*
X91583333Y-80357142D01*
X91678571Y-80309523D01*
X91726190Y-80261904D01*
X91726190Y-79880952D02*
X91726190Y-80261904D01*
X91773809Y-80309523D01*
X91821428Y-80309523D01*
X91916666Y-80261904D01*
X91964285Y-80166666D01*
X91964285Y-79928571D01*
X91869047Y-79785714D01*
X91726190Y-79690476D01*
X91535714Y-79642857D01*
X91345238Y-79690476D01*
X91202380Y-79785714D01*
X91107142Y-79928571D01*
X91059523Y-80119047D01*
X91107142Y-80309523D01*
X91202380Y-80452380D01*
X91345238Y-80547619D01*
X91535714Y-80595238D01*
X91726190Y-80547619D01*
X91869047Y-80452380D01*
X92154761Y-80547619D02*
X92916666Y-80547619D01*
X93440476Y-79452380D02*
X93440476Y-80166666D01*
X93392857Y-80309523D01*
X93297619Y-80404761D01*
X93154761Y-80452380D01*
X93059523Y-80452380D01*
X94345238Y-80452380D02*
X94345238Y-79928571D01*
X94297619Y-79833333D01*
X94202380Y-79785714D01*
X94011904Y-79785714D01*
X93916666Y-79833333D01*
X94345238Y-80404761D02*
X94250000Y-80452380D01*
X94011904Y-80452380D01*
X93916666Y-80404761D01*
X93869047Y-80309523D01*
X93869047Y-80214285D01*
X93916666Y-80119047D01*
X94011904Y-80071428D01*
X94250000Y-80071428D01*
X94345238Y-80023809D01*
X94821428Y-79785714D02*
X94821428Y-80452380D01*
X94821428Y-79880952D02*
X94869047Y-79833333D01*
X94964285Y-79785714D01*
X95107142Y-79785714D01*
X95202380Y-79833333D01*
X95250000Y-79928571D01*
X95250000Y-80452380D01*
X96154761Y-80452380D02*
X96154761Y-79928571D01*
X96107142Y-79833333D01*
X96011904Y-79785714D01*
X95821428Y-79785714D01*
X95726190Y-79833333D01*
X96154761Y-80404761D02*
X96059523Y-80452380D01*
X95821428Y-80452380D01*
X95726190Y-80404761D01*
X95678571Y-80309523D01*
X95678571Y-80214285D01*
X95726190Y-80119047D01*
X95821428Y-80071428D01*
X96059523Y-80071428D01*
X96154761Y-80023809D01*
X96392857Y-80547619D02*
X97154761Y-80547619D01*
X97392857Y-80452380D02*
X97392857Y-79452380D01*
X97726190Y-80166666D01*
X98059523Y-79452380D01*
X98059523Y-80452380D01*
X98964285Y-80452380D02*
X98964285Y-79928571D01*
X98916666Y-79833333D01*
X98821428Y-79785714D01*
X98630952Y-79785714D01*
X98535714Y-79833333D01*
X98964285Y-80404761D02*
X98869047Y-80452380D01*
X98630952Y-80452380D01*
X98535714Y-80404761D01*
X98488095Y-80309523D01*
X98488095Y-80214285D01*
X98535714Y-80119047D01*
X98630952Y-80071428D01*
X98869047Y-80071428D01*
X98964285Y-80023809D01*
X99440476Y-80452380D02*
X99440476Y-79785714D01*
X99440476Y-79976190D02*
X99488095Y-79880952D01*
X99535714Y-79833333D01*
X99630952Y-79785714D01*
X99726190Y-79785714D01*
X100059523Y-80452380D02*
X100059523Y-79785714D01*
X100059523Y-79452380D02*
X100011904Y-79500000D01*
X100059523Y-79547619D01*
X100107142Y-79500000D01*
X100059523Y-79452380D01*
X100059523Y-79547619D01*
X100916666Y-80404761D02*
X100821428Y-80452380D01*
X100630952Y-80452380D01*
X100535714Y-80404761D01*
X100488095Y-80309523D01*
X100488095Y-79928571D01*
X100535714Y-79833333D01*
X100630952Y-79785714D01*
X100821428Y-79785714D01*
X100916666Y-79833333D01*
X100964285Y-79928571D01*
X100964285Y-80023809D01*
X100488095Y-80119047D01*
X102107142Y-79547619D02*
X102154761Y-79500000D01*
X102250000Y-79452380D01*
X102488095Y-79452380D01*
X102583333Y-79500000D01*
X102630952Y-79547619D01*
X102678571Y-79642857D01*
X102678571Y-79738095D01*
X102630952Y-79880952D01*
X102059523Y-80452380D01*
X102678571Y-80452380D01*
X103297619Y-79452380D02*
X103392857Y-79452380D01*
X103488095Y-79500000D01*
X103535714Y-79547619D01*
X103583333Y-79642857D01*
X103630952Y-79833333D01*
X103630952Y-80071428D01*
X103583333Y-80261904D01*
X103535714Y-80357142D01*
X103488095Y-80404761D01*
X103392857Y-80452380D01*
X103297619Y-80452380D01*
X103202380Y-80404761D01*
X103154761Y-80357142D01*
X103107142Y-80261904D01*
X103059523Y-80071428D01*
X103059523Y-79833333D01*
X103107142Y-79642857D01*
X103154761Y-79547619D01*
X103202380Y-79500000D01*
X103297619Y-79452380D01*
X104011904Y-79547619D02*
X104059523Y-79500000D01*
X104154761Y-79452380D01*
X104392857Y-79452380D01*
X104488095Y-79500000D01*
X104535714Y-79547619D01*
X104583333Y-79642857D01*
X104583333Y-79738095D01*
X104535714Y-79880952D01*
X103964285Y-80452380D01*
X104583333Y-80452380D01*
X104964285Y-79547619D02*
X105011904Y-79500000D01*
X105107142Y-79452380D01*
X105345238Y-79452380D01*
X105440476Y-79500000D01*
X105488095Y-79547619D01*
X105535714Y-79642857D01*
X105535714Y-79738095D01*
X105488095Y-79880952D01*
X104916666Y-80452380D01*
X105535714Y-80452380D01*
X106630952Y-79785714D02*
X106869047Y-80452380D01*
X107107142Y-79785714D01*
X108011904Y-80452380D02*
X107440476Y-80452380D01*
X107726190Y-80452380D02*
X107726190Y-79452380D01*
X107630952Y-79595238D01*
X107535714Y-79690476D01*
X107440476Y-79738095D01*
X108440476Y-80357142D02*
X108488095Y-80404761D01*
X108440476Y-80452380D01*
X108392857Y-80404761D01*
X108440476Y-80357142D01*
X108440476Y-80452380D01*
X108869047Y-79547619D02*
X108916666Y-79500000D01*
X109011904Y-79452380D01*
X109249999Y-79452380D01*
X109345238Y-79500000D01*
X109392857Y-79547619D01*
X109440476Y-79642857D01*
X109440476Y-79738095D01*
X109392857Y-79880952D01*
X108821428Y-80452380D01*
X109440476Y-80452380D01*
X92107142Y-82062380D02*
X92107142Y-81062380D01*
X92345238Y-81062380D01*
X92488095Y-81110000D01*
X92583333Y-81205238D01*
X92630952Y-81300476D01*
X92678571Y-81490952D01*
X92678571Y-81633809D01*
X92630952Y-81824285D01*
X92583333Y-81919523D01*
X92488095Y-82014761D01*
X92345238Y-82062380D01*
X92107142Y-82062380D01*
X93107142Y-82062380D02*
X93107142Y-81395714D01*
X93107142Y-81586190D02*
X93154761Y-81490952D01*
X93202380Y-81443333D01*
X93297619Y-81395714D01*
X93392857Y-81395714D01*
X94154761Y-81395714D02*
X94154761Y-82062380D01*
X93726190Y-81395714D02*
X93726190Y-81919523D01*
X93773809Y-82014761D01*
X93869047Y-82062380D01*
X94011904Y-82062380D01*
X94107142Y-82014761D01*
X94154761Y-81967142D01*
X95059523Y-81395714D02*
X95059523Y-82205238D01*
X95011904Y-82300476D01*
X94964285Y-82348095D01*
X94869047Y-82395714D01*
X94726190Y-82395714D01*
X94630952Y-82348095D01*
X95059523Y-82014761D02*
X94964285Y-82062380D01*
X94773809Y-82062380D01*
X94678571Y-82014761D01*
X94630952Y-81967142D01*
X94583333Y-81871904D01*
X94583333Y-81586190D01*
X94630952Y-81490952D01*
X94678571Y-81443333D01*
X94773809Y-81395714D01*
X94964285Y-81395714D01*
X95059523Y-81443333D01*
X95488095Y-82014761D02*
X95583333Y-82062380D01*
X95773809Y-82062380D01*
X95869047Y-82014761D01*
X95916666Y-81919523D01*
X95916666Y-81871904D01*
X95869047Y-81776666D01*
X95773809Y-81729047D01*
X95630952Y-81729047D01*
X95535714Y-81681428D01*
X95488095Y-81586190D01*
X95488095Y-81538571D01*
X95535714Y-81443333D01*
X95630952Y-81395714D01*
X95773809Y-81395714D01*
X95869047Y-81443333D01*
X97535714Y-82062380D02*
X97535714Y-81538571D01*
X97488095Y-81443333D01*
X97392857Y-81395714D01*
X97202380Y-81395714D01*
X97107142Y-81443333D01*
X97535714Y-82014761D02*
X97440476Y-82062380D01*
X97202380Y-82062380D01*
X97107142Y-82014761D01*
X97059523Y-81919523D01*
X97059523Y-81824285D01*
X97107142Y-81729047D01*
X97202380Y-81681428D01*
X97440476Y-81681428D01*
X97535714Y-81633809D01*
X98011904Y-82062380D02*
X98011904Y-81395714D01*
X98011904Y-81586190D02*
X98059523Y-81490952D01*
X98107142Y-81443333D01*
X98202380Y-81395714D01*
X98297619Y-81395714D01*
X99011904Y-82014761D02*
X98916666Y-82062380D01*
X98726190Y-82062380D01*
X98630952Y-82014761D01*
X98583333Y-81919523D01*
X98583333Y-81538571D01*
X98630952Y-81443333D01*
X98726190Y-81395714D01*
X98916666Y-81395714D01*
X99011904Y-81443333D01*
X99059523Y-81538571D01*
X99059523Y-81633809D01*
X98583333Y-81729047D01*
X100250000Y-82062380D02*
X100250000Y-81062380D01*
X100250000Y-81443333D02*
X100345238Y-81395714D01*
X100535714Y-81395714D01*
X100630952Y-81443333D01*
X100678571Y-81490952D01*
X100726190Y-81586190D01*
X100726190Y-81871904D01*
X100678571Y-81967142D01*
X100630952Y-82014761D01*
X100535714Y-82062380D01*
X100345238Y-82062380D01*
X100250000Y-82014761D01*
X101583333Y-82062380D02*
X101583333Y-81538571D01*
X101535714Y-81443333D01*
X101440476Y-81395714D01*
X101250000Y-81395714D01*
X101154761Y-81443333D01*
X101583333Y-82014761D02*
X101488095Y-82062380D01*
X101250000Y-82062380D01*
X101154761Y-82014761D01*
X101107142Y-81919523D01*
X101107142Y-81824285D01*
X101154761Y-81729047D01*
X101250000Y-81681428D01*
X101488095Y-81681428D01*
X101583333Y-81633809D01*
X102488095Y-82062380D02*
X102488095Y-81062380D01*
X102488095Y-82014761D02*
X102392857Y-82062380D01*
X102202380Y-82062380D01*
X102107142Y-82014761D01*
X102059523Y-81967142D01*
X102011904Y-81871904D01*
X102011904Y-81586190D01*
X102059523Y-81490952D01*
X102107142Y-81443333D01*
X102202380Y-81395714D01*
X102392857Y-81395714D01*
X102488095Y-81443333D01*
X103011904Y-82014761D02*
X103011904Y-82062380D01*
X102964285Y-82157619D01*
X102916666Y-82205238D01*
X104202380Y-82062380D02*
X104202380Y-81395714D01*
X104202380Y-81490952D02*
X104250000Y-81443333D01*
X104345238Y-81395714D01*
X104488095Y-81395714D01*
X104583333Y-81443333D01*
X104630952Y-81538571D01*
X104630952Y-82062380D01*
X104630952Y-81538571D02*
X104678571Y-81443333D01*
X104773809Y-81395714D01*
X104916666Y-81395714D01*
X105011904Y-81443333D01*
X105059523Y-81538571D01*
X105059523Y-82062380D01*
X105535714Y-82062380D02*
X105535714Y-81062380D01*
X105630952Y-81681428D02*
X105916666Y-82062380D01*
X105916666Y-81395714D02*
X105535714Y-81776666D01*
X106773809Y-82062380D02*
X106773809Y-81538571D01*
X106726190Y-81443333D01*
X106630952Y-81395714D01*
X106440476Y-81395714D01*
X106345238Y-81443333D01*
X106773809Y-82014761D02*
X106678571Y-82062380D01*
X106440476Y-82062380D01*
X106345238Y-82014761D01*
X106297619Y-81919523D01*
X106297619Y-81824285D01*
X106345238Y-81729047D01*
X106440476Y-81681428D01*
X106678571Y-81681428D01*
X106773809Y-81633809D01*
X107154761Y-81395714D02*
X107392857Y-82062380D01*
X107630952Y-81395714D02*
X107392857Y-82062380D01*
X107297619Y-82300476D01*
X107250000Y-82348095D01*
X107154761Y-82395714D01*
X108154761Y-81062380D02*
X108154761Y-81681428D01*
X108154761Y-81967142D02*
X108202380Y-82014761D01*
X108154761Y-82062380D01*
X108107142Y-82014761D01*
X108154761Y-81967142D01*
X108154761Y-82062380D01*
X108154761Y-81967142D02*
X108202380Y-82014761D01*
X108154761Y-82062380D01*
X108107142Y-82014761D01*
X108154761Y-81967142D01*
X108154761Y-82062380D01*
X107964285Y-81110000D02*
X108059523Y-81062380D01*
X108297619Y-81062380D01*
X108392857Y-81110000D01*
X108440476Y-81205238D01*
X108440476Y-81300476D01*
X108392857Y-81395714D01*
X108345238Y-81443333D01*
X108250000Y-81490952D01*
X108202380Y-81538571D01*
X108154761Y-81633809D01*
X108154761Y-81681428D01*
X107964285Y-81110000D02*
X108059523Y-81062380D01*
X108297619Y-81062380D01*
X108392857Y-81110000D01*
X108440476Y-81205238D01*
X108440476Y-81300476D01*
X108392857Y-81395714D01*
X108345238Y-81443333D01*
X108250000Y-81490952D01*
X108202380Y-81538571D01*
X108154761Y-81633809D01*
X108154761Y-81681428D01*
D12*
X99650000Y-96514285D02*
X99621428Y-96542857D01*
X99535714Y-96571428D01*
X99478571Y-96571428D01*
X99392857Y-96542857D01*
X99335714Y-96485714D01*
X99307142Y-96428571D01*
X99278571Y-96314285D01*
X99278571Y-96228571D01*
X99307142Y-96114285D01*
X99335714Y-96057142D01*
X99392857Y-96000000D01*
X99478571Y-95971428D01*
X99535714Y-95971428D01*
X99621428Y-96000000D01*
X99650000Y-96028571D01*
X100221428Y-96571428D02*
X99878571Y-96571428D01*
X100050000Y-96571428D02*
X100050000Y-95971428D01*
X99992857Y-96057142D01*
X99935714Y-96114285D01*
X99878571Y-96142857D01*
X99500000Y-99414285D02*
X99471428Y-99442857D01*
X99385714Y-99471428D01*
X99328571Y-99471428D01*
X99242857Y-99442857D01*
X99185714Y-99385714D01*
X99157142Y-99328571D01*
X99128571Y-99214285D01*
X99128571Y-99128571D01*
X99157142Y-99014285D01*
X99185714Y-98957142D01*
X99242857Y-98900000D01*
X99328571Y-98871428D01*
X99385714Y-98871428D01*
X99471428Y-98900000D01*
X99500000Y-98928571D01*
X99728571Y-98928571D02*
X99757142Y-98900000D01*
X99814285Y-98871428D01*
X99957142Y-98871428D01*
X100014285Y-98900000D01*
X100042857Y-98928571D01*
X100071428Y-98985714D01*
X100071428Y-99042857D01*
X100042857Y-99128571D01*
X99700000Y-99471428D01*
X100071428Y-99471428D01*
X99500000Y-98414285D02*
X99471428Y-98442857D01*
X99385714Y-98471428D01*
X99328571Y-98471428D01*
X99242857Y-98442857D01*
X99185714Y-98385714D01*
X99157142Y-98328571D01*
X99128571Y-98214285D01*
X99128571Y-98128571D01*
X99157142Y-98014285D01*
X99185714Y-97957142D01*
X99242857Y-97900000D01*
X99328571Y-97871428D01*
X99385714Y-97871428D01*
X99471428Y-97900000D01*
X99500000Y-97928571D01*
X99700000Y-97871428D02*
X100071428Y-97871428D01*
X99871428Y-98100000D01*
X99957142Y-98100000D01*
X100014285Y-98128571D01*
X100042857Y-98157142D01*
X100071428Y-98214285D01*
X100071428Y-98357142D01*
X100042857Y-98414285D01*
X100014285Y-98442857D01*
X99957142Y-98471428D01*
X99785714Y-98471428D01*
X99728571Y-98442857D01*
X99700000Y-98414285D01*
X85900000Y-87964285D02*
X85871428Y-87992857D01*
X85785714Y-88021428D01*
X85728571Y-88021428D01*
X85642857Y-87992857D01*
X85585714Y-87935714D01*
X85557142Y-87878571D01*
X85528571Y-87764285D01*
X85528571Y-87678571D01*
X85557142Y-87564285D01*
X85585714Y-87507142D01*
X85642857Y-87450000D01*
X85728571Y-87421428D01*
X85785714Y-87421428D01*
X85871428Y-87450000D01*
X85900000Y-87478571D01*
X86414285Y-87621428D02*
X86414285Y-88021428D01*
X86271428Y-87392857D02*
X86128571Y-87821428D01*
X86500000Y-87821428D01*
X99700000Y-103264285D02*
X99671428Y-103292857D01*
X99585714Y-103321428D01*
X99528571Y-103321428D01*
X99442857Y-103292857D01*
X99385714Y-103235714D01*
X99357142Y-103178571D01*
X99328571Y-103064285D01*
X99328571Y-102978571D01*
X99357142Y-102864285D01*
X99385714Y-102807142D01*
X99442857Y-102750000D01*
X99528571Y-102721428D01*
X99585714Y-102721428D01*
X99671428Y-102750000D01*
X99700000Y-102778571D01*
X100242857Y-102721428D02*
X99957142Y-102721428D01*
X99928571Y-103007142D01*
X99957142Y-102978571D01*
X100014285Y-102950000D01*
X100157142Y-102950000D01*
X100214285Y-102978571D01*
X100242857Y-103007142D01*
X100271428Y-103064285D01*
X100271428Y-103207142D01*
X100242857Y-103264285D01*
X100214285Y-103292857D01*
X100157142Y-103321428D01*
X100014285Y-103321428D01*
X99957142Y-103292857D01*
X99928571Y-103264285D01*
X114300000Y-116514285D02*
X114271428Y-116542857D01*
X114185714Y-116571428D01*
X114128571Y-116571428D01*
X114042857Y-116542857D01*
X113985714Y-116485714D01*
X113957142Y-116428571D01*
X113928571Y-116314285D01*
X113928571Y-116228571D01*
X113957142Y-116114285D01*
X113985714Y-116057142D01*
X114042857Y-116000000D01*
X114128571Y-115971428D01*
X114185714Y-115971428D01*
X114271428Y-116000000D01*
X114300000Y-116028571D01*
X114814285Y-115971428D02*
X114700000Y-115971428D01*
X114642857Y-116000000D01*
X114614285Y-116028571D01*
X114557142Y-116114285D01*
X114528571Y-116228571D01*
X114528571Y-116457142D01*
X114557142Y-116514285D01*
X114585714Y-116542857D01*
X114642857Y-116571428D01*
X114757142Y-116571428D01*
X114814285Y-116542857D01*
X114842857Y-116514285D01*
X114871428Y-116457142D01*
X114871428Y-116314285D01*
X114842857Y-116257142D01*
X114814285Y-116228571D01*
X114757142Y-116200000D01*
X114642857Y-116200000D01*
X114585714Y-116228571D01*
X114557142Y-116257142D01*
X114528571Y-116314285D01*
X74800000Y-96464285D02*
X74771428Y-96492857D01*
X74685714Y-96521428D01*
X74628571Y-96521428D01*
X74542857Y-96492857D01*
X74485714Y-96435714D01*
X74457142Y-96378571D01*
X74428571Y-96264285D01*
X74428571Y-96178571D01*
X74457142Y-96064285D01*
X74485714Y-96007142D01*
X74542857Y-95950000D01*
X74628571Y-95921428D01*
X74685714Y-95921428D01*
X74771428Y-95950000D01*
X74800000Y-95978571D01*
X75000000Y-95921428D02*
X75400000Y-95921428D01*
X75142857Y-96521428D01*
X70400000Y-94214285D02*
X70371428Y-94242857D01*
X70285714Y-94271428D01*
X70228571Y-94271428D01*
X70142857Y-94242857D01*
X70085714Y-94185714D01*
X70057142Y-94128571D01*
X70028571Y-94014285D01*
X70028571Y-93928571D01*
X70057142Y-93814285D01*
X70085714Y-93757142D01*
X70142857Y-93700000D01*
X70228571Y-93671428D01*
X70285714Y-93671428D01*
X70371428Y-93700000D01*
X70400000Y-93728571D01*
X70742857Y-93928571D02*
X70685714Y-93900000D01*
X70657142Y-93871428D01*
X70628571Y-93814285D01*
X70628571Y-93785714D01*
X70657142Y-93728571D01*
X70685714Y-93700000D01*
X70742857Y-93671428D01*
X70857142Y-93671428D01*
X70914285Y-93700000D01*
X70942857Y-93728571D01*
X70971428Y-93785714D01*
X70971428Y-93814285D01*
X70942857Y-93871428D01*
X70914285Y-93900000D01*
X70857142Y-93928571D01*
X70742857Y-93928571D01*
X70685714Y-93957142D01*
X70657142Y-93985714D01*
X70628571Y-94042857D01*
X70628571Y-94157142D01*
X70657142Y-94214285D01*
X70685714Y-94242857D01*
X70742857Y-94271428D01*
X70857142Y-94271428D01*
X70914285Y-94242857D01*
X70942857Y-94214285D01*
X70971428Y-94157142D01*
X70971428Y-94042857D01*
X70942857Y-93985714D01*
X70914285Y-93957142D01*
X70857142Y-93928571D01*
X107757142Y-118671428D02*
X107757142Y-118071428D01*
X107900000Y-118071428D01*
X107985714Y-118100000D01*
X108042857Y-118157142D01*
X108071428Y-118214285D01*
X108100000Y-118328571D01*
X108100000Y-118414285D01*
X108071428Y-118528571D01*
X108042857Y-118585714D01*
X107985714Y-118642857D01*
X107900000Y-118671428D01*
X107757142Y-118671428D01*
X108671428Y-118671428D02*
X108328571Y-118671428D01*
X108500000Y-118671428D02*
X108500000Y-118071428D01*
X108442857Y-118157142D01*
X108385714Y-118214285D01*
X108328571Y-118242857D01*
X99600000Y-95571428D02*
X99400000Y-95285714D01*
X99257142Y-95571428D02*
X99257142Y-94971428D01*
X99485714Y-94971428D01*
X99542857Y-95000000D01*
X99571428Y-95028571D01*
X99600000Y-95085714D01*
X99600000Y-95171428D01*
X99571428Y-95228571D01*
X99542857Y-95257142D01*
X99485714Y-95285714D01*
X99257142Y-95285714D01*
X99828571Y-95028571D02*
X99857142Y-95000000D01*
X99914285Y-94971428D01*
X100057142Y-94971428D01*
X100114285Y-95000000D01*
X100142857Y-95028571D01*
X100171428Y-95085714D01*
X100171428Y-95142857D01*
X100142857Y-95228571D01*
X99800000Y-95571428D01*
X100171428Y-95571428D01*
X97800000Y-101521428D02*
X97600000Y-101235714D01*
X97457142Y-101521428D02*
X97457142Y-100921428D01*
X97685714Y-100921428D01*
X97742857Y-100950000D01*
X97771428Y-100978571D01*
X97800000Y-101035714D01*
X97800000Y-101121428D01*
X97771428Y-101178571D01*
X97742857Y-101207142D01*
X97685714Y-101235714D01*
X97457142Y-101235714D01*
X98000000Y-100921428D02*
X98371428Y-100921428D01*
X98171428Y-101150000D01*
X98257142Y-101150000D01*
X98314285Y-101178571D01*
X98342857Y-101207142D01*
X98371428Y-101264285D01*
X98371428Y-101407142D01*
X98342857Y-101464285D01*
X98314285Y-101492857D01*
X98257142Y-101521428D01*
X98085714Y-101521428D01*
X98028571Y-101492857D01*
X98000000Y-101464285D01*
X99700000Y-94471428D02*
X99500000Y-94185714D01*
X99357142Y-94471428D02*
X99357142Y-93871428D01*
X99585714Y-93871428D01*
X99642857Y-93900000D01*
X99671428Y-93928571D01*
X99700000Y-93985714D01*
X99700000Y-94071428D01*
X99671428Y-94128571D01*
X99642857Y-94157142D01*
X99585714Y-94185714D01*
X99357142Y-94185714D01*
X100214285Y-94071428D02*
X100214285Y-94471428D01*
X100071428Y-93842857D02*
X99928571Y-94271428D01*
X100300000Y-94271428D01*
X77925000Y-97771428D02*
X77725000Y-97485714D01*
X77582142Y-97771428D02*
X77582142Y-97171428D01*
X77810714Y-97171428D01*
X77867857Y-97200000D01*
X77896428Y-97228571D01*
X77925000Y-97285714D01*
X77925000Y-97371428D01*
X77896428Y-97428571D01*
X77867857Y-97457142D01*
X77810714Y-97485714D01*
X77582142Y-97485714D01*
X78467857Y-97171428D02*
X78182142Y-97171428D01*
X78153571Y-97457142D01*
X78182142Y-97428571D01*
X78239285Y-97400000D01*
X78382142Y-97400000D01*
X78439285Y-97428571D01*
X78467857Y-97457142D01*
X78496428Y-97514285D01*
X78496428Y-97657142D01*
X78467857Y-97714285D01*
X78439285Y-97742857D01*
X78382142Y-97771428D01*
X78239285Y-97771428D01*
X78182142Y-97742857D01*
X78153571Y-97714285D01*
X124300000Y-106071428D02*
X124100000Y-105785714D01*
X123957142Y-106071428D02*
X123957142Y-105471428D01*
X124185714Y-105471428D01*
X124242857Y-105500000D01*
X124271428Y-105528571D01*
X124300000Y-105585714D01*
X124300000Y-105671428D01*
X124271428Y-105728571D01*
X124242857Y-105757142D01*
X124185714Y-105785714D01*
X123957142Y-105785714D01*
X124814285Y-105471428D02*
X124700000Y-105471428D01*
X124642857Y-105500000D01*
X124614285Y-105528571D01*
X124557142Y-105614285D01*
X124528571Y-105728571D01*
X124528571Y-105957142D01*
X124557142Y-106014285D01*
X124585714Y-106042857D01*
X124642857Y-106071428D01*
X124757142Y-106071428D01*
X124814285Y-106042857D01*
X124842857Y-106014285D01*
X124871428Y-105957142D01*
X124871428Y-105814285D01*
X124842857Y-105757142D01*
X124814285Y-105728571D01*
X124757142Y-105700000D01*
X124642857Y-105700000D01*
X124585714Y-105728571D01*
X124557142Y-105757142D01*
X124528571Y-105814285D01*
X124300000Y-104871428D02*
X124100000Y-104585714D01*
X123957142Y-104871428D02*
X123957142Y-104271428D01*
X124185714Y-104271428D01*
X124242857Y-104300000D01*
X124271428Y-104328571D01*
X124300000Y-104385714D01*
X124300000Y-104471428D01*
X124271428Y-104528571D01*
X124242857Y-104557142D01*
X124185714Y-104585714D01*
X123957142Y-104585714D01*
X124500000Y-104271428D02*
X124900000Y-104271428D01*
X124642857Y-104871428D01*
X115400000Y-116571428D02*
X115200000Y-116285714D01*
X115057142Y-116571428D02*
X115057142Y-115971428D01*
X115285714Y-115971428D01*
X115342857Y-116000000D01*
X115371428Y-116028571D01*
X115400000Y-116085714D01*
X115400000Y-116171428D01*
X115371428Y-116228571D01*
X115342857Y-116257142D01*
X115285714Y-116285714D01*
X115057142Y-116285714D01*
X115742857Y-116228571D02*
X115685714Y-116200000D01*
X115657142Y-116171428D01*
X115628571Y-116114285D01*
X115628571Y-116085714D01*
X115657142Y-116028571D01*
X115685714Y-116000000D01*
X115742857Y-115971428D01*
X115857142Y-115971428D01*
X115914285Y-116000000D01*
X115942857Y-116028571D01*
X115971428Y-116085714D01*
X115971428Y-116114285D01*
X115942857Y-116171428D01*
X115914285Y-116200000D01*
X115857142Y-116228571D01*
X115742857Y-116228571D01*
X115685714Y-116257142D01*
X115657142Y-116285714D01*
X115628571Y-116342857D01*
X115628571Y-116457142D01*
X115657142Y-116514285D01*
X115685714Y-116542857D01*
X115742857Y-116571428D01*
X115857142Y-116571428D01*
X115914285Y-116542857D01*
X115942857Y-116514285D01*
X115971428Y-116457142D01*
X115971428Y-116342857D01*
X115942857Y-116285714D01*
X115914285Y-116257142D01*
X115857142Y-116228571D01*
X108900000Y-119871428D02*
X108700000Y-119585714D01*
X108557142Y-119871428D02*
X108557142Y-119271428D01*
X108785714Y-119271428D01*
X108842857Y-119300000D01*
X108871428Y-119328571D01*
X108900000Y-119385714D01*
X108900000Y-119471428D01*
X108871428Y-119528571D01*
X108842857Y-119557142D01*
X108785714Y-119585714D01*
X108557142Y-119585714D01*
X109185714Y-119871428D02*
X109300000Y-119871428D01*
X109357142Y-119842857D01*
X109385714Y-119814285D01*
X109442857Y-119728571D01*
X109471428Y-119614285D01*
X109471428Y-119385714D01*
X109442857Y-119328571D01*
X109414285Y-119300000D01*
X109357142Y-119271428D01*
X109242857Y-119271428D01*
X109185714Y-119300000D01*
X109157142Y-119328571D01*
X109128571Y-119385714D01*
X109128571Y-119528571D01*
X109157142Y-119585714D01*
X109185714Y-119614285D01*
X109242857Y-119642857D01*
X109357142Y-119642857D01*
X109414285Y-119614285D01*
X109442857Y-119585714D01*
X109471428Y-119528571D01*
X99114285Y-104221428D02*
X98914285Y-103935714D01*
X98771428Y-104221428D02*
X98771428Y-103621428D01*
X99000000Y-103621428D01*
X99057142Y-103650000D01*
X99085714Y-103678571D01*
X99114285Y-103735714D01*
X99114285Y-103821428D01*
X99085714Y-103878571D01*
X99057142Y-103907142D01*
X99000000Y-103935714D01*
X98771428Y-103935714D01*
X99685714Y-104221428D02*
X99342857Y-104221428D01*
X99514285Y-104221428D02*
X99514285Y-103621428D01*
X99457142Y-103707142D01*
X99400000Y-103764285D01*
X99342857Y-103792857D01*
X100057142Y-103621428D02*
X100114285Y-103621428D01*
X100171428Y-103650000D01*
X100200000Y-103678571D01*
X100228571Y-103735714D01*
X100257142Y-103850000D01*
X100257142Y-103992857D01*
X100228571Y-104107142D01*
X100200000Y-104164285D01*
X100171428Y-104192857D01*
X100114285Y-104221428D01*
X100057142Y-104221428D01*
X100000000Y-104192857D01*
X99971428Y-104164285D01*
X99942857Y-104107142D01*
X99914285Y-103992857D01*
X99914285Y-103850000D01*
X99942857Y-103735714D01*
X99971428Y-103678571D01*
X100000000Y-103650000D01*
X100057142Y-103621428D01*
X99014285Y-97471428D02*
X98814285Y-97185714D01*
X98671428Y-97471428D02*
X98671428Y-96871428D01*
X98900000Y-96871428D01*
X98957142Y-96900000D01*
X98985714Y-96928571D01*
X99014285Y-96985714D01*
X99014285Y-97071428D01*
X98985714Y-97128571D01*
X98957142Y-97157142D01*
X98900000Y-97185714D01*
X98671428Y-97185714D01*
X99585714Y-97471428D02*
X99242857Y-97471428D01*
X99414285Y-97471428D02*
X99414285Y-96871428D01*
X99357142Y-96957142D01*
X99300000Y-97014285D01*
X99242857Y-97042857D01*
X100157142Y-97471428D02*
X99814285Y-97471428D01*
X99985714Y-97471428D02*
X99985714Y-96871428D01*
X99928571Y-96957142D01*
X99871428Y-97014285D01*
X99814285Y-97042857D01*
X99164285Y-100471428D02*
X98964285Y-100185714D01*
X98821428Y-100471428D02*
X98821428Y-99871428D01*
X99050000Y-99871428D01*
X99107142Y-99900000D01*
X99135714Y-99928571D01*
X99164285Y-99985714D01*
X99164285Y-100071428D01*
X99135714Y-100128571D01*
X99107142Y-100157142D01*
X99050000Y-100185714D01*
X98821428Y-100185714D01*
X99735714Y-100471428D02*
X99392857Y-100471428D01*
X99564285Y-100471428D02*
X99564285Y-99871428D01*
X99507142Y-99957142D01*
X99450000Y-100014285D01*
X99392857Y-100042857D01*
X99964285Y-99928571D02*
X99992857Y-99900000D01*
X100050000Y-99871428D01*
X100192857Y-99871428D01*
X100250000Y-99900000D01*
X100278571Y-99928571D01*
X100307142Y-99985714D01*
X100307142Y-100042857D01*
X100278571Y-100128571D01*
X99935714Y-100471428D01*
X100307142Y-100471428D01*
X76114285Y-99521428D02*
X75914285Y-99235714D01*
X75771428Y-99521428D02*
X75771428Y-98921428D01*
X76000000Y-98921428D01*
X76057142Y-98950000D01*
X76085714Y-98978571D01*
X76114285Y-99035714D01*
X76114285Y-99121428D01*
X76085714Y-99178571D01*
X76057142Y-99207142D01*
X76000000Y-99235714D01*
X75771428Y-99235714D01*
X76685714Y-99521428D02*
X76342857Y-99521428D01*
X76514285Y-99521428D02*
X76514285Y-98921428D01*
X76457142Y-99007142D01*
X76400000Y-99064285D01*
X76342857Y-99092857D01*
X76885714Y-98921428D02*
X77257142Y-98921428D01*
X77057142Y-99150000D01*
X77142857Y-99150000D01*
X77200000Y-99178571D01*
X77228571Y-99207142D01*
X77257142Y-99264285D01*
X77257142Y-99407142D01*
X77228571Y-99464285D01*
X77200000Y-99492857D01*
X77142857Y-99521428D01*
X76971428Y-99521428D01*
X76914285Y-99492857D01*
X76885714Y-99464285D01*
X76114285Y-101171428D02*
X75914285Y-100885714D01*
X75771428Y-101171428D02*
X75771428Y-100571428D01*
X76000000Y-100571428D01*
X76057142Y-100600000D01*
X76085714Y-100628571D01*
X76114285Y-100685714D01*
X76114285Y-100771428D01*
X76085714Y-100828571D01*
X76057142Y-100857142D01*
X76000000Y-100885714D01*
X75771428Y-100885714D01*
X76685714Y-101171428D02*
X76342857Y-101171428D01*
X76514285Y-101171428D02*
X76514285Y-100571428D01*
X76457142Y-100657142D01*
X76400000Y-100714285D01*
X76342857Y-100742857D01*
X77200000Y-100771428D02*
X77200000Y-101171428D01*
X77057142Y-100542857D02*
X76914285Y-100971428D01*
X77285714Y-100971428D01*
X102942857Y-110071428D02*
X102942857Y-110557142D01*
X102971428Y-110614285D01*
X103000000Y-110642857D01*
X103057142Y-110671428D01*
X103171428Y-110671428D01*
X103228571Y-110642857D01*
X103257142Y-110614285D01*
X103285714Y-110557142D01*
X103285714Y-110071428D01*
X103885714Y-110671428D02*
X103542857Y-110671428D01*
X103714285Y-110671428D02*
X103714285Y-110071428D01*
X103657142Y-110157142D01*
X103600000Y-110214285D01*
X103542857Y-110242857D01*
X71542857Y-87171428D02*
X71542857Y-87657142D01*
X71571428Y-87714285D01*
X71600000Y-87742857D01*
X71657142Y-87771428D01*
X71771428Y-87771428D01*
X71828571Y-87742857D01*
X71857142Y-87714285D01*
X71885714Y-87657142D01*
X71885714Y-87171428D01*
X72114285Y-87171428D02*
X72485714Y-87171428D01*
X72285714Y-87400000D01*
X72371428Y-87400000D01*
X72428571Y-87428571D01*
X72457142Y-87457142D01*
X72485714Y-87514285D01*
X72485714Y-87657142D01*
X72457142Y-87714285D01*
X72428571Y-87742857D01*
X72371428Y-87771428D01*
X72200000Y-87771428D01*
X72142857Y-87742857D01*
X72114285Y-87714285D01*
X101700000Y-91214285D02*
X101671428Y-91242857D01*
X101585714Y-91271428D01*
X101528571Y-91271428D01*
X101442857Y-91242857D01*
X101385714Y-91185714D01*
X101357142Y-91128571D01*
X101328571Y-91014285D01*
X101328571Y-90928571D01*
X101357142Y-90814285D01*
X101385714Y-90757142D01*
X101442857Y-90700000D01*
X101528571Y-90671428D01*
X101585714Y-90671428D01*
X101671428Y-90700000D01*
X101700000Y-90728571D01*
X101985714Y-91271428D02*
X102100000Y-91271428D01*
X102157142Y-91242857D01*
X102185714Y-91214285D01*
X102242857Y-91128571D01*
X102271428Y-91014285D01*
X102271428Y-90785714D01*
X102242857Y-90728571D01*
X102214285Y-90700000D01*
X102157142Y-90671428D01*
X102042857Y-90671428D01*
X101985714Y-90700000D01*
X101957142Y-90728571D01*
X101928571Y-90785714D01*
X101928571Y-90928571D01*
X101957142Y-90985714D01*
X101985714Y-91014285D01*
X102042857Y-91042857D01*
X102157142Y-91042857D01*
X102214285Y-91014285D01*
X102242857Y-90985714D01*
X102271428Y-90928571D01*
X99864285Y-90964285D02*
X99835714Y-90992857D01*
X99750000Y-91021428D01*
X99692857Y-91021428D01*
X99607142Y-90992857D01*
X99550000Y-90935714D01*
X99521428Y-90878571D01*
X99492857Y-90764285D01*
X99492857Y-90678571D01*
X99521428Y-90564285D01*
X99550000Y-90507142D01*
X99607142Y-90450000D01*
X99692857Y-90421428D01*
X99750000Y-90421428D01*
X99835714Y-90450000D01*
X99864285Y-90478571D01*
X100435714Y-91021428D02*
X100092857Y-91021428D01*
X100264285Y-91021428D02*
X100264285Y-90421428D01*
X100207142Y-90507142D01*
X100150000Y-90564285D01*
X100092857Y-90592857D01*
X100807142Y-90421428D02*
X100864285Y-90421428D01*
X100921428Y-90450000D01*
X100950000Y-90478571D01*
X100978571Y-90535714D01*
X101007142Y-90650000D01*
X101007142Y-90792857D01*
X100978571Y-90907142D01*
X100950000Y-90964285D01*
X100921428Y-90992857D01*
X100864285Y-91021428D01*
X100807142Y-91021428D01*
X100750000Y-90992857D01*
X100721428Y-90964285D01*
X100692857Y-90907142D01*
X100664285Y-90792857D01*
X100664285Y-90650000D01*
X100692857Y-90535714D01*
X100721428Y-90478571D01*
X100750000Y-90450000D01*
X100807142Y-90421428D01*
X85614285Y-89214285D02*
X85585714Y-89242857D01*
X85500000Y-89271428D01*
X85442857Y-89271428D01*
X85357142Y-89242857D01*
X85300000Y-89185714D01*
X85271428Y-89128571D01*
X85242857Y-89014285D01*
X85242857Y-88928571D01*
X85271428Y-88814285D01*
X85300000Y-88757142D01*
X85357142Y-88700000D01*
X85442857Y-88671428D01*
X85500000Y-88671428D01*
X85585714Y-88700000D01*
X85614285Y-88728571D01*
X86185714Y-89271428D02*
X85842857Y-89271428D01*
X86014285Y-89271428D02*
X86014285Y-88671428D01*
X85957142Y-88757142D01*
X85900000Y-88814285D01*
X85842857Y-88842857D01*
X86757142Y-89271428D02*
X86414285Y-89271428D01*
X86585714Y-89271428D02*
X86585714Y-88671428D01*
X86528571Y-88757142D01*
X86471428Y-88814285D01*
X86414285Y-88842857D01*
X99360714Y-102260714D02*
X99339285Y-102282142D01*
X99275000Y-102303571D01*
X99232142Y-102303571D01*
X99167857Y-102282142D01*
X99125000Y-102239285D01*
X99103571Y-102196428D01*
X99082142Y-102110714D01*
X99082142Y-102046428D01*
X99103571Y-101960714D01*
X99125000Y-101917857D01*
X99167857Y-101875000D01*
X99232142Y-101853571D01*
X99275000Y-101853571D01*
X99339285Y-101875000D01*
X99360714Y-101896428D01*
X99789285Y-102303571D02*
X99532142Y-102303571D01*
X99660714Y-102303571D02*
X99660714Y-101853571D01*
X99617857Y-101917857D01*
X99575000Y-101960714D01*
X99532142Y-101982142D01*
X99960714Y-101896428D02*
X99982142Y-101875000D01*
X100025000Y-101853571D01*
X100132142Y-101853571D01*
X100175000Y-101875000D01*
X100196428Y-101896428D01*
X100217857Y-101939285D01*
X100217857Y-101982142D01*
X100196428Y-102046428D01*
X99939285Y-102303571D01*
X100217857Y-102303571D01*
X99360714Y-101353571D02*
X99210714Y-101139285D01*
X99103571Y-101353571D02*
X99103571Y-100903571D01*
X99275000Y-100903571D01*
X99317857Y-100925000D01*
X99339285Y-100946428D01*
X99360714Y-100989285D01*
X99360714Y-101053571D01*
X99339285Y-101096428D01*
X99317857Y-101117857D01*
X99275000Y-101139285D01*
X99103571Y-101139285D01*
X99789285Y-101353571D02*
X99532142Y-101353571D01*
X99660714Y-101353571D02*
X99660714Y-100903571D01*
X99617857Y-100967857D01*
X99575000Y-101010714D01*
X99532142Y-101032142D01*
X100196428Y-100903571D02*
X99982142Y-100903571D01*
X99960714Y-101117857D01*
X99982142Y-101096428D01*
X100025000Y-101075000D01*
X100132142Y-101075000D01*
X100175000Y-101096428D01*
X100196428Y-101117857D01*
X100217857Y-101160714D01*
X100217857Y-101267857D01*
X100196428Y-101310714D01*
X100175000Y-101332142D01*
X100132142Y-101353571D01*
X100025000Y-101353571D01*
X99982142Y-101332142D01*
X99960714Y-101310714D01*
X98960714Y-123203571D02*
X98810714Y-122989285D01*
X98703571Y-123203571D02*
X98703571Y-122753571D01*
X98875000Y-122753571D01*
X98917857Y-122775000D01*
X98939285Y-122796428D01*
X98960714Y-122839285D01*
X98960714Y-122903571D01*
X98939285Y-122946428D01*
X98917857Y-122967857D01*
X98875000Y-122989285D01*
X98703571Y-122989285D01*
X99389285Y-123203571D02*
X99132142Y-123203571D01*
X99260714Y-123203571D02*
X99260714Y-122753571D01*
X99217857Y-122817857D01*
X99175000Y-122860714D01*
X99132142Y-122882142D01*
X99775000Y-122753571D02*
X99689285Y-122753571D01*
X99646428Y-122775000D01*
X99625000Y-122796428D01*
X99582142Y-122860714D01*
X99560714Y-122946428D01*
X99560714Y-123117857D01*
X99582142Y-123160714D01*
X99603571Y-123182142D01*
X99646428Y-123203571D01*
X99732142Y-123203571D01*
X99775000Y-123182142D01*
X99796428Y-123160714D01*
X99817857Y-123117857D01*
X99817857Y-123010714D01*
X99796428Y-122967857D01*
X99775000Y-122946428D01*
X99732142Y-122925000D01*
X99646428Y-122925000D01*
X99603571Y-122946428D01*
X99582142Y-122967857D01*
X99560714Y-123010714D01*
X98960714Y-122203571D02*
X98810714Y-121989285D01*
X98703571Y-122203571D02*
X98703571Y-121753571D01*
X98875000Y-121753571D01*
X98917857Y-121775000D01*
X98939285Y-121796428D01*
X98960714Y-121839285D01*
X98960714Y-121903571D01*
X98939285Y-121946428D01*
X98917857Y-121967857D01*
X98875000Y-121989285D01*
X98703571Y-121989285D01*
X99389285Y-122203571D02*
X99132142Y-122203571D01*
X99260714Y-122203571D02*
X99260714Y-121753571D01*
X99217857Y-121817857D01*
X99175000Y-121860714D01*
X99132142Y-121882142D01*
X99539285Y-121753571D02*
X99839285Y-121753571D01*
X99646428Y-122203571D01*
X109957142Y-120671428D02*
X109957142Y-120071428D01*
X110100000Y-120071428D01*
X110185714Y-120100000D01*
X110242857Y-120157142D01*
X110271428Y-120214285D01*
X110300000Y-120328571D01*
X110300000Y-120414285D01*
X110271428Y-120528571D01*
X110242857Y-120585714D01*
X110185714Y-120642857D01*
X110100000Y-120671428D01*
X109957142Y-120671428D01*
X110528571Y-120128571D02*
X110557142Y-120100000D01*
X110614285Y-120071428D01*
X110757142Y-120071428D01*
X110814285Y-120100000D01*
X110842857Y-120128571D01*
X110871428Y-120185714D01*
X110871428Y-120242857D01*
X110842857Y-120328571D01*
X110500000Y-120671428D01*
X110871428Y-120671428D01*
D13*
X101200000Y-96150000D02*
X101200000Y-96450000D01*
X101200000Y-99050000D02*
X101200000Y-99350000D01*
X101200000Y-98050000D02*
X101200000Y-98350000D01*
X83925000Y-87350000D02*
X83925000Y-88050000D01*
X101200000Y-102900000D02*
X101200000Y-103200000D01*
X113850000Y-115000000D02*
X114150000Y-115000000D01*
X74900000Y-94675000D02*
X74900000Y-95375000D01*
X70250000Y-92325000D02*
X70950000Y-92325000D01*
X113650000Y-117750000D02*
X106350000Y-117750000D01*
X113650000Y-112250000D02*
X106350000Y-112250000D01*
X106350000Y-112250000D02*
X106350000Y-113400000D01*
D10*
X73350000Y-95500000D02*
X73350000Y-96000000D01*
X73350000Y-104000000D02*
X73350000Y-104500000D01*
X70850000Y-95500000D02*
X68850000Y-95500000D01*
X68850000Y-104500000D02*
X70850000Y-104500000D01*
D13*
X101200000Y-95450000D02*
X101200000Y-95150000D01*
X97900000Y-100225000D02*
X97900000Y-100525000D01*
X101250000Y-94450000D02*
X101250000Y-94150000D01*
X78025000Y-96750000D02*
X78025000Y-96450000D01*
X122800000Y-105900000D02*
X122800000Y-105600000D01*
X122825000Y-104600000D02*
X122825000Y-104300000D01*
X114850000Y-115000000D02*
X115150000Y-115000000D01*
X109893934Y-118906066D02*
X110106066Y-118693934D01*
X101200000Y-103800000D02*
X101200000Y-104100000D01*
X101200000Y-97050000D02*
X101200000Y-97350000D01*
X101200000Y-100050000D02*
X101200000Y-100350000D01*
X74950000Y-99200000D02*
X75250000Y-99200000D01*
X75250000Y-100900000D02*
X74950000Y-100900000D01*
X102880000Y-84135000D02*
X121120000Y-84135000D01*
X121120000Y-109880000D02*
X120120000Y-109880000D01*
X102880000Y-90555000D02*
X102500000Y-90555000D01*
X102880000Y-109880000D02*
X103880000Y-109880000D01*
X121120000Y-109100000D02*
X121120000Y-109880000D01*
X121120000Y-84135000D02*
X121120000Y-90555000D01*
X102880000Y-84135000D02*
X102880000Y-90555000D01*
X102880000Y-109100000D02*
X102880000Y-109880000D01*
X96120000Y-90900000D02*
X96120000Y-90120000D01*
X79880000Y-90900000D02*
X79880000Y-90120000D01*
X80000000Y-119865000D02*
X80000000Y-112580000D01*
X96120000Y-90120000D02*
X95120000Y-90120000D01*
X96120000Y-119865000D02*
X80000000Y-119865000D01*
X79880000Y-90120000D02*
X80880000Y-90120000D01*
X96120000Y-119865000D02*
X96120000Y-113445000D01*
X78310000Y-91775000D02*
X78310000Y-88015000D01*
X71490000Y-94025000D02*
X71490000Y-88015000D01*
X71490000Y-88015000D02*
X72750000Y-88015000D01*
X78310000Y-88015000D02*
X77050000Y-88015000D01*
X101825000Y-92375000D02*
X101525000Y-92375000D01*
X100850000Y-92400000D02*
X100150000Y-92400000D01*
X83925000Y-88725000D02*
X83925000Y-89025000D01*
X67460000Y-111000000D02*
X65340000Y-111000000D01*
X65340000Y-111000000D02*
X65340000Y-106940000D01*
X65340000Y-113060000D02*
X65340000Y-112000000D01*
X66400000Y-113060000D02*
X65340000Y-113060000D01*
X67460000Y-111000000D02*
X67460000Y-106940000D01*
X67460000Y-106940000D02*
X65340000Y-106940000D01*
X67460000Y-91000000D02*
X65340000Y-91000000D01*
X67460000Y-91000000D02*
X67460000Y-86940000D01*
X67460000Y-86940000D02*
X65340000Y-86940000D01*
X65340000Y-91000000D02*
X65340000Y-86940000D01*
X65340000Y-93060000D02*
X65340000Y-92000000D01*
X66400000Y-93060000D02*
X65340000Y-93060000D01*
X80265898Y-73817987D02*
X88978114Y-68787987D01*
X79205898Y-71982013D02*
X87918114Y-66952013D01*
X80265898Y-73817987D02*
X79205898Y-71982013D01*
X77421886Y-73012013D02*
X78339873Y-72482013D01*
X88978114Y-68787987D02*
X87918114Y-66952013D01*
X77951886Y-73930000D02*
X77421886Y-73012013D01*
X111551886Y-67870000D02*
X112081886Y-66952013D01*
X112805898Y-69817987D02*
X121518114Y-74847987D01*
X113865898Y-67982013D02*
X122578114Y-73012013D01*
X112081886Y-66952013D02*
X112999873Y-67482013D01*
X112805898Y-69817987D02*
X113865898Y-67982013D01*
X121518114Y-74847987D02*
X122578114Y-73012013D01*
X132540000Y-96000000D02*
X132540000Y-106060000D01*
X133600000Y-93940000D02*
X134660000Y-93940000D01*
X132540000Y-106060000D02*
X134660000Y-106060000D01*
X132540000Y-96000000D02*
X134660000Y-96000000D01*
X134660000Y-96000000D02*
X134660000Y-106060000D01*
X134660000Y-93940000D02*
X134660000Y-95000000D01*
X122048114Y-126070000D02*
X122578114Y-126987987D01*
X122578114Y-126987987D02*
X121660127Y-127517987D01*
X119734102Y-126182013D02*
X111021886Y-131212013D01*
X119734102Y-126182013D02*
X120794102Y-128017987D01*
X120794102Y-128017987D02*
X112081886Y-133047987D01*
X111021886Y-131212013D02*
X112081886Y-133047987D01*
X87194102Y-130182013D02*
X86134102Y-132017987D01*
X86134102Y-132017987D02*
X77421886Y-126987987D01*
X87918114Y-133047987D02*
X87000127Y-132517987D01*
X78481886Y-125152013D02*
X77421886Y-126987987D01*
X88448114Y-132130000D02*
X87918114Y-133047987D01*
X87194102Y-130182013D02*
X78481886Y-125152013D01*
X94860000Y-74670000D02*
X94860000Y-77330000D01*
X102540000Y-77330000D02*
X94860000Y-77330000D01*
X102540000Y-74670000D02*
X94860000Y-74670000D01*
X105140000Y-76000000D02*
X105140000Y-77330000D01*
X105140000Y-77330000D02*
X103810000Y-77330000D01*
X102540000Y-74670000D02*
X102540000Y-77330000D01*
X94860000Y-123670000D02*
X96190000Y-123670000D01*
X97460000Y-126330000D02*
X105140000Y-126330000D01*
X105140000Y-126330000D02*
X105140000Y-123670000D01*
X97460000Y-123670000D02*
X105140000Y-123670000D01*
X94860000Y-125000000D02*
X94860000Y-123670000D01*
X97460000Y-126330000D02*
X97460000Y-123670000D01*
X101200000Y-101950000D02*
X101200000Y-102250000D01*
X101200000Y-101000000D02*
X101200000Y-101300000D01*
X97500000Y-123150000D02*
X97500000Y-122850000D01*
X97500000Y-122150000D02*
X97500000Y-121850000D01*
X113380000Y-118017500D02*
X113380000Y-121867500D01*
X113380000Y-118017500D02*
X111380000Y-118017500D01*
X111380000Y-118017500D02*
X111380000Y-121867500D01*
M02*
