M48
; DRILL file {KiCad 5.1.5+dfsg1-2build2} date Wed 29 Dec 2021 07:23:27 PM CET
; FORMAT={-:-/ absolute / metric / decimal}
; #@! TF.CreationDate,2021-12-29T19:23:27+01:00
; #@! TF.GenerationSoftware,Kicad,Pcbnew,5.1.5+dfsg1-2build2
; #@! TF.FileFunction,Plated,1,2,PTH
FMAT,2
METRIC
T1C0.300
T2C0.600
T3C0.800
T4C1.000
%
G90
G05
T1
X66.15Y-84.3
X67.0Y-118.0
X70.6Y-118.3
X72.0Y-87.0
X73.0Y-90.0
X73.0Y-119.0
X74.0Y-81.0
X74.0Y-85.0
X74.25Y-100.0
X75.45Y-75.4
X76.1Y-98.4
X76.1Y-99.6
X76.1Y-100.8
X76.1Y-101.8
X77.0Y-125.0
X78.0Y-85.0
X79.0Y-88.0
X79.0Y-91.0
X82.0Y-88.0
X82.0Y-91.0
X82.0Y-125.0
X83.0Y-85.0
X83.0Y-93.0
X83.0Y-99.0
X85.85Y-91.65
X85.85Y-93.0
X87.0Y-72.0
X87.0Y-76.0
X88.0Y-94.0
X88.85Y-92.3
X89.6Y-88.95
X90.0Y-67.0
X90.3Y-132.85
X90.9Y-88.95
X91.0Y-100.05
X92.0Y-93.0
X92.5Y-100.7
X93.0Y-103.0
X93.0Y-105.75
X94.0Y-99.0
X94.0Y-101.3
X95.0Y-91.0
X95.8Y-90.6
X97.0Y-82.0
X97.4Y-102.65
X98.05Y-102.0
X98.15Y-93.075
X98.2Y-95.55
X98.7Y-103.9
X99.25Y-105.15
X99.35Y-91.5
X99.6Y-96.6
X99.875Y-94.175
X99.9Y-102.825
X99.95Y-101.35
X99.975Y-98.925
X100.0Y-62.0
X100.0Y-67.0
X100.0Y-70.0
X100.0Y-95.0
X101.0Y-107.0
X101.625Y-90.775
X102.339Y-96.817
X104.0Y-111.0
X106.0Y-92.0
X106.0Y-94.0
X106.0Y-98.0
X106.0Y-102.0
X106.0Y-107.0
X106.05Y-105.1
X110.0Y-67.0
X110.0Y-98.0
X110.0Y-100.0
X110.0Y-124.0
X110.2Y-132.8
X111.0Y-72.0
X111.0Y-76.0
X111.1Y-103.1
X111.2Y-114.4
X112.0Y-98.0
X112.0Y-100.0
X112.4Y-117.6
X115.0Y-102.0
X116.0Y-124.0
X118.0Y-75.0
X118.0Y-92.0
X118.0Y-102.0
X118.0Y-107.0
X118.65Y-100.1
X120.0Y-111.0
X122.3Y-96.35
X124.1Y-105.8
X124.2Y-104.5
X124.35Y-124.75
X124.45Y-75.4
X128.0Y-83.0
X128.0Y-92.0
X129.0Y-102.0
X129.0Y-111.0
X132.5Y-80.4
X133.4Y-93.3
X133.45Y-115.9
T3
X133.6Y-95.0
X133.6Y-97.0
X133.6Y-99.0
X133.6Y-101.0
X133.6Y-103.0
X133.6Y-105.0
X66.4Y-108.0
X66.4Y-110.0
X66.4Y-112.0
X112.47Y-68.4
X114.202Y-69.4
X115.934Y-70.4
X117.666Y-71.4
X119.398Y-72.4
X121.13Y-73.4
X112.47Y-131.6
X114.202Y-130.6
X115.934Y-129.6
X117.666Y-128.6
X119.398Y-127.6
X121.13Y-126.6
X78.87Y-73.4
X80.602Y-72.4
X82.334Y-71.4
X84.066Y-70.4
X85.798Y-69.4
X87.53Y-68.4
X66.4Y-88.0
X66.4Y-90.0
X66.4Y-92.0
X78.87Y-126.6
X80.602Y-127.6
X82.334Y-128.6
X84.066Y-129.6
X85.798Y-130.6
X87.53Y-131.6
T4
X123.9Y-91.8
X123.9Y-94.34
X123.9Y-96.88
X123.9Y-99.42
X123.9Y-101.96
X96.19Y-76.0
X98.73Y-76.0
X101.27Y-76.0
X103.81Y-76.0
X96.19Y-125.0
X98.73Y-125.0
X101.27Y-125.0
X103.81Y-125.0
X85.575Y-85.0
X88.115Y-85.0
X90.655Y-85.0
X93.195Y-85.0
X95.735Y-85.0
T2
X68.055Y-95.68G85X67.455Y-95.68
G05
X68.055Y-104.32G85X67.455Y-104.32
G05
X72.485Y-95.68G85X71.385Y-95.68
G05
X72.485Y-104.32G85X71.385Y-104.32
G05
T0
M30
