G04 #@! TF.GenerationSoftware,KiCad,Pcbnew,5.1.5+dfsg1-2build2*
G04 #@! TF.CreationDate,2021-12-29T19:23:25+01:00*
G04 #@! TF.ProjectId,hex_base,6865785f-6261-4736-952e-6b696361645f,rev?*
G04 #@! TF.SameCoordinates,Original*
G04 #@! TF.FileFunction,Soldermask,Top*
G04 #@! TF.FilePolarity,Negative*
%FSLAX46Y46*%
G04 Gerber Fmt 4.6, Leading zero omitted, Abs format (unit mm)*
G04 Created by KiCad (PCBNEW 5.1.5+dfsg1-2build2) date 2021-12-29 19:23:25*
%MOMM*%
%LPD*%
G04 APERTURE LIST*
%ADD10R,0.500000X0.600000*%
%ADD11O,1.700000X1.700000*%
%ADD12R,1.700000X1.700000*%
%ADD13C,1.350000*%
%ADD14C,0.100000*%
%ADD15O,1.350000X1.350000*%
%ADD16R,1.350000X1.350000*%
%ADD17R,0.900000X0.600000*%
%ADD18R,0.600000X0.500000*%
%ADD19R,1.500000X2.000000*%
%ADD20R,3.800000X2.000000*%
%ADD21R,2.000000X0.900000*%
%ADD22R,0.900000X2.000000*%
%ADD23R,5.000000X5.000000*%
%ADD24C,0.985520*%
%ADD25C,0.988060*%
%ADD26R,1.450000X0.600000*%
%ADD27O,2.100000X1.000000*%
%ADD28O,1.600000X1.000000*%
%ADD29C,0.650000*%
%ADD30R,1.450000X0.300000*%
%ADD31R,1.500000X1.000000*%
%ADD32R,0.600000X0.900000*%
G04 APERTURE END LIST*
D10*
X100730000Y-101150000D03*
X101670000Y-101150000D03*
X100730000Y-102100000D03*
X101670000Y-102100000D03*
D11*
X103810000Y-125000000D03*
X101270000Y-125000000D03*
X98730000Y-125000000D03*
D12*
X96190000Y-125000000D03*
D11*
X103810000Y-76000000D03*
X101270000Y-76000000D03*
X98730000Y-76000000D03*
D12*
X96190000Y-76000000D03*
D13*
X78869873Y-126600000D02*
X78869873Y-126600000D01*
X80601924Y-127600000D02*
X80601924Y-127600000D01*
X82333975Y-128600000D02*
X82333975Y-128600000D01*
X84066025Y-129600000D02*
X84066025Y-129600000D01*
X85798076Y-130600000D02*
X85798076Y-130600000D01*
D14*
G36*
X87283060Y-130677933D02*
G01*
X88452194Y-131352933D01*
X87777194Y-132522067D01*
X86608060Y-131847067D01*
X87283060Y-130677933D01*
G37*
D13*
X112469873Y-131600000D02*
X112469873Y-131600000D01*
X114201924Y-130600000D02*
X114201924Y-130600000D01*
X115933975Y-129600000D02*
X115933975Y-129600000D01*
X117666025Y-128600000D02*
X117666025Y-128600000D01*
X119398076Y-127600000D02*
X119398076Y-127600000D01*
D14*
G36*
X120208060Y-126352933D02*
G01*
X121377194Y-125677933D01*
X122052194Y-126847067D01*
X120883060Y-127522067D01*
X120208060Y-126352933D01*
G37*
D15*
X133600000Y-105000000D03*
X133600000Y-103000000D03*
X133600000Y-101000000D03*
X133600000Y-99000000D03*
X133600000Y-97000000D03*
D16*
X133600000Y-95000000D03*
D13*
X121130127Y-73400000D02*
X121130127Y-73400000D01*
X119398076Y-72400000D02*
X119398076Y-72400000D01*
X117666025Y-71400000D02*
X117666025Y-71400000D01*
X115933975Y-70400000D02*
X115933975Y-70400000D01*
X114201924Y-69400000D02*
X114201924Y-69400000D01*
D14*
G36*
X112716940Y-69322067D02*
G01*
X111547806Y-68647067D01*
X112222806Y-67477933D01*
X113391940Y-68152933D01*
X112716940Y-69322067D01*
G37*
D13*
X87530127Y-68400000D02*
X87530127Y-68400000D01*
X85798076Y-69400000D02*
X85798076Y-69400000D01*
X84066025Y-70400000D02*
X84066025Y-70400000D01*
X82333975Y-71400000D02*
X82333975Y-71400000D01*
X80601924Y-72400000D02*
X80601924Y-72400000D01*
D14*
G36*
X79791940Y-73647067D02*
G01*
X78622806Y-74322067D01*
X77947806Y-73152933D01*
X79116940Y-72477933D01*
X79791940Y-73647067D01*
G37*
D15*
X66400000Y-88000000D03*
X66400000Y-90000000D03*
D16*
X66400000Y-92000000D03*
D15*
X66400000Y-108000000D03*
X66400000Y-110000000D03*
D16*
X66400000Y-112000000D03*
D10*
X83455000Y-88875000D03*
X84395000Y-88875000D03*
D17*
X100500000Y-91650000D03*
X100500000Y-93150000D03*
D18*
X101675000Y-91905000D03*
X101675000Y-92845000D03*
D19*
X72600000Y-93075000D03*
X77200000Y-93075000D03*
X74900000Y-93075000D03*
D20*
X74900000Y-86775000D03*
D21*
X80262000Y-102921000D03*
X80262000Y-101651000D03*
X80262000Y-100381000D03*
X80269000Y-99132500D03*
X80269000Y-97862500D03*
X80269000Y-96592500D03*
X80269000Y-95322500D03*
X80269000Y-94052500D03*
X80269000Y-92782500D03*
D22*
X83301000Y-90602000D03*
X84571000Y-90602000D03*
X85841000Y-90602000D03*
X87111000Y-90602000D03*
X88369500Y-90606500D03*
X89639500Y-90606500D03*
X90909500Y-90606500D03*
X92179500Y-90606500D03*
X93449500Y-90606500D03*
D21*
X95627000Y-92761000D03*
X95627000Y-94031000D03*
X95627000Y-95301000D03*
X95627000Y-96571000D03*
X95627000Y-97841000D03*
X95627000Y-99111000D03*
X95627000Y-100381000D03*
X95627000Y-101651000D03*
X95627000Y-102921000D03*
X120500000Y-91745000D03*
X120500000Y-93015000D03*
X120500000Y-94285000D03*
X120500000Y-95555000D03*
X120500000Y-96825000D03*
X120500000Y-98095000D03*
X120500000Y-99365000D03*
X120500000Y-100635000D03*
X120500000Y-101905000D03*
X120500000Y-103175000D03*
X120500000Y-104445000D03*
X120500000Y-105715000D03*
X120500000Y-106985000D03*
X120500000Y-108255000D03*
D22*
X117715000Y-109255000D03*
X116445000Y-109255000D03*
X115175000Y-109255000D03*
X113905000Y-109255000D03*
X112635000Y-109255000D03*
X111365000Y-109255000D03*
X110095000Y-109255000D03*
X108825000Y-109255000D03*
X107555000Y-109255000D03*
X106285000Y-109255000D03*
D21*
X103500000Y-108255000D03*
X103500000Y-106985000D03*
X103500000Y-105715000D03*
X103500000Y-104445000D03*
X103500000Y-103175000D03*
X103500000Y-101905000D03*
X103500000Y-100635000D03*
X103500000Y-99365000D03*
X103500000Y-98095000D03*
X103500000Y-96825000D03*
X103500000Y-95555000D03*
X103500000Y-94285000D03*
X103500000Y-93015000D03*
X103500000Y-91745000D03*
D23*
X111000000Y-99245000D03*
D18*
X75100000Y-100430000D03*
X75100000Y-101370000D03*
X75100000Y-99670000D03*
X75100000Y-98730000D03*
D10*
X100730000Y-100200000D03*
X101670000Y-100200000D03*
X100730000Y-97200000D03*
X101670000Y-97200000D03*
X100730000Y-103950000D03*
X101670000Y-103950000D03*
X112820000Y-118450000D03*
X111880000Y-118450000D03*
D18*
X115000000Y-115470000D03*
X115000000Y-114530000D03*
D10*
X123295000Y-104450000D03*
X122355000Y-104450000D03*
X123270000Y-105750000D03*
X122330000Y-105750000D03*
X78495000Y-96600000D03*
X77555000Y-96600000D03*
X101720000Y-94300000D03*
X100780000Y-94300000D03*
X97430000Y-100375000D03*
X98370000Y-100375000D03*
X101670000Y-95300000D03*
X100730000Y-95300000D03*
D24*
X88410000Y-82216000D03*
X88410000Y-80184000D03*
D25*
X93490000Y-81200000D03*
D24*
X126734000Y-94785000D03*
X128766000Y-94785000D03*
D25*
X127750000Y-99865000D03*
D26*
X72850000Y-97600000D03*
X72850000Y-102400000D03*
X72850000Y-103200000D03*
X72850000Y-96800000D03*
D27*
X71935000Y-95680000D03*
X71935000Y-104320000D03*
D28*
X67755000Y-95680000D03*
X67755000Y-104320000D03*
D29*
X71405000Y-102890000D03*
X71405000Y-97110000D03*
D26*
X72850000Y-103200000D03*
X72850000Y-102400000D03*
D30*
X72850000Y-101750000D03*
X72850000Y-101250000D03*
X72850000Y-100750000D03*
X72850000Y-100250000D03*
X72850000Y-99750000D03*
X72850000Y-99250000D03*
X72850000Y-98750000D03*
X72850000Y-98250000D03*
D26*
X72850000Y-97600000D03*
X72850000Y-96800000D03*
D11*
X95735000Y-85000000D03*
X93195000Y-85000000D03*
X90655000Y-85000000D03*
X88115000Y-85000000D03*
D12*
X85575000Y-85000000D03*
D11*
X123900000Y-101960000D03*
X123900000Y-99420000D03*
X123900000Y-96880000D03*
X123900000Y-94340000D03*
D12*
X123900000Y-91800000D03*
D31*
X112450000Y-116600000D03*
X112450000Y-113400000D03*
X107550000Y-116600000D03*
X107550000Y-113400000D03*
D17*
X70600000Y-93075000D03*
X70600000Y-91575000D03*
D32*
X74150000Y-95025000D03*
X75650000Y-95025000D03*
D18*
X114000000Y-115470000D03*
X114000000Y-114530000D03*
D10*
X100730000Y-103050000D03*
X101670000Y-103050000D03*
D32*
X83175000Y-87700000D03*
X84675000Y-87700000D03*
D10*
X100730000Y-98200000D03*
X101670000Y-98200000D03*
X100730000Y-99200000D03*
X101670000Y-99200000D03*
X100730000Y-96300000D03*
X101670000Y-96300000D03*
M02*
