G04 #@! TF.GenerationSoftware,KiCad,Pcbnew,6.0.4-6f826c9f35~116~ubuntu20.04.1*
G04 #@! TF.CreationDate,2022-03-28T16:20:16+02:00*
G04 #@! TF.ProjectId,hex_base,6865785f-6261-4736-952e-6b696361645f,rev?*
G04 #@! TF.SameCoordinates,Original*
G04 #@! TF.FileFunction,Soldermask,Top*
G04 #@! TF.FilePolarity,Negative*
%FSLAX46Y46*%
G04 Gerber Fmt 4.6, Leading zero omitted, Abs format (unit mm)*
G04 Created by KiCad (PCBNEW 6.0.4-6f826c9f35~116~ubuntu20.04.1) date 2022-03-28 16:20:16*
%MOMM*%
%LPD*%
G01*
G04 APERTURE LIST*
G04 Aperture macros list*
%AMHorizOval*
0 Thick line with rounded ends*
0 $1 width*
0 $2 $3 position (X,Y) of the first rounded end (center of the circle)*
0 $4 $5 position (X,Y) of the second rounded end (center of the circle)*
0 Add line between two ends*
20,1,$1,$2,$3,$4,$5,0*
0 Add two circle primitives to create the rounded ends*
1,1,$1,$2,$3*
1,1,$1,$4,$5*%
%AMRotRect*
0 Rectangle, with rotation*
0 The origin of the aperture is its center*
0 $1 length*
0 $2 width*
0 $3 Rotation angle, in degrees counterclockwise*
0 Add horizontal line*
21,1,$1,$2,0,0,$3*%
G04 Aperture macros list end*
%ADD10R,0.500000X0.600000*%
%ADD11R,0.600000X0.900000*%
%ADD12R,0.600000X0.500000*%
%ADD13R,0.900000X0.600000*%
%ADD14R,1.500000X1.000000*%
%ADD15C,0.650000*%
%ADD16R,1.450000X0.600000*%
%ADD17R,1.450000X0.300000*%
%ADD18O,1.600000X1.000000*%
%ADD19O,2.100000X1.000000*%
%ADD20RotRect,0.500000X0.600000X315.000000*%
%ADD21R,2.000000X0.900000*%
%ADD22R,0.900000X2.000000*%
%ADD23R,5.000000X5.000000*%
%ADD24R,1.500000X2.000000*%
%ADD25R,3.800000X2.000000*%
%ADD26R,1.350000X1.350000*%
%ADD27O,1.350000X1.350000*%
%ADD28RotRect,1.350000X1.350000X120.000000*%
%ADD29HorizOval,1.350000X0.000000X0.000000X0.000000X0.000000X0*%
%ADD30RotRect,1.350000X1.350000X60.000000*%
%ADD31HorizOval,1.350000X0.000000X0.000000X0.000000X0.000000X0*%
%ADD32RotRect,1.350000X1.350000X300.000000*%
%ADD33HorizOval,1.350000X0.000000X0.000000X0.000000X0.000000X0*%
%ADD34RotRect,1.350000X1.350000X240.000000*%
%ADD35HorizOval,1.350000X0.000000X0.000000X0.000000X0.000000X0*%
%ADD36R,1.700000X1.700000*%
%ADD37O,1.700000X1.700000*%
%ADD38R,1.100000X1.100000*%
%ADD39C,0.985520*%
%ADD40C,0.988060*%
G04 APERTURE END LIST*
D10*
X101670000Y-96300000D03*
X100730000Y-96300000D03*
X101670000Y-99200000D03*
X100730000Y-99200000D03*
X101670000Y-98200000D03*
X100730000Y-98200000D03*
D11*
X84675000Y-87700000D03*
X83175000Y-87700000D03*
D10*
X101670000Y-103050000D03*
X100730000Y-103050000D03*
D12*
X114000000Y-114530000D03*
X114000000Y-115470000D03*
D11*
X75650000Y-95025000D03*
X74150000Y-95025000D03*
D13*
X70600000Y-91575000D03*
X70600000Y-93075000D03*
D14*
X107550000Y-113400000D03*
X107550000Y-116600000D03*
X112450000Y-116600000D03*
X112450000Y-113400000D03*
D15*
X71405000Y-97110000D03*
X71405000Y-102890000D03*
D16*
X72850000Y-96800000D03*
X72850000Y-97600000D03*
D17*
X72850000Y-98750000D03*
X72850000Y-99750000D03*
X72850000Y-100250000D03*
X72850000Y-101250000D03*
D16*
X72850000Y-97600000D03*
X72850000Y-96800000D03*
X72850000Y-103200000D03*
X72850000Y-102400000D03*
D17*
X72850000Y-101750000D03*
X72850000Y-100750000D03*
X72850000Y-99250000D03*
X72850000Y-98250000D03*
D16*
X72850000Y-102400000D03*
X72850000Y-103200000D03*
D18*
X67755000Y-104320000D03*
D19*
X71935000Y-104320000D03*
D18*
X67755000Y-95680000D03*
D19*
X71935000Y-95680000D03*
D10*
X100730000Y-95300000D03*
X101670000Y-95300000D03*
X98370000Y-100375000D03*
X97430000Y-100375000D03*
X100780000Y-94300000D03*
X101720000Y-94300000D03*
X77555000Y-96600000D03*
X78495000Y-96600000D03*
X122330000Y-105750000D03*
X123270000Y-105750000D03*
X122355000Y-104450000D03*
X123295000Y-104450000D03*
D12*
X115000000Y-114530000D03*
X115000000Y-115470000D03*
D20*
X109667660Y-118467660D03*
X110332340Y-119132340D03*
D10*
X101670000Y-103950000D03*
X100730000Y-103950000D03*
X101670000Y-97200000D03*
X100730000Y-97200000D03*
X101670000Y-100200000D03*
X100730000Y-100200000D03*
D12*
X75100000Y-98730000D03*
X75100000Y-99670000D03*
X75100000Y-101370000D03*
X75100000Y-100430000D03*
D21*
X103500000Y-91745000D03*
X103500000Y-93015000D03*
X103500000Y-94285000D03*
X103500000Y-95555000D03*
X103500000Y-96825000D03*
X103500000Y-98095000D03*
X103500000Y-99365000D03*
X103500000Y-100635000D03*
X103500000Y-101905000D03*
X103500000Y-103175000D03*
X103500000Y-104445000D03*
X103500000Y-105715000D03*
X103500000Y-106985000D03*
X103500000Y-108255000D03*
D22*
X106285000Y-109255000D03*
X107555000Y-109255000D03*
X108825000Y-109255000D03*
X110095000Y-109255000D03*
X111365000Y-109255000D03*
X112635000Y-109255000D03*
X113905000Y-109255000D03*
X115175000Y-109255000D03*
X116445000Y-109255000D03*
X117715000Y-109255000D03*
D21*
X120500000Y-108255000D03*
X120500000Y-106985000D03*
X120500000Y-105715000D03*
X120500000Y-104445000D03*
X120500000Y-103175000D03*
X120500000Y-101905000D03*
X120500000Y-100635000D03*
X120500000Y-99365000D03*
X120500000Y-98095000D03*
X120500000Y-96825000D03*
X120500000Y-95555000D03*
X120500000Y-94285000D03*
X120500000Y-93015000D03*
X120500000Y-91745000D03*
D23*
X111000000Y-99245000D03*
D21*
X95627000Y-102921000D03*
X95627000Y-101651000D03*
X95627000Y-100381000D03*
X95627000Y-99111000D03*
X95627000Y-97841000D03*
X95627000Y-96571000D03*
X95627000Y-95301000D03*
X95627000Y-94031000D03*
X95627000Y-92761000D03*
D22*
X93449500Y-90606500D03*
X92179500Y-90606500D03*
X90909500Y-90606500D03*
X89639500Y-90606500D03*
X88369500Y-90606500D03*
X87111000Y-90602000D03*
X85841000Y-90602000D03*
X84571000Y-90602000D03*
X83301000Y-90602000D03*
D21*
X80269000Y-92782500D03*
X80269000Y-94052500D03*
X80269000Y-95322500D03*
X80269000Y-96592500D03*
X80269000Y-97862500D03*
X80269000Y-99132500D03*
X80262000Y-100381000D03*
X80262000Y-101651000D03*
X80262000Y-102921000D03*
D24*
X72600000Y-93075000D03*
X74900000Y-93075000D03*
D25*
X74900000Y-86775000D03*
D24*
X77200000Y-93075000D03*
D12*
X101675000Y-92845000D03*
X101675000Y-91905000D03*
D13*
X100500000Y-93150000D03*
X100500000Y-91650000D03*
D10*
X84395000Y-88875000D03*
X83455000Y-88875000D03*
D26*
X66400000Y-112000000D03*
D27*
X66400000Y-110000000D03*
X66400000Y-108000000D03*
D26*
X66400000Y-92000000D03*
D27*
X66400000Y-90000000D03*
X66400000Y-88000000D03*
D28*
X78869873Y-73400000D03*
D29*
X80601924Y-72400000D03*
X82333975Y-71400000D03*
X84066025Y-70400000D03*
X85798076Y-69400000D03*
X87530127Y-68400000D03*
D30*
X112469873Y-68400000D03*
D31*
X114201924Y-69400000D03*
X115933975Y-70400000D03*
X117666025Y-71400000D03*
X119398076Y-72400000D03*
X121130127Y-73400000D03*
D26*
X133600000Y-95000000D03*
D27*
X133600000Y-97000000D03*
X133600000Y-99000000D03*
X133600000Y-101000000D03*
X133600000Y-103000000D03*
X133600000Y-105000000D03*
D32*
X121130127Y-126600000D03*
D33*
X119398076Y-127600000D03*
X117666025Y-128600000D03*
X115933975Y-129600000D03*
X114201924Y-130600000D03*
X112469873Y-131600000D03*
D34*
X87530127Y-131600000D03*
D35*
X85798076Y-130600000D03*
X84066025Y-129600000D03*
X82333975Y-128600000D03*
X80601924Y-127600000D03*
X78869873Y-126600000D03*
D36*
X103810000Y-76000000D03*
D37*
X101270000Y-76000000D03*
X98730000Y-76000000D03*
X96190000Y-76000000D03*
D36*
X96190000Y-125000000D03*
D37*
X98730000Y-125000000D03*
X101270000Y-125000000D03*
X103810000Y-125000000D03*
D10*
X101670000Y-102100000D03*
X100730000Y-102100000D03*
X101670000Y-101150000D03*
X100730000Y-101150000D03*
X97030000Y-123000000D03*
X97970000Y-123000000D03*
X97030000Y-122000000D03*
X97970000Y-122000000D03*
D38*
X112380000Y-118817500D03*
X112380000Y-121617500D03*
D36*
X123900000Y-91800000D03*
D37*
X123900000Y-94340000D03*
X123900000Y-96880000D03*
X123900000Y-99420000D03*
X123900000Y-101960000D03*
D36*
X85575000Y-85000000D03*
D37*
X88115000Y-85000000D03*
X90655000Y-85000000D03*
X93195000Y-85000000D03*
X95735000Y-85000000D03*
D39*
X126734000Y-94785000D03*
X128766000Y-94785000D03*
D40*
X127750000Y-99865000D03*
D39*
X88410000Y-82216000D03*
D40*
X93490000Y-81200000D03*
D39*
X88410000Y-80184000D03*
M02*
