G04 #@! TF.GenerationSoftware,KiCad,Pcbnew,5.1.5+dfsg1-2build2*
G04 #@! TF.CreationDate,2021-12-29T18:43:51+01:00*
G04 #@! TF.ProjectId,hex_top,6865785f-746f-4702-9e6b-696361645f70,rev?*
G04 #@! TF.SameCoordinates,Original*
G04 #@! TF.FileFunction,Paste,Bot*
G04 #@! TF.FilePolarity,Positive*
%FSLAX46Y46*%
G04 Gerber Fmt 4.6, Leading zero omitted, Abs format (unit mm)*
G04 Created by KiCad (PCBNEW 5.1.5+dfsg1-2build2) date 2021-12-29 18:43:51*
%MOMM*%
%LPD*%
G04 APERTURE LIST*
%ADD10C,0.100000*%
%ADD11R,1.500000X3.000000*%
G04 APERTURE END LIST*
D10*
G36*
X87697615Y-68131643D02*
G01*
X90295691Y-66631643D01*
X91045691Y-67930681D01*
X88447615Y-69430681D01*
X87697615Y-68131643D01*
G37*
G36*
X69268593Y-78771643D02*
G01*
X71866669Y-77271643D01*
X72616669Y-78570681D01*
X70018593Y-80070681D01*
X69268593Y-78771643D01*
G37*
G36*
X121447615Y-73411643D02*
G01*
X124045691Y-74911643D01*
X123295691Y-76210681D01*
X120697615Y-74710681D01*
X121447615Y-73411643D01*
G37*
G36*
X103018593Y-62771643D02*
G01*
X105616669Y-64271643D01*
X104866669Y-65570681D01*
X102268593Y-64070681D01*
X103018593Y-62771643D01*
G37*
D11*
X133000000Y-106780000D03*
X133000000Y-85500000D03*
D10*
G36*
X112302385Y-131868357D02*
G01*
X109704309Y-133368357D01*
X108954309Y-132069319D01*
X111552385Y-130569319D01*
X112302385Y-131868357D01*
G37*
G36*
X130731407Y-121228357D02*
G01*
X128133331Y-122728357D01*
X127383331Y-121429319D01*
X129981407Y-119929319D01*
X130731407Y-121228357D01*
G37*
G36*
X78552385Y-126588357D02*
G01*
X75954309Y-125088357D01*
X76704309Y-123789319D01*
X79302385Y-125289319D01*
X78552385Y-126588357D01*
G37*
G36*
X96981407Y-137228357D02*
G01*
X94383331Y-135728357D01*
X95133331Y-134429319D01*
X97731407Y-135929319D01*
X96981407Y-137228357D01*
G37*
D11*
X67000000Y-93220000D03*
X67000000Y-114500000D03*
M02*
