G04 #@! TF.GenerationSoftware,KiCad,Pcbnew,5.1.5+dfsg1-2build2*
G04 #@! TF.CreationDate,2021-12-29T18:43:09+01:00*
G04 #@! TF.ProjectId,wall,77616c6c-2e6b-4696-9361-645f70636258,rev?*
G04 #@! TF.SameCoordinates,Original*
G04 #@! TF.FileFunction,Profile,NP*
%FSLAX46Y46*%
G04 Gerber Fmt 4.6, Leading zero omitted, Abs format (unit mm)*
G04 Created by KiCad (PCBNEW 5.1.5+dfsg1-2build2) date 2021-12-29 18:43:09*
%MOMM*%
%LPD*%
G04 APERTURE LIST*
%ADD10C,0.150000*%
%ADD11C,0.100000*%
G04 APERTURE END LIST*
D10*
X137017767Y-166250000D02*
G75*
G03X137017767Y-166250000I-1767767J0D01*
G01*
X109070027Y-168250000D02*
G75*
G03X109070027Y-168250000I-1820027J0D01*
G01*
X110457738Y-113250000D02*
G75*
G03X110457738Y-113250000I-1457738J0D01*
G01*
X136015564Y-138500000D02*
G75*
G03X136015564Y-138500000I-2015564J0D01*
G01*
X109000000Y-140250000D02*
G75*
G03X109000000Y-140250000I-3000000J0D01*
G01*
X137319705Y-29500000D02*
G75*
G03X137319705Y-29500000I-4069705J0D01*
G01*
X108000000Y-25000000D02*
G75*
G03X108000000Y-25000000I-3000000J0D01*
G01*
X107750000Y-59750000D02*
G75*
G03X107750000Y-59750000I-3000000J0D01*
G01*
X109750000Y-83750000D02*
G75*
G03X109750000Y-83750000I-2000000J0D01*
G01*
X136926175Y-58750000D02*
G75*
G03X136926175Y-58750000I-2926175J0D01*
G01*
X131750000Y-86750000D02*
G75*
G03X131750000Y-86750000I-2500000J0D01*
G01*
X133331139Y-108250000D02*
G75*
G03X133331139Y-108250000I-1581139J0D01*
G01*
X113180011Y-154000000D02*
G75*
G03X113180011Y-154000000I-4430011J0D01*
G01*
X125153882Y-168000000D02*
G75*
G03X125153882Y-168000000I-5153882J0D01*
G01*
X138568641Y-154000000D02*
G75*
G03X138568641Y-154000000I-7318641J0D01*
G01*
X126670832Y-140000000D02*
G75*
G03X126670832Y-140000000I-6670832J0D01*
G01*
X115860731Y-126000000D02*
G75*
G03X115860731Y-126000000I-7110731J0D01*
G01*
X138223163Y-126000000D02*
G75*
G03X138223163Y-126000000I-6973163J0D01*
G01*
X116287407Y-42000000D02*
G75*
G03X116287407Y-42000000I-7537407J0D01*
G01*
X124828302Y-28000000D02*
G75*
G03X124828302Y-28000000I-4828302J0D01*
G01*
X135281129Y-42000000D02*
G75*
G03X135281129Y-42000000I-4031129J0D01*
G01*
X125505679Y-56000000D02*
G75*
G03X125505679Y-56000000I-5505679J0D01*
G01*
X113007347Y-70000000D02*
G75*
G03X113007347Y-70000000I-4257347J0D01*
G01*
X134758324Y-70000000D02*
G75*
G03X134758324Y-70000000I-3758324J0D01*
G01*
X122535534Y-80500000D02*
G75*
G03X122535534Y-80500000I-3535534J0D01*
G01*
X116068641Y-98000000D02*
G75*
G03X116068641Y-98000000I-7318641J0D01*
G01*
X135250000Y-98000000D02*
G75*
G03X135250000Y-98000000I-4000000J0D01*
G01*
X123000000Y-112000000D02*
G75*
G03X123000000Y-112000000I-3000000J0D01*
G01*
D11*
X140000000Y-20000000D02*
X100000000Y-19999999D01*
X140000000Y-200000000D02*
X140000000Y-20000000D01*
X100000000Y-200000000D02*
X140000000Y-200000000D01*
X100000000Y-19999999D02*
X100000000Y-200000000D01*
M02*
