G04 #@! TF.GenerationSoftware,KiCad,Pcbnew,5.1.5+dfsg1-2build2*
G04 #@! TF.CreationDate,2021-12-29T18:43:08+01:00*
G04 #@! TF.ProjectId,wall,77616c6c-2e6b-4696-9361-645f70636258,rev?*
G04 #@! TF.SameCoordinates,Original*
G04 #@! TF.FileFunction,Copper,L1,Top*
G04 #@! TF.FilePolarity,Positive*
%FSLAX46Y46*%
G04 Gerber Fmt 4.6, Leading zero omitted, Abs format (unit mm)*
G04 Created by KiCad (PCBNEW 5.1.5+dfsg1-2build2) date 2021-12-29 18:43:08*
%MOMM*%
%LPD*%
G04 APERTURE LIST*
%ADD10C,0.800000*%
%ADD11C,0.127000*%
G04 APERTURE END LIST*
D10*
X119000000Y-181500000D03*
X117000000Y-181500000D03*
X129500000Y-166000000D03*
X112000000Y-162500000D03*
X105000000Y-161500000D03*
X120000000Y-159500000D03*
X119500000Y-153500000D03*
X110000000Y-146000000D03*
X129000000Y-143500000D03*
X119500000Y-130000000D03*
X119000000Y-124500000D03*
X120000000Y-117000000D03*
X127500000Y-118000000D03*
X129000000Y-114000000D03*
X136000000Y-117500000D03*
X136500000Y-115000000D03*
X137500000Y-106000000D03*
X127500000Y-109000000D03*
X126500000Y-105500000D03*
X115500000Y-107000000D03*
X104000000Y-110500000D03*
X105000000Y-107500000D03*
X113500000Y-117000000D03*
X113500000Y-111500000D03*
X104000000Y-116000000D03*
X122500000Y-100500000D03*
X119500000Y-94500000D03*
X121500000Y-88000000D03*
X113000000Y-87000000D03*
X103500000Y-77500000D03*
X112500000Y-77500000D03*
X122000000Y-74000000D03*
X116500000Y-68500000D03*
X124000000Y-67000000D03*
X126000000Y-62500000D03*
X110500000Y-62500000D03*
X111500000Y-54500000D03*
X104000000Y-54000000D03*
X123500000Y-46500000D03*
X128000000Y-53000000D03*
X136000000Y-52500000D03*
X137000000Y-63000000D03*
X135000000Y-83000000D03*
X126500000Y-83000000D03*
X126000000Y-36500000D03*
X119500000Y-42500000D03*
X111500000Y-28500000D03*
D11*
G36*
X139686501Y-20313500D02*
G01*
X139686500Y-199686500D01*
X100313500Y-199686500D01*
X100313500Y-168036467D01*
X105081963Y-168036467D01*
X105081963Y-168463533D01*
X105165280Y-168882393D01*
X105328711Y-169276951D01*
X105565976Y-169632043D01*
X105867957Y-169934024D01*
X106223049Y-170171289D01*
X106617607Y-170334720D01*
X107036467Y-170418037D01*
X107463533Y-170418037D01*
X107882393Y-170334720D01*
X108276951Y-170171289D01*
X108632043Y-169934024D01*
X108934024Y-169632043D01*
X109171289Y-169276951D01*
X109334720Y-168882393D01*
X109418037Y-168463533D01*
X109418037Y-168036467D01*
X109334720Y-167617607D01*
X109294110Y-167519564D01*
X114508594Y-167519564D01*
X114508594Y-168480436D01*
X114675448Y-169426709D01*
X115004085Y-170329633D01*
X115484521Y-171161772D01*
X116102157Y-171897843D01*
X116838228Y-172515479D01*
X117670367Y-172995915D01*
X118573291Y-173324552D01*
X119519564Y-173491406D01*
X120480436Y-173491406D01*
X121426709Y-173324552D01*
X122329633Y-172995915D01*
X123161772Y-172515479D01*
X123897843Y-171897843D01*
X124515479Y-171161772D01*
X124995915Y-170329633D01*
X125324552Y-169426709D01*
X125491406Y-168480436D01*
X125491406Y-167519564D01*
X125324552Y-166573291D01*
X125131029Y-166041589D01*
X133133972Y-166041589D01*
X133133972Y-166458411D01*
X133215289Y-166867223D01*
X133374800Y-167252315D01*
X133606373Y-167598890D01*
X133901110Y-167893627D01*
X134247685Y-168125200D01*
X134632777Y-168284711D01*
X135041589Y-168366028D01*
X135458411Y-168366028D01*
X135867223Y-168284711D01*
X136252315Y-168125200D01*
X136598890Y-167893627D01*
X136893627Y-167598890D01*
X137125200Y-167252315D01*
X137284711Y-166867223D01*
X137366028Y-166458411D01*
X137366028Y-166041589D01*
X137284711Y-165632777D01*
X137125200Y-165247685D01*
X136893627Y-164901110D01*
X136598890Y-164606373D01*
X136252315Y-164374800D01*
X135867223Y-164215289D01*
X135458411Y-164133972D01*
X135041589Y-164133972D01*
X134632777Y-164215289D01*
X134247685Y-164374800D01*
X133901110Y-164606373D01*
X133606373Y-164901110D01*
X133374800Y-165247685D01*
X133215289Y-165632777D01*
X133133972Y-166041589D01*
X125131029Y-166041589D01*
X124995915Y-165670367D01*
X124515479Y-164838228D01*
X123897843Y-164102157D01*
X123161772Y-163484521D01*
X122329633Y-163004085D01*
X121426709Y-162675448D01*
X120480436Y-162508594D01*
X119519564Y-162508594D01*
X118573291Y-162675448D01*
X117670367Y-163004085D01*
X116838228Y-163484521D01*
X116102157Y-164102157D01*
X115484521Y-164838228D01*
X115004085Y-165670367D01*
X114675448Y-166573291D01*
X114508594Y-167519564D01*
X109294110Y-167519564D01*
X109171289Y-167223049D01*
X108934024Y-166867957D01*
X108632043Y-166565976D01*
X108276951Y-166328711D01*
X107882393Y-166165280D01*
X107463533Y-166081963D01*
X107036467Y-166081963D01*
X106617607Y-166165280D01*
X106223049Y-166328711D01*
X105867957Y-166565976D01*
X105565976Y-166867957D01*
X105328711Y-167223049D01*
X105165280Y-167617607D01*
X105081963Y-168036467D01*
X100313500Y-168036467D01*
X100313500Y-154000000D01*
X103961489Y-154000000D01*
X104048024Y-154906232D01*
X104304500Y-155779710D01*
X104721648Y-156588865D01*
X105284392Y-157304451D01*
X105972391Y-157900606D01*
X106760781Y-158355783D01*
X107621066Y-158653530D01*
X108522153Y-158783087D01*
X109431476Y-158739771D01*
X110316169Y-158525147D01*
X111144256Y-158146972D01*
X111885808Y-157618915D01*
X112514024Y-156960061D01*
X113006198Y-156194223D01*
X113344543Y-155349079D01*
X113516828Y-154455177D01*
X113516828Y-153544823D01*
X113493983Y-153426287D01*
X123594326Y-153426287D01*
X123594326Y-154573713D01*
X123765341Y-155708325D01*
X124103551Y-156804775D01*
X124601401Y-157838570D01*
X125247769Y-158786619D01*
X126028218Y-159627743D01*
X126925312Y-160343152D01*
X127919013Y-160916865D01*
X128987123Y-161336067D01*
X130105782Y-161591394D01*
X131250000Y-161677141D01*
X132394218Y-161591394D01*
X133512877Y-161336067D01*
X134580987Y-160916865D01*
X135574688Y-160343152D01*
X136471782Y-159627743D01*
X137252231Y-158786619D01*
X137898599Y-157838571D01*
X138396449Y-156804775D01*
X138734659Y-155708325D01*
X138905674Y-154573713D01*
X138905674Y-153426287D01*
X138734659Y-152291675D01*
X138396449Y-151195225D01*
X137898599Y-150161430D01*
X137252231Y-149213381D01*
X136471782Y-148372257D01*
X135574688Y-147656848D01*
X134580987Y-147083135D01*
X133512877Y-146663933D01*
X132394218Y-146408606D01*
X131250000Y-146322859D01*
X130105782Y-146408606D01*
X128987123Y-146663933D01*
X127919013Y-147083135D01*
X126925312Y-147656848D01*
X126028218Y-148372257D01*
X125247769Y-149213381D01*
X124601401Y-150161430D01*
X124103551Y-151195225D01*
X123765341Y-152291675D01*
X123594326Y-153426287D01*
X113493983Y-153426287D01*
X113344543Y-152650921D01*
X113006198Y-151805777D01*
X112514024Y-151039939D01*
X111885808Y-150381085D01*
X111144256Y-149853028D01*
X110316169Y-149474853D01*
X109431476Y-149260229D01*
X108522153Y-149216913D01*
X107621066Y-149346470D01*
X106760781Y-149644217D01*
X105972391Y-150099394D01*
X105284392Y-150695549D01*
X104721648Y-151411135D01*
X104304500Y-152220290D01*
X104048024Y-153093768D01*
X103961489Y-154000000D01*
X100313500Y-154000000D01*
X100313500Y-139920809D01*
X102657672Y-139920809D01*
X102657672Y-140579191D01*
X102786116Y-141224921D01*
X103038067Y-141833186D01*
X103403844Y-142380610D01*
X103869390Y-142846156D01*
X104416814Y-143211933D01*
X105025079Y-143463884D01*
X105670809Y-143592328D01*
X106329191Y-143592328D01*
X106974921Y-143463884D01*
X107583186Y-143211933D01*
X108130610Y-142846156D01*
X108596156Y-142380610D01*
X108961933Y-141833186D01*
X109213884Y-141224921D01*
X109342328Y-140579191D01*
X109342328Y-140000000D01*
X112970668Y-140000000D01*
X113053049Y-141073022D01*
X113298260Y-142120894D01*
X113700555Y-143119054D01*
X114250503Y-144044106D01*
X114935215Y-144874367D01*
X115738640Y-145590378D01*
X116641949Y-146175354D01*
X117623967Y-146615586D01*
X118661678Y-146900754D01*
X119730757Y-147024174D01*
X120806148Y-146982953D01*
X121862643Y-146778058D01*
X122875479Y-146414291D01*
X123820917Y-145900178D01*
X124676795Y-145247770D01*
X125423054Y-144472359D01*
X126042200Y-143592120D01*
X126519723Y-142627684D01*
X126844428Y-141601658D01*
X127008707Y-140538090D01*
X127008707Y-139461910D01*
X126844428Y-138398342D01*
X126802958Y-138267301D01*
X131637368Y-138267301D01*
X131637368Y-138732699D01*
X131728162Y-139189154D01*
X131906262Y-139619126D01*
X132164824Y-140006090D01*
X132493910Y-140335176D01*
X132880874Y-140593738D01*
X133310846Y-140771838D01*
X133767301Y-140862632D01*
X134232699Y-140862632D01*
X134689154Y-140771838D01*
X135119126Y-140593738D01*
X135506090Y-140335176D01*
X135835176Y-140006090D01*
X136093738Y-139619126D01*
X136271838Y-139189154D01*
X136362632Y-138732699D01*
X136362632Y-138267301D01*
X136271838Y-137810846D01*
X136093738Y-137380874D01*
X135835176Y-136993910D01*
X135506090Y-136664824D01*
X135119126Y-136406262D01*
X134689154Y-136228162D01*
X134232699Y-136137368D01*
X133767301Y-136137368D01*
X133310846Y-136228162D01*
X132880874Y-136406262D01*
X132493910Y-136664824D01*
X132164824Y-136993910D01*
X131906262Y-137380874D01*
X131728162Y-137810846D01*
X131637368Y-138267301D01*
X126802958Y-138267301D01*
X126519723Y-137372316D01*
X126042200Y-136407880D01*
X125423054Y-135527641D01*
X124676795Y-134752230D01*
X123820917Y-134099822D01*
X122875479Y-133585709D01*
X121862643Y-133221942D01*
X120806148Y-133017047D01*
X119730757Y-132975826D01*
X118661678Y-133099246D01*
X117623967Y-133384414D01*
X116641949Y-133824646D01*
X115738640Y-134409622D01*
X114935215Y-135125633D01*
X114250503Y-135955894D01*
X113700555Y-136880946D01*
X113298260Y-137879106D01*
X113053049Y-138926978D01*
X112970668Y-140000000D01*
X109342328Y-140000000D01*
X109342328Y-139920809D01*
X109213884Y-139275079D01*
X108961933Y-138666814D01*
X108596156Y-138119390D01*
X108130610Y-137653844D01*
X107583186Y-137288067D01*
X106974921Y-137036116D01*
X106329191Y-136907672D01*
X105670809Y-136907672D01*
X105025079Y-137036116D01*
X104416814Y-137288067D01*
X103869390Y-137653844D01*
X103403844Y-138119390D01*
X103038067Y-138666814D01*
X102786116Y-139275079D01*
X102657672Y-139920809D01*
X100313500Y-139920809D01*
X100313500Y-125441824D01*
X101301654Y-125441824D01*
X101301654Y-126558176D01*
X101468038Y-127662060D01*
X101797089Y-128728817D01*
X102281456Y-129734615D01*
X102910320Y-130656989D01*
X103669633Y-131475334D01*
X104542432Y-132171368D01*
X105509222Y-132729545D01*
X106548406Y-133137394D01*
X107636769Y-133385806D01*
X108750000Y-133469231D01*
X109863231Y-133385806D01*
X110951594Y-133137394D01*
X111990778Y-132729545D01*
X112957568Y-132171368D01*
X113830367Y-131475334D01*
X114589680Y-130656989D01*
X115218544Y-129734616D01*
X115702911Y-128728817D01*
X116031962Y-127662060D01*
X116198346Y-126558176D01*
X116198346Y-126000000D01*
X123918337Y-126000000D01*
X124004261Y-127119173D01*
X124260019Y-128212114D01*
X124679616Y-129253204D01*
X125253218Y-130218043D01*
X125967378Y-131084013D01*
X126805360Y-131830819D01*
X127747519Y-132440956D01*
X128771774Y-132900122D01*
X129854117Y-133197555D01*
X130969177Y-133326283D01*
X132090820Y-133283289D01*
X133192755Y-133069582D01*
X134249153Y-132690169D01*
X135235254Y-132153944D01*
X136127944Y-131473477D01*
X136906299Y-130664715D01*
X137552075Y-129746617D01*
X138050135Y-128740701D01*
X138388807Y-127670545D01*
X138560150Y-126561233D01*
X138560150Y-125438767D01*
X138388807Y-124329455D01*
X138050135Y-123259299D01*
X137552075Y-122253383D01*
X136906299Y-121335285D01*
X136127944Y-120526523D01*
X135235254Y-119846056D01*
X134249153Y-119309831D01*
X133192755Y-118930418D01*
X132090820Y-118716711D01*
X130969177Y-118673717D01*
X129854117Y-118802445D01*
X128771774Y-119099878D01*
X127747519Y-119559044D01*
X126805360Y-120169181D01*
X125967378Y-120915987D01*
X125253218Y-121781957D01*
X124679616Y-122746796D01*
X124260019Y-123787886D01*
X124004261Y-124880827D01*
X123918337Y-126000000D01*
X116198346Y-126000000D01*
X116198346Y-125441824D01*
X116031962Y-124337940D01*
X115702911Y-123271183D01*
X115218544Y-122265385D01*
X114589680Y-121343011D01*
X113830367Y-120524666D01*
X112957568Y-119828632D01*
X111990778Y-119270455D01*
X110951594Y-118862606D01*
X109863231Y-118614194D01*
X108750000Y-118530769D01*
X107636769Y-118614194D01*
X106548406Y-118862606D01*
X105509222Y-119270455D01*
X104542432Y-119828632D01*
X103669633Y-120524666D01*
X102910320Y-121343011D01*
X102281456Y-122265385D01*
X101797089Y-123271183D01*
X101468038Y-124337940D01*
X101301654Y-125441824D01*
X100313500Y-125441824D01*
X100313500Y-113071978D01*
X107192508Y-113071978D01*
X107192508Y-113428022D01*
X107261969Y-113777226D01*
X107398221Y-114106169D01*
X107596029Y-114402209D01*
X107847791Y-114653971D01*
X108143831Y-114851779D01*
X108472774Y-114988031D01*
X108821978Y-115057492D01*
X109178022Y-115057492D01*
X109527226Y-114988031D01*
X109856169Y-114851779D01*
X110152209Y-114653971D01*
X110403971Y-114402209D01*
X110601779Y-114106169D01*
X110738031Y-113777226D01*
X110807492Y-113428022D01*
X110807492Y-113071978D01*
X110738031Y-112722774D01*
X110601779Y-112393831D01*
X110403971Y-112097791D01*
X110152209Y-111846029D01*
X109889975Y-111670809D01*
X116657672Y-111670809D01*
X116657672Y-112329191D01*
X116786116Y-112974921D01*
X117038067Y-113583186D01*
X117403844Y-114130610D01*
X117869390Y-114596156D01*
X118416814Y-114961933D01*
X119025079Y-115213884D01*
X119670809Y-115342328D01*
X120329191Y-115342328D01*
X120974921Y-115213884D01*
X121583186Y-114961933D01*
X122130610Y-114596156D01*
X122596156Y-114130610D01*
X122961933Y-113583186D01*
X123213884Y-112974921D01*
X123342328Y-112329191D01*
X123342328Y-111670809D01*
X123213884Y-111025079D01*
X122961933Y-110416814D01*
X122596156Y-109869390D01*
X122130610Y-109403844D01*
X121583186Y-109038067D01*
X120974921Y-108786116D01*
X120329191Y-108657672D01*
X119670809Y-108657672D01*
X119025079Y-108786116D01*
X118416814Y-109038067D01*
X117869390Y-109403844D01*
X117403844Y-109869390D01*
X117038067Y-110416814D01*
X116786116Y-111025079D01*
X116657672Y-111670809D01*
X109889975Y-111670809D01*
X109856169Y-111648221D01*
X109527226Y-111511969D01*
X109178022Y-111442508D01*
X108821978Y-111442508D01*
X108472774Y-111511969D01*
X108143831Y-111648221D01*
X107847791Y-111846029D01*
X107596029Y-112097791D01*
X107398221Y-112393831D01*
X107261969Y-112722774D01*
X107192508Y-113071978D01*
X100313500Y-113071978D01*
X100313500Y-108059882D01*
X129819701Y-108059882D01*
X129819701Y-108440118D01*
X129893881Y-108813047D01*
X130039391Y-109164339D01*
X130250639Y-109480494D01*
X130519506Y-109749361D01*
X130835661Y-109960609D01*
X131186953Y-110106119D01*
X131559882Y-110180299D01*
X131940118Y-110180299D01*
X132313047Y-110106119D01*
X132664339Y-109960609D01*
X132980494Y-109749361D01*
X133249361Y-109480494D01*
X133460609Y-109164339D01*
X133606119Y-108813047D01*
X133680299Y-108440118D01*
X133680299Y-108059882D01*
X133606119Y-107686953D01*
X133460609Y-107335661D01*
X133249361Y-107019506D01*
X132980494Y-106750639D01*
X132664339Y-106539391D01*
X132313047Y-106393881D01*
X131940118Y-106319701D01*
X131559882Y-106319701D01*
X131186953Y-106393881D01*
X130835661Y-106539391D01*
X130519506Y-106750639D01*
X130250639Y-107019506D01*
X130039391Y-107335661D01*
X129893881Y-107686953D01*
X129819701Y-108059882D01*
X100313500Y-108059882D01*
X100313500Y-97426287D01*
X101094326Y-97426287D01*
X101094326Y-98573713D01*
X101265341Y-99708325D01*
X101603551Y-100804775D01*
X102101401Y-101838570D01*
X102747769Y-102786619D01*
X103528218Y-103627743D01*
X104425312Y-104343152D01*
X105419013Y-104916865D01*
X106487123Y-105336067D01*
X107605782Y-105591394D01*
X108750000Y-105677141D01*
X109894218Y-105591394D01*
X111012877Y-105336067D01*
X112080987Y-104916865D01*
X113074688Y-104343152D01*
X113971782Y-103627743D01*
X114752231Y-102786619D01*
X115398599Y-101838571D01*
X115896449Y-100804775D01*
X116234659Y-99708325D01*
X116405674Y-98573713D01*
X116405674Y-97572792D01*
X126912487Y-97572792D01*
X126912487Y-98427208D01*
X127079176Y-99265206D01*
X127406146Y-100054583D01*
X127880834Y-100765003D01*
X128484997Y-101369166D01*
X129195417Y-101843854D01*
X129984794Y-102170824D01*
X130822792Y-102337513D01*
X131677208Y-102337513D01*
X132515206Y-102170824D01*
X133304583Y-101843854D01*
X134015003Y-101369166D01*
X134619166Y-100765003D01*
X135093854Y-100054583D01*
X135420824Y-99265206D01*
X135587513Y-98427208D01*
X135587513Y-97572792D01*
X135420824Y-96734794D01*
X135093854Y-95945417D01*
X134619166Y-95234997D01*
X134015003Y-94630834D01*
X133304583Y-94156146D01*
X132515206Y-93829176D01*
X131677208Y-93662487D01*
X130822792Y-93662487D01*
X129984794Y-93829176D01*
X129195417Y-94156146D01*
X128484997Y-94630834D01*
X127880834Y-95234997D01*
X127406146Y-95945417D01*
X127079176Y-96734794D01*
X126912487Y-97572792D01*
X116405674Y-97572792D01*
X116405674Y-97426287D01*
X116234659Y-96291675D01*
X115896449Y-95195225D01*
X115398599Y-94161430D01*
X114752231Y-93213381D01*
X113971782Y-92372257D01*
X113074688Y-91656848D01*
X112080987Y-91083135D01*
X111012877Y-90663933D01*
X109894218Y-90408606D01*
X108750000Y-90322859D01*
X107605782Y-90408606D01*
X106487123Y-90663933D01*
X105419013Y-91083135D01*
X104425312Y-91656848D01*
X103528218Y-92372257D01*
X102747769Y-93213381D01*
X102101401Y-94161430D01*
X101603551Y-95195225D01*
X101265341Y-96291675D01*
X101094326Y-97426287D01*
X100313500Y-97426287D01*
X100313500Y-86469818D01*
X126405264Y-86469818D01*
X126405264Y-87030182D01*
X126514586Y-87579779D01*
X126729028Y-88097488D01*
X127040350Y-88563413D01*
X127436587Y-88959650D01*
X127902512Y-89270972D01*
X128420221Y-89485414D01*
X128969818Y-89594736D01*
X129530182Y-89594736D01*
X130079779Y-89485414D01*
X130597488Y-89270972D01*
X131063413Y-88959650D01*
X131459650Y-88563413D01*
X131770972Y-88097488D01*
X131985414Y-87579779D01*
X132094736Y-87030182D01*
X132094736Y-86469818D01*
X131985414Y-85920221D01*
X131770972Y-85402512D01*
X131459650Y-84936587D01*
X131063413Y-84540350D01*
X130597488Y-84229028D01*
X130079779Y-84014586D01*
X129530182Y-83905264D01*
X128969818Y-83905264D01*
X128420221Y-84014586D01*
X127902512Y-84229028D01*
X127436587Y-84540350D01*
X127040350Y-84936587D01*
X126729028Y-85402512D01*
X126514586Y-85920221D01*
X126405264Y-86469818D01*
X100313500Y-86469818D01*
X100313500Y-83518827D01*
X105402857Y-83518827D01*
X105402857Y-83981173D01*
X105493056Y-84434636D01*
X105669989Y-84861789D01*
X105926855Y-85246217D01*
X106253783Y-85573145D01*
X106638211Y-85830011D01*
X107065364Y-86006944D01*
X107518827Y-86097143D01*
X107981173Y-86097143D01*
X108434636Y-86006944D01*
X108861789Y-85830011D01*
X109246217Y-85573145D01*
X109573145Y-85246217D01*
X109830011Y-84861789D01*
X110006944Y-84434636D01*
X110097143Y-83981173D01*
X110097143Y-83518827D01*
X110006944Y-83065364D01*
X109830011Y-82638211D01*
X109573145Y-82253783D01*
X109246217Y-81926855D01*
X108861789Y-81669989D01*
X108434636Y-81493056D01*
X107981173Y-81402857D01*
X107518827Y-81402857D01*
X107065364Y-81493056D01*
X106638211Y-81669989D01*
X106253783Y-81926855D01*
X105926855Y-82253783D01*
X105669989Y-82638211D01*
X105493056Y-83065364D01*
X105402857Y-83518827D01*
X100313500Y-83518827D01*
X100313500Y-80118318D01*
X115124717Y-80118318D01*
X115124717Y-80881682D01*
X115273642Y-81630378D01*
X115565769Y-82335635D01*
X115989871Y-82970349D01*
X116529651Y-83510129D01*
X117164365Y-83934231D01*
X117869622Y-84226358D01*
X118618318Y-84375283D01*
X119381682Y-84375283D01*
X120130378Y-84226358D01*
X120835635Y-83934231D01*
X121470349Y-83510129D01*
X122010129Y-82970349D01*
X122434231Y-82335635D01*
X122726358Y-81630378D01*
X122875283Y-80881682D01*
X122875283Y-80118318D01*
X122726358Y-79369622D01*
X122434231Y-78664365D01*
X122010129Y-78029651D01*
X121470349Y-77489871D01*
X120835635Y-77065769D01*
X120130378Y-76773642D01*
X119381682Y-76624717D01*
X118618318Y-76624717D01*
X117869622Y-76773642D01*
X117164365Y-77065769D01*
X116529651Y-77489871D01*
X115989871Y-78029651D01*
X115565769Y-78664365D01*
X115273642Y-79369622D01*
X115124717Y-80118318D01*
X100313500Y-80118318D01*
X100313500Y-69547568D01*
X104156380Y-69547568D01*
X104156380Y-70452432D01*
X104332910Y-71339910D01*
X104679186Y-72175895D01*
X105181902Y-72928262D01*
X105821738Y-73568098D01*
X106574105Y-74070814D01*
X107410090Y-74417090D01*
X108297568Y-74593620D01*
X109202432Y-74593620D01*
X110089910Y-74417090D01*
X110925895Y-74070814D01*
X111678262Y-73568098D01*
X112318098Y-72928262D01*
X112820814Y-72175895D01*
X113167090Y-71339910D01*
X113343620Y-70452432D01*
X113343620Y-69596481D01*
X126903000Y-69596481D01*
X126903000Y-70403519D01*
X127060445Y-71195051D01*
X127369285Y-71940657D01*
X127817652Y-72611685D01*
X128388315Y-73182348D01*
X129059343Y-73630715D01*
X129804949Y-73939555D01*
X130596481Y-74097000D01*
X131403519Y-74097000D01*
X132195051Y-73939555D01*
X132940657Y-73630715D01*
X133611685Y-73182348D01*
X134182348Y-72611685D01*
X134630715Y-71940657D01*
X134939555Y-71195051D01*
X135097000Y-70403519D01*
X135097000Y-69596481D01*
X134939555Y-68804949D01*
X134630715Y-68059343D01*
X134182348Y-67388315D01*
X133611685Y-66817652D01*
X132940657Y-66369285D01*
X132195051Y-66060445D01*
X131403519Y-65903000D01*
X130596481Y-65903000D01*
X129804949Y-66060445D01*
X129059343Y-66369285D01*
X128388315Y-66817652D01*
X127817652Y-67388315D01*
X127369285Y-68059343D01*
X127060445Y-68804949D01*
X126903000Y-69596481D01*
X113343620Y-69596481D01*
X113343620Y-69547568D01*
X113167090Y-68660090D01*
X112820814Y-67824105D01*
X112318098Y-67071738D01*
X111678262Y-66431902D01*
X110925895Y-65929186D01*
X110089910Y-65582910D01*
X109202432Y-65406380D01*
X108297568Y-65406380D01*
X107410090Y-65582910D01*
X106574105Y-65929186D01*
X105821738Y-66431902D01*
X105181902Y-67071738D01*
X104679186Y-67824105D01*
X104332910Y-68660090D01*
X104156380Y-69547568D01*
X100313500Y-69547568D01*
X100313500Y-59420809D01*
X101407672Y-59420809D01*
X101407672Y-60079191D01*
X101536116Y-60724921D01*
X101788067Y-61333186D01*
X102153844Y-61880610D01*
X102619390Y-62346156D01*
X103166814Y-62711933D01*
X103775079Y-62963884D01*
X104420809Y-63092328D01*
X105079191Y-63092328D01*
X105724921Y-62963884D01*
X106333186Y-62711933D01*
X106880610Y-62346156D01*
X107346156Y-61880610D01*
X107711933Y-61333186D01*
X107963884Y-60724921D01*
X108092328Y-60079191D01*
X108092328Y-59420809D01*
X107963884Y-58775079D01*
X107711933Y-58166814D01*
X107346156Y-57619390D01*
X106880610Y-57153844D01*
X106333186Y-56788067D01*
X105724921Y-56536116D01*
X105079191Y-56407672D01*
X104420809Y-56407672D01*
X103775079Y-56536116D01*
X103166814Y-56788067D01*
X102619390Y-57153844D01*
X102153844Y-57619390D01*
X101788067Y-58166814D01*
X101536116Y-58775079D01*
X101407672Y-59420809D01*
X100313500Y-59420809D01*
X100313500Y-56000000D01*
X114135821Y-56000000D01*
X114220172Y-56991051D01*
X114470798Y-57953591D01*
X114880489Y-58859930D01*
X115437459Y-59683995D01*
X116125685Y-60402077D01*
X116925368Y-60993519D01*
X117813503Y-61441307D01*
X118764539Y-61732559D01*
X119751117Y-61858895D01*
X120744855Y-61816682D01*
X121717165Y-61607133D01*
X122640075Y-61236277D01*
X123487035Y-60714783D01*
X124233680Y-60057653D01*
X124858529Y-59283792D01*
X125336577Y-58428046D01*
X130731142Y-58428046D01*
X130731142Y-59071954D01*
X130856762Y-59703491D01*
X131103175Y-60298385D01*
X131460912Y-60833776D01*
X131916224Y-61289088D01*
X132451615Y-61646825D01*
X133046509Y-61893238D01*
X133678046Y-62018858D01*
X134321954Y-62018858D01*
X134953491Y-61893238D01*
X135548385Y-61646825D01*
X136083776Y-61289088D01*
X136539088Y-60833776D01*
X136896825Y-60298385D01*
X137143238Y-59703491D01*
X137268858Y-59071954D01*
X137268858Y-58428046D01*
X137143238Y-57796509D01*
X136896825Y-57201615D01*
X136539088Y-56666224D01*
X136083776Y-56210912D01*
X135548385Y-55853175D01*
X134953491Y-55606762D01*
X134321954Y-55481142D01*
X133678046Y-55481142D01*
X133046509Y-55606762D01*
X132451615Y-55853175D01*
X131916224Y-56210912D01*
X131460912Y-56666224D01*
X131103175Y-57201615D01*
X130856762Y-57796509D01*
X130731142Y-58428046D01*
X125336577Y-58428046D01*
X125343607Y-58415463D01*
X125674959Y-57477644D01*
X125843053Y-56497317D01*
X125843053Y-55502683D01*
X125674959Y-54522356D01*
X125343607Y-53584537D01*
X124858529Y-52716208D01*
X124233680Y-51942347D01*
X123487035Y-51285217D01*
X122640075Y-50763723D01*
X121717165Y-50392867D01*
X120744855Y-50183318D01*
X119751117Y-50141105D01*
X118764539Y-50267441D01*
X117813503Y-50558693D01*
X116925368Y-51006481D01*
X116125685Y-51597923D01*
X115437459Y-52316005D01*
X114880489Y-53140070D01*
X114470798Y-54046409D01*
X114220172Y-55008949D01*
X114135821Y-56000000D01*
X100313500Y-56000000D01*
X100313500Y-42000000D01*
X100854093Y-42000000D01*
X100938237Y-43149653D01*
X101188875Y-44274804D01*
X101600665Y-45351471D01*
X102164831Y-46356707D01*
X102869348Y-47269087D01*
X103699201Y-48069166D01*
X104636704Y-48739892D01*
X105661873Y-49266968D01*
X106752862Y-49639161D01*
X107886415Y-49848539D01*
X109038374Y-49890639D01*
X110184188Y-49764564D01*
X111299434Y-49473000D01*
X112360343Y-49022163D01*
X113344304Y-48421660D01*
X114230345Y-47684291D01*
X114999583Y-46825771D01*
X115635621Y-45864398D01*
X116124904Y-44820662D01*
X116457004Y-43716808D01*
X116624843Y-42576364D01*
X116624843Y-41569741D01*
X126881508Y-41569741D01*
X126881508Y-42430259D01*
X127049387Y-43274242D01*
X127378693Y-44069257D01*
X127856771Y-44784751D01*
X128465249Y-45393229D01*
X129180743Y-45871307D01*
X129975758Y-46200613D01*
X130819741Y-46368492D01*
X131680259Y-46368492D01*
X132524242Y-46200613D01*
X133319257Y-45871307D01*
X134034751Y-45393229D01*
X134643229Y-44784751D01*
X135121307Y-44069257D01*
X135450613Y-43274242D01*
X135618492Y-42430259D01*
X135618492Y-41569741D01*
X135450613Y-40725758D01*
X135121307Y-39930743D01*
X134643229Y-39215249D01*
X134034751Y-38606771D01*
X133319257Y-38128693D01*
X132524242Y-37799387D01*
X131680259Y-37631508D01*
X130819741Y-37631508D01*
X129975758Y-37799387D01*
X129180743Y-38128693D01*
X128465249Y-38606771D01*
X127856771Y-39215249D01*
X127378693Y-39930743D01*
X127049387Y-40725758D01*
X126881508Y-41569741D01*
X116624843Y-41569741D01*
X116624843Y-41423636D01*
X116457004Y-40283192D01*
X116124904Y-39179338D01*
X115635621Y-38135602D01*
X114999583Y-37174229D01*
X114230345Y-36315709D01*
X113344304Y-35578340D01*
X112360343Y-34977837D01*
X111299434Y-34527000D01*
X110184188Y-34235436D01*
X109038374Y-34109361D01*
X107886415Y-34151461D01*
X106752862Y-34360839D01*
X105661873Y-34733032D01*
X104636704Y-35260108D01*
X103699201Y-35930834D01*
X102869348Y-36730913D01*
X102164831Y-37643293D01*
X101600665Y-38648529D01*
X101188875Y-39725196D01*
X100938237Y-40850347D01*
X100854093Y-42000000D01*
X100313500Y-42000000D01*
X100313500Y-24670809D01*
X101657672Y-24670809D01*
X101657672Y-25329191D01*
X101786116Y-25974921D01*
X102038067Y-26583186D01*
X102403844Y-27130610D01*
X102869390Y-27596156D01*
X103416814Y-27961933D01*
X104025079Y-28213884D01*
X104670809Y-28342328D01*
X105329191Y-28342328D01*
X105974921Y-28213884D01*
X106491283Y-28000000D01*
X114813198Y-28000000D01*
X114896552Y-28926139D01*
X115143935Y-29822512D01*
X115547396Y-30660307D01*
X116093967Y-31412598D01*
X116766082Y-32055205D01*
X117542137Y-32567475D01*
X118397190Y-32932942D01*
X119303759Y-33139860D01*
X120232705Y-33181579D01*
X121154172Y-33056758D01*
X122038543Y-32769408D01*
X122857394Y-32328766D01*
X123584405Y-31748994D01*
X124196211Y-31048726D01*
X124673147Y-30250469D01*
X124999884Y-29379880D01*
X125056852Y-29065960D01*
X128843118Y-29065960D01*
X128843118Y-29934040D01*
X129012472Y-30785440D01*
X129344672Y-31587441D01*
X129826951Y-32309224D01*
X130440776Y-32923049D01*
X131162559Y-33405328D01*
X131964560Y-33737528D01*
X132815960Y-33906882D01*
X133684040Y-33906882D01*
X134535440Y-33737528D01*
X135337441Y-33405328D01*
X136059224Y-32923049D01*
X136673049Y-32309224D01*
X137155328Y-31587441D01*
X137487528Y-30785440D01*
X137656882Y-29934040D01*
X137656882Y-29065960D01*
X137487528Y-28214560D01*
X137155328Y-27412559D01*
X136673049Y-26690776D01*
X136059224Y-26076951D01*
X135337441Y-25594672D01*
X134535440Y-25262472D01*
X133684040Y-25093118D01*
X132815960Y-25093118D01*
X131964560Y-25262472D01*
X131162559Y-25594672D01*
X130440776Y-26076951D01*
X129826951Y-26690776D01*
X129344672Y-27412559D01*
X129012472Y-28214560D01*
X128843118Y-29065960D01*
X125056852Y-29065960D01*
X125165921Y-28464941D01*
X125165921Y-27535059D01*
X124999884Y-26620120D01*
X124673147Y-25749531D01*
X124196211Y-24951274D01*
X123584405Y-24251006D01*
X122857394Y-23671234D01*
X122038543Y-23230592D01*
X121154172Y-22943242D01*
X120232705Y-22818421D01*
X119303759Y-22860140D01*
X118397190Y-23067058D01*
X117542137Y-23432525D01*
X116766082Y-23944795D01*
X116093967Y-24587402D01*
X115547396Y-25339693D01*
X115143935Y-26177488D01*
X114896552Y-27073861D01*
X114813198Y-28000000D01*
X106491283Y-28000000D01*
X106583186Y-27961933D01*
X107130610Y-27596156D01*
X107596156Y-27130610D01*
X107961933Y-26583186D01*
X108213884Y-25974921D01*
X108342328Y-25329191D01*
X108342328Y-24670809D01*
X108213884Y-24025079D01*
X107961933Y-23416814D01*
X107596156Y-22869390D01*
X107130610Y-22403844D01*
X106583186Y-22038067D01*
X105974921Y-21786116D01*
X105329191Y-21657672D01*
X104670809Y-21657672D01*
X104025079Y-21786116D01*
X103416814Y-22038067D01*
X102869390Y-22403844D01*
X102403844Y-22869390D01*
X102038067Y-23416814D01*
X101786116Y-24025079D01*
X101657672Y-24670809D01*
X100313500Y-24670809D01*
X100313500Y-20313498D01*
X139686501Y-20313500D01*
G37*
X139686501Y-20313500D02*
X139686500Y-199686500D01*
X100313500Y-199686500D01*
X100313500Y-168036467D01*
X105081963Y-168036467D01*
X105081963Y-168463533D01*
X105165280Y-168882393D01*
X105328711Y-169276951D01*
X105565976Y-169632043D01*
X105867957Y-169934024D01*
X106223049Y-170171289D01*
X106617607Y-170334720D01*
X107036467Y-170418037D01*
X107463533Y-170418037D01*
X107882393Y-170334720D01*
X108276951Y-170171289D01*
X108632043Y-169934024D01*
X108934024Y-169632043D01*
X109171289Y-169276951D01*
X109334720Y-168882393D01*
X109418037Y-168463533D01*
X109418037Y-168036467D01*
X109334720Y-167617607D01*
X109294110Y-167519564D01*
X114508594Y-167519564D01*
X114508594Y-168480436D01*
X114675448Y-169426709D01*
X115004085Y-170329633D01*
X115484521Y-171161772D01*
X116102157Y-171897843D01*
X116838228Y-172515479D01*
X117670367Y-172995915D01*
X118573291Y-173324552D01*
X119519564Y-173491406D01*
X120480436Y-173491406D01*
X121426709Y-173324552D01*
X122329633Y-172995915D01*
X123161772Y-172515479D01*
X123897843Y-171897843D01*
X124515479Y-171161772D01*
X124995915Y-170329633D01*
X125324552Y-169426709D01*
X125491406Y-168480436D01*
X125491406Y-167519564D01*
X125324552Y-166573291D01*
X125131029Y-166041589D01*
X133133972Y-166041589D01*
X133133972Y-166458411D01*
X133215289Y-166867223D01*
X133374800Y-167252315D01*
X133606373Y-167598890D01*
X133901110Y-167893627D01*
X134247685Y-168125200D01*
X134632777Y-168284711D01*
X135041589Y-168366028D01*
X135458411Y-168366028D01*
X135867223Y-168284711D01*
X136252315Y-168125200D01*
X136598890Y-167893627D01*
X136893627Y-167598890D01*
X137125200Y-167252315D01*
X137284711Y-166867223D01*
X137366028Y-166458411D01*
X137366028Y-166041589D01*
X137284711Y-165632777D01*
X137125200Y-165247685D01*
X136893627Y-164901110D01*
X136598890Y-164606373D01*
X136252315Y-164374800D01*
X135867223Y-164215289D01*
X135458411Y-164133972D01*
X135041589Y-164133972D01*
X134632777Y-164215289D01*
X134247685Y-164374800D01*
X133901110Y-164606373D01*
X133606373Y-164901110D01*
X133374800Y-165247685D01*
X133215289Y-165632777D01*
X133133972Y-166041589D01*
X125131029Y-166041589D01*
X124995915Y-165670367D01*
X124515479Y-164838228D01*
X123897843Y-164102157D01*
X123161772Y-163484521D01*
X122329633Y-163004085D01*
X121426709Y-162675448D01*
X120480436Y-162508594D01*
X119519564Y-162508594D01*
X118573291Y-162675448D01*
X117670367Y-163004085D01*
X116838228Y-163484521D01*
X116102157Y-164102157D01*
X115484521Y-164838228D01*
X115004085Y-165670367D01*
X114675448Y-166573291D01*
X114508594Y-167519564D01*
X109294110Y-167519564D01*
X109171289Y-167223049D01*
X108934024Y-166867957D01*
X108632043Y-166565976D01*
X108276951Y-166328711D01*
X107882393Y-166165280D01*
X107463533Y-166081963D01*
X107036467Y-166081963D01*
X106617607Y-166165280D01*
X106223049Y-166328711D01*
X105867957Y-166565976D01*
X105565976Y-166867957D01*
X105328711Y-167223049D01*
X105165280Y-167617607D01*
X105081963Y-168036467D01*
X100313500Y-168036467D01*
X100313500Y-154000000D01*
X103961489Y-154000000D01*
X104048024Y-154906232D01*
X104304500Y-155779710D01*
X104721648Y-156588865D01*
X105284392Y-157304451D01*
X105972391Y-157900606D01*
X106760781Y-158355783D01*
X107621066Y-158653530D01*
X108522153Y-158783087D01*
X109431476Y-158739771D01*
X110316169Y-158525147D01*
X111144256Y-158146972D01*
X111885808Y-157618915D01*
X112514024Y-156960061D01*
X113006198Y-156194223D01*
X113344543Y-155349079D01*
X113516828Y-154455177D01*
X113516828Y-153544823D01*
X113493983Y-153426287D01*
X123594326Y-153426287D01*
X123594326Y-154573713D01*
X123765341Y-155708325D01*
X124103551Y-156804775D01*
X124601401Y-157838570D01*
X125247769Y-158786619D01*
X126028218Y-159627743D01*
X126925312Y-160343152D01*
X127919013Y-160916865D01*
X128987123Y-161336067D01*
X130105782Y-161591394D01*
X131250000Y-161677141D01*
X132394218Y-161591394D01*
X133512877Y-161336067D01*
X134580987Y-160916865D01*
X135574688Y-160343152D01*
X136471782Y-159627743D01*
X137252231Y-158786619D01*
X137898599Y-157838571D01*
X138396449Y-156804775D01*
X138734659Y-155708325D01*
X138905674Y-154573713D01*
X138905674Y-153426287D01*
X138734659Y-152291675D01*
X138396449Y-151195225D01*
X137898599Y-150161430D01*
X137252231Y-149213381D01*
X136471782Y-148372257D01*
X135574688Y-147656848D01*
X134580987Y-147083135D01*
X133512877Y-146663933D01*
X132394218Y-146408606D01*
X131250000Y-146322859D01*
X130105782Y-146408606D01*
X128987123Y-146663933D01*
X127919013Y-147083135D01*
X126925312Y-147656848D01*
X126028218Y-148372257D01*
X125247769Y-149213381D01*
X124601401Y-150161430D01*
X124103551Y-151195225D01*
X123765341Y-152291675D01*
X123594326Y-153426287D01*
X113493983Y-153426287D01*
X113344543Y-152650921D01*
X113006198Y-151805777D01*
X112514024Y-151039939D01*
X111885808Y-150381085D01*
X111144256Y-149853028D01*
X110316169Y-149474853D01*
X109431476Y-149260229D01*
X108522153Y-149216913D01*
X107621066Y-149346470D01*
X106760781Y-149644217D01*
X105972391Y-150099394D01*
X105284392Y-150695549D01*
X104721648Y-151411135D01*
X104304500Y-152220290D01*
X104048024Y-153093768D01*
X103961489Y-154000000D01*
X100313500Y-154000000D01*
X100313500Y-139920809D01*
X102657672Y-139920809D01*
X102657672Y-140579191D01*
X102786116Y-141224921D01*
X103038067Y-141833186D01*
X103403844Y-142380610D01*
X103869390Y-142846156D01*
X104416814Y-143211933D01*
X105025079Y-143463884D01*
X105670809Y-143592328D01*
X106329191Y-143592328D01*
X106974921Y-143463884D01*
X107583186Y-143211933D01*
X108130610Y-142846156D01*
X108596156Y-142380610D01*
X108961933Y-141833186D01*
X109213884Y-141224921D01*
X109342328Y-140579191D01*
X109342328Y-140000000D01*
X112970668Y-140000000D01*
X113053049Y-141073022D01*
X113298260Y-142120894D01*
X113700555Y-143119054D01*
X114250503Y-144044106D01*
X114935215Y-144874367D01*
X115738640Y-145590378D01*
X116641949Y-146175354D01*
X117623967Y-146615586D01*
X118661678Y-146900754D01*
X119730757Y-147024174D01*
X120806148Y-146982953D01*
X121862643Y-146778058D01*
X122875479Y-146414291D01*
X123820917Y-145900178D01*
X124676795Y-145247770D01*
X125423054Y-144472359D01*
X126042200Y-143592120D01*
X126519723Y-142627684D01*
X126844428Y-141601658D01*
X127008707Y-140538090D01*
X127008707Y-139461910D01*
X126844428Y-138398342D01*
X126802958Y-138267301D01*
X131637368Y-138267301D01*
X131637368Y-138732699D01*
X131728162Y-139189154D01*
X131906262Y-139619126D01*
X132164824Y-140006090D01*
X132493910Y-140335176D01*
X132880874Y-140593738D01*
X133310846Y-140771838D01*
X133767301Y-140862632D01*
X134232699Y-140862632D01*
X134689154Y-140771838D01*
X135119126Y-140593738D01*
X135506090Y-140335176D01*
X135835176Y-140006090D01*
X136093738Y-139619126D01*
X136271838Y-139189154D01*
X136362632Y-138732699D01*
X136362632Y-138267301D01*
X136271838Y-137810846D01*
X136093738Y-137380874D01*
X135835176Y-136993910D01*
X135506090Y-136664824D01*
X135119126Y-136406262D01*
X134689154Y-136228162D01*
X134232699Y-136137368D01*
X133767301Y-136137368D01*
X133310846Y-136228162D01*
X132880874Y-136406262D01*
X132493910Y-136664824D01*
X132164824Y-136993910D01*
X131906262Y-137380874D01*
X131728162Y-137810846D01*
X131637368Y-138267301D01*
X126802958Y-138267301D01*
X126519723Y-137372316D01*
X126042200Y-136407880D01*
X125423054Y-135527641D01*
X124676795Y-134752230D01*
X123820917Y-134099822D01*
X122875479Y-133585709D01*
X121862643Y-133221942D01*
X120806148Y-133017047D01*
X119730757Y-132975826D01*
X118661678Y-133099246D01*
X117623967Y-133384414D01*
X116641949Y-133824646D01*
X115738640Y-134409622D01*
X114935215Y-135125633D01*
X114250503Y-135955894D01*
X113700555Y-136880946D01*
X113298260Y-137879106D01*
X113053049Y-138926978D01*
X112970668Y-140000000D01*
X109342328Y-140000000D01*
X109342328Y-139920809D01*
X109213884Y-139275079D01*
X108961933Y-138666814D01*
X108596156Y-138119390D01*
X108130610Y-137653844D01*
X107583186Y-137288067D01*
X106974921Y-137036116D01*
X106329191Y-136907672D01*
X105670809Y-136907672D01*
X105025079Y-137036116D01*
X104416814Y-137288067D01*
X103869390Y-137653844D01*
X103403844Y-138119390D01*
X103038067Y-138666814D01*
X102786116Y-139275079D01*
X102657672Y-139920809D01*
X100313500Y-139920809D01*
X100313500Y-125441824D01*
X101301654Y-125441824D01*
X101301654Y-126558176D01*
X101468038Y-127662060D01*
X101797089Y-128728817D01*
X102281456Y-129734615D01*
X102910320Y-130656989D01*
X103669633Y-131475334D01*
X104542432Y-132171368D01*
X105509222Y-132729545D01*
X106548406Y-133137394D01*
X107636769Y-133385806D01*
X108750000Y-133469231D01*
X109863231Y-133385806D01*
X110951594Y-133137394D01*
X111990778Y-132729545D01*
X112957568Y-132171368D01*
X113830367Y-131475334D01*
X114589680Y-130656989D01*
X115218544Y-129734616D01*
X115702911Y-128728817D01*
X116031962Y-127662060D01*
X116198346Y-126558176D01*
X116198346Y-126000000D01*
X123918337Y-126000000D01*
X124004261Y-127119173D01*
X124260019Y-128212114D01*
X124679616Y-129253204D01*
X125253218Y-130218043D01*
X125967378Y-131084013D01*
X126805360Y-131830819D01*
X127747519Y-132440956D01*
X128771774Y-132900122D01*
X129854117Y-133197555D01*
X130969177Y-133326283D01*
X132090820Y-133283289D01*
X133192755Y-133069582D01*
X134249153Y-132690169D01*
X135235254Y-132153944D01*
X136127944Y-131473477D01*
X136906299Y-130664715D01*
X137552075Y-129746617D01*
X138050135Y-128740701D01*
X138388807Y-127670545D01*
X138560150Y-126561233D01*
X138560150Y-125438767D01*
X138388807Y-124329455D01*
X138050135Y-123259299D01*
X137552075Y-122253383D01*
X136906299Y-121335285D01*
X136127944Y-120526523D01*
X135235254Y-119846056D01*
X134249153Y-119309831D01*
X133192755Y-118930418D01*
X132090820Y-118716711D01*
X130969177Y-118673717D01*
X129854117Y-118802445D01*
X128771774Y-119099878D01*
X127747519Y-119559044D01*
X126805360Y-120169181D01*
X125967378Y-120915987D01*
X125253218Y-121781957D01*
X124679616Y-122746796D01*
X124260019Y-123787886D01*
X124004261Y-124880827D01*
X123918337Y-126000000D01*
X116198346Y-126000000D01*
X116198346Y-125441824D01*
X116031962Y-124337940D01*
X115702911Y-123271183D01*
X115218544Y-122265385D01*
X114589680Y-121343011D01*
X113830367Y-120524666D01*
X112957568Y-119828632D01*
X111990778Y-119270455D01*
X110951594Y-118862606D01*
X109863231Y-118614194D01*
X108750000Y-118530769D01*
X107636769Y-118614194D01*
X106548406Y-118862606D01*
X105509222Y-119270455D01*
X104542432Y-119828632D01*
X103669633Y-120524666D01*
X102910320Y-121343011D01*
X102281456Y-122265385D01*
X101797089Y-123271183D01*
X101468038Y-124337940D01*
X101301654Y-125441824D01*
X100313500Y-125441824D01*
X100313500Y-113071978D01*
X107192508Y-113071978D01*
X107192508Y-113428022D01*
X107261969Y-113777226D01*
X107398221Y-114106169D01*
X107596029Y-114402209D01*
X107847791Y-114653971D01*
X108143831Y-114851779D01*
X108472774Y-114988031D01*
X108821978Y-115057492D01*
X109178022Y-115057492D01*
X109527226Y-114988031D01*
X109856169Y-114851779D01*
X110152209Y-114653971D01*
X110403971Y-114402209D01*
X110601779Y-114106169D01*
X110738031Y-113777226D01*
X110807492Y-113428022D01*
X110807492Y-113071978D01*
X110738031Y-112722774D01*
X110601779Y-112393831D01*
X110403971Y-112097791D01*
X110152209Y-111846029D01*
X109889975Y-111670809D01*
X116657672Y-111670809D01*
X116657672Y-112329191D01*
X116786116Y-112974921D01*
X117038067Y-113583186D01*
X117403844Y-114130610D01*
X117869390Y-114596156D01*
X118416814Y-114961933D01*
X119025079Y-115213884D01*
X119670809Y-115342328D01*
X120329191Y-115342328D01*
X120974921Y-115213884D01*
X121583186Y-114961933D01*
X122130610Y-114596156D01*
X122596156Y-114130610D01*
X122961933Y-113583186D01*
X123213884Y-112974921D01*
X123342328Y-112329191D01*
X123342328Y-111670809D01*
X123213884Y-111025079D01*
X122961933Y-110416814D01*
X122596156Y-109869390D01*
X122130610Y-109403844D01*
X121583186Y-109038067D01*
X120974921Y-108786116D01*
X120329191Y-108657672D01*
X119670809Y-108657672D01*
X119025079Y-108786116D01*
X118416814Y-109038067D01*
X117869390Y-109403844D01*
X117403844Y-109869390D01*
X117038067Y-110416814D01*
X116786116Y-111025079D01*
X116657672Y-111670809D01*
X109889975Y-111670809D01*
X109856169Y-111648221D01*
X109527226Y-111511969D01*
X109178022Y-111442508D01*
X108821978Y-111442508D01*
X108472774Y-111511969D01*
X108143831Y-111648221D01*
X107847791Y-111846029D01*
X107596029Y-112097791D01*
X107398221Y-112393831D01*
X107261969Y-112722774D01*
X107192508Y-113071978D01*
X100313500Y-113071978D01*
X100313500Y-108059882D01*
X129819701Y-108059882D01*
X129819701Y-108440118D01*
X129893881Y-108813047D01*
X130039391Y-109164339D01*
X130250639Y-109480494D01*
X130519506Y-109749361D01*
X130835661Y-109960609D01*
X131186953Y-110106119D01*
X131559882Y-110180299D01*
X131940118Y-110180299D01*
X132313047Y-110106119D01*
X132664339Y-109960609D01*
X132980494Y-109749361D01*
X133249361Y-109480494D01*
X133460609Y-109164339D01*
X133606119Y-108813047D01*
X133680299Y-108440118D01*
X133680299Y-108059882D01*
X133606119Y-107686953D01*
X133460609Y-107335661D01*
X133249361Y-107019506D01*
X132980494Y-106750639D01*
X132664339Y-106539391D01*
X132313047Y-106393881D01*
X131940118Y-106319701D01*
X131559882Y-106319701D01*
X131186953Y-106393881D01*
X130835661Y-106539391D01*
X130519506Y-106750639D01*
X130250639Y-107019506D01*
X130039391Y-107335661D01*
X129893881Y-107686953D01*
X129819701Y-108059882D01*
X100313500Y-108059882D01*
X100313500Y-97426287D01*
X101094326Y-97426287D01*
X101094326Y-98573713D01*
X101265341Y-99708325D01*
X101603551Y-100804775D01*
X102101401Y-101838570D01*
X102747769Y-102786619D01*
X103528218Y-103627743D01*
X104425312Y-104343152D01*
X105419013Y-104916865D01*
X106487123Y-105336067D01*
X107605782Y-105591394D01*
X108750000Y-105677141D01*
X109894218Y-105591394D01*
X111012877Y-105336067D01*
X112080987Y-104916865D01*
X113074688Y-104343152D01*
X113971782Y-103627743D01*
X114752231Y-102786619D01*
X115398599Y-101838571D01*
X115896449Y-100804775D01*
X116234659Y-99708325D01*
X116405674Y-98573713D01*
X116405674Y-97572792D01*
X126912487Y-97572792D01*
X126912487Y-98427208D01*
X127079176Y-99265206D01*
X127406146Y-100054583D01*
X127880834Y-100765003D01*
X128484997Y-101369166D01*
X129195417Y-101843854D01*
X129984794Y-102170824D01*
X130822792Y-102337513D01*
X131677208Y-102337513D01*
X132515206Y-102170824D01*
X133304583Y-101843854D01*
X134015003Y-101369166D01*
X134619166Y-100765003D01*
X135093854Y-100054583D01*
X135420824Y-99265206D01*
X135587513Y-98427208D01*
X135587513Y-97572792D01*
X135420824Y-96734794D01*
X135093854Y-95945417D01*
X134619166Y-95234997D01*
X134015003Y-94630834D01*
X133304583Y-94156146D01*
X132515206Y-93829176D01*
X131677208Y-93662487D01*
X130822792Y-93662487D01*
X129984794Y-93829176D01*
X129195417Y-94156146D01*
X128484997Y-94630834D01*
X127880834Y-95234997D01*
X127406146Y-95945417D01*
X127079176Y-96734794D01*
X126912487Y-97572792D01*
X116405674Y-97572792D01*
X116405674Y-97426287D01*
X116234659Y-96291675D01*
X115896449Y-95195225D01*
X115398599Y-94161430D01*
X114752231Y-93213381D01*
X113971782Y-92372257D01*
X113074688Y-91656848D01*
X112080987Y-91083135D01*
X111012877Y-90663933D01*
X109894218Y-90408606D01*
X108750000Y-90322859D01*
X107605782Y-90408606D01*
X106487123Y-90663933D01*
X105419013Y-91083135D01*
X104425312Y-91656848D01*
X103528218Y-92372257D01*
X102747769Y-93213381D01*
X102101401Y-94161430D01*
X101603551Y-95195225D01*
X101265341Y-96291675D01*
X101094326Y-97426287D01*
X100313500Y-97426287D01*
X100313500Y-86469818D01*
X126405264Y-86469818D01*
X126405264Y-87030182D01*
X126514586Y-87579779D01*
X126729028Y-88097488D01*
X127040350Y-88563413D01*
X127436587Y-88959650D01*
X127902512Y-89270972D01*
X128420221Y-89485414D01*
X128969818Y-89594736D01*
X129530182Y-89594736D01*
X130079779Y-89485414D01*
X130597488Y-89270972D01*
X131063413Y-88959650D01*
X131459650Y-88563413D01*
X131770972Y-88097488D01*
X131985414Y-87579779D01*
X132094736Y-87030182D01*
X132094736Y-86469818D01*
X131985414Y-85920221D01*
X131770972Y-85402512D01*
X131459650Y-84936587D01*
X131063413Y-84540350D01*
X130597488Y-84229028D01*
X130079779Y-84014586D01*
X129530182Y-83905264D01*
X128969818Y-83905264D01*
X128420221Y-84014586D01*
X127902512Y-84229028D01*
X127436587Y-84540350D01*
X127040350Y-84936587D01*
X126729028Y-85402512D01*
X126514586Y-85920221D01*
X126405264Y-86469818D01*
X100313500Y-86469818D01*
X100313500Y-83518827D01*
X105402857Y-83518827D01*
X105402857Y-83981173D01*
X105493056Y-84434636D01*
X105669989Y-84861789D01*
X105926855Y-85246217D01*
X106253783Y-85573145D01*
X106638211Y-85830011D01*
X107065364Y-86006944D01*
X107518827Y-86097143D01*
X107981173Y-86097143D01*
X108434636Y-86006944D01*
X108861789Y-85830011D01*
X109246217Y-85573145D01*
X109573145Y-85246217D01*
X109830011Y-84861789D01*
X110006944Y-84434636D01*
X110097143Y-83981173D01*
X110097143Y-83518827D01*
X110006944Y-83065364D01*
X109830011Y-82638211D01*
X109573145Y-82253783D01*
X109246217Y-81926855D01*
X108861789Y-81669989D01*
X108434636Y-81493056D01*
X107981173Y-81402857D01*
X107518827Y-81402857D01*
X107065364Y-81493056D01*
X106638211Y-81669989D01*
X106253783Y-81926855D01*
X105926855Y-82253783D01*
X105669989Y-82638211D01*
X105493056Y-83065364D01*
X105402857Y-83518827D01*
X100313500Y-83518827D01*
X100313500Y-80118318D01*
X115124717Y-80118318D01*
X115124717Y-80881682D01*
X115273642Y-81630378D01*
X115565769Y-82335635D01*
X115989871Y-82970349D01*
X116529651Y-83510129D01*
X117164365Y-83934231D01*
X117869622Y-84226358D01*
X118618318Y-84375283D01*
X119381682Y-84375283D01*
X120130378Y-84226358D01*
X120835635Y-83934231D01*
X121470349Y-83510129D01*
X122010129Y-82970349D01*
X122434231Y-82335635D01*
X122726358Y-81630378D01*
X122875283Y-80881682D01*
X122875283Y-80118318D01*
X122726358Y-79369622D01*
X122434231Y-78664365D01*
X122010129Y-78029651D01*
X121470349Y-77489871D01*
X120835635Y-77065769D01*
X120130378Y-76773642D01*
X119381682Y-76624717D01*
X118618318Y-76624717D01*
X117869622Y-76773642D01*
X117164365Y-77065769D01*
X116529651Y-77489871D01*
X115989871Y-78029651D01*
X115565769Y-78664365D01*
X115273642Y-79369622D01*
X115124717Y-80118318D01*
X100313500Y-80118318D01*
X100313500Y-69547568D01*
X104156380Y-69547568D01*
X104156380Y-70452432D01*
X104332910Y-71339910D01*
X104679186Y-72175895D01*
X105181902Y-72928262D01*
X105821738Y-73568098D01*
X106574105Y-74070814D01*
X107410090Y-74417090D01*
X108297568Y-74593620D01*
X109202432Y-74593620D01*
X110089910Y-74417090D01*
X110925895Y-74070814D01*
X111678262Y-73568098D01*
X112318098Y-72928262D01*
X112820814Y-72175895D01*
X113167090Y-71339910D01*
X113343620Y-70452432D01*
X113343620Y-69596481D01*
X126903000Y-69596481D01*
X126903000Y-70403519D01*
X127060445Y-71195051D01*
X127369285Y-71940657D01*
X127817652Y-72611685D01*
X128388315Y-73182348D01*
X129059343Y-73630715D01*
X129804949Y-73939555D01*
X130596481Y-74097000D01*
X131403519Y-74097000D01*
X132195051Y-73939555D01*
X132940657Y-73630715D01*
X133611685Y-73182348D01*
X134182348Y-72611685D01*
X134630715Y-71940657D01*
X134939555Y-71195051D01*
X135097000Y-70403519D01*
X135097000Y-69596481D01*
X134939555Y-68804949D01*
X134630715Y-68059343D01*
X134182348Y-67388315D01*
X133611685Y-66817652D01*
X132940657Y-66369285D01*
X132195051Y-66060445D01*
X131403519Y-65903000D01*
X130596481Y-65903000D01*
X129804949Y-66060445D01*
X129059343Y-66369285D01*
X128388315Y-66817652D01*
X127817652Y-67388315D01*
X127369285Y-68059343D01*
X127060445Y-68804949D01*
X126903000Y-69596481D01*
X113343620Y-69596481D01*
X113343620Y-69547568D01*
X113167090Y-68660090D01*
X112820814Y-67824105D01*
X112318098Y-67071738D01*
X111678262Y-66431902D01*
X110925895Y-65929186D01*
X110089910Y-65582910D01*
X109202432Y-65406380D01*
X108297568Y-65406380D01*
X107410090Y-65582910D01*
X106574105Y-65929186D01*
X105821738Y-66431902D01*
X105181902Y-67071738D01*
X104679186Y-67824105D01*
X104332910Y-68660090D01*
X104156380Y-69547568D01*
X100313500Y-69547568D01*
X100313500Y-59420809D01*
X101407672Y-59420809D01*
X101407672Y-60079191D01*
X101536116Y-60724921D01*
X101788067Y-61333186D01*
X102153844Y-61880610D01*
X102619390Y-62346156D01*
X103166814Y-62711933D01*
X103775079Y-62963884D01*
X104420809Y-63092328D01*
X105079191Y-63092328D01*
X105724921Y-62963884D01*
X106333186Y-62711933D01*
X106880610Y-62346156D01*
X107346156Y-61880610D01*
X107711933Y-61333186D01*
X107963884Y-60724921D01*
X108092328Y-60079191D01*
X108092328Y-59420809D01*
X107963884Y-58775079D01*
X107711933Y-58166814D01*
X107346156Y-57619390D01*
X106880610Y-57153844D01*
X106333186Y-56788067D01*
X105724921Y-56536116D01*
X105079191Y-56407672D01*
X104420809Y-56407672D01*
X103775079Y-56536116D01*
X103166814Y-56788067D01*
X102619390Y-57153844D01*
X102153844Y-57619390D01*
X101788067Y-58166814D01*
X101536116Y-58775079D01*
X101407672Y-59420809D01*
X100313500Y-59420809D01*
X100313500Y-56000000D01*
X114135821Y-56000000D01*
X114220172Y-56991051D01*
X114470798Y-57953591D01*
X114880489Y-58859930D01*
X115437459Y-59683995D01*
X116125685Y-60402077D01*
X116925368Y-60993519D01*
X117813503Y-61441307D01*
X118764539Y-61732559D01*
X119751117Y-61858895D01*
X120744855Y-61816682D01*
X121717165Y-61607133D01*
X122640075Y-61236277D01*
X123487035Y-60714783D01*
X124233680Y-60057653D01*
X124858529Y-59283792D01*
X125336577Y-58428046D01*
X130731142Y-58428046D01*
X130731142Y-59071954D01*
X130856762Y-59703491D01*
X131103175Y-60298385D01*
X131460912Y-60833776D01*
X131916224Y-61289088D01*
X132451615Y-61646825D01*
X133046509Y-61893238D01*
X133678046Y-62018858D01*
X134321954Y-62018858D01*
X134953491Y-61893238D01*
X135548385Y-61646825D01*
X136083776Y-61289088D01*
X136539088Y-60833776D01*
X136896825Y-60298385D01*
X137143238Y-59703491D01*
X137268858Y-59071954D01*
X137268858Y-58428046D01*
X137143238Y-57796509D01*
X136896825Y-57201615D01*
X136539088Y-56666224D01*
X136083776Y-56210912D01*
X135548385Y-55853175D01*
X134953491Y-55606762D01*
X134321954Y-55481142D01*
X133678046Y-55481142D01*
X133046509Y-55606762D01*
X132451615Y-55853175D01*
X131916224Y-56210912D01*
X131460912Y-56666224D01*
X131103175Y-57201615D01*
X130856762Y-57796509D01*
X130731142Y-58428046D01*
X125336577Y-58428046D01*
X125343607Y-58415463D01*
X125674959Y-57477644D01*
X125843053Y-56497317D01*
X125843053Y-55502683D01*
X125674959Y-54522356D01*
X125343607Y-53584537D01*
X124858529Y-52716208D01*
X124233680Y-51942347D01*
X123487035Y-51285217D01*
X122640075Y-50763723D01*
X121717165Y-50392867D01*
X120744855Y-50183318D01*
X119751117Y-50141105D01*
X118764539Y-50267441D01*
X117813503Y-50558693D01*
X116925368Y-51006481D01*
X116125685Y-51597923D01*
X115437459Y-52316005D01*
X114880489Y-53140070D01*
X114470798Y-54046409D01*
X114220172Y-55008949D01*
X114135821Y-56000000D01*
X100313500Y-56000000D01*
X100313500Y-42000000D01*
X100854093Y-42000000D01*
X100938237Y-43149653D01*
X101188875Y-44274804D01*
X101600665Y-45351471D01*
X102164831Y-46356707D01*
X102869348Y-47269087D01*
X103699201Y-48069166D01*
X104636704Y-48739892D01*
X105661873Y-49266968D01*
X106752862Y-49639161D01*
X107886415Y-49848539D01*
X109038374Y-49890639D01*
X110184188Y-49764564D01*
X111299434Y-49473000D01*
X112360343Y-49022163D01*
X113344304Y-48421660D01*
X114230345Y-47684291D01*
X114999583Y-46825771D01*
X115635621Y-45864398D01*
X116124904Y-44820662D01*
X116457004Y-43716808D01*
X116624843Y-42576364D01*
X116624843Y-41569741D01*
X126881508Y-41569741D01*
X126881508Y-42430259D01*
X127049387Y-43274242D01*
X127378693Y-44069257D01*
X127856771Y-44784751D01*
X128465249Y-45393229D01*
X129180743Y-45871307D01*
X129975758Y-46200613D01*
X130819741Y-46368492D01*
X131680259Y-46368492D01*
X132524242Y-46200613D01*
X133319257Y-45871307D01*
X134034751Y-45393229D01*
X134643229Y-44784751D01*
X135121307Y-44069257D01*
X135450613Y-43274242D01*
X135618492Y-42430259D01*
X135618492Y-41569741D01*
X135450613Y-40725758D01*
X135121307Y-39930743D01*
X134643229Y-39215249D01*
X134034751Y-38606771D01*
X133319257Y-38128693D01*
X132524242Y-37799387D01*
X131680259Y-37631508D01*
X130819741Y-37631508D01*
X129975758Y-37799387D01*
X129180743Y-38128693D01*
X128465249Y-38606771D01*
X127856771Y-39215249D01*
X127378693Y-39930743D01*
X127049387Y-40725758D01*
X126881508Y-41569741D01*
X116624843Y-41569741D01*
X116624843Y-41423636D01*
X116457004Y-40283192D01*
X116124904Y-39179338D01*
X115635621Y-38135602D01*
X114999583Y-37174229D01*
X114230345Y-36315709D01*
X113344304Y-35578340D01*
X112360343Y-34977837D01*
X111299434Y-34527000D01*
X110184188Y-34235436D01*
X109038374Y-34109361D01*
X107886415Y-34151461D01*
X106752862Y-34360839D01*
X105661873Y-34733032D01*
X104636704Y-35260108D01*
X103699201Y-35930834D01*
X102869348Y-36730913D01*
X102164831Y-37643293D01*
X101600665Y-38648529D01*
X101188875Y-39725196D01*
X100938237Y-40850347D01*
X100854093Y-42000000D01*
X100313500Y-42000000D01*
X100313500Y-24670809D01*
X101657672Y-24670809D01*
X101657672Y-25329191D01*
X101786116Y-25974921D01*
X102038067Y-26583186D01*
X102403844Y-27130610D01*
X102869390Y-27596156D01*
X103416814Y-27961933D01*
X104025079Y-28213884D01*
X104670809Y-28342328D01*
X105329191Y-28342328D01*
X105974921Y-28213884D01*
X106491283Y-28000000D01*
X114813198Y-28000000D01*
X114896552Y-28926139D01*
X115143935Y-29822512D01*
X115547396Y-30660307D01*
X116093967Y-31412598D01*
X116766082Y-32055205D01*
X117542137Y-32567475D01*
X118397190Y-32932942D01*
X119303759Y-33139860D01*
X120232705Y-33181579D01*
X121154172Y-33056758D01*
X122038543Y-32769408D01*
X122857394Y-32328766D01*
X123584405Y-31748994D01*
X124196211Y-31048726D01*
X124673147Y-30250469D01*
X124999884Y-29379880D01*
X125056852Y-29065960D01*
X128843118Y-29065960D01*
X128843118Y-29934040D01*
X129012472Y-30785440D01*
X129344672Y-31587441D01*
X129826951Y-32309224D01*
X130440776Y-32923049D01*
X131162559Y-33405328D01*
X131964560Y-33737528D01*
X132815960Y-33906882D01*
X133684040Y-33906882D01*
X134535440Y-33737528D01*
X135337441Y-33405328D01*
X136059224Y-32923049D01*
X136673049Y-32309224D01*
X137155328Y-31587441D01*
X137487528Y-30785440D01*
X137656882Y-29934040D01*
X137656882Y-29065960D01*
X137487528Y-28214560D01*
X137155328Y-27412559D01*
X136673049Y-26690776D01*
X136059224Y-26076951D01*
X135337441Y-25594672D01*
X134535440Y-25262472D01*
X133684040Y-25093118D01*
X132815960Y-25093118D01*
X131964560Y-25262472D01*
X131162559Y-25594672D01*
X130440776Y-26076951D01*
X129826951Y-26690776D01*
X129344672Y-27412559D01*
X129012472Y-28214560D01*
X128843118Y-29065960D01*
X125056852Y-29065960D01*
X125165921Y-28464941D01*
X125165921Y-27535059D01*
X124999884Y-26620120D01*
X124673147Y-25749531D01*
X124196211Y-24951274D01*
X123584405Y-24251006D01*
X122857394Y-23671234D01*
X122038543Y-23230592D01*
X121154172Y-22943242D01*
X120232705Y-22818421D01*
X119303759Y-22860140D01*
X118397190Y-23067058D01*
X117542137Y-23432525D01*
X116766082Y-23944795D01*
X116093967Y-24587402D01*
X115547396Y-25339693D01*
X115143935Y-26177488D01*
X114896552Y-27073861D01*
X114813198Y-28000000D01*
X106491283Y-28000000D01*
X106583186Y-27961933D01*
X107130610Y-27596156D01*
X107596156Y-27130610D01*
X107961933Y-26583186D01*
X108213884Y-25974921D01*
X108342328Y-25329191D01*
X108342328Y-24670809D01*
X108213884Y-24025079D01*
X107961933Y-23416814D01*
X107596156Y-22869390D01*
X107130610Y-22403844D01*
X106583186Y-22038067D01*
X105974921Y-21786116D01*
X105329191Y-21657672D01*
X104670809Y-21657672D01*
X104025079Y-21786116D01*
X103416814Y-22038067D01*
X102869390Y-22403844D01*
X102403844Y-22869390D01*
X102038067Y-23416814D01*
X101786116Y-24025079D01*
X101657672Y-24670809D01*
X100313500Y-24670809D01*
X100313500Y-20313498D01*
X139686501Y-20313500D01*
M02*
