G04 #@! TF.GenerationSoftware,KiCad,Pcbnew,5.1.5+dfsg1-2build2*
G04 #@! TF.CreationDate,2021-12-29T18:43:09+01:00*
G04 #@! TF.ProjectId,wall,77616c6c-2e6b-4696-9361-645f70636258,rev?*
G04 #@! TF.SameCoordinates,Original*
G04 #@! TF.FileFunction,Soldermask,Bot*
G04 #@! TF.FilePolarity,Negative*
%FSLAX46Y46*%
G04 Gerber Fmt 4.6, Leading zero omitted, Abs format (unit mm)*
G04 Created by KiCad (PCBNEW 5.1.5+dfsg1-2build2) date 2021-12-29 18:43:09*
%MOMM*%
%LPD*%
G04 APERTURE LIST*
%ADD10R,0.890000X2.030000*%
%ADD11R,0.500000X0.600000*%
%ADD12R,1.000000X1.500000*%
%ADD13R,1.500000X1.000000*%
%ADD14R,0.600000X0.500000*%
%ADD15C,0.100000*%
G04 APERTURE END LIST*
D10*
X126250000Y-28515000D03*
X128250000Y-28515000D03*
D11*
X114190000Y-22000000D03*
X113250000Y-22000000D03*
X134970000Y-22000000D03*
X134030000Y-22000000D03*
D12*
X109800000Y-27550000D03*
X113000000Y-27550000D03*
X109800000Y-32450000D03*
X113000000Y-32450000D03*
D13*
X123750000Y-36800000D03*
X123750000Y-33600000D03*
X128650000Y-36800000D03*
X128650000Y-33600000D03*
X117750000Y-42600000D03*
X117750000Y-39400000D03*
X122650000Y-42600000D03*
X122650000Y-39400000D03*
X121350000Y-48400000D03*
X121350000Y-45200000D03*
X126250000Y-48400000D03*
X126250000Y-45200000D03*
X133350000Y-52200000D03*
X133350000Y-49000000D03*
X138250000Y-52200000D03*
X138250000Y-49000000D03*
D12*
X127000000Y-50950000D03*
X130200000Y-50950000D03*
X127000000Y-55850000D03*
X130200000Y-55850000D03*
D13*
X101850000Y-54600000D03*
X101850000Y-51400000D03*
X106750000Y-54600000D03*
X106750000Y-51400000D03*
D12*
X109800000Y-53350000D03*
X113000000Y-53350000D03*
X109800000Y-58250000D03*
X113000000Y-58250000D03*
D13*
X125150000Y-64200000D03*
X125150000Y-61000000D03*
X130050000Y-64200000D03*
X130050000Y-61000000D03*
X109300000Y-64100000D03*
X109300000Y-60900000D03*
X114200000Y-64100000D03*
X114200000Y-60900000D03*
D12*
X135600000Y-62750000D03*
X138800000Y-62750000D03*
X135600000Y-67650000D03*
X138800000Y-67650000D03*
D13*
X121050000Y-69850000D03*
X121050000Y-66650000D03*
X125950000Y-69850000D03*
X125950000Y-66650000D03*
D12*
X114900000Y-67050000D03*
X118100000Y-67050000D03*
X114900000Y-71950000D03*
X118100000Y-71950000D03*
D13*
X121050000Y-75600000D03*
X121050000Y-72400000D03*
X125950000Y-75600000D03*
X125950000Y-72400000D03*
D12*
X110650000Y-75800000D03*
X113850000Y-75800000D03*
X110650000Y-80700000D03*
X113850000Y-80700000D03*
X101650000Y-75550000D03*
X104850000Y-75550000D03*
X101650000Y-80450000D03*
X104850000Y-80450000D03*
X101650000Y-159050000D03*
X104850000Y-159050000D03*
X101650000Y-163950000D03*
X104850000Y-163950000D03*
D14*
X116300000Y-122730000D03*
X116300000Y-123670000D03*
X116000000Y-131330000D03*
X116000000Y-132270000D03*
X105800000Y-147330000D03*
X105800000Y-148270000D03*
X126400000Y-144530000D03*
X126400000Y-145470000D03*
X115500000Y-158530000D03*
X115500000Y-159470000D03*
X115600000Y-154130000D03*
X115600000Y-155070000D03*
X116400000Y-93730000D03*
X116400000Y-94670000D03*
X109500000Y-87230000D03*
X109500000Y-88170000D03*
D11*
X102870000Y-73800000D03*
X101930000Y-73800000D03*
D14*
X106800000Y-163530000D03*
X106800000Y-164470000D03*
D11*
X126270000Y-119200000D03*
X125330000Y-119200000D03*
D14*
X118200000Y-88930000D03*
X118200000Y-89870000D03*
D11*
X112870000Y-74200000D03*
X111930000Y-74200000D03*
X136670000Y-119200000D03*
X135730000Y-119200000D03*
X135800000Y-94200000D03*
X134860000Y-94200000D03*
X128070000Y-163000000D03*
X127130000Y-163000000D03*
X102070000Y-157200000D03*
X101130000Y-157200000D03*
D13*
X132800000Y-82850000D03*
X132800000Y-79650000D03*
X137700000Y-82850000D03*
X137700000Y-79650000D03*
X124050000Y-82850000D03*
X124050000Y-79650000D03*
X128950000Y-82850000D03*
X128950000Y-79650000D03*
X111200000Y-88450000D03*
X111200000Y-85250000D03*
X116100000Y-88450000D03*
X116100000Y-85250000D03*
X119800000Y-89850000D03*
X119800000Y-86650000D03*
X124700000Y-89850000D03*
X124700000Y-86650000D03*
X133550000Y-92350000D03*
X133550000Y-89150000D03*
X138450000Y-92350000D03*
X138450000Y-89150000D03*
X118050000Y-95850000D03*
X118050000Y-92650000D03*
X122950000Y-95850000D03*
X122950000Y-92650000D03*
X120550000Y-102100000D03*
X120550000Y-98900000D03*
X125450000Y-102100000D03*
X125450000Y-98900000D03*
D12*
X135150000Y-103550000D03*
X138350000Y-103550000D03*
X135150000Y-108450000D03*
X138350000Y-108450000D03*
D15*
G36*
X112502335Y-105222182D02*
G01*
X113209441Y-104515076D01*
X114270101Y-105575736D01*
X113562995Y-106282842D01*
X112502335Y-105222182D01*
G37*
G36*
X114765076Y-102959441D02*
G01*
X115472182Y-102252335D01*
X116532842Y-103312995D01*
X115825736Y-104020101D01*
X114765076Y-102959441D01*
G37*
G36*
X115967158Y-108687005D02*
G01*
X116674264Y-107979899D01*
X117734924Y-109040559D01*
X117027818Y-109747665D01*
X115967158Y-108687005D01*
G37*
G36*
X118229899Y-106424264D02*
G01*
X118937005Y-105717158D01*
X119997665Y-106777818D01*
X119290559Y-107484924D01*
X118229899Y-106424264D01*
G37*
D12*
X124900000Y-106050000D03*
X128100000Y-106050000D03*
X124900000Y-110950000D03*
X128100000Y-110950000D03*
D13*
X101800000Y-110350000D03*
X101800000Y-107150000D03*
X106700000Y-110350000D03*
X106700000Y-107150000D03*
X101300000Y-117100000D03*
X101300000Y-113900000D03*
X106200000Y-117100000D03*
X106200000Y-113900000D03*
D12*
X111900000Y-112300000D03*
X115100000Y-112300000D03*
X111900000Y-117200000D03*
X115100000Y-117200000D03*
D13*
X133550000Y-117350000D03*
X133550000Y-114150000D03*
X138450000Y-117350000D03*
X138450000Y-114150000D03*
X125550000Y-117350000D03*
X125550000Y-114150000D03*
X130450000Y-117350000D03*
X130450000Y-114150000D03*
X117800000Y-119850000D03*
X117800000Y-116650000D03*
X122700000Y-119850000D03*
X122700000Y-116650000D03*
X117800000Y-125850000D03*
X117800000Y-122650000D03*
X122700000Y-125850000D03*
X122700000Y-122650000D03*
X117800000Y-131850000D03*
X117800000Y-128650000D03*
X122700000Y-131850000D03*
X122700000Y-128650000D03*
X128050000Y-145100000D03*
X128050000Y-141900000D03*
X132950000Y-145100000D03*
X132950000Y-141900000D03*
X107550000Y-147850000D03*
X107550000Y-144650000D03*
X112450000Y-147850000D03*
X112450000Y-144650000D03*
X117300000Y-154600000D03*
X117300000Y-151400000D03*
X122200000Y-154600000D03*
X122200000Y-151400000D03*
X117300000Y-160850000D03*
X117300000Y-157650000D03*
X122200000Y-160850000D03*
X122200000Y-157650000D03*
X108550000Y-164100000D03*
X108550000Y-160900000D03*
X113450000Y-164100000D03*
X113450000Y-160900000D03*
D12*
X127650000Y-164800000D03*
X130850000Y-164800000D03*
X127650000Y-169700000D03*
X130850000Y-169700000D03*
D14*
X123400000Y-63330000D03*
X123400000Y-64270000D03*
D11*
X116870000Y-65400000D03*
X115930000Y-65400000D03*
D14*
X107600000Y-63130000D03*
X107600000Y-64070000D03*
D11*
X110870000Y-51600000D03*
X109930000Y-51600000D03*
X129070000Y-49200000D03*
X128130000Y-49200000D03*
X134270000Y-54000000D03*
X133330000Y-54000000D03*
X102670000Y-56400000D03*
X101730000Y-56400000D03*
X125470000Y-38800000D03*
X124530000Y-38800000D03*
D14*
X119600000Y-47330000D03*
X119600000Y-48270000D03*
D11*
X118670000Y-44600000D03*
X117730000Y-44600000D03*
D14*
X127800000Y-65930000D03*
X127800000Y-66870000D03*
D11*
X136270000Y-101900000D03*
X135330000Y-101900000D03*
D14*
X119400000Y-74330000D03*
X119400000Y-75270000D03*
D11*
X137770000Y-61200000D03*
X136830000Y-61200000D03*
X125470000Y-84600000D03*
X124530000Y-84600000D03*
X102670000Y-112100000D03*
X101730000Y-112100000D03*
X134070000Y-84600000D03*
X133130000Y-84600000D03*
X102470000Y-118800000D03*
X101530000Y-118800000D03*
X125870000Y-104400000D03*
X124930000Y-104400000D03*
X112470000Y-110600000D03*
X111530000Y-110600000D03*
D15*
G36*
X112343431Y-107367695D02*
G01*
X112767695Y-106943431D01*
X113121249Y-107296985D01*
X112696985Y-107721249D01*
X112343431Y-107367695D01*
G37*
G36*
X111678751Y-106703015D02*
G01*
X112103015Y-106278751D01*
X112456569Y-106632305D01*
X112032305Y-107056569D01*
X111678751Y-106703015D01*
G37*
D14*
X118800000Y-101130000D03*
X118800000Y-102070000D03*
X116200000Y-119130000D03*
X116200000Y-120070000D03*
D11*
X111670000Y-25800000D03*
X110730000Y-25800000D03*
D10*
X125000000Y-183985000D03*
X123000000Y-183985000D03*
X121000000Y-183985000D03*
X119000000Y-183985000D03*
X117000000Y-183985000D03*
X115000000Y-183985000D03*
M02*
