M48
; DRILL file {KiCad 5.1.5+dfsg1-2build2} date Wed 29 Dec 2021 07:23:43 PM CET
; FORMAT={-:-/ absolute / metric / decimal}
; #@! TF.CreationDate,2021-12-29T19:23:43+01:00
; #@! TF.GenerationSoftware,Kicad,Pcbnew,5.1.5+dfsg1-2build2
; #@! TF.FileFunction,Plated,1,2,PTH
FMAT,2
METRIC
T1C0.400
%
G90
G05
T1
X101.6Y-181.2
X101.8Y-173.4
X102.8Y-167.4
X103.5Y-77.5
X104.0Y-54.0
X104.0Y-110.5
X104.0Y-116.0
X104.6Y-188.4
X105.0Y-107.5
X105.0Y-161.5
X109.6Y-181.0
X110.0Y-146.0
X110.5Y-62.5
X111.5Y-28.5
X111.5Y-54.5
X112.0Y-162.5
X112.5Y-77.5
X113.0Y-87.0
X113.5Y-111.5
X113.5Y-117.0
X114.6Y-187.2
X115.5Y-107.0
X116.5Y-68.5
X119.0Y-124.5
X119.5Y-42.5
X119.5Y-94.5
X119.5Y-130.0
X119.5Y-153.5
X120.0Y-117.0
X120.0Y-159.5
X121.5Y-88.0
X122.0Y-74.0
X122.5Y-100.5
X123.5Y-46.5
X124.0Y-67.0
X126.0Y-36.5
X126.0Y-62.5
X126.2Y-186.2
X126.5Y-83.0
X126.5Y-105.5
X127.5Y-109.0
X127.5Y-118.0
X128.0Y-53.0
X129.0Y-114.0
X129.0Y-143.5
X129.5Y-166.0
X134.8Y-182.8
X135.0Y-83.0
X136.0Y-52.5
X136.0Y-117.5
X136.5Y-115.0
X137.0Y-63.0
X137.5Y-106.0
X138.6Y-185.6
T0
M30
